<svg width="100" height="60" viewBox="0 0 100 60" fill="none" xmlns="http://www.w3.org/2000/svg">
<path d="M69 0L100 8V46H69V0Z" fill="#F2A722"/>
<path d="M31 60L0 52V14H31V60Z" fill="#F2A722"/>
<path d="M0 8H100V52H0V8Z" fill="#C37316"/>
<path d="M4.90358 43.0693L4.90358 44.5588L9.50526 44.5588C11.0737 44.5588 12.139 43.3998 12.139 41.5749C12.139 39.7549 11.0737 38.5959 9.50526 38.5959L4.90358 38.5959L4.90358 40.0854L9.35729 40.0854C10.2697 40.0854 10.8665 40.623 10.8665 41.5749C10.8665 42.5317 10.2697 43.0693 9.35729 43.0693L4.90358 43.0693Z" fill="white"/>
<path d="M4.90358 37.0032L12.0206 37.0032L12.0206 35.5137L9.77652 35.5137L9.77652 34.182C9.77652 32.6827 8.79996 31.642 7.34005 31.642C5.87521 31.642 4.90358 32.6481 4.90358 34.108L4.90358 37.0032ZM6.08236 35.5137L6.08236 34.5026C6.08236 33.6494 6.53611 33.1561 7.34498 33.1561C8.15878 33.1561 8.61254 33.6543 8.61254 34.5075L8.61254 35.5137L6.08236 35.5137Z" fill="white"/>
<path d="M12.0206 24.7575L6.13168 24.7575L6.13168 22.6959L4.90358 22.6959L4.90358 28.3037L6.13168 28.3037L6.13168 26.247L12.0206 26.247L12.0206 24.7575Z" fill="white"/>
<path d="M4.78027 18.6519C4.78027 20.7629 6.19579 22.0847 8.46458 22.0847C10.7284 22.0847 12.139 20.7629 12.139 18.6519C12.139 16.5459 10.7284 15.2192 8.46458 15.2192C6.19579 15.2192 4.78027 16.5459 4.78027 18.6519ZM6.02317 18.6519C6.02317 17.4879 6.97014 16.7432 8.46458 16.7432C9.95408 16.7432 10.8961 17.4879 10.8961 18.6519C10.8961 19.8208 9.95408 20.5656 8.46458 20.5656C6.97014 20.5656 6.02317 19.8159 6.02317 18.6519Z" fill="white"/>
<path d="M80.8242 23.1498C83.0239 23.1498 84.4444 21.6603 84.4444 19.2238C84.4444 16.7478 83.0042 15.3274 80.8242 15.3274C78.6442 15.3274 77.2139 16.7577 77.2139 19.2238C77.2139 21.6701 78.6343 23.1498 80.8242 23.1498ZM82.5702 29.8081L92.0695 15.574H89.6626L80.1534 29.8081H82.5702ZM80.8242 21.2164C80.1731 21.2164 79.7095 20.6442 79.7095 19.2238C79.7095 17.7935 80.1731 17.2707 80.8242 17.2707C81.495 17.2707 81.9389 17.7935 81.9389 19.2238C81.9389 20.6442 81.4851 21.2164 80.8242 21.2164ZM91.3987 30.0449C93.5984 30.0449 95.009 28.5455 95.009 26.109C95.009 23.6331 93.5787 22.2225 91.3987 22.2225C89.2187 22.2225 87.7785 23.643 87.7785 26.1189C87.7785 28.5652 89.2088 30.0449 91.3987 30.0449ZM91.3987 28.1016C90.7378 28.1016 90.284 27.5295 90.284 26.1189C90.284 24.6787 90.7378 24.1559 91.3987 24.1559C92.0596 24.1559 92.5133 24.6886 92.5133 26.1189C92.5133 27.5295 92.0596 28.1016 91.3987 28.1016Z" fill="white"/>
<path d="M79.4592 35.8469C76.926 35.8469 75.3398 37.5456 75.3398 40.2681C75.3398 42.9847 76.926 44.6774 79.4592 44.6774C81.9864 44.6774 83.5785 42.9847 83.5785 40.2681C83.5785 37.5456 81.9864 35.8469 79.4592 35.8469ZM79.4592 37.3384C80.8559 37.3384 81.7496 38.4748 81.7496 40.2681C81.7496 42.0555 80.8559 43.1859 79.4592 43.1859C78.0565 43.1859 77.1628 42.0555 77.1628 40.2681C77.1628 38.4748 78.0624 37.3384 79.4592 37.3384Z" fill="white"/>
<path d="M86.52 44.5354V41.1736H89.9942V39.7591H86.52V37.4686H90.3256V35.9949H84.7326V44.5354H86.52Z" fill="white"/>
<path d="M93.1725 44.5354V41.1736H96.6467V39.7591H93.1725V37.4686H96.9781V35.9949H91.3851V44.5354H93.1725Z" fill="white"/>
<path d="M30.1317 45.6364C37.2656 45.6364 42.2634 42.0694 42.2634 36.8849C42.2634 32.9447 39.3808 30.0414 35.2955 29.2326V29.1082C38.8002 28.2165 41.1643 25.6657 41.1643 22.4513C41.1643 17.7645 36.6227 14.3843 30.1317 14.3843C23.6407 14.3843 19.0784 17.7853 19.0784 22.4306C19.0784 25.6864 21.4632 28.2372 24.9887 29.1082V29.2326C20.9033 30.0207 18 32.924 18 36.8642C18 42.0487 22.9771 45.6364 30.1317 45.6364ZM30.1317 27.2211C27.2906 27.2211 25.279 25.5205 25.279 23.0735C25.279 20.6056 27.2906 18.9051 30.1317 18.9051C32.9521 18.9051 34.9844 20.6056 34.9844 23.0735C34.9844 25.5205 32.9521 27.2211 30.1317 27.2211ZM30.1317 41.074C26.8344 41.074 24.5325 39.1246 24.5325 36.408C24.5325 33.712 26.8344 31.7834 30.1317 31.7834C33.429 31.7834 35.7102 33.712 35.7102 36.408C35.7102 39.1246 33.429 41.074 30.1317 41.074Z" fill="white"/>
<path d="M58.4697 45.6364C65.1473 45.6364 70 41.2192 70 35.0185C70 29.3985 66.0391 25.2717 60.2532 25.2717C56.2093 25.2717 53.2645 27.304 52.1031 30.0829H51.9787V29.7718C52.0202 23.3845 54.1977 19.3199 58.4697 19.3199C60.5228 19.3199 61.9744 20.0872 63.3431 21.8084C64.2556 22.8661 65.0022 23.4053 66.2464 23.4053C67.8847 23.4053 68.8594 22.3269 68.8594 20.9375C68.8594 20.3775 68.7142 19.8383 68.4239 19.2577C67.0137 16.4581 63.4468 14.3635 58.4904 14.3635C50.7137 14.3635 45.9855 20.3361 45.9855 30.2488C45.9855 33.7328 46.6076 36.6983 47.7482 39.0209C49.9464 43.4174 53.7207 45.6364 58.4697 45.6364ZM58.3867 40.6592C55.3175 40.6592 52.9119 38.2536 52.9119 35.1637C52.9119 32.1152 55.2761 29.8963 58.449 29.8963C61.6011 29.8963 63.903 32.1359 63.903 35.2881C63.8823 38.2951 61.456 40.6592 58.3867 40.6592Z" fill="white"/>
</svg>
