<svg width="92" height="60" viewBox="0 0 92 60" fill="none" xmlns="http://www.w3.org/2000/svg">
<g clip-path="url(#clip0_2_1072)">
<path d="M7.20091 17.6126L83.6703 11.0296C88.7129 10.5974 92.8467 14.9639 92.1374 19.9732L87.7044 51.4032C87.1059 55.6367 83.2492 58.6179 79.0046 58.1192L8.16509 49.896C4.40811 49.4638 1.4934 46.4161 1.21634 42.6369L0.0194288 26.0132C-0.279799 21.7242 2.91197 17.9894 7.20091 17.6126Z" fill="#F63120"/>
<g filter="url(#filter0_d_2_1072)">
<path d="M56.0978 16.8744L21.3742 20.4949C19.0825 20.9578 16.9484 19.2195 17.001 16.9259L17.3268 5.97181C17.3689 4.03813 18.9773 2.49531 20.9537 2.49531L53.9112 2.43359C55.6563 2.43359 57.1596 3.64728 57.4855 5.32382L58.9363 12.7191C59.3042 14.6322 58.0427 16.4836 56.0978 16.8744Z" fill="#FC9303"/>
</g>
<path d="M25.7588 14.29C27.4043 14.29 28.6201 13.416 28.9326 11.9414L29.9531 7.12207H28.1562L27.2188 11.5508C27.0527 12.3369 26.5645 12.7666 25.8613 12.7666C25.1777 12.7666 24.7041 12.3857 24.6992 11.7559C24.6943 11.6191 24.7139 11.4727 24.748 11.3115L25.6318 7.12207H23.8398L22.9463 11.3408C22.9023 11.5508 22.8828 11.7607 22.8828 11.9512C22.8828 13.3184 23.957 14.29 25.7588 14.29Z" fill="black"/>
<path d="M31.2859 7.12207L29.7918 14.168H31.5838L32.0232 12.1025H33.1902C35.1189 12.1025 36.3738 11.0088 36.3738 9.24609C36.3738 7.9668 35.4461 7.12207 33.9129 7.12207H31.2859ZM32.785 8.49902H33.5418C34.1961 8.49902 34.5721 8.80176 34.5721 9.40723C34.5721 10.1982 34.0301 10.75 33.1902 10.75H32.3064L32.785 8.49902Z" fill="black"/>
<path d="M42.2377 14.168L43.4291 8.5625H45.4555L45.7631 7.12207H39.9135L39.6059 8.5625H41.6322L40.4457 14.168H42.2377Z" fill="black"/>
<path d="M48.717 14.29C50.8654 14.29 52.5744 12.542 52.5744 10.0176C52.5744 8.2793 51.4123 7 49.4152 7C47.2619 7 45.5676 8.75293 45.5676 11.2725C45.5676 13.0156 46.759 14.29 48.717 14.29ZM49.3762 8.45508C50.216 8.45508 50.758 9.09961 50.758 10.1201C50.758 11.624 49.8742 12.835 48.7658 12.835C47.926 12.835 47.3889 12.1807 47.3889 11.1699C47.3889 9.6709 48.2678 8.45508 49.3762 8.45508Z" fill="black"/>
<path d="M31.6376 37.0457C31.6376 35.1572 30.4972 33.6734 28.5473 33.097L28.5596 32.9866C31.1103 32.6555 32.7781 30.9755 32.7781 28.7313C32.7781 26.0702 29.7614 23.9978 25.874 23.9978C21.7045 23.9978 18.6387 26.0825 18.6387 28.9153C18.6387 30.4236 19.6443 31.699 21.2263 32.2018L21.2017 32.2876C18.0992 32.8272 16.1739 34.728 16.1739 37.2419C16.1739 40.2219 19.2396 42.3066 23.6421 42.3066C28.3143 42.3066 31.6376 40.1115 31.6376 37.0457ZM23.544 29.5162C23.544 28.4125 24.5496 27.4928 25.7513 27.4928C26.8428 27.4928 27.6644 28.2408 27.6644 29.2341C27.6644 30.3133 26.6465 31.233 25.4448 31.233C24.3533 31.233 23.544 30.5095 23.544 29.5162ZM24.1204 34.5686C25.4448 34.5686 26.3645 35.3657 26.3645 36.5184C26.3645 37.7815 25.2976 38.7258 23.8628 38.7258C22.5507 38.7258 21.6432 37.9287 21.6432 36.7882C21.6432 35.5251 22.7101 34.5686 24.1204 34.5686ZM49.5903 35.6845C49.5903 32.6187 47.3952 30.4359 44.3294 30.4359C42.5022 30.4359 40.9816 31.1594 40.0128 32.4838H39.9147C40.2581 29.835 41.8032 27.9465 43.6427 27.9465C44.7709 27.9465 45.5435 28.4983 45.7397 29.4426H50.6817C50.6817 26.2787 47.8122 23.9978 43.8512 23.9978C38.5903 23.9978 34.7397 28.5597 34.7397 34.8016C34.7397 39.5351 37.4866 42.3066 42.1711 42.3066C46.3528 42.3066 49.5903 39.4125 49.5903 35.6845ZM42.3183 33.845C43.6795 33.845 44.6605 34.7525 44.6605 36.0156C44.6605 37.4013 43.5814 38.4192 42.1098 38.4192C40.7609 38.4192 39.7798 37.4994 39.7798 36.2609C39.7798 34.8261 40.859 33.845 42.3183 33.845ZM57.7202 32.8517C60.9332 32.8517 62.7726 30.3501 62.7726 27.7503C62.7726 25.2486 61.0681 23.9855 58.7381 23.9855C55.4393 23.9855 53.7225 26.5117 53.7225 29.0502C53.7225 31.5641 55.4148 32.8517 57.7202 32.8517ZM59.7069 42L73.9075 24.3044H70.106L55.9053 42H59.7069ZM57.9287 30.1784C57.5853 30.1784 57.3278 29.8595 57.3278 29.2096C57.3278 28.4248 57.6957 26.6589 58.5419 26.6589C58.8852 26.6589 59.1673 26.9409 59.1673 27.7012C59.1673 28.7191 58.6522 30.1784 57.9287 30.1784ZM71.038 42.233C74.2509 42.233 76.0903 39.7313 76.0903 37.1316C76.0903 34.6299 74.3858 33.3668 72.0558 33.3668C68.757 33.3668 67.0402 35.893 67.0402 38.4314C67.0402 40.9454 68.7325 42.233 71.038 42.233ZM71.2464 39.5596C70.9031 39.5596 70.6455 39.2408 70.6455 38.5909C70.6455 37.806 71.0134 36.0401 71.8596 36.0401C72.2029 36.0401 72.485 36.3222 72.485 37.0825C72.485 38.1003 71.9699 39.5596 71.2464 39.5596Z" fill="white"/>
<path d="M56.8166 53.1465C59.3948 53.1465 61.4455 51.0488 61.4455 48.0195C61.4455 45.9336 60.051 44.3984 57.6545 44.3984C55.0705 44.3984 53.0373 46.502 53.0373 49.5254C53.0373 51.6172 54.467 53.1465 56.8166 53.1465ZM57.6077 46.1445C58.6155 46.1445 59.2659 46.918 59.2659 48.1426C59.2659 49.9473 58.2053 51.4004 56.8752 51.4004C55.8674 51.4004 55.2229 50.6152 55.2229 49.4023C55.2229 47.6035 56.2776 46.1445 57.6077 46.1445ZM64.0938 53L64.7617 49.8477H67.9492L68.3008 48.2012H65.1133L65.5234 46.2734H69.0391L69.4082 44.5449H63.6602L61.8613 53H64.0938ZM71.072 53L71.74 49.8477H74.9275L75.2791 48.2012H72.0916L72.5017 46.2734H76.0173L76.3865 44.5449H70.6384L68.8396 53H71.072Z" fill="black"/>
</g>
<defs>
<filter id="filter0_d_2_1072" x="15.0909" y="1.47905" width="45.8182" height="21.9547" filterUnits="userSpaceOnUse" color-interpolation-filters="sRGB">
<feFlood flood-opacity="0" result="BackgroundImageFix"/>
<feColorMatrix in="SourceAlpha" type="matrix" values="0 0 0 0 0 0 0 0 0 0 0 0 0 0 0 0 0 0 127 0" result="hardAlpha"/>
<feOffset dy="0.954545"/>
<feGaussianBlur stdDeviation="0.954545"/>
<feColorMatrix type="matrix" values="0 0 0 0 0.433993 0 0 0 0 0.0493403 0 0 0 0 0.278698 0 0 0 0.38 0"/>
<feBlend mode="normal" in2="BackgroundImageFix" result="effect1_dropShadow_2_1072"/>
<feBlend mode="normal" in="SourceGraphic" in2="effect1_dropShadow_2_1072" result="shape"/>
</filter>
<clipPath id="clip0_2_1072">
<rect width="92" height="60" fill="white"/>
</clipPath>
</defs>
</svg>
