<svg width="110" height="60" viewBox="0 0 110 60" fill="none" xmlns="http://www.w3.org/2000/svg">
<g clip-path="url(#clip0_2_1079)">
<path d="M42.3704 48.6769L48.6074 54.9334C52.7862 59.1253 59.6469 59.1253 63.8257 54.9334C63.8257 54.9334 67.9421 49.3025 70.0627 48.6769C76.3621 46.7999 75.676 46.5497 77.1729 45.2984C79.543 43.2963 88.649 45.7989 88.649 40.7937C86.4037 39.4798 84.096 38.3536 81.7259 37.3526C82.9733 37.29 84.096 37.0398 85.0939 36.6018C86.3413 36.0387 87.4016 35.1628 88.0877 33.9741C88.7737 32.9105 89.148 31.534 89.2103 30.0325C89.2103 29.5319 89.2727 28.9689 89.2727 28.4683C89.2727 27.9678 89.2727 27.4047 89.2103 26.9042C89.148 25.4026 88.7737 24.0888 88.0877 22.9626C87.3392 21.8364 86.3413 20.898 85.0939 20.3349C83.9712 19.8343 82.6615 19.5841 81.2893 19.5841C80.1667 19.5841 79.1064 19.7718 78.1708 20.0846L63.8257 5.75718C59.6469 1.56531 52.7862 1.56531 48.6074 5.75718L34.387 20.0846C34.3247 20.0846 34.1999 20.022 34.1376 20.022C33.2644 19.7718 32.2664 19.6466 31.2685 19.6466C29.834 19.6466 28.5242 19.8969 27.4016 20.46C26.1542 21.0231 25.1563 21.899 24.4078 23.0877C23.7217 24.1513 23.3475 25.4652 23.2852 26.9668V27.0293C23.2852 27.5299 23.2852 28.0929 23.2852 28.656C23.2852 29.2191 23.2852 29.7196 23.2852 30.2202V30.2827C23.3475 31.7843 23.7217 33.0982 24.4078 34.1618C25.0939 35.2879 26.0918 36.1639 27.4016 36.7269C28.3995 37.1649 29.5222 37.4152 30.8319 37.4777C28.4619 38.4788 26.1542 39.6049 23.9089 40.9188" fill="#FDDCC8"/>
<path d="M48.6067 52.3044L31.7044 35.3493C27.5256 31.1574 27.5256 24.2752 31.7044 20.0834L48.6067 3.19077C52.7855 -1.00109 59.6462 -1.00109 63.825 3.19077L80.7273 20.1459C84.9061 24.3378 84.9061 31.22 80.7273 35.4118L63.825 52.367C59.6462 56.4963 52.7855 56.4963 48.6067 52.3044Z" fill="#640815"/>
<path d="M19.1066 47.2994C17.9216 46.8615 17.1108 44.9845 17.984 44.6717C17.984 44.6717 29.8966 40.0419 29.5848 40.6675C29.3353 41.2932 20.2916 47.7374 19.1066 47.2994Z" fill="#FDDCC8"/>
<path d="M33.5162 56.6831C32.7054 56.8083 31.5828 55.9949 31.957 55.557C31.957 55.557 36.8219 48.9876 36.8842 49.4882C36.9466 49.9261 34.327 56.558 33.5162 56.6831Z" fill="#FDDCC8"/>
<path d="M82.8498 40.6675C82.5379 40.0419 94.4506 44.6717 94.4506 44.6717C95.3238 44.9845 94.513 46.924 93.3279 47.2994C92.1429 47.7374 83.1616 41.2932 82.8498 40.6675Z" fill="#FDDCC8"/>
<path d="M78.9199 56.6849C78.109 56.5598 75.4895 49.9279 75.5519 49.4899C75.6142 49.052 80.4791 55.5587 80.4791 55.5587C80.791 56.0592 79.6683 56.8726 78.9199 56.6849Z" fill="#FDDCC8"/>
<path d="M18.0463 47.9256C18.0463 47.9256 29.959 43.2958 29.6471 43.9214C29.3353 44.5471 20.354 50.9913 19.169 50.5533C17.9216 50.1779 17.1731 48.301 18.0463 47.9256Z" fill="url(#paint0_linear_2_1079)"/>
<path d="M32.0195 58.8734C32.0195 58.8734 36.8844 52.304 36.9467 52.8046C37.0091 53.2425 34.3895 59.8744 33.5787 59.9996C32.7679 60.1247 31.6453 59.3113 32.0195 58.8734Z" fill="url(#paint1_linear_2_1079)"/>
<path d="M94.4506 47.9256C94.4506 47.9256 82.5379 43.2958 82.8498 43.9214C83.1616 44.5471 92.1429 50.9913 93.3279 50.5533C94.513 50.1154 95.3238 48.301 94.4506 47.9256Z" fill="url(#paint2_linear_2_1079)"/>
<path d="M80.4791 58.8734C80.4791 58.8734 75.6142 52.304 75.5519 52.8046C75.4895 53.2425 78.109 59.8744 78.9199 59.9996C79.7307 60.1247 80.791 59.3113 80.4791 58.8734Z" fill="url(#paint3_linear_2_1079)"/>
<path d="M56.219 50.1131C54.7845 50.1131 53.4123 49.55 52.352 48.4864L35.4497 31.5938C34.3895 30.5302 33.8281 29.2164 33.8281 27.7148C33.8281 26.2758 34.3895 24.8994 35.4497 23.8358L52.352 6.8806C53.4123 5.81699 54.7221 5.25391 56.219 5.25391C57.6535 5.25391 59.0256 5.81699 60.0859 6.8806L76.9882 23.8358C78.0485 24.8994 78.6098 26.2132 78.6098 27.7148C78.6098 29.1538 78.0485 30.5302 76.9882 31.5938L60.0859 48.549C59.0256 49.55 57.6535 50.1131 56.219 50.1131Z" stroke="url(#paint4_linear_2_1079)" stroke-width="5.49565" stroke-miterlimit="10"/>
<path d="M8.19157 25.525C3.88803 25.525 0.769531 22.647 0.769531 18.7054V13.4499C0.769531 10.8848 2.64063 9.00781 5.13544 9.00781C6.32047 9.00781 7.38076 9.44577 8.1292 10.134C8.87764 9.44577 9.93793 9.00781 11.123 9.00781C13.6801 9.00781 15.4889 10.8848 15.4889 13.4499V18.7054C15.5512 22.647 12.4327 25.525 8.19157 25.525Z" fill="#640815"/>
<path d="M21.5405 25.525C20.2931 25.525 19.2952 25.0871 18.422 24.2111C17.6736 25.0245 16.5509 25.525 15.3035 25.525C12.8087 25.525 11 23.7106 11 21.1455V13.3248C11 10.8222 12.8087 9.00781 15.3659 9.00781C16.5509 9.00781 17.6112 9.44577 18.4844 10.3217C19.2328 9.50833 20.3555 9.00781 21.6029 9.00781C24.0977 9.00781 25.9064 10.8222 25.9064 13.3874V21.208C25.9064 23.7106 24.0353 25.525 21.5405 25.525Z" fill="#640815"/>
<path d="M25.655 25.3997C23.0978 25.3997 21.2891 23.5227 21.2891 20.9576V13.6374C21.2891 11.0723 23.1602 9.19531 25.655 9.19531H29.0229C32.7028 9.19531 35.26 11.5102 35.26 14.8262C35.26 15.4518 35.1352 16.0775 34.9481 16.6406C35.4471 17.4539 35.6965 18.3924 35.6965 19.456C35.6965 22.9597 32.9523 25.4623 29.0853 25.4623H25.655V25.3997Z" fill="#640815"/>
<path d="M35.0729 25.3997C32.5158 25.3997 30.707 23.5227 30.707 20.9576V13.6374C30.707 11.0723 32.5781 9.19531 35.0729 9.19531H39.626C42.0584 9.19531 43.8671 11.0097 43.8671 13.3246C43.8671 14.138 43.6176 14.8887 43.2434 15.5144C43.4929 16.0149 43.6176 16.6406 43.6176 17.2037C43.6176 17.8293 43.4929 18.455 43.2434 18.9555C43.6176 19.5811 43.8671 20.3319 43.8671 21.2078C43.8671 23.5853 42.0584 25.3371 39.626 25.3371H35.0729V25.3997Z" fill="#640815"/>
<path d="M43.4284 25.3999C40.8712 25.3999 39.0625 23.5229 39.0625 20.9578V13.4499C39.0625 10.8848 40.9336 9.00781 43.4284 9.00781C45.9856 9.00781 47.7943 10.8848 47.7943 13.4499V17.0787C50.2267 17.0787 52.0355 18.8931 52.0355 21.208C52.0355 23.5855 50.2267 25.3373 47.7943 25.3373H43.4284V25.3999Z" fill="#640815"/>
<path d="M51.3503 25.525C48.7931 25.525 46.9844 23.6481 46.9844 21.0829V13.4499C46.9844 10.8848 48.8555 9.00781 51.3503 9.00781C53.9075 9.00781 55.7162 10.8848 55.7162 13.4499V21.0829C55.7786 23.6481 53.9075 25.525 51.3503 25.525Z" fill="#640815"/>
<path d="M55.53 25.3997C52.9728 25.3997 51.1641 23.5227 51.1641 20.9576V13.6374C51.1641 11.0723 53.0352 9.19531 55.53 9.19531H60.083C62.5154 9.19531 64.3241 11.0097 64.3241 13.3246C64.3241 14.138 64.0747 14.8887 63.7004 15.5144C63.9499 16.0149 64.0747 16.6406 64.0747 17.2037C64.0747 17.8293 63.9499 18.455 63.7004 18.9555C64.0747 19.5811 64.3241 20.3319 64.3241 21.2078C64.3241 23.5853 62.5154 25.3371 60.083 25.3371H55.53V25.3997Z" fill="#640815"/>
<path d="M66.8198 25.525C64.4498 25.525 62.7034 24.2737 61.8302 21.8962L59.3978 15.1392C59.2107 14.5135 59.0859 13.9505 59.0859 13.3874C59.0859 10.9473 61.0194 9.00781 63.5142 9.00781C64.8864 9.00781 66.009 9.50833 66.8198 10.4468C67.6306 9.50833 68.7533 9.00781 70.1254 9.00781C72.6203 9.00781 74.5537 10.8848 74.5537 13.3248C74.5537 13.9505 74.429 14.5135 74.2419 15.0766L71.7471 21.8962C70.9986 24.2111 69.1899 25.525 66.8198 25.525Z" fill="#640815"/>
<path d="M79.2308 25.525C77.8586 25.525 76.6736 24.9619 75.8628 24.0235C74.7401 25.3373 73.2433 25.525 72.5572 25.525C70.0624 25.525 68.1289 23.6481 68.1289 21.208C68.1289 20.4572 68.316 19.769 68.5031 19.3311L70.9356 12.574C71.7464 10.3217 73.5551 9.00781 75.8004 9.00781C78.1705 9.00781 79.9168 10.2591 80.7277 12.5115L83.2225 19.2685C83.4719 19.9567 83.5967 20.5198 83.5967 21.1455C83.5967 23.6481 81.6632 25.525 79.2308 25.525Z" fill="#640815"/>
<path d="M83.1003 25.3997C80.5431 25.3997 78.7344 23.5227 78.7344 20.9576V13.6374C78.7344 11.0723 80.6055 9.19531 83.1003 9.19531H86.4683C90.1481 9.19531 92.7053 11.5102 92.7053 14.8262C92.7053 15.4518 92.5805 16.0775 92.3934 16.6406C92.8924 17.4539 93.1419 18.3924 93.1419 19.456C93.1419 22.9597 90.3976 25.4623 86.5306 25.4623H83.1003V25.3997Z" fill="#640815"/>
<path d="M92.5143 25.3999C89.9572 25.3999 88.1484 23.5229 88.1484 20.9578V13.4499C88.1484 10.8848 90.0195 9.00781 92.5143 9.00781C95.0715 9.00781 96.8802 10.8848 96.8802 13.4499V17.0787C99.3127 17.0787 101.121 18.8931 101.121 21.208C101.121 23.5855 99.3127 25.3373 96.8802 25.3373H92.5143V25.3999Z" fill="#640815"/>
<path d="M100.436 25.3997C97.879 25.3997 96.0703 23.5227 96.0703 20.9576V13.6374C96.0703 11.0723 97.9414 9.19531 100.436 9.19531H104.989C107.422 9.19531 109.23 11.0097 109.23 13.3246C109.23 14.138 108.981 14.8887 108.607 15.5144C108.856 16.0149 108.981 16.6406 108.981 17.2037C108.981 17.8293 108.856 18.455 108.607 18.9555C108.981 19.5811 109.23 20.3319 109.23 21.2078C109.23 23.5853 107.422 25.3371 104.989 25.3371H100.436V25.3997Z" fill="#640815"/>
<path d="M11.1881 12.1367C10.3772 12.1367 9.94065 12.6372 9.94065 13.4506V18.4558C9.94065 19.6445 9.31695 20.3328 8.19429 20.3328C7.07163 20.3328 6.44793 19.6445 6.44793 18.4558V13.4506C6.44793 12.6372 6.01134 12.1367 5.20053 12.1367C4.38972 12.1367 3.95312 12.6372 3.95312 13.4506V18.7061C3.95312 20.9584 5.63712 22.3974 8.25666 22.3974C10.8138 22.3974 12.5602 20.9584 12.5602 18.7061V13.4506C12.4355 12.6372 11.9989 12.1367 11.1881 12.1367Z" fill="white"/>
<path d="M21.5391 12.1367C20.7907 12.1367 20.3541 12.5747 20.3541 13.388V18.0804H20.2917L16.4871 12.8249C16.1129 12.3244 15.7387 12.1367 15.3021 12.1367C14.4913 12.1367 14.0547 12.5747 14.0547 13.3255V21.1461C14.0547 21.9594 14.4913 22.3974 15.2397 22.3974C15.9882 22.3974 16.4248 21.9594 16.4248 21.1461V16.3912H16.4871L20.2917 21.7092C20.6659 22.2097 20.9778 22.3974 21.4767 22.3974C22.2252 22.3974 22.6618 21.9595 22.6618 21.2087V13.388C22.7865 12.5747 22.2875 12.1367 21.5391 12.1367Z" fill="white"/>
<path d="M30.2067 17.0166C31.3293 16.8289 32.1401 15.8904 32.1401 14.8268C32.1401 13.2627 30.9551 12.3242 29.0216 12.3242H25.6537C24.8428 12.3242 24.4062 12.8247 24.4062 13.6381V20.9582C24.4062 21.7716 24.9052 22.2721 25.6537 22.2721H29.1464C31.267 22.2721 32.6391 21.1459 32.6391 19.3941C32.5767 18.0802 31.5164 17.0792 30.2067 17.0166ZM26.9011 14.076H28.3356C29.2087 14.076 29.7077 14.514 29.7077 15.2022C29.7077 15.8904 29.1464 16.3284 28.2732 16.3284H26.9634V14.076H26.9011ZM28.3979 20.4577H26.9011V17.8925H28.3979C29.4582 17.8925 30.0196 18.3305 30.0196 19.1438C30.0196 20.0197 29.4582 20.4577 28.3979 20.4577Z" fill="white"/>
<path d="M39.6285 14.3263C40.3146 14.3263 40.7512 13.9509 40.7512 13.3253C40.7512 12.6996 40.3146 12.3242 39.6285 12.3242H35.0755C34.2647 12.3242 33.8281 12.8247 33.8281 13.6381V20.9582C33.8281 21.7716 34.3271 22.2721 35.0755 22.2721H39.6285C40.3146 22.2721 40.7512 21.8967 40.7512 21.271C40.7512 20.6454 40.3146 20.27 39.6285 20.27H36.3229V18.1428H39.4414C40.0651 18.1428 40.4394 17.7674 40.4394 17.2043C40.4394 16.6412 40.0028 16.2658 39.4414 16.2658H36.3229V14.2637H39.6285V14.3263Z" fill="white"/>
<path d="M47.7969 20.2076H44.6784V13.4506C44.6784 12.6372 44.2418 12.1367 43.431 12.1367C42.6202 12.1367 42.1836 12.6372 42.1836 13.4506V20.8958C42.1836 21.7092 42.6826 22.2097 43.431 22.2097H47.7969C48.483 22.2097 48.9196 21.8343 48.9196 21.2087C48.9196 20.583 48.483 20.2076 47.7969 20.2076Z" fill="white"/>
<path d="M51.349 12.1367C50.5382 12.1367 50.1016 12.6372 50.1016 13.4506V21.0835C50.1016 21.8969 50.6005 22.3974 51.349 22.3974C52.0974 22.3974 52.5964 21.8969 52.5964 21.0835V13.4506C52.6587 12.6372 52.1598 12.1367 51.349 12.1367Z" fill="white"/>
<path d="M60.0817 14.3263C60.7677 14.3263 61.2043 13.9509 61.2043 13.3253C61.2043 12.6996 60.7677 12.3242 60.0817 12.3242H55.5287C54.7178 12.3242 54.2812 12.8247 54.2812 13.6381V20.9582C54.2812 21.7716 54.7802 22.2721 55.5287 22.2721H60.0817C60.7677 22.2721 61.2043 21.8967 61.2043 21.271C61.2043 20.6454 60.7677 20.27 60.0817 20.27H56.7761V18.1428H59.8946C60.5183 18.1428 60.8925 17.7674 60.8925 17.2043C60.8925 16.6412 60.4559 16.2658 59.8946 16.2658H56.7761V14.2637H60.0817V14.3263Z" fill="white"/>
<path d="M71.4964 13.3255C71.4964 12.6372 70.9974 12.1367 70.1866 12.1367C69.5006 12.1367 69.1263 12.4495 68.9392 13.1378L66.9434 19.7697H66.881L64.8852 13.1378C64.6981 12.4495 64.2615 12.1367 63.5754 12.1367C62.7646 12.1367 62.2656 12.6372 62.2656 13.388C62.2656 13.6383 62.328 13.8885 62.3904 14.0762L64.8228 20.8958C65.197 21.9595 65.8207 22.46 66.881 22.46C67.8789 22.46 68.5026 21.9595 68.9392 20.8958L71.434 14.0137C71.434 13.7634 71.4964 13.5757 71.4964 13.3255Z" fill="white"/>
<path d="M77.8614 13.6383C77.4871 12.5747 76.8634 12.1367 75.8655 12.1367C74.8676 12.1367 74.2439 12.5747 73.932 13.6383L71.4996 20.3953C71.3749 20.7081 71.3125 21.021 71.3125 21.2087C71.3125 21.9595 71.8115 22.3974 72.6223 22.3974C73.3083 22.3974 73.6826 22.022 73.932 21.2087L74.2439 20.1451H77.6119L77.9237 21.2712C78.1732 22.0846 78.5474 22.3974 79.2335 22.3974C79.9819 22.3974 80.4809 21.8969 80.4809 21.2087C80.4809 20.9584 80.4185 20.7081 80.2938 20.3953L77.8614 13.6383ZM74.6805 18.2055L75.8031 14.3891H75.8655L77.0505 18.2055H74.6805Z" fill="white"/>
<path d="M87.652 17.0166C88.7746 16.8289 89.5854 15.8904 89.5854 14.8268C89.5854 13.2627 88.4004 12.3242 86.4669 12.3242H83.099C82.2882 12.3242 81.8516 12.8247 81.8516 13.6381V20.9582C81.8516 21.7716 82.3505 22.2721 83.099 22.2721H86.5917C88.7123 22.2721 90.0844 21.1459 90.0844 19.3941C90.022 18.0802 88.9618 17.0792 87.652 17.0166ZM84.3464 14.076H85.7809C86.6541 14.076 87.153 14.514 87.153 15.2022C87.153 15.8904 86.5917 16.3284 85.7185 16.3284H84.3464V14.076ZM85.8432 20.4577H84.3464V17.8925H85.8432C86.9035 17.8925 87.4649 18.3305 87.4649 19.1438C87.4649 20.0197 86.9035 20.4577 85.8432 20.4577Z" fill="white"/>
<path d="M96.8789 20.2076H93.7604V13.4506C93.7604 12.6372 93.3238 12.1367 92.513 12.1367C91.7022 12.1367 91.2656 12.6372 91.2656 13.4506V20.8958C91.2656 21.7092 91.7646 22.2097 92.513 22.2097H96.8789C97.565 22.2097 98.0016 21.8343 98.0016 21.2087C98.0016 20.583 97.565 20.2076 96.8789 20.2076Z" fill="white"/>
<path d="M104.988 20.2075H101.682V18.1428H104.801C105.425 18.1428 105.799 17.7675 105.799 17.2044C105.799 16.6413 105.362 16.2659 104.801 16.2659H101.682V14.2638H104.988C105.674 14.2638 106.111 13.8884 106.111 13.2628C106.111 12.6371 105.674 12.2617 104.988 12.2617H100.435C99.6241 12.2617 99.1875 12.7622 99.1875 13.5756V20.8957C99.1875 21.7091 99.6865 22.2096 100.435 22.2096H104.988C105.674 22.2096 106.111 21.8342 106.111 21.2085C106.111 20.5829 105.674 20.2075 104.988 20.2075Z" fill="white"/>
<path d="M103.681 57.5614C74.2423 41.6073 38.1301 41.6073 8.69141 57.5614C8.69141 50.6167 8.69141 43.672 8.69141 36.7898C38.1301 20.8357 74.2423 20.8357 103.681 36.7898C103.681 43.672 103.681 50.6167 103.681 57.5614Z" fill="#FC9303"/>
<path d="M24.0312 43.8911C24.2184 40.3875 24.2807 38.6356 24.4678 35.132C24.5302 34.1309 25.1539 33.3802 26.1518 33.1299C27.524 32.8171 28.2724 32.6294 29.6446 32.3166C33.4491 31.5032 35.6321 33.255 35.5697 37.0715C35.445 40.888 33.0749 43.3906 29.208 44.2039C27.7735 44.5168 27.0874 44.6419 25.6529 45.0173C24.5926 45.3301 24.0312 44.9547 24.0312 43.8911ZM28.8337 41.9516C30.9543 41.5136 32.1394 40.0746 32.2017 37.6972C32.2641 35.4448 31.1414 34.4438 29.0832 34.8817C28.4595 35.0069 28.21 35.0694 27.5863 35.1946C27.4616 38.01 27.3992 39.3864 27.2745 42.2019C27.9606 42.1393 28.2724 42.0767 28.8337 41.9516Z" fill="white"/>
<path d="M37.0039 41.2605C37.1286 37.7568 37.1286 36.0676 37.2534 32.5639C37.2534 31.5629 37.8771 30.8747 38.9374 30.7495C41.2451 30.4367 42.4301 30.3116 44.8002 30.1239C45.6733 30.0613 46.2347 30.4367 46.2347 31.2501C46.2347 32.0008 45.611 32.5014 44.7378 32.5639C43.0538 32.6891 42.1806 32.8142 40.4966 33.0019C40.4966 33.9404 40.4343 34.4409 40.4343 35.3794C42.0559 35.1917 42.8667 35.0665 44.4883 34.9414C45.2991 34.8788 45.7981 35.2542 45.7981 35.9425C45.7981 36.6307 45.2991 37.0686 44.4259 37.1312C42.8043 37.2563 41.9935 37.3815 40.3095 37.5691C40.3095 38.5076 40.2471 39.0081 40.2471 40.0092C41.9935 39.8215 42.8043 39.6964 44.5507 39.5712C45.4239 39.5087 45.9852 39.8841 45.9852 40.6974C45.9852 41.4482 45.3615 41.9487 44.4883 42.0113C42.1183 42.199 40.9332 42.3241 38.5008 42.6995C37.5652 42.7621 37.0039 42.3241 37.0039 41.2605Z" fill="white"/>
<path d="M47.4219 40.5115C47.4219 40.2612 47.5466 39.8858 47.6714 39.5104C48.9811 36.1945 49.6672 34.5678 50.9146 31.3144C51.4136 30.0631 52.162 29.5 53.4718 29.5C54.8439 29.5 55.5923 30.0005 56.0913 31.2518C57.4011 34.4426 58.0248 36.0693 59.3346 39.3227C59.5217 39.6981 59.584 40.0109 59.584 40.3238C59.584 41.1997 58.898 41.7628 57.9 41.7002C56.9645 41.7002 56.4655 41.2622 56.1537 40.3238C55.9666 39.8233 55.9042 39.5104 55.7171 39.0099C53.9084 39.0099 53.0352 39.0099 51.2264 39.0725C51.0393 39.573 50.977 39.8233 50.7899 40.3238C50.478 41.3248 49.979 41.7628 49.1059 41.8253C48.0456 41.8879 47.4219 41.3874 47.4219 40.5115ZM54.9687 36.7576C54.3449 34.9432 54.0331 34.0047 53.4718 32.1903H53.4094C52.7857 34.0047 52.5362 34.9432 51.9125 36.7576C53.1599 36.7576 53.7836 36.7576 54.9687 36.7576Z" fill="white"/>
<path d="M61.1405 40.0741C61.1405 36.5079 61.0781 34.7561 61.0781 31.1899C61.0781 30.1888 61.6395 29.6257 62.6998 29.6883C63.76 29.7509 64.3214 30.3765 64.3214 31.3776C64.3837 34.5684 64.3837 36.1951 64.4461 39.3859C66.0677 39.511 66.8785 39.5736 68.5002 39.7613C69.3733 39.8239 69.9971 40.387 69.9971 41.1377C69.9971 41.8885 69.4357 42.2639 68.5625 42.2014C66.2548 41.9511 65.1322 41.8885 62.8245 41.7634C61.7642 41.6383 61.2029 41.0752 61.1405 40.0741Z" fill="white"/>
<path d="M71.3054 40.5098C71.1806 40.2596 71.1183 40.0093 71.1183 39.759C71.1183 39.0083 71.6796 38.5703 72.4904 38.6954C73.1141 38.758 73.6131 39.0708 73.9873 39.6965C74.4863 40.4473 75.2971 40.9478 76.3574 41.1355C77.6671 41.3232 78.4779 41.0103 78.4156 40.2596C78.4156 39.5713 77.8542 39.1334 76.295 38.6329C75.7337 38.4452 75.4842 38.3826 74.9852 38.1949C72.428 37.3816 71.0559 36.0677 70.9935 34.2533C70.9312 32.001 73.0517 30.7497 75.9831 31.2502C78.4156 31.6256 80.2243 32.8769 80.9104 34.5036C81.0351 34.7538 81.0351 34.9415 81.0975 35.1918C81.0975 35.88 80.5985 36.2554 79.7877 36.0677C79.1016 35.9426 78.6027 35.6297 78.2285 34.9415C77.7919 34.1907 77.0434 33.6902 76.1079 33.5651C74.9228 33.3774 74.2368 33.7528 74.2991 34.441C74.2991 35.0667 74.9228 35.5046 76.295 35.9426C76.7939 36.1303 77.1058 36.1928 77.6048 36.3805C80.349 37.3816 81.6588 38.6954 81.7212 40.5098C81.8459 42.8873 79.8501 43.9509 76.4197 43.3878C73.6131 42.9499 71.8667 41.7611 71.3054 40.5098Z" fill="white"/>
<path d="M83.7815 43.4537C83.7192 42.6403 84.4676 42.1398 85.4031 42.3901C86.3387 42.6403 87.0871 43.4537 87.1495 44.267C87.2119 45.0804 86.4634 45.5809 85.5279 45.3306C84.5923 45.1429 83.8439 44.3296 83.7815 43.4537ZM83.9063 39.6372C83.7192 37.5725 83.6568 36.5089 83.532 34.4443C83.532 34.3191 83.532 34.1314 83.532 34.0689C83.4697 33.1304 84.031 32.755 85.0289 33.0053C85.9645 33.2555 86.5882 33.9438 86.6506 34.8197C86.6506 34.9448 86.6506 35.0699 86.6506 35.1951C86.7129 37.2597 86.7129 38.2608 86.7129 40.2628C86.7129 41.0762 86.2763 41.4516 85.4031 41.2639C84.4676 41.0762 83.9686 40.5131 83.9063 39.6372Z" fill="white"/>
<path d="M24.0312 42.9849C24.2184 39.4812 24.2807 37.7294 24.4678 34.2257C24.5302 33.2247 25.1539 32.4739 26.1518 32.2237C27.524 31.9108 28.2724 31.7231 29.6446 31.4103C33.4491 30.597 35.6321 32.3488 35.5697 36.1653C35.445 39.9817 33.0749 42.4843 29.208 43.2977C27.7735 43.6105 27.0874 43.7356 25.6529 44.111C24.5926 44.3613 24.0312 43.9859 24.0312 42.9849ZM28.8337 40.9828C30.9543 40.5448 32.1394 39.1058 32.2017 36.7283C32.2641 34.476 31.1414 33.475 29.0832 33.9129C28.4595 34.038 28.21 34.1006 27.5863 34.2257C27.4616 37.0412 27.3992 38.4176 27.2745 41.233C27.9606 41.1705 28.2724 41.1079 28.8337 40.9828Z" fill="black"/>
<path d="M37.0039 40.3542C37.1286 36.8506 37.1286 35.1613 37.2534 31.6577C37.2534 30.6566 37.8771 29.9684 38.9374 29.8433C41.2451 29.5305 42.4301 29.4053 44.8002 29.2176C45.6733 29.1551 46.2347 29.5305 46.2347 30.3438C46.2347 31.0946 45.611 31.5951 44.7378 31.6577C43.0538 31.7828 42.1806 31.9079 40.4966 32.0956C40.4966 33.0341 40.4343 33.5346 40.4343 34.4731C42.0559 34.2854 42.8667 34.1603 44.4883 34.0352C45.2991 33.9726 45.7981 34.348 45.7981 35.0362C45.7981 35.7244 45.2991 36.1624 44.4259 36.2249C42.8043 36.3501 41.9935 36.4752 40.3095 36.6629C40.3095 37.6014 40.2471 38.1019 40.2471 39.1029C41.9935 38.9152 42.8043 38.7901 44.5507 38.665C45.4239 38.6024 45.9852 38.9778 45.9852 39.7912C45.9852 40.5419 45.3615 41.0425 44.4883 41.105C42.1183 41.2927 40.9332 41.4179 38.5008 41.7932C37.5652 41.7932 37.0039 41.3553 37.0039 40.3542Z" fill="black"/>
<path d="M47.4219 39.5427C47.4219 39.2925 47.5466 38.9171 47.6714 38.5417C48.9811 35.2257 49.6672 33.599 50.9146 30.3456C51.4136 29.0943 52.162 28.5312 53.4718 28.5312C54.8439 28.5312 55.5923 29.0318 56.0913 30.2831C57.4011 33.4739 58.0248 35.1006 59.3346 38.354C59.5217 38.7294 59.584 39.0422 59.584 39.355C59.584 40.2309 58.898 40.794 57.9 40.7315C56.9645 40.7315 56.4655 40.2935 56.1537 39.355C55.9666 38.8545 55.9042 38.5417 55.7171 38.0412C53.9084 38.0412 53.0352 38.0412 51.2264 38.1037C51.0393 38.6042 50.977 38.8545 50.7899 39.355C50.478 40.3561 49.979 40.794 49.1059 40.8566C48.0456 40.9192 47.4219 40.4186 47.4219 39.5427ZM54.9687 35.7888C54.3449 33.9744 54.0331 33.0359 53.4718 31.2216H53.4094C52.7857 33.0359 52.5362 33.9744 51.9125 35.7888C53.1599 35.7888 53.7836 35.7888 54.9687 35.7888Z" fill="black"/>
<path d="M61.1405 39.1054C61.1405 35.5392 61.0781 33.7873 61.0781 30.2211C61.0781 29.2201 61.6395 28.657 62.6998 28.7196C63.76 28.7821 64.3214 29.4078 64.3214 30.4088C64.3837 33.5996 64.3837 35.2263 64.4461 38.4172C66.0677 38.5423 66.8785 38.6049 68.5002 38.7926C69.3733 38.8551 69.9971 39.4182 69.9971 40.169C69.9971 40.9198 69.4357 41.2952 68.5625 41.2326C66.2548 40.9823 65.1322 40.9198 62.8245 40.7946C61.7642 40.6695 61.2029 40.1064 61.1405 39.1054Z" fill="black"/>
<path d="M71.3054 39.5411C71.1806 39.2908 71.1183 39.0405 71.1183 38.7903C71.1183 38.0395 71.6796 37.6015 72.4904 37.7267C73.1141 37.7892 73.6131 38.1021 73.9873 38.7277C74.4863 39.4785 75.2971 39.979 76.3574 40.1667C77.6671 40.3544 78.4779 40.0416 78.4156 39.2908C78.4156 38.6026 77.8542 38.1646 76.295 37.6641C75.7337 37.4764 75.4842 37.4139 74.9852 37.2262C72.428 36.4128 71.0559 35.0989 70.9935 33.2846C70.9312 31.0322 73.0517 29.7809 75.9831 30.2814C78.4156 30.6568 80.2243 31.9081 80.9104 33.5348C81.0351 33.7851 81.0351 33.9728 81.0975 34.223C81.0975 34.9112 80.5985 35.2866 79.7877 35.0989C79.1016 34.9738 78.6027 34.661 78.2285 33.9728C77.7919 33.222 77.0434 32.7215 76.1079 32.5963C74.9228 32.4086 74.2368 32.784 74.2991 33.4722C74.2991 34.0979 74.9228 34.5359 76.295 34.9738C76.7939 35.1615 77.1058 35.2241 77.6048 35.4118C80.349 36.4128 81.6588 37.7267 81.7212 39.5411C81.8459 41.9185 79.8501 42.9822 76.4197 42.4191C73.6131 41.9811 71.8667 40.8549 71.3054 39.5411Z" fill="black"/>
<path d="M83.7815 42.5475C83.7192 41.7341 84.4676 41.2336 85.4031 41.4839C86.3387 41.7341 87.0871 42.5475 87.1495 43.3608C87.2119 44.1742 86.4634 44.6747 85.5279 44.4244C84.5923 44.1742 83.8439 43.3608 83.7815 42.5475ZM83.9063 38.6684C83.7192 36.6038 83.6568 35.5402 83.532 33.4755C83.532 33.3504 83.532 33.1627 83.532 33.1001C83.4697 32.1617 84.031 31.7863 85.0289 32.0365C85.9645 32.2868 86.5882 32.975 86.6506 33.8509C86.6506 33.976 86.6506 34.1012 86.6506 34.2263C86.7129 36.291 86.7129 37.292 86.7129 39.2941C86.7129 40.1074 86.2763 40.4828 85.4031 40.2951C84.4676 40.1074 83.9686 39.5443 83.9063 38.6684Z" fill="black"/>
</g>
<defs>
<linearGradient id="paint0_linear_2_1079" x1="53.467" y1="10.5105" x2="2.11479" y2="78.9505" gradientUnits="userSpaceOnUse">
<stop stop-color="#F43221"/>
<stop offset="1" stop-color="#F43221"/>
</linearGradient>
<linearGradient id="paint1_linear_2_1079" x1="37.9642" y1="25.9556" x2="31.3738" y2="81.3149" gradientUnits="userSpaceOnUse">
<stop stop-color="#F43221"/>
<stop offset="1" stop-color="#F43221"/>
</linearGradient>
<linearGradient id="paint2_linear_2_1079" x1="58.9858" y1="10.5106" x2="110.338" y2="78.9504" gradientUnits="userSpaceOnUse">
<stop stop-color="#F43221"/>
<stop offset="1" stop-color="#F43221"/>
</linearGradient>
<linearGradient id="paint3_linear_2_1079" x1="74.4902" y1="25.9556" x2="81.0807" y2="81.3149" gradientUnits="userSpaceOnUse">
<stop stop-color="#F43221"/>
<stop offset="1" stop-color="#F43221"/>
</linearGradient>
<linearGradient id="paint4_linear_2_1079" x1="32.3982" y1="27.7257" x2="80.0408" y2="27.7257" gradientUnits="userSpaceOnUse">
<stop stop-color="#F43221"/>
<stop offset="1" stop-color="#F43221"/>
</linearGradient>
<clipPath id="clip0_2_1079">
<rect width="108.462" height="60" fill="white" transform="translate(0.769531)"/>
</clipPath>
</defs>
</svg>
