<svg width="124" height="60" viewBox="0 0 124 60" fill="none" xmlns="http://www.w3.org/2000/svg">
<path opacity="0.75" d="M89.712 0C100.587 3.474 117.561 11.544 122.316 28.836C125.43 40.17 117.9 53.631 108.27 60H-16V0H89.712Z" fill="url(#paint0_linear_1_1585)"/>
<path opacity="0.3" d="M45.9155 39.6413L62.1672 39.5723V39.5763C62.1713 39.9176 62.4476 40.1899 62.7889 40.1899C62.793 40.1899 62.7971 40.1899 62.8011 40.1899C62.8377 40.1899 62.8743 40.1858 62.9108 40.1777V40.4499H62.8052V40.584H62.9149L62.919 40.901H62.8092V41.0351H62.9149L62.919 41.352H62.8092V41.4861H62.9149L62.919 41.803C62.919 41.803 62.8214 41.803 62.8133 41.803V41.9371H62.923L62.9271 42.254C62.9271 42.254 62.8255 42.254 62.8174 42.254V42.3881C62.8255 42.3881 62.923 42.3881 62.9271 42.3881L62.9311 42.7051H62.8214V42.8392C62.8296 42.8392 62.9271 42.8392 62.9271 42.8392L62.9311 43.1561H62.8214V43.2902C62.8296 43.2902 62.9271 43.2902 62.9311 43.2902L62.9352 43.6071H62.8255V43.7412H62.9352L62.9393 44.0582H62.8296V44.1922H62.9393L62.9433 44.5092H62.8336V44.6433H62.9433L62.9474 44.9602C62.9474 44.9602 62.8418 44.9602 62.8377 44.9602V45.0943H62.9474L62.9515 45.4112C62.9515 45.4112 62.8499 45.4112 62.8418 45.4112V45.5453C62.8458 45.5453 62.9474 45.5453 62.9515 45.5453L62.9555 45.8623C62.9555 45.8623 62.8539 45.8623 62.8458 45.8623V45.9963C62.8499 45.9963 62.9555 45.9963 62.9555 45.9963L62.9596 46.3133H62.8499V46.4474C62.858 46.4474 62.9555 46.4474 62.9596 46.4474L62.9637 46.7643H62.8539V46.8984H62.9637L62.9677 47.2153H62.858V47.3494H62.9677L62.9718 47.6664H62.8621V47.8005H62.9718L62.9758 48.1296C62.9271 48.1215 62.8783 48.1215 62.8661 48.1215C62.5248 48.1255 62.2526 48.4018 62.2526 48.7391L46.0009 48.8082L45.9155 39.6413Z" fill="url(#paint1_linear_1_1585)"/>
<path d="M60.9155 39.6413L71.1672 39.5723V39.5763C71.1713 39.9176 71.4476 40.1899 71.7889 40.1899C71.793 40.1899 71.7971 40.1899 71.8011 40.1899C71.8377 40.1899 71.8743 40.1858 71.9108 40.1777V40.4499H71.8052V40.584H71.9149L71.919 40.901H71.8092V41.0351H71.9149L71.919 41.352H71.8092V41.4861H71.9149L71.919 41.803C71.919 41.803 71.8214 41.803 71.8133 41.803V41.9371H71.923L71.9271 42.254C71.9271 42.254 71.8255 42.254 71.8174 42.254V42.3881C71.8255 42.3881 71.923 42.3881 71.9271 42.3881L71.9311 42.7051H71.8214V42.8392C71.8296 42.8392 71.9271 42.8392 71.9271 42.8392L71.9311 43.1561H71.8214V43.2902C71.8296 43.2902 71.9271 43.2902 71.9311 43.2902L71.9352 43.6071H71.8255V43.7412H71.9352L71.9393 44.0582H71.8296V44.1922H71.9393L71.9433 44.5092H71.8336V44.6433H71.9433L71.9474 44.9602C71.9474 44.9602 71.8418 44.9602 71.8377 44.9602V45.0943H71.9474L71.9515 45.4112C71.9515 45.4112 71.8499 45.4112 71.8418 45.4112V45.5453C71.8458 45.5453 71.9474 45.5453 71.9515 45.5453L71.9555 45.8623C71.9555 45.8623 71.8539 45.8623 71.8458 45.8623V45.9963C71.8499 45.9963 71.9555 45.9963 71.9555 45.9963L71.9596 46.3133H71.8499V46.4474C71.858 46.4474 71.9555 46.4474 71.9596 46.4474L71.9637 46.7643H71.8539V46.8984H71.9637L71.9677 47.2153H71.858V47.3494H71.9677L71.9718 47.6664H71.8621V47.8005H71.9718L71.9758 48.1296C71.9271 48.1215 71.8783 48.1215 71.8661 48.1215C71.5248 48.1255 71.2526 48.4018 71.2526 48.7391L61.0009 48.8082L60.9155 39.6413Z" fill="white"/>
<path d="M72.4756 48.7226V48.7185L77.5913 48.686L72.4756 48.7226Z" fill="white"/>
<path d="M71.8495 47.6582L71.8455 47.3412V47.2072L71.8414 46.8902V46.7561V46.4392V46.3051L71.8373 45.9882V45.8541L71.8333 45.5371V45.403L71.8292 45.0861V44.952V44.6351V44.501L71.8252 44.1841V44.05L71.8211 43.733V43.5989L71.817 43.282V43.1479V42.831V42.6969L71.813 42.3799V42.2459L71.8089 41.9289V41.7948L71.8048 41.4779V41.3438V41.0269V40.8928L71.8008 40.5758V40.4417V40.1817C71.8374 40.1817 71.8739 40.1776 71.9064 40.1695C72.1909 40.1126 72.4022 39.8607 72.3981 39.56L77.5139 39.5234V39.751C77.3514 39.751 77.2173 39.8851 77.2214 40.0476C77.2214 40.2101 77.3555 40.3442 77.518 40.3402L77.5221 40.653C77.3595 40.653 77.2254 40.7871 77.2295 40.9497C77.2336 41.1122 77.3636 41.2463 77.5261 41.2422L77.5302 41.5551C77.3677 41.5551 77.2336 41.6892 77.2376 41.8517C77.2376 42.0142 77.3717 42.1483 77.5343 42.1443L77.5383 42.4571C77.3758 42.4571 77.2417 42.5912 77.2458 42.7578C77.2458 42.9204 77.3799 43.0545 77.5424 43.0504L77.5465 43.3633C77.3839 43.3633 77.2498 43.4974 77.2539 43.6599C77.258 43.8224 77.388 43.9565 77.5505 43.9524L77.5546 44.2653C77.392 44.2653 77.2579 44.3994 77.262 44.5619C77.262 44.7245 77.3961 44.8586 77.5586 44.8545L77.5627 45.1674C77.4002 45.1674 77.2661 45.3015 77.2701 45.4681C77.2701 45.6306 77.4042 45.7647 77.5668 45.7606L77.5708 46.0735C77.4083 46.0735 77.2742 46.2076 77.2783 46.3701C77.2783 46.5326 77.4124 46.6667 77.5749 46.6627L77.579 46.9755C77.4164 46.9755 77.2823 47.1096 77.2864 47.2762C77.2864 47.4388 77.4205 47.5728 77.583 47.5688L77.5871 47.8817C77.4245 47.8817 77.2905 48.0157 77.2945 48.1783C77.2945 48.3408 77.4286 48.4749 77.5912 48.4708V48.6578L72.4753 48.6943C72.4712 48.3611 72.2031 48.093 71.8739 48.0848H71.8699C71.8658 48.0848 71.8577 48.0848 71.8536 48.0848L71.8495 47.7679V47.6582Z" fill="#FCFE5B"/>
<path d="M76.3716 41.1659L74.9331 41.1729L74.9364 41.8555L76.3749 41.8485L76.3716 41.1659Z" fill="#3B3B3B"/>
<path d="M76.3753 42.1493L74.937 42.1562L74.9413 43.0463L76.3796 43.0393L76.3753 42.1493Z" fill="#3B3B3B"/>
<path d="M76.3798 43.2748L74.9414 43.2817L74.9444 43.9076L76.3829 43.9006L76.3798 43.2748Z" fill="#3B3B3B"/>
<path d="M76.3842 44.0555L74.9458 44.0625L74.9482 44.5664L76.3866 44.5594L76.3842 44.0555Z" fill="#3B3B3B"/>
<path d="M76.3881 44.7909L74.9497 44.7979L74.9526 45.3992L76.391 45.3922L76.3881 44.7909Z" fill="#3B3B3B"/>
<path d="M76.3916 45.5585L74.9531 45.5654L74.957 46.3577L76.3955 46.3507L76.3916 45.5585Z" fill="#3B3B3B"/>
<path d="M76.3965 46.5907L74.958 46.5977L74.9606 47.1257L76.399 47.1188L76.3965 46.5907Z" fill="#3B3B3B"/>
<path d="M69.2415 42.8066L69.2374 43.1642C69.2374 43.4486 69.1033 43.6192 68.8149 43.6152C68.5264 43.6111 68.4045 43.4526 68.4004 43.1682L68.4045 42.8025C68.4045 42.5872 68.4979 42.3759 68.827 42.3799C69.1237 42.3799 69.2415 42.5872 69.2415 42.8066ZM68.6686 44.7123L69.7291 42.4246H69.9729L68.9205 44.7123H68.6686ZM68.7661 42.7822L68.762 43.1926C68.762 43.2617 68.7823 43.2901 68.8189 43.2901C68.8555 43.2901 68.8717 43.2698 68.8717 43.1926L68.8758 42.7822C68.8758 42.7131 68.8555 42.6928 68.823 42.6928C68.7864 42.6928 68.7661 42.7131 68.7661 42.7822ZM70.2655 43.9402L70.2614 44.2978C70.2614 44.5822 70.1273 44.7529 69.8388 44.7488C69.5503 44.7488 69.4284 44.5782 69.4243 44.3019L69.4284 43.9362C69.4284 43.729 69.5219 43.5095 69.851 43.5136C70.1476 43.5136 70.2655 43.7208 70.2655 43.9402ZM69.786 43.9159L69.7819 44.3263C69.7819 44.3953 69.8022 44.4238 69.8388 44.4238C69.8754 44.4238 69.8916 44.4035 69.8916 44.3263L69.8957 43.9159C69.8957 43.8468 69.8754 43.8265 69.8429 43.8265C69.8104 43.8265 69.79 43.8468 69.786 43.9159Z" fill="#3B3B3B"/>
<path d="M69.1032 45.4521C69.0992 45.8381 68.9651 45.9924 68.7701 45.9924C68.5386 45.9924 68.4492 45.7446 68.4492 45.4643C68.4492 45.1839 68.563 44.9442 68.7904 44.9483C69.0342 44.9483 69.1032 45.2205 69.1032 45.4521ZM68.6523 45.4683C68.6523 45.6999 68.693 45.8177 68.7742 45.8177C68.8595 45.8177 68.892 45.6674 68.892 45.4602C68.892 45.2814 68.8676 45.1189 68.7783 45.1189C68.7011 45.1189 68.6564 45.2489 68.6523 45.4683Z" fill="#3B3B3B"/>
<path d="M69.2292 44.96L69.6721 44.964V45.1387H69.4283V45.4029H69.6599V45.5695H69.4283L69.4242 45.992H69.2251L69.2292 44.96Z" fill="#3B3B3B"/>
<path d="M69.8263 44.9639L70.2692 44.9679V45.1427H70.0254V45.4068H70.257V45.5734H70.0254L70.0214 45.9959H69.8223L69.8263 44.9639Z" fill="#3B3B3B"/>
<path d="M73.5647 45.7686C73.6175 45.7726 73.8938 45.797 73.8938 46.0936C73.8938 46.3984 73.6257 46.4309 73.3372 46.4309C72.9918 46.4268 72.7846 46.3252 72.7886 46.0774C72.7886 45.7929 73.0365 45.7726 73.1218 45.7686V45.9595C73.0852 45.9636 72.9552 45.9636 72.9552 46.0814C72.9552 46.2033 73.1015 46.2318 73.3453 46.2358C73.5485 46.2358 73.7394 46.2196 73.7394 46.0936C73.7394 45.9798 73.6094 45.9677 73.5688 45.9636L73.5647 45.7686Z" fill="#3B3B3B"/>
<path d="M73.3371 44.9727C73.7313 44.9767 73.8979 45.0824 73.8979 45.3302C73.8979 45.5618 73.7272 45.6715 73.329 45.6715C72.943 45.6675 72.7886 45.5375 72.7886 45.314C72.7926 45.0824 72.9633 44.9727 73.3371 44.9727ZM73.329 45.4724C73.585 45.4724 73.7353 45.4359 73.7353 45.3221C73.7353 45.2043 73.5972 45.1677 73.329 45.1677C73.0811 45.1677 72.9511 45.2002 72.947 45.318C72.9511 45.4359 73.0893 45.4724 73.329 45.4724Z" fill="#3B3B3B"/>
<path d="M72.813 44.6352L73.5526 44.6393C73.642 44.6393 73.7435 44.619 73.7476 44.5012C73.7476 44.3874 73.6623 44.363 73.5566 44.363L72.8171 44.3589V44.168L73.5607 44.172C73.7517 44.172 73.9101 44.2492 73.9061 44.5093C73.9061 44.7653 73.7557 44.8384 73.5566 44.8343L72.813 44.8303V44.6352Z" fill="#3B3B3B"/>
<path d="M72.8169 43.997L72.821 43.676C72.821 43.4972 72.9307 43.3672 73.142 43.3672C73.3492 43.3672 73.4589 43.4891 73.4589 43.6923V43.806L73.8937 43.8101V44.0011L72.8169 43.997ZM73.3004 43.806V43.7126C73.3004 43.6069 73.2476 43.5582 73.1338 43.5582C73.0282 43.5582 72.9713 43.611 72.9713 43.7004V43.806H73.3004Z" fill="#3B3B3B"/>
<path d="M73.3532 42.5665C73.7474 42.5706 73.914 42.6762 73.914 42.9241C73.914 43.1557 73.7433 43.2654 73.3451 43.2654C72.9591 43.2614 72.8047 43.1313 72.8047 42.9078C72.8088 42.6762 72.9794 42.5624 73.3532 42.5665ZM73.3451 43.0663C73.6011 43.0663 73.7514 43.0297 73.7514 42.916C73.7514 42.7981 73.6133 42.7616 73.3451 42.7616C73.0972 42.7616 72.9672 42.7941 72.9632 42.9119C72.9672 43.0297 73.1054 43.0663 73.3451 43.0663Z" fill="#3B3B3B"/>
<path d="M73.8979 42.4206L72.8252 42.4125V42.1931C73.4184 41.9737 73.5322 41.933 73.585 41.9208C73.455 41.929 73.2965 41.929 73.1218 41.929H72.8252V41.7583L73.8979 41.7664V41.9737C73.264 42.1971 73.1503 42.2378 73.1015 42.25C73.2356 42.2418 73.39 42.2418 73.585 42.2459L73.8979 42.25V42.4206Z" fill="#3B3B3B"/>
<path d="M62.4018 48.1117L70.2969 48.0498L70.2906 47.2532L62.3956 47.3152L62.4018 48.1117Z" fill="#FC8B1E"/>
<path d="M68.9244 40.3848L68.8309 40.6855H68.5181L68.7741 40.8683L68.6806 41.1649L68.9285 40.978L69.1845 41.1609L69.0869 40.8642L69.3348 40.6814H69.0219L68.9244 40.3848Z" fill="#FC8B1E"/>
<path d="M67.8395 40.3936L67.746 40.6942H67.4331L67.6851 40.8771L67.5916 41.1737L67.8436 40.9909L68.0956 41.1696L67.998 40.873L68.25 40.6902H67.9371L67.8395 40.3936Z" fill="#FC8B1E"/>
<path d="M66.7505 40.4053L66.657 40.7019H66.3442L66.6002 40.8847L66.5067 41.1814L66.7586 40.9985L67.0105 41.1773L66.913 40.8807L67.1649 40.6978H66.852L66.7505 40.4053Z" fill="#FC8B1E"/>
<path d="M65.6657 40.4131L65.5722 40.7097H65.2593L65.5153 40.8926L65.4178 41.1892L65.6698 41.0063L65.9258 41.1851L65.8242 40.8926L66.0762 40.7056H65.7632L65.6657 40.4131Z" fill="#FC8B1E"/>
<path d="M64.5806 40.4219L64.4871 40.7185L64.1743 40.7226L64.4262 40.9013L64.3328 41.198L64.5846 41.0151L64.8365 41.198L64.739 40.9013L64.9909 40.7144L64.6781 40.7185L64.5806 40.4219Z" fill="#FC8B1E"/>
<path d="M63.4919 40.4297L63.3984 40.7263L63.0854 40.7304L63.3415 40.9092L63.248 41.2098L63.5 41.0229L63.752 41.2058L63.6544 40.9092L63.9023 40.7222L63.5935 40.7263L63.4919 40.4297Z" fill="#FC8B1E"/>
<path d="M66.0282 45.948C65.8738 45.8627 65.7519 45.7367 65.6585 45.5701C65.565 45.4076 65.5122 45.2125 65.5 44.9891V44.985L66.1826 44.9891V44.9931C66.1948 45.1272 66.2354 45.2288 66.3004 45.3019C66.3695 45.3751 66.4548 45.4157 66.5645 45.4157C66.6823 45.4157 66.7758 45.3791 66.8408 45.3019C66.9058 45.2247 66.9424 45.115 66.9424 44.9728L66.9464 44.6681C66.9464 44.5258 66.918 44.4161 66.8611 44.3389C66.8042 44.2617 66.7189 44.2211 66.6133 44.2211C66.5157 44.2211 66.4304 44.2455 66.3614 44.2942C66.2923 44.343 66.2435 44.4121 66.2151 44.5015L65.5772 44.4974L65.5935 42.417L67.5356 42.4332L67.5315 43.0915L66.272 43.0793L66.2679 43.7172C66.3207 43.6685 66.3898 43.6279 66.4792 43.5994C66.5686 43.571 66.6579 43.5588 66.7433 43.5588C66.9302 43.5588 67.0886 43.6035 67.2227 43.6929C67.3568 43.7782 67.4543 43.9082 67.5234 44.0748C67.5924 44.2414 67.6249 44.4405 67.6249 44.6762L67.6209 44.9809C67.6209 45.2166 67.5762 45.4157 67.4909 45.5782C67.4055 45.7448 67.2837 45.8708 67.1252 45.9561C66.9667 46.0415 66.7717 46.0821 66.5483 46.0821C66.3573 46.078 66.1826 46.0333 66.0282 45.948Z" fill="#3B3B3B"/>
<path d="M94.0967 34.0463V34.0423L102.552 34.0098L94.0967 34.0463Z" fill="white"/>
<path d="M93.0683 32.287V31.7587V31.5393L93.0642 31.0111V30.7917V30.2634V30.044L93.0602 29.5158V29.2964L93.0561 28.7681V28.5487L93.0521 28.0246V27.8051V27.281V27.0615L93.048 26.5333V26.3139L93.0439 25.7857V25.5663L93.0399 25.038V24.8186V24.2904V24.071L93.0358 23.5427V23.3233V22.7991V22.5797V22.0556V21.8361V21.3079V21.0885L93.0317 20.5603V20.3408V19.9101C93.0927 19.9101 93.1536 19.902 93.2105 19.8898C93.6778 19.7964 94.0272 19.3819 94.0272 18.8862L102.483 18.8496V19.2234C102.215 19.2234 101.995 19.4469 101.995 19.7151C101.995 19.9873 102.219 20.2027 102.487 20.2027L102.491 20.7228C102.223 20.7228 102.004 20.9463 102.004 21.2145C102.004 21.4826 102.227 21.702 102.495 21.702L102.499 22.2222C102.231 22.2222 102.012 22.4456 102.012 22.7138C102.012 22.982 102.235 23.2014 102.503 23.2014L102.507 23.7174C102.239 23.7174 102.02 23.9409 102.02 24.2091C102.02 24.4773 102.243 24.6967 102.511 24.6967L102.515 25.2168C102.247 25.2168 102.028 25.4403 102.028 25.7085C102.028 25.9766 102.251 26.1961 102.52 26.1961L102.524 26.7162C102.255 26.7162 102.036 26.9396 102.036 27.2078C102.036 27.4801 102.26 27.6954 102.528 27.6954L102.532 28.2115C102.264 28.2115 102.044 28.4349 102.044 28.7031C102.044 28.9713 102.268 29.1907 102.536 29.1907L102.54 29.7108C102.272 29.7108 102.052 29.9343 102.052 30.2025C102.052 30.4707 102.276 30.6901 102.544 30.6901L102.548 31.2102C102.28 31.2102 102.06 31.4337 102.06 31.7018C102.06 31.97 102.284 32.1894 102.552 32.1894L102.556 32.7095C102.288 32.7095 102.069 32.933 102.069 33.2012C102.069 33.4694 102.292 33.6888 102.56 33.6888V33.9976L94.1044 34.0301C94.1004 33.4775 93.6575 33.0305 93.1089 33.0184H93.1049C93.0967 33.0184 93.0886 33.0184 93.0805 33.0184V32.4942L93.0683 32.287Z" fill="#FFAA45"/>
<path d="M97.7276 21.3785L97.7222 22.5L100.286 22.5124L100.291 21.3909L97.7276 21.3785Z" fill="#3B3B3B"/>
<path d="M97.7185 22.9848L97.7114 24.4395L100.275 24.4519L100.282 22.9972L97.7185 22.9848Z" fill="#3B3B3B"/>
<path d="M97.7105 24.8325L97.7056 25.8564L100.27 25.8688L100.274 24.8449L97.7105 24.8325Z" fill="#3B3B3B"/>
<path d="M97.7027 26.1122L97.6987 26.937L100.263 26.9494L100.267 26.1246L97.7027 26.1122Z" fill="#3B3B3B"/>
<path d="M97.6981 27.3116L97.6934 28.2949L100.257 28.3073L100.262 27.324L97.6981 27.3116Z" fill="#3B3B3B"/>
<path d="M97.6904 28.5705L97.6841 29.8667L100.248 29.8791L100.254 28.5829L97.6904 28.5705Z" fill="#3B3B3B"/>
<path d="M97.6819 30.2615L97.6777 31.127L100.242 31.1394L100.246 30.2739L97.6819 30.2615Z" fill="#3B3B3B"/>
<path d="M75.0317 18.9791L91.9798 18.9141V18.9181C91.9838 19.4829 92.443 19.938 93.0037 19.934C93.0119 19.934 93.0159 19.934 93.024 19.934C93.085 19.934 93.1459 19.9258 93.2028 19.9136V20.3647H93.024V20.5841H93.2028L93.2069 21.1123H93.0281V21.3317H93.2069L93.211 21.86H93.0322V22.0794H93.211L93.215 22.6076C93.215 22.6076 93.0566 22.6076 93.0362 22.6076V22.827H93.215L93.2191 23.3553C93.2191 23.3553 93.0525 23.3553 93.0403 23.3553V23.5747C93.0525 23.5747 93.2191 23.5747 93.2191 23.5747L93.2231 24.0988H93.0444V24.3183C93.0566 24.3183 93.2191 24.3183 93.2231 24.3183L93.2272 24.8424H93.0484V25.0618C93.0606 25.0618 93.2272 25.0618 93.2272 25.0618L93.2313 25.586H93.0525V25.8054H93.2313L93.2353 26.3337H93.0566V26.5531H93.2353V27.0813H93.0566V27.3007H93.2353V27.829C93.2353 27.829 93.0647 27.829 93.0566 27.829V28.0484H93.2353L93.2394 28.5766C93.2394 28.5766 93.0728 28.5766 93.0606 28.5766V28.796C93.0687 28.796 93.2394 28.796 93.2394 28.796V29.3242C93.2394 29.3242 93.0728 29.3242 93.0606 29.3242V29.5437C93.0687 29.5437 93.2394 29.5437 93.2394 29.5437L93.2435 30.0678H93.0647V30.2873C93.0769 30.2873 93.2435 30.2873 93.2435 30.2873V30.8114H93.0647V31.0308H93.2435L93.2475 31.5591H93.0687V31.7785H93.2475L93.2516 32.3067H93.0728V32.5261H93.2516L93.2557 33.0666C93.1785 33.0544 93.0972 33.0503 93.0769 33.0503C92.5161 33.0544 92.061 33.5094 92.061 34.0702L75.113 34.1352L75.0317 18.9791Z" fill="white"/>
<path opacity="0.3" d="M55.373 18.9791L75.5268 18.9141V18.9181C75.5316 19.4829 76.0776 19.938 76.7444 19.934C76.7541 19.934 76.7589 19.934 76.7686 19.934C76.8411 19.934 76.9135 19.9258 76.9812 19.9136V20.3647H76.7686V20.5841H76.9812L76.986 21.1123H76.7734V21.3317H76.986L76.9909 21.86H76.7783V22.0794H76.9909L76.9957 22.6076C76.9957 22.6076 76.8072 22.6076 76.7831 22.6076V22.827H76.9957L77.0005 23.3553C77.0005 23.3553 76.8024 23.3553 76.7879 23.3553V23.5747C76.8024 23.5747 77.0005 23.5747 77.0005 23.5747L77.0053 24.0988H76.7927V24.3183C76.8072 24.3183 77.0005 24.3183 77.0053 24.3183L77.0102 24.8424H76.7976V25.0618C76.8121 25.0618 77.0102 25.0618 77.0102 25.0618L77.015 25.586H76.8024V25.8054H77.015L77.0198 26.3337H76.8072V26.5531H77.0198V27.0813H76.8072V27.3007H77.0198V27.829C77.0198 27.829 76.8169 27.829 76.8072 27.829V28.0484H77.0198L77.0247 28.5766C77.0247 28.5766 76.8266 28.5766 76.8121 28.5766V28.796C76.8217 28.796 77.0247 28.796 77.0247 28.796V29.3242C77.0247 29.3242 76.8266 29.3242 76.8121 29.3242V29.5437C76.8217 29.5437 77.0247 29.5437 77.0247 29.5437L77.0295 30.0678H76.8169V30.2873C76.8314 30.2873 77.0295 30.2873 77.0295 30.2873V30.8114H76.8169V31.0308H77.0295L77.0343 31.5591H76.8217V31.7785H77.0343L77.0392 32.3067H76.8266V32.5261H77.0392L77.044 33.0666C76.9522 33.0544 76.8556 33.0503 76.8314 33.0503C76.1646 33.0544 75.6234 33.5094 75.6234 34.0702L55.4697 34.1352L55.373 18.9791Z" fill="url(#paint2_linear_1_1585)"/>
<path d="M87.53 24.0908L87.5259 24.6719C87.5259 25.131 87.3106 25.4033 86.8474 25.4033C86.3841 25.4033 86.185 25.1432 86.1729 24.6841L86.1769 24.0949C86.1769 23.7455 86.3232 23.4082 86.8555 23.4082C87.339 23.4082 87.5341 23.7414 87.53 24.0908ZM86.6198 27.1708L88.3183 23.4732H88.7124L87.0261 27.1708H86.6198ZM86.762 24.0502L86.758 24.7166C86.758 24.8263 86.7905 24.871 86.8474 24.871C86.9042 24.871 86.9327 24.8385 86.9327 24.7125L86.9368 24.0543C86.9368 23.9446 86.9042 23.9121 86.8514 23.9121C86.7986 23.908 86.762 23.9446 86.762 24.0502ZM89.1878 25.9153L89.1838 26.4963C89.1838 26.9555 88.9684 27.2277 88.5052 27.2277C88.042 27.2277 87.8429 26.9555 87.8307 26.5085L87.8347 25.9193C87.8347 25.5861 87.981 25.2326 88.5133 25.2326C88.9969 25.2286 89.1878 25.5618 89.1878 25.9153ZM88.4199 25.8746L88.4158 26.541C88.4158 26.6507 88.4483 26.6954 88.5052 26.6954C88.5621 26.6954 88.5905 26.6629 88.5905 26.5369L88.5946 25.8787C88.5946 25.769 88.5621 25.7365 88.5093 25.7365C88.4524 25.7324 88.4199 25.769 88.4199 25.8746Z" fill="#F13005"/>
<path d="M87.319 29.3655C87.3149 29.9872 87.0955 30.2391 86.7827 30.2351C86.4089 30.2351 86.2626 29.8369 86.2667 29.3858C86.2667 28.9348 86.4495 28.5488 86.8111 28.5488C87.2093 28.5488 87.3231 28.9877 87.319 29.3655ZM86.5999 29.3899C86.5999 29.7637 86.6689 29.9547 86.7989 29.9547C86.933 29.9547 86.9858 29.7109 86.9858 29.3777C86.9858 29.0892 86.9452 28.8292 86.7989 28.8251C86.673 28.8251 86.5999 29.0364 86.5999 29.3899Z" fill="#F13005"/>
<path d="M87.5262 28.5688L88.2415 28.5729V28.8533H87.8432V29.2759H88.213V29.544H87.8432L87.8391 30.2226H87.5181L87.5262 28.5688Z" fill="#F13005"/>
<path d="M88.4852 28.5732L89.2002 28.5773V28.8577H88.802V29.2803H89.1717V29.5484H88.802L88.798 30.227H88.4771L88.4852 28.5732Z" fill="#F13005"/>
<path d="M95.7095 29.1782C95.7989 29.1863 96.2581 29.2229 96.254 29.7146C96.254 30.2184 95.807 30.2753 95.3316 30.2753C94.7587 30.2713 94.4214 30.1047 94.4214 29.6902C94.4214 29.2189 94.8277 29.1863 94.97 29.1782V29.4911C94.909 29.4952 94.6936 29.4992 94.6936 29.6943C94.6936 29.8934 94.9374 29.9421 95.3438 29.9462C95.677 29.9462 95.9939 29.9137 95.9939 29.7105C95.9939 29.5195 95.7786 29.5074 95.7136 29.4992L95.7095 29.1782Z" fill="#3B3B3B"/>
<path d="M95.3321 27.8623C95.9822 27.8664 96.2625 28.0411 96.2625 28.4514C96.2625 28.8334 95.9822 29.0203 95.328 29.0162C94.6901 29.0122 94.4301 28.7968 94.4341 28.4311C94.4301 28.0451 94.7145 27.8623 95.3321 27.8623ZM95.3239 28.6912C95.7465 28.6912 95.9944 28.6302 95.9944 28.4433C95.9944 28.2483 95.7628 28.1914 95.3239 28.1874C94.9136 28.1874 94.6982 28.2442 94.6982 28.4393C94.6982 28.6302 94.9258 28.6912 95.3239 28.6912Z" fill="#3B3B3B"/>
<path d="M94.4621 27.3055L95.6811 27.3096C95.8273 27.3096 95.998 27.273 95.998 27.078C95.998 26.8911 95.8517 26.8464 95.6851 26.8464L94.4621 26.8423V26.5254L95.6892 26.5295C96.0061 26.5295 96.2662 26.6554 96.2662 27.0861C96.2662 27.5087 96.0224 27.6306 95.6851 27.6265L94.458 27.6224L94.4621 27.3055Z" fill="#3B3B3B"/>
<path d="M94.4663 26.2484V25.7161C94.4663 25.4235 94.6451 25.2041 94.9945 25.2041C95.3359 25.2041 95.5187 25.4032 95.5187 25.7445V25.9355L96.242 25.9396V26.2565L94.4663 26.2484ZM95.2627 25.9314V25.777C95.2627 25.6023 95.1774 25.521 94.9905 25.521C94.8117 25.521 94.7264 25.6104 94.7223 25.7567V25.9274L95.2627 25.9314Z" fill="#3B3B3B"/>
<path d="M95.3483 23.8838C95.9984 23.8879 96.2788 24.0626 96.2788 24.473C96.2788 24.8549 95.9984 25.0418 95.3442 25.0378C94.7062 25.0337 94.4462 24.8184 94.4502 24.4527C94.4462 24.0666 94.7306 23.8838 95.3483 23.8838ZM95.3361 24.7127C95.7587 24.7127 96.0065 24.6518 96.0065 24.4648C96.0065 24.2698 95.7749 24.2129 95.3361 24.2089C94.9257 24.2089 94.7103 24.2657 94.7103 24.4608C94.7103 24.6518 94.9419 24.7127 95.3361 24.7127Z" fill="#3B3B3B"/>
<path d="M96.2462 23.6402L94.4746 23.6321V23.2705C95.4539 22.9088 95.6448 22.8357 95.7302 22.8154V22.8113C95.5189 22.8276 95.2548 22.8235 94.9663 22.8235H94.4787V22.5391L96.2503 22.5472V22.8926C95.206 23.2664 95.015 23.3355 94.9338 23.3558V23.3598C95.1532 23.3477 95.4132 23.3477 95.7302 23.3477H96.2462V23.6402Z" fill="#3B3B3B"/>
<path d="M77.4487 32.9908L90.5 32.9277L90.4936 31.6072L77.4424 31.6703L77.4487 32.9908Z" fill="#F13005"/>
<path d="M89.0134 20.0156L88.8549 20.5073H88.3389L88.7574 20.808L88.603 21.2996L89.0174 20.9949L89.436 21.2956L89.2734 20.808L89.6919 20.5032H89.1759L89.0134 20.0156Z" fill="#F13005"/>
<path d="M87.2175 20.0234L87.059 20.5151H86.543L86.9615 20.8198L86.8071 21.3115L87.2215 21.0027L87.6401 21.3074L87.4775 20.8158L87.8961 20.511H87.38L87.2175 20.0234Z" fill="#F13005"/>
<path d="M85.4212 20.0322L85.2627 20.5239L84.7466 20.528L85.1652 20.8286L85.0107 21.3203L85.4252 21.0155L85.8438 21.3162L85.6813 20.8246L86.0998 20.5198L85.5837 20.5239L85.4212 20.0322Z" fill="#F13005"/>
<path d="M83.6252 20.04L83.4667 20.5317L82.9507 20.5358L83.3692 20.8364L83.2148 21.3281L83.6293 21.0234L84.0478 21.324L83.8852 20.8324L84.3038 20.5276L83.7877 20.5317L83.6252 20.04Z" fill="#F13005"/>
<path d="M81.8293 20.0483L81.6708 20.54L81.1548 20.5441L81.5733 20.8447L81.4189 21.3364L81.8334 21.0317L82.2519 21.3323L82.0893 20.8407L82.5079 20.5359L81.9918 20.54L81.8293 20.0483Z" fill="#F13005"/>
<path d="M80.0334 20.0562L79.8749 20.5478L79.3589 20.5519L79.7774 20.8526L79.623 21.3442L80.0375 21.0395L80.456 21.3402L80.2934 20.8526L80.712 20.5437L80.1959 20.5478L80.0334 20.0562Z" fill="#F13005"/>
<path d="M46.3403 6.43563L59.221 6.38281V6.38688C59.2251 6.81352 59.5705 7.1589 60.0012 7.1589C60.0052 7.1589 60.0134 7.1589 60.0174 7.1589C60.0621 7.1589 60.1109 7.15078 60.1515 7.14265V7.48397H60.0174V7.65056H60.1515V8.04877H60.0174V8.21536H60.1515V8.61357H60.0174V8.78016H60.1515V9.17837C60.1515 9.17837 60.0296 9.17837 60.0174 9.17837V9.34496H60.1515V9.74316C60.1515 9.74316 60.0255 9.74316 60.0174 9.74316V9.90976C60.0255 9.90976 60.1515 9.90976 60.1515 9.90976V10.308H60.0174V10.4746C60.0255 10.4746 60.1515 10.4746 60.1515 10.4746V10.8728H60.0174V11.0394C60.0255 11.0394 60.1515 11.0394 60.1515 11.0394V11.4376H60.0174V11.6042H60.1515V12.0024H60.0174V12.169H60.1515V12.5672H60.0174V12.7338H60.1515V13.132C60.1515 13.132 60.0215 13.132 60.0174 13.132V13.2986H60.1515V13.6968C60.1515 13.6968 60.0255 13.6968 60.0174 13.6968V13.8634C60.0215 13.8634 60.1515 13.8634 60.1515 13.8634V14.2616C60.1515 14.2616 60.0255 14.2616 60.0174 14.2616V14.4282C60.0215 14.4282 60.1515 14.4282 60.1515 14.4282V14.8264H60.0174V14.993C60.0255 14.993 60.1515 14.993 60.1515 14.993V15.3912H60.0174V15.5578H60.1515V15.956H60.0174V16.1226H60.1515V16.5208H60.0174V16.6874H60.1515V17.0977C60.0946 17.0896 60.0296 17.0856 60.0134 17.0856C59.5867 17.0896 59.2413 17.435 59.2413 17.8616L46.3606 17.9145L46.3403 6.43563Z" fill="white"/>
<path opacity="0.3" d="M33.7021 6.43563L46.5828 6.38281V6.38688C46.5869 6.81352 46.9323 7.1589 47.363 7.1589C47.367 7.1589 47.3752 7.1589 47.3792 7.1589C47.4239 7.1589 47.4727 7.15078 47.5133 7.14265V7.48397H47.3792V7.65056H47.5133V8.04877H47.3792V8.21536H47.5133V8.61357H47.3792V8.78016H47.5133V9.17837C47.5133 9.17837 47.3914 9.17837 47.3792 9.17837V9.34496H47.5133V9.74316C47.5133 9.74316 47.3874 9.74316 47.3792 9.74316V9.90976C47.3874 9.90976 47.5133 9.90976 47.5133 9.90976V10.308H47.3792V10.4746C47.3874 10.4746 47.5133 10.4746 47.5133 10.4746V10.8728H47.3792V11.0394C47.3874 11.0394 47.5133 11.0394 47.5133 11.0394V11.4376H47.3792V11.6042H47.5133V12.0024H47.3792V12.169H47.5133V12.5672H47.3792V12.7338H47.5133V13.132C47.5133 13.132 47.3833 13.132 47.3792 13.132V13.2986H47.5133V13.6968C47.5133 13.6968 47.3874 13.6968 47.3792 13.6968V13.8634C47.3833 13.8634 47.5133 13.8634 47.5133 13.8634V14.2616C47.5133 14.2616 47.3874 14.2616 47.3792 14.2616V14.4282C47.3833 14.4282 47.5133 14.4282 47.5133 14.4282V14.8264H47.3792V14.993C47.3874 14.993 47.5133 14.993 47.5133 14.993V15.3912H47.3792V15.5578H47.5133V15.956H47.3792V16.1226H47.5133V16.5208H47.3792V16.6874H47.5133V17.0977C47.4564 17.0896 47.3914 17.0856 47.3752 17.0856C46.9485 17.0896 46.6031 17.435 46.6031 17.8616L33.7225 17.9145L33.7021 6.43563Z" fill="url(#paint3_linear_1_1585)"/>
<path d="M60.8345 17.8909V17.8868L67.2625 17.8584L60.8345 17.8909Z" fill="white"/>
<path d="M60.0542 16.5494V16.1512V15.9846V15.5864V15.4198V15.0216V14.855V14.4568V14.2902V13.892V13.7254V13.3272V13.1606V12.7624V12.5958V12.1976V12.031V11.6328V11.4662V11.068V10.9014V10.5032V10.3366V9.93836V9.77177V9.37356V9.20697V8.80876V8.64217V8.24396V8.07737V7.67916V7.51257V7.1875C60.0989 7.1875 60.1436 7.17938 60.1883 7.17125C60.5418 7.09811 60.81 6.78524 60.81 6.40735L67.2381 6.37891V6.66334C67.0309 6.66334 66.8684 6.82993 66.8684 7.03716C66.8684 7.24439 67.035 7.40692 67.2422 7.40692L67.2462 7.80106C67.039 7.80106 66.8765 7.96766 66.8765 8.17489C66.8765 8.38212 67.0431 8.54465 67.2503 8.54465L67.2544 8.93879C67.0471 8.93879 66.8846 9.10538 66.8846 9.31261C66.8846 9.51984 67.0512 9.68237 67.2584 9.68237L67.2625 10.0765C67.0553 10.0765 66.8927 10.2431 66.8927 10.4503C66.8927 10.6576 67.0593 10.8201 67.2666 10.8201L67.2706 11.2142C67.0634 11.2142 66.9009 11.3808 66.9009 11.5881C66.9009 11.7953 67.0675 11.9578 67.2747 11.9578L67.2788 12.352C67.0715 12.352 66.909 12.5186 66.909 12.7258C66.909 12.933 67.0756 13.0955 67.2828 13.0955L67.2869 13.4897C67.0797 13.4897 66.9171 13.6603 66.9171 13.8635C66.9171 14.0707 67.0837 14.2333 67.2909 14.2333L67.295 14.6274C67.0878 14.6274 66.9252 14.794 66.9252 15.0012C66.9252 15.2085 67.0918 15.371 67.2991 15.371L67.3031 15.7651C67.0959 15.7651 66.9334 15.9317 66.9334 16.139C66.9334 16.3462 67.1 16.5087 67.3072 16.5087L67.3113 16.9029C67.104 16.9029 66.9415 17.0695 66.9415 17.2767C66.9415 17.4839 67.1081 17.6465 67.3153 17.6465V17.8821L60.8872 17.9065C60.8831 17.488 60.5459 17.1467 60.1314 17.1385H60.1273C60.1192 17.1385 60.1152 17.1385 60.107 17.1385V16.7403L60.0542 16.5494Z" fill="#54B5FF"/>
<path d="M63.2994 8.29626L61.353 8.30566L61.3572 9.1752L63.3036 9.16579L63.2994 8.29626Z" fill="#3B3B3B"/>
<path d="M63.3068 9.5443L61.3604 9.55371L61.3658 10.6834L63.3123 10.674L63.3068 9.5443Z" fill="#3B3B3B"/>
<path d="M63.3115 10.9789L61.3652 10.9883L61.3691 11.7847L63.3154 11.7753L63.3115 10.9789Z" fill="#3B3B3B"/>
<path d="M63.3158 11.974L61.3696 11.9834L61.3727 12.6254L63.3189 12.6159L63.3158 11.974Z" fill="#3B3B3B"/>
<path d="M63.3237 12.9047L61.3774 12.9141L61.3811 13.678L63.3274 13.6686L63.3237 12.9047Z" fill="#3B3B3B"/>
<path d="M63.3272 13.8841L61.3809 13.8936L61.3857 14.9012L63.3321 14.8918L63.3272 13.8841Z" fill="#3B3B3B"/>
<path d="M63.332 15.1966L61.3857 15.2061L61.389 15.8765L63.3352 15.8671L63.332 15.1966Z" fill="#3B3B3B"/>
<path d="M56.0151 10.2759V10.7594C56.0151 11.1414 55.8364 11.3689 55.4504 11.3689C55.0644 11.3689 54.8978 11.1536 54.8896 10.7716V10.28C54.8896 9.9874 55.0115 9.70703 55.4544 9.70703C55.8526 9.70703 56.0151 9.98334 56.0151 10.2759ZM55.2553 12.8439L56.6734 9.76392H57.0025L55.5966 12.8439H55.2553ZM55.3732 10.2434L55.3691 10.796C55.3691 10.8854 55.3975 10.926 55.4463 10.926C55.4951 10.926 55.5194 10.8976 55.5194 10.7919L55.5235 10.2434C55.5235 10.154 55.4951 10.1256 55.4504 10.1256C55.4016 10.1256 55.3732 10.154 55.3732 10.2434ZM57.3926 11.7956V12.2791C57.3926 12.6611 57.2138 12.8886 56.8278 12.8886C56.4418 12.8886 56.2752 12.661 56.2671 12.2913V11.7996C56.2671 11.5233 56.389 11.2267 56.8318 11.2267C57.2341 11.2267 57.3966 11.503 57.3926 11.7956ZM56.7546 11.7631L56.7506 12.3157C56.7506 12.4051 56.779 12.4457 56.8278 12.4457C56.8765 12.4457 56.9009 12.4173 56.9009 12.3116L56.905 11.7631C56.905 11.6737 56.8765 11.6452 56.8318 11.6452C56.7831 11.6452 56.7546 11.6737 56.7546 11.7631Z" fill="#00579C"/>
<path d="M55.8367 14.1786C55.8367 14.6946 55.6498 14.9059 55.3897 14.9059C55.0768 14.9059 54.959 14.5727 54.959 14.1989C54.959 13.8251 55.1093 13.5 55.4141 13.5C55.7473 13.5 55.8408 13.8657 55.8367 14.1786ZM55.2353 14.203C55.2353 14.5158 55.2922 14.6743 55.4019 14.6743C55.5157 14.6743 55.5563 14.4711 55.5604 14.1908C55.5604 13.951 55.5238 13.7316 55.406 13.7316C55.2963 13.7316 55.2394 13.9063 55.2353 14.203Z" fill="#00579C"/>
<path d="M56.007 13.5161L56.6043 13.5202V13.7518H56.2752V14.1053H56.584V14.3288H56.2752L56.2711 14.8936H56.0029L56.007 13.5161Z" fill="#00579C"/>
<path d="M56.8078 13.52L57.4051 13.5241V13.7557H57.076V14.1092H57.3848V14.3327H57.076L57.0719 14.8975H56.8037L56.8078 13.52Z" fill="#00579C"/>
<path d="M65.113 14.1885C65.1821 14.1966 65.5275 14.221 65.5275 14.5948C65.5275 14.9768 65.1902 15.0215 64.8285 15.0215C64.3937 15.0215 64.1337 14.8914 64.1377 14.5786C64.1377 14.221 64.4466 14.1925 64.5522 14.1885V14.4282C64.5075 14.4323 64.3409 14.4363 64.3409 14.5826C64.3409 14.733 64.5238 14.7736 64.8326 14.7736C65.0886 14.7736 65.3243 14.7492 65.3243 14.5948C65.3243 14.4526 65.1618 14.4404 65.1089 14.4323L65.113 14.1885Z" fill="#3B3B3B"/>
<path d="M64.8244 13.1895C65.3161 13.1895 65.5314 13.3276 65.5314 13.6364C65.5314 13.9249 65.3201 14.0671 64.8203 14.0671C64.3327 14.0671 64.1377 13.9005 64.1377 13.6202C64.1377 13.3276 64.3571 13.1895 64.8244 13.1895ZM64.8163 13.8193C65.1373 13.8193 65.3282 13.7746 65.3282 13.6324C65.3282 13.482 65.1535 13.4414 64.8203 13.4373C64.5075 13.4373 64.3449 13.482 64.3449 13.6283C64.3409 13.7705 64.5156 13.8193 64.8163 13.8193Z" fill="#3B3B3B"/>
<path d="M64.1621 12.767L65.0885 12.771C65.1983 12.771 65.3283 12.7426 65.3323 12.5963C65.3323 12.4541 65.2226 12.4216 65.0926 12.4216L64.1621 12.4175V12.1777L65.0967 12.1818C65.3405 12.1818 65.5355 12.2793 65.5355 12.6044C65.5355 12.9254 65.3486 13.0189 65.0967 13.0148L64.1621 13.0108V12.767Z" fill="#3B3B3B"/>
<path d="M64.166 11.9624V11.556C64.166 11.3325 64.3001 11.1659 64.5683 11.17C64.8283 11.17 64.9665 11.3244 64.9665 11.5804V11.7267L65.515 11.7307V11.9705L64.166 11.9624ZM64.7714 11.7226V11.6048C64.7714 11.4707 64.7064 11.4097 64.5642 11.4097C64.4301 11.4097 64.3611 11.4788 64.3611 11.5885V11.7186L64.7714 11.7226Z" fill="#3B3B3B"/>
<path d="M64.8366 10.1661C65.3283 10.1661 65.5436 10.3042 65.5436 10.613C65.5436 10.9015 65.3323 11.0437 64.8325 11.0437C64.3449 11.0437 64.1499 10.8771 64.1499 10.5968C64.1499 10.3042 64.3693 10.162 64.8366 10.1661ZM64.8285 10.7959C65.1495 10.7959 65.3405 10.7512 65.3405 10.609C65.3405 10.4586 65.1657 10.418 64.8325 10.4139C64.5197 10.4139 64.3571 10.4586 64.3571 10.6049C64.3531 10.7471 64.5278 10.7918 64.8285 10.7959Z" fill="#3B3B3B"/>
<path d="M65.5194 9.9793L64.1704 9.97524V9.703C64.9181 9.42669 65.0603 9.37387 65.1253 9.35762C64.9628 9.36981 64.7637 9.36981 64.5442 9.36574H64.1704V9.15039L65.5194 9.15445V9.41857C64.723 9.703 64.5808 9.75582 64.5199 9.77207C64.6864 9.76395 64.8856 9.76395 65.1253 9.76395H65.5194V9.9793Z" fill="#3B3B3B"/>
<path d="M58.0978 16.0376L48.1753 16.0869L48.1803 17.0906L58.1028 17.0412L58.0978 16.0376Z" fill="#00579C"/>
<path d="M56.4011 7.39893L56.2833 7.77276L55.8892 7.77683L56.2102 8.00438L56.0883 8.37822L56.4052 8.1466L56.7262 8.37416L56.6002 8.00438L56.9172 7.7687L56.523 7.77276L56.4011 7.39893Z" fill="#00579C"/>
<path d="M55.0359 7.40723L54.9181 7.78107H54.5239L54.8449 8.01269L54.723 8.38653L55.04 8.15491L55.361 8.38246L55.235 8.00862L55.5519 7.777L55.1578 7.78107L55.0359 7.40723Z" fill="#00579C"/>
<path d="M53.6706 7.41504L53.5528 7.78885H53.1587L53.4797 8.01638L53.3578 8.39019L53.6747 8.15859L53.9957 8.39019L53.8697 8.01638L54.1866 7.78478H53.7925L53.6706 7.41504Z" fill="#00579C"/>
<path d="M52.3054 7.41992L52.1876 7.79375L51.7935 7.79781L52.1145 8.02535L51.9926 8.39918L52.3095 8.16757L52.6305 8.39511L52.5045 8.02535L52.8215 7.79375H52.4273L52.3054 7.41992Z" fill="#00579C"/>
<path d="M50.9402 7.42773L50.8224 7.80156H50.4282L50.7492 8.03317L50.6273 8.40699L50.9443 8.17538L51.2653 8.40293L51.1393 8.0291L51.4562 7.7975L51.0662 7.80156L50.9402 7.42773Z" fill="#00579C"/>
<path d="M49.5749 7.43555L49.4571 7.80937H49.063L49.384 8.03692L49.2621 8.41074L49.579 8.17913L49.9 8.41074L49.774 8.03692L50.0909 7.80531H49.7009L49.5749 7.43555Z" fill="#00579C"/>
<path d="M43.1753 3.64885L46.3813 0L50.8185 0.414458L43.1753 3.64885Z" fill="white"/>
<path d="M78.5628 10.0768L78.2378 7.98828L80.6187 9.34136L78.5628 10.0768Z" fill="#FCE05B"/>
<path d="M60.7245 34.5784L48.1079 33.144L56.3158 37.5243L60.7245 34.5784Z" fill="#33A6FF"/>
<path d="M92.0162 49.1131L91.4432 48.0567L88.3389 47.9551L90.5331 49.4179L92.0162 49.1131Z" fill="white"/>
<path d="M68.8148 25.3262L66.641 25.9072L65.7227 26.7524L67.9006 27.37L70.3467 26.472L68.8148 25.3262Z" fill="#33A6FF"/>
<path d="M58.2539 56.4549L62.1221 58.8969L61.923 56.7759L57.0269 53.2002L58.2539 56.4549Z" fill="#FCA858"/>
<path d="M9.22255 7.54523C9.42165 8.16286 31.0871 58.6332 31.2659 58.8973C31.7941 60.096 33.6226 59.9537 34.35 59.2427C34.484 59.1086 34.5978 58.9542 34.6832 58.7794C34.6913 58.4341 34.6506 58.1171 34.5775 57.8286L38.2954 50.4984C38.5026 50.088 38.2751 48.865 37.7875 47.7516L21.4815 10.2798C21.002 9.17462 20.2585 8.16692 19.8156 8.02877L12.0994 5.4445C11.8881 4.77406 11.1892 4.52213 10.5309 4.65216C9.61263 4.83907 8.52366 5.95242 9.22255 7.54523Z" fill="#F10101"/>
<path d="M34.7321 58.6863L38.8848 50.3159C39.0879 49.9055 38.8523 48.6743 38.3687 47.5569L21.9733 9.88197C21.4898 8.76862 20.7462 7.75279 20.3033 7.61058L11.2625 4.67687C10.5352 4.4412 10.4498 5.44484 11.0918 6.92794L32.9402 57.2154C33.5903 58.7107 34.3948 59.3608 34.7321 58.6863Z" fill="black"/>
<path d="M34.5044 58.4828C34.5328 58.4503 34.5572 58.4138 34.5775 58.3691L38.7546 50.0434C38.9293 49.6939 38.7262 48.6131 38.2995 47.6338L21.8675 9.8736C21.4449 8.89841 20.7948 8.00854 20.4128 7.88665L11.3882 5.0017C11.372 4.99764 11.3517 4.98952 11.3354 4.98545C11.0591 4.92044 10.8925 5.07891 10.8722 5.43648C10.8519 5.80217 10.9819 6.34259 11.246 6.94802L33.0294 57.0932C33.5454 58.2634 34.1793 58.8567 34.5044 58.4828Z" fill="black"/>
<path d="M33.273 56.813L38.2343 47.9347L21.4285 9.32104L11.4043 6.47266L33.273 56.813Z" fill="white"/>
<path d="M13.4238 11.1292L22.9847 12.8927L21.4285 9.32103L11.4043 6.47266L13.4238 11.1292Z" fill="#1FBFC7"/>
<path d="M16.6299 10.796L20.1568 11.5315L19.8276 10.7716L16.2642 9.95898L16.6299 10.796Z" fill="#D2F2F4"/>
<path d="M25.2036 35.9808L30.9898 32.1775L25.5897 20.207L18.5317 21.1944L25.2036 35.9808Z" fill="#04BEF5"/>
<path d="M25.1383 29.2354L27.3204 28.2887C27.361 28.2724 27.3691 28.1993 27.3447 28.1059L26.5321 25.2981C26.5117 25.2331 26.4792 25.1681 26.4386 25.1193C26.398 25.0706 26.3533 25.0503 26.3248 25.0584L23.1554 26.0376C23.1188 26.0498 23.0985 26.0945 23.1026 26.1595C23.1066 26.2245 23.1351 26.3018 23.1757 26.3668L24.9677 29.1176C25.0205 29.2111 25.0896 29.2558 25.1383 29.2354ZM27.0644 27.9067L25.0164 28.76L23.513 26.444L26.3776 25.5135L27.0644 27.9067Z" fill="#025B75"/>
<path d="M25.8781 30.3731L27.7026 29.4913C27.7513 29.4669 27.7513 29.3532 27.7026 29.2394C27.6497 29.1256 27.5685 29.0525 27.5157 29.0768L25.7563 29.8936C25.6262 29.9464 25.484 29.7879 25.3865 29.601C25.3012 29.4344 25.2524 29.2475 25.2849 29.1703L22.591 25.0176C22.5341 24.9282 22.4569 24.8753 22.4081 24.8916L21.6117 25.1029C21.5426 25.1232 21.5345 25.241 21.5914 25.3711C21.6483 25.5011 21.7539 25.5864 21.823 25.5702L22.53 25.3711L25.0411 29.2516C25.1264 29.8855 25.6628 30.4746 25.8781 30.3731Z" fill="#025B75"/>
<path d="M27.4503 30.4747C27.5722 30.7429 27.7672 30.9095 27.8851 30.8445C28.0029 30.7835 27.9988 30.5153 27.881 30.2512C27.7632 29.9871 27.5681 29.8205 27.4503 29.8773C27.3284 29.9424 27.3284 30.2065 27.4503 30.4747Z" fill="#025B75"/>
<path d="M26.3088 31.0598C26.4347 31.3401 26.642 31.5108 26.7679 31.4417C26.8939 31.3727 26.8939 31.0964 26.772 30.8201C26.6501 30.5438 26.4429 30.3731 26.3169 30.4381C26.1869 30.5031 26.1828 30.7794 26.3088 31.0598Z" fill="#025B75"/>
<path d="M26.2152 28.7683C26.2721 28.7439 26.2721 28.6301 26.2192 28.5123L24.9637 25.7289C24.9108 25.611 24.8215 25.5298 24.7646 25.546C24.7077 25.5623 24.7036 25.676 24.7564 25.7939L26.0201 28.5976C26.0689 28.7154 26.1583 28.7926 26.2152 28.7683Z" fill="#025B75"/>
<path d="M26.7638 28.5324C26.8085 28.5121 26.8166 28.4308 26.7841 28.3292L25.8455 25.5053C25.8089 25.3915 25.7236 25.2899 25.6586 25.2818C25.5936 25.2737 25.5733 25.359 25.6099 25.4768L26.5525 28.3211C26.5931 28.439 26.6744 28.5405 26.7394 28.5405C26.7475 28.5365 26.7556 28.5324 26.7638 28.5324Z" fill="#025B75"/>
<path d="M25.6708 29.0036C25.6749 28.9995 25.6789 28.9995 25.683 28.9955C25.7318 28.9548 25.7196 28.8248 25.6586 28.711L24.1755 25.944C24.1145 25.8262 24.0211 25.7612 23.9683 25.7978C23.9154 25.8343 23.9236 25.9603 23.9886 26.0781L25.4839 28.8654C25.5408 28.967 25.618 29.028 25.6708 29.0036Z" fill="#025B75"/>
<path d="M24.2606 27.8944L26.914 26.8868C26.9668 26.8665 26.9668 26.7608 26.914 26.647C26.8611 26.5333 26.7799 26.4561 26.727 26.4764L24.0574 27.4475C23.9965 27.4719 23.9884 27.5897 24.0453 27.7116C24.1021 27.8376 24.1997 27.9188 24.2606 27.8944Z" fill="#025B75"/>
<path d="M28.2186 39.4992L31.8431 36.3908C32.1031 36.1673 32.0584 35.44 31.7537 34.7614C31.4449 34.0828 30.9816 33.6846 30.7094 33.8797L26.9142 36.6021C26.5445 36.8662 26.5363 37.752 26.9061 38.5687C27.2718 39.3895 27.8651 39.804 28.2186 39.4992Z" fill="#F15330"/>
<path d="M31.0709 35.6597L31.1725 35.8141L31.2335 35.7653L30.7946 35.0908L30.7134 35.1518L30.949 35.9929L31.0181 35.936L30.9653 35.7409L31.0709 35.6597ZM30.9125 35.6028C30.8597 35.424 30.8272 35.3143 30.8068 35.2412C30.8475 35.3102 30.9165 35.4159 30.9937 35.5418L30.9125 35.6028Z" fill="white"/>
<path d="M30.5671 35.2651L30.4452 35.3586C30.3558 35.4277 30.3639 35.6186 30.4655 35.8462C30.5671 36.0697 30.7011 36.1956 30.7946 36.1184L30.9124 36.025L30.5671 35.2651ZM30.7865 35.9478L30.7377 35.9884C30.6808 36.0331 30.6036 35.9437 30.5345 35.7974C30.4777 35.6715 30.4492 35.5374 30.5102 35.4927L30.5589 35.452L30.7865 35.9478Z" fill="white"/>
<path d="M30.2377 35.5171L30.1118 35.6146C30.0183 35.6837 30.0264 35.8828 30.1321 36.1103C30.2337 36.3378 30.3718 36.4637 30.4653 36.3866L30.5831 36.289L30.2377 35.5171ZM30.4571 36.2078L30.4084 36.2484C30.3474 36.2972 30.2702 36.2078 30.2052 36.0534C30.1483 35.9274 30.1199 35.7893 30.1808 35.7406L30.2337 35.6999L30.4571 36.2078Z" fill="white"/>
<path d="M29.7868 36.0537L29.8844 35.9765L29.8234 35.8384L29.5552 36.0456L29.6202 36.1878L29.7177 36.1106L30.0103 36.7607L30.0794 36.7039L29.7868 36.0537Z" fill="white"/>
<path d="M29.3927 36.7041C29.4943 36.9275 29.6365 37.0738 29.7422 36.9885C29.8437 36.9032 29.8153 36.6797 29.7137 36.4521C29.6081 36.2205 29.4699 36.0905 29.3684 36.1717C29.2709 36.2449 29.283 36.4562 29.3927 36.7041ZM29.6406 36.505C29.7097 36.6594 29.734 36.8016 29.6771 36.8463C29.6121 36.8991 29.5309 36.7853 29.4699 36.6431C29.4009 36.4928 29.3724 36.3505 29.4374 36.3058C29.4943 36.2611 29.5715 36.3505 29.6406 36.505Z" fill="white"/>
<path d="M28.9906 37.2359C29.0719 37.3781 29.1735 37.4512 29.2588 37.3822C29.3685 37.2928 29.336 37.0734 29.2304 36.8418C29.1288 36.6183 28.9866 36.4639 28.8769 36.5492C28.7834 36.6183 28.7956 36.7808 28.8484 36.9271L28.9216 36.8702C28.9012 36.8011 28.8891 36.7239 28.9378 36.6874C28.9988 36.6386 29.08 36.7524 29.1491 36.8987C29.2101 37.0368 29.2548 37.1953 29.1897 37.2481C29.141 37.2887 29.0922 37.2237 29.0638 37.179L28.9906 37.2359Z" fill="white"/>
<path d="M28.8972 37.399L29.011 37.5656L29.0841 37.5047L28.5965 36.7773L28.499 36.8505L28.7469 37.7769L28.8281 37.7119L28.7713 37.4965L28.8972 37.399ZM28.7225 37.3421C28.6697 37.1471 28.6331 37.0252 28.6087 36.9439C28.6534 37.0171 28.7306 37.1349 28.816 37.269L28.7225 37.3421Z" fill="white"/>
<path d="M28.4743 37.545L28.6247 37.8781L28.7019 37.8172L28.328 36.9883L28.1696 37.1102C28.0883 37.1711 28.0924 37.3052 28.1493 37.4352C28.198 37.549 28.2549 37.5856 28.2915 37.5937C28.2793 37.6222 28.2712 37.6872 28.3402 37.8375L28.3606 37.8781C28.3849 37.935 28.4134 38 28.4256 38.0407L28.4987 37.9797C28.4906 37.9391 28.4621 37.8741 28.4215 37.7847L28.4174 37.7725C28.3768 37.6831 28.3687 37.6303 28.4256 37.5856L28.4743 37.545ZM28.4093 37.3987L28.3443 37.4515C28.3037 37.484 28.2671 37.4596 28.2386 37.3905C28.2061 37.3215 28.2102 37.2686 28.2468 37.2402L28.3159 37.1874L28.4093 37.3987Z" fill="white"/>
<path d="M27.9627 37.4676L28.0765 37.3823L28.0114 37.2319L27.7026 37.4676L27.7717 37.6179L27.8855 37.5286L28.1984 38.2234L28.2796 38.1584L27.9627 37.4676Z" fill="white"/>
<path d="M13.9604 16.0336C13.871 16.0783 13.7776 16.1189 13.6841 16.1636L11.559 11.2876C11.4777 11.0967 11.5631 10.8732 11.754 10.7919C11.945 10.7106 12.1685 10.796 12.2498 10.987L14.3627 15.8304C14.2327 15.8995 14.0986 15.9686 13.9604 16.0336Z" fill="black"/>
<path d="M14.7933 16.6797L17.1623 22.1123C17.2435 22.3033 17.1582 22.5268 16.9672 22.608C16.7762 22.6893 16.5528 22.604 16.4715 22.413L14.127 17.0413C14.3504 16.9194 14.5699 16.8016 14.7933 16.6797Z" fill="black"/>
<path d="M75.4096 13.673C74.9138 14.6766 77.0837 15.8915 77.0837 15.8915C77.0837 15.8915 79.2413 14.7172 78.7578 13.673C78.2214 12.5149 77.0715 13.8802 77.0715 13.8802C77.0715 13.8802 75.9134 12.649 75.4096 13.673Z" fill="white"/>
<path d="M86.1155 57.1371C86.1155 57.1371 85.1073 57.2886 84.3891 57.2886C83.6708 57.2886 82.4463 56.6568 82.4463 56.6568V53.5717L84.3458 52.94L86.1155 52.7886C86.7472 52.7886 87.2622 53.3035 87.2622 53.9352V55.9905C87.2622 56.6222 86.7472 57.1371 86.1155 57.1371Z" fill="white"/>
<path d="M82 53H80V57H82V53Z" fill="white"/>
<path opacity="0.3" d="M80 53H62V57H80V53Z" fill="url(#paint4_linear_1_1585)"/>
<path opacity="0.5" d="M67 21H49V24H67V21Z" fill="url(#paint5_linear_1_1585)"/>
<path opacity="0.3" d="M77 13.2002H67V15.9002H77V13.2002Z" fill="url(#paint6_linear_1_1585)"/>
<path d="M84.1449 51.0455C83.7751 50.9073 83.3565 51.0942 83.2184 51.4681L82.4463 53.5241L83.9254 53.6826L84.5675 51.9719C84.7056 51.6021 84.5147 51.1836 84.1449 51.0455Z" fill="white"/>
<path d="M79.8049 30.0921C79.3138 30.0921 78.9393 29.954 78.6814 29.6777C78.4236 29.3953 78.2947 28.9932 78.2947 28.4713V28.3516H79.2524V28.5358C79.2524 28.9594 79.4274 29.1712 79.7773 29.1712C79.9676 29.1712 80.1088 29.1129 80.2009 28.9962C80.293 28.8796 80.339 28.6739 80.339 28.3793V27.1453H80.3206C80.1426 27.5198 79.8356 27.707 79.3997 27.707C79.0314 27.707 78.752 27.5812 78.5617 27.3295C78.3714 27.0778 78.2763 26.7125 78.2763 26.2336V25.0825C78.2763 24.5668 78.4083 24.1678 78.6722 23.8854C78.9362 23.603 79.3169 23.4618 79.8141 23.4618C80.3114 23.4618 80.692 23.603 80.956 23.8854C81.22 24.1678 81.352 24.5668 81.352 25.0825V28.4161C81.352 29.5334 80.8363 30.0921 79.8049 30.0921ZM79.8141 26.7861C80.1641 26.7861 80.339 26.5743 80.339 26.1507V25.0088C80.339 24.5914 80.1641 24.3827 79.8141 24.3827C79.4642 24.3827 79.2892 24.5914 79.2892 25.0088V26.1507C79.2892 26.5743 79.4642 26.7861 79.8141 26.7861ZM83.713 30.0921C83.2158 30.0921 82.8351 29.9509 82.5711 29.6685C82.3072 29.3861 82.1752 28.987 82.1752 28.4713V25.0825C82.1752 24.5668 82.3072 24.1678 82.5711 23.8854C82.8351 23.603 83.2158 23.4618 83.713 23.4618C84.2103 23.4618 84.5909 23.603 84.8549 23.8854C85.1189 24.1678 85.2509 24.5668 85.2509 25.0825V28.4713C85.2509 28.987 85.1189 29.3861 84.8549 29.6685C84.5909 29.9509 84.2103 30.0921 83.713 30.0921ZM83.713 29.1712C84.063 29.1712 84.2379 28.9594 84.2379 28.5358V25.0181C84.2379 24.5945 84.063 24.3827 83.713 24.3827C83.3631 24.3827 83.1881 24.5945 83.1881 25.0181V28.5358C83.1881 28.9594 83.3631 29.1712 83.713 29.1712Z" fill="#F13005"/>
<path d="M78.6814 29.6777L78.519 29.826L78.5206 29.8278L78.6814 29.6777ZM78.2947 28.3516V28.1316H78.0747V28.3516H78.2947ZM79.2524 28.3516H79.4724V28.1316H79.2524V28.3516ZM80.339 27.1453H80.559V26.9253H80.339V27.1453ZM80.3206 27.1453V26.9253H80.1816L80.1219 27.0508L80.3206 27.1453ZM78.6722 23.8854L78.833 24.0356L78.6722 23.8854ZM80.956 23.8854L80.7953 24.0356L80.956 23.8854ZM79.8049 29.8721C79.3555 29.8721 79.047 29.7469 78.8423 29.5276L78.5206 29.8278C78.8316 30.161 79.2721 30.3121 79.8049 30.3121V29.8721ZM78.8439 29.5294C78.6348 29.3003 78.5147 28.9585 78.5147 28.4713H78.0747C78.0747 29.0278 78.2124 29.4903 78.519 29.826L78.8439 29.5294ZM78.5147 28.4713V28.3516H78.0747V28.4713H78.5147ZM78.2947 28.5716H79.2524V28.1316H78.2947V28.5716ZM79.0324 28.3516V28.5358H79.4724V28.3516H79.0324ZM79.0324 28.5358C79.0324 28.7724 79.0804 28.9907 79.214 29.1525C79.3543 29.3223 79.5562 29.3912 79.7773 29.3912V28.9512C79.6485 28.9512 79.5879 28.9143 79.5532 28.8722C79.5119 28.8222 79.4724 28.7228 79.4724 28.5358H79.0324ZM79.7773 29.3912C80.0143 29.3912 80.2285 29.3163 80.3736 29.1326L80.0282 28.8599C79.9891 28.9094 79.9209 28.9512 79.7773 28.9512V29.3912ZM80.3736 29.1326C80.5146 28.9539 80.559 28.6823 80.559 28.3793H80.119C80.119 28.6656 80.0714 28.8053 80.0282 28.8599L80.3736 29.1326ZM80.559 28.3793V27.1453H80.119V28.3793H80.559ZM80.339 26.9253H80.3206V27.3653H80.339V26.9253ZM80.1219 27.0508C80.0484 27.2055 79.9539 27.3107 79.8423 27.3788C79.73 27.4473 79.5859 27.487 79.3997 27.487V27.927C79.6495 27.927 79.8768 27.8731 80.0714 27.7544C80.2668 27.6352 80.4148 27.4596 80.5193 27.2397L80.1219 27.0508ZM79.3997 27.487C79.0873 27.487 78.8787 27.3838 78.7372 27.1968L78.3862 27.4621C78.6254 27.7785 78.9755 27.927 79.3997 27.927V27.487ZM78.7372 27.1968C78.5873 26.9985 78.4963 26.688 78.4963 26.2336H78.0563C78.0563 26.7369 78.1555 27.157 78.3862 27.4621L78.7372 27.1968ZM78.4963 26.2336V25.0825H78.0563V26.2336H78.4963ZM78.4963 25.0825C78.4963 24.6036 78.6183 24.2652 78.833 24.0356L78.5115 23.7351C78.1982 24.0704 78.0563 24.5301 78.0563 25.0825H78.4963ZM78.833 24.0356C79.0442 23.8096 79.3593 23.6818 79.8141 23.6818V23.2418C79.2744 23.2418 78.8282 23.3964 78.5115 23.7351L78.833 24.0356ZM79.8141 23.6818C80.2689 23.6818 80.584 23.8096 80.7953 24.0356L81.1167 23.7351C80.8 23.3964 80.3539 23.2418 79.8141 23.2418V23.6818ZM80.7953 24.0356C81.0099 24.2652 81.132 24.6036 81.132 25.0825H81.572C81.572 24.5301 81.4301 24.0704 81.1167 23.7351L80.7953 24.0356ZM81.132 25.0825V28.4161H81.572V25.0825H81.132ZM81.132 28.4161C81.132 28.945 81.0096 29.3007 80.8036 29.5239C80.6006 29.7437 80.282 29.8721 79.8049 29.8721V30.3121C80.3592 30.3121 80.8141 30.1611 81.1269 29.8223C81.4366 29.4868 81.572 29.0045 81.572 28.4161H81.132ZM79.8141 27.0061C80.0353 27.0061 80.2371 26.9372 80.3774 26.7674C80.511 26.6057 80.559 26.3873 80.559 26.1507H80.119C80.119 26.3378 80.0795 26.4371 80.0382 26.4872C80.0035 26.5292 79.9429 26.5661 79.8141 26.5661V27.0061ZM80.559 26.1507V25.0088H80.119V26.1507H80.559ZM80.559 25.0088C80.559 24.7747 80.5108 24.5582 80.3764 24.3979C80.2358 24.2301 80.0342 24.1627 79.8141 24.1627V24.6027C79.944 24.6027 80.0048 24.6395 80.0392 24.6805C80.0798 24.729 80.119 24.8255 80.119 25.0088H80.559ZM79.8141 24.1627C79.5941 24.1627 79.3925 24.2301 79.2519 24.3979C79.1175 24.5582 79.0692 24.7747 79.0692 25.0088H79.5092C79.5092 24.8255 79.5485 24.729 79.5891 24.6805C79.6234 24.6395 79.6843 24.6027 79.8141 24.6027V24.1627ZM79.0692 25.0088V26.1507H79.5092V25.0088H79.0692ZM79.0692 26.1507C79.0692 26.3873 79.1172 26.6057 79.2508 26.7674C79.3911 26.9372 79.593 27.0061 79.8141 27.0061V26.5661C79.6853 26.5661 79.6248 26.5292 79.5901 26.4872C79.5487 26.4371 79.5092 26.3378 79.5092 26.1507H79.0692ZM82.5711 29.6685L82.7319 29.5182L82.5711 29.6685ZM82.5711 23.8854L82.7319 24.0356L82.5711 23.8854ZM84.8549 23.8854L84.6942 24.0356L84.8549 23.8854ZM84.8549 29.6685L84.6942 29.5182L84.8549 29.6685ZM83.713 29.8721C83.2582 29.8721 82.9431 29.7443 82.7319 29.5182L82.4104 29.8187C82.7271 30.1575 83.1733 30.3121 83.713 30.3121V29.8721ZM82.7319 29.5182C82.5172 29.2887 82.3952 28.9503 82.3952 28.4713H81.9552C81.9552 29.0238 82.0971 29.4835 82.4104 29.8187L82.7319 29.5182ZM82.3952 28.4713V25.0825H81.9552V28.4713H82.3952ZM82.3952 25.0825C82.3952 24.6036 82.5172 24.2652 82.7319 24.0356L82.4104 23.7351C82.0971 24.0704 81.9552 24.5301 81.9552 25.0825H82.3952ZM82.7319 24.0356C82.9431 23.8096 83.2582 23.6818 83.713 23.6818V23.2418C83.1733 23.2418 82.7271 23.3964 82.4104 23.7351L82.7319 24.0356ZM83.713 23.6818C84.1678 23.6818 84.4829 23.8096 84.6942 24.0356L85.0156 23.7351C84.6989 23.3964 84.2528 23.2418 83.713 23.2418V23.6818ZM84.6942 24.0356C84.9088 24.2652 85.0309 24.6036 85.0309 25.0825H85.4709C85.4709 24.5301 85.329 24.0704 85.0156 23.7351L84.6942 24.0356ZM85.0309 25.0825V28.4713H85.4709V25.0825H85.0309ZM85.0309 28.4713C85.0309 28.9503 84.9088 29.2887 84.6942 29.5182L85.0156 29.8187C85.329 29.4835 85.4709 29.0238 85.4709 28.4713H85.0309ZM84.6942 29.5182C84.4829 29.7443 84.1678 29.8721 83.713 29.8721V30.3121C84.2528 30.3121 84.6989 30.1575 85.0156 29.8187L84.6942 29.5182ZM83.713 29.3912C83.9342 29.3912 84.1361 29.3223 84.2763 29.1525C84.4099 28.9907 84.4579 28.7724 84.4579 28.5358H84.0179C84.0179 28.7228 83.9784 28.8222 83.9371 28.8722C83.9024 28.9143 83.8418 28.9512 83.713 28.9512V29.3912ZM84.4579 28.5358V25.0181H84.0179V28.5358H84.4579ZM84.4579 25.0181C84.4579 24.7815 84.4099 24.5631 84.2763 24.4014C84.1361 24.2316 83.9342 24.1627 83.713 24.1627V24.6027C83.8418 24.6027 83.9024 24.6396 83.9371 24.6816C83.9784 24.7317 84.0179 24.831 84.0179 25.0181H84.4579ZM83.713 24.1627C83.4919 24.1627 83.29 24.2316 83.1497 24.4014C83.0161 24.5631 82.9681 24.7815 82.9681 25.0181H83.4081C83.4081 24.831 83.4476 24.7317 83.489 24.6816C83.5237 24.6396 83.5842 24.6027 83.713 24.6027V24.1627ZM82.9681 25.0181V28.5358H83.4081V25.0181H82.9681ZM82.9681 28.5358C82.9681 28.7724 83.0161 28.9907 83.1497 29.1525C83.29 29.3223 83.4919 29.3912 83.713 29.3912V28.9512C83.5842 28.9512 83.5237 28.9143 83.489 28.8722C83.4476 28.8222 83.4081 28.7228 83.4081 28.5358H82.9681Z" fill="#F13005"/>
<path d="M64.3313 42.9862H63.2162V42.4839H64.8738V42.9661L64.0098 46H63.4472L64.3313 42.9862Z" fill="#3B3B3B"/>
<path d="M64.3313 42.9862L64.4464 43.02L64.4915 42.8662H64.3313V42.9862ZM63.2162 42.9862H63.0962V43.1062H63.2162V42.9862ZM63.2162 42.4839V42.3639H63.0962V42.4839H63.2162ZM64.8738 42.4839H64.9938V42.3639H64.8738V42.4839ZM64.8738 42.9661L64.9892 42.999L64.9938 42.9829V42.9661H64.8738ZM64.0098 46V46.12H64.1004L64.1252 46.0329L64.0098 46ZM63.4472 46L63.3321 45.9662L63.287 46.12H63.4472V46ZM64.3313 42.8662H63.2162V43.1062H64.3313V42.8662ZM63.3362 42.9862V42.4839H63.0962V42.9862H63.3362ZM63.2162 42.6039H64.8738V42.3639H63.2162V42.6039ZM64.7538 42.4839V42.9661H64.9938V42.4839H64.7538ZM64.7584 42.9333L63.8944 45.9671L64.1252 46.0329L64.9892 42.999L64.7584 42.9333ZM64.0098 45.88H63.4472V46.12H64.0098V45.88ZM63.5624 46.0338L64.4464 43.02L64.2161 42.9524L63.3321 45.9662L63.5624 46.0338Z" fill="#3B3B3B"/>
<path d="M49.5069 15.0753C49.09 15.0753 48.7685 14.9648 48.5425 14.7438C48.3215 14.5178 48.211 14.1938 48.211 13.7719V13.3048C48.211 13.0436 48.2537 12.8251 48.339 12.6493C48.4244 12.4684 48.5626 12.3278 48.7534 12.2273V12.2123C48.5776 12.1168 48.447 11.9862 48.3617 11.8205C48.2813 11.6497 48.2411 11.4337 48.2411 11.1725V10.954C48.2411 10.5321 48.3491 10.2106 48.5651 9.9896C48.7861 9.76356 49.1 9.65055 49.5069 9.65055C49.9137 9.65055 50.2252 9.76356 50.4412 9.9896C50.6622 10.2106 50.7727 10.5321 50.7727 10.954V11.1725C50.7727 11.6748 50.6019 12.0214 50.2603 12.2123V12.2273C50.4512 12.3278 50.5893 12.4684 50.6747 12.6493C50.7601 12.8251 50.8028 13.0436 50.8028 13.3048V13.7719C50.8028 14.1938 50.6898 14.5178 50.4638 14.7438C50.2428 14.9648 49.9238 15.0753 49.5069 15.0753ZM49.5069 11.8732C49.7982 11.8732 49.9439 11.6974 49.9439 11.3458V10.9314C49.9439 10.5798 49.7982 10.404 49.5069 10.404C49.2156 10.404 49.0699 10.5798 49.0699 10.9314V11.3458C49.0699 11.6974 49.2156 11.8732 49.5069 11.8732ZM49.5069 14.3219C49.8183 14.3219 49.974 14.1235 49.974 13.7267V13.2219C49.974 12.8251 49.8183 12.6267 49.5069 12.6267C49.1955 12.6267 49.0398 12.8251 49.0398 13.2219V13.7267C49.0398 14.1235 49.1955 14.3219 49.5069 14.3219ZM52.6969 15.0753C52.29 15.0753 51.9786 14.9598 51.7626 14.7288C51.5466 14.4977 51.4386 14.1712 51.4386 13.7493V11.0218C51.4386 10.1076 51.8606 9.65055 52.7044 9.65055C53.1063 9.65055 53.4127 9.76607 53.6236 9.99713C53.8346 10.2232 53.9401 10.5497 53.9401 10.9766V11.0746H53.1565V10.9239C53.1565 10.5773 53.0133 10.404 52.727 10.404C52.5713 10.404 52.4558 10.4517 52.3805 10.5471C52.3051 10.6426 52.2674 10.8109 52.2674 11.052V12.0616H52.2825C52.4282 11.7552 52.6793 11.602 53.036 11.602C53.3373 11.602 53.5659 11.7049 53.7216 11.9109C53.8773 12.1168 53.9552 12.4157 53.9552 12.8075V13.7493C53.9552 14.1712 53.8472 14.4977 53.6312 14.7288C53.4152 14.9598 53.1038 15.0753 52.6969 15.0753ZM52.6969 14.3219C52.9832 14.3219 53.1264 14.1511 53.1264 13.8096V12.8753C53.1264 12.5287 52.9832 12.3554 52.6969 12.3554C52.4106 12.3554 52.2674 12.5287 52.2674 12.8753V13.8096C52.2674 14.1511 52.4106 14.3219 52.6969 14.3219Z" fill="#00579C"/>
<defs>
<linearGradient id="paint0_linear_1_1585" x1="103" y1="30" x2="-8.00001" y2="30" gradientUnits="userSpaceOnUse">
<stop stop-color="#F12C00"/>
<stop offset="1" stop-color="#F12C00" stop-opacity="0"/>
</linearGradient>
<linearGradient id="paint1_linear_1_1585" x1="62.9999" y1="43.9998" x2="45.9999" y2="43.9998" gradientUnits="userSpaceOnUse">
<stop stop-color="white"/>
<stop offset="1" stop-color="white" stop-opacity="0"/>
</linearGradient>
<linearGradient id="paint2_linear_1_1585" x1="77.044" y1="26.1333" x2="55.373" y2="26.1333" gradientUnits="userSpaceOnUse">
<stop stop-color="white"/>
<stop offset="1" stop-color="white" stop-opacity="0"/>
</linearGradient>
<linearGradient id="paint3_linear_1_1585" x1="47.2465" y1="12.5889" x2="34.3794" y2="12.5889" gradientUnits="userSpaceOnUse">
<stop stop-color="white"/>
<stop offset="1" stop-color="white" stop-opacity="0"/>
</linearGradient>
<linearGradient id="paint4_linear_1_1585" x1="80" y1="55" x2="61" y2="55" gradientUnits="userSpaceOnUse">
<stop stop-color="white"/>
<stop offset="1" stop-color="white" stop-opacity="0"/>
</linearGradient>
<linearGradient id="paint5_linear_1_1585" x1="67" y1="22.5" x2="48" y2="22.5" gradientUnits="userSpaceOnUse">
<stop stop-color="white"/>
<stop offset="1" stop-color="white" stop-opacity="0"/>
</linearGradient>
<linearGradient id="paint6_linear_1_1585" x1="77" y1="14.5502" x2="66.4444" y2="14.5502" gradientUnits="userSpaceOnUse">
<stop stop-color="white"/>
<stop offset="1" stop-color="white" stop-opacity="0"/>
</linearGradient>
</defs>
</svg>
