<svg width="137" height="41" viewBox="0 0 137 41" fill="none" xmlns="http://www.w3.org/2000/svg">
<rect x="0.5" y="0.5" width="136" height="40" rx="3.5" fill="#F71400"/>
<path d="M23.6387 20.8574V19.7432H19.4824V21.2471H21.6289L21.6221 21.4043C21.5811 22.6279 20.6445 23.4551 19.2979 23.4551C17.6572 23.4551 16.6182 22.1494 16.6182 20.0098C16.6182 17.9111 17.5957 16.6738 19.2227 16.6738C20.3369 16.6738 21.1777 17.2891 21.4785 18.3213H23.5498C23.2559 16.3252 21.5195 14.9648 19.2158 14.9648C16.3174 14.9648 14.5127 16.8789 14.5127 20.0371C14.5127 23.2432 16.3174 25.1641 19.2637 25.1641C22.0117 25.1641 23.6387 23.5439 23.6387 20.8574ZM27.3503 21.3906H29.0046L30.8435 25H33.1814L31.1032 21.083C32.238 20.6387 32.8943 19.5449 32.8943 18.2803C32.8943 16.332 31.5954 15.1357 29.3259 15.1357H25.2859V25H27.3503V21.3906ZM27.3503 16.749H29.1071C30.1325 16.749 30.7751 17.3643 30.7751 18.3213C30.7751 19.2988 30.1667 19.8936 29.1277 19.8936H27.3503V16.749ZM40.9946 25H43.1889L39.7573 15.1357H37.3305L33.9057 25H36.0248L36.7768 22.6074H40.2426L40.9946 25ZM38.4858 17.0225H38.5336L39.7983 21.0625H37.2211L38.4858 17.0225ZM48.8488 25C50.9543 25 52.2599 23.9131 52.2599 22.1768C52.2599 20.8711 51.2755 19.8936 49.9357 19.791V19.7363C50.9816 19.5791 51.7882 18.6768 51.7882 17.5967C51.7882 16.0859 50.6261 15.1357 48.7736 15.1357H44.4806V25H48.8488ZM46.5451 16.6738H48.2404C49.2043 16.6738 49.758 17.125 49.758 17.918C49.758 18.752 49.1291 19.2373 48.0285 19.2373H46.5451V16.6738ZM46.5451 23.4619V20.5977H48.2746C49.4914 20.5977 50.1545 21.0898 50.1545 22.0127C50.1545 22.9561 49.5119 23.4619 48.3224 23.4619H46.5451ZM61.1939 25V16.8379H64.0514V15.1357H56.2789V16.8379H59.1295V25H61.1939ZM74.0452 25V15.1357H71.9808V19.1416H67.5374V15.1357H65.473V25H67.5374V20.8438H71.9808V25H74.0452ZM82.501 23.291H78.0303V20.8027H82.2481V19.2168H78.0303V16.8379H82.501V15.1357H75.9659V25H82.501V23.291ZM87.3266 15.1357V25H91.0932C94.0532 25 95.7964 23.1611 95.7964 20.0303C95.7964 16.8994 94.0532 15.1357 91.0932 15.1357H87.3266ZM89.3911 16.8379H90.8471C92.6655 16.8379 93.6909 17.9727 93.6909 20.0371C93.6909 22.1699 92.6928 23.291 90.8471 23.291H89.3911V16.8379ZM103.945 23.291H99.4738V20.8027H103.692V19.2168H99.4738V16.8379H103.945V15.1357H97.4094V25H103.945V23.291ZM112.175 25H114.369L110.937 15.1357H108.511L105.086 25H107.205L107.957 22.6074H111.423L112.175 25ZM109.666 17.0225H109.714L110.978 21.0625H108.401L109.666 17.0225ZM122.039 23.291H117.725V15.1357H115.661V25H122.039V23.291Z" fill="white"/>
<rect x="0.5" y="0.5" width="136" height="40" rx="3.5" stroke="black"/>
</svg>
