<svg width="236" height="60" viewBox="0 0 236 60" fill="none" xmlns="http://www.w3.org/2000/svg">
<g clip-path="url(#clip0_3169_30141)">
<path d="M-0.310661 30.2107C17.0103 45.6923 35.437 54.46 55.5 58.4658C35.6966 56.0623 16.4574 49.1227 -0.299377 38.3013V30.2107H-0.310661Z" fill="#009F32"/>
<path d="M61.0516 45.7939V52.8577C61.0516 53.0496 61.1983 53.1962 61.3901 53.1962H64.0983C64.2901 53.1962 64.4368 53.0496 64.4368 52.8577V45.7939H65.001V52.8577C65.001 53.3542 64.5948 53.7604 64.0983 53.7604H63.0263V60.3729H62.4621V53.7604H61.3901C60.8936 53.7604 60.4874 53.3542 60.4874 52.8577V45.7939H61.0516Z" fill="url(#paint0_linear_3169_30141)"/>
<path d="M-0.310371 38.3013V80.9999H66.8633V59.3346C51.7427 58.8382 36.735 55.6673 22.6638 50.1043C18.3985 48.4117 14.2234 46.5047 10.1612 44.3946C7.89309 43.2098 5.65886 41.9686 3.46977 40.6596C2.19468 39.881 0.942154 39.1024 -0.310371 38.3013Z" fill="#0D8802"/>
<path d="M-0.310371 38.3013C0.93087 39.1024 2.19468 39.8923 3.46977 40.6483C5.65886 41.9573 7.89309 43.2098 10.1612 44.3833C14.2234 46.5047 18.3985 48.4117 22.6638 50.0931C36.735 55.6786 51.7427 58.8494 66.8633 59.3346V59.9553C43.8891 59.7409 20.96 55.1144 -0.310371 46.4257V38.3013Z" fill="#007D1C"/>
<path d="M-0.310738 49.3484V50.127C8.95343 58.8382 19.346 66.3872 30.6413 72.616C36.43 75.7981 42.3766 78.5965 48.4474 81C56.3688 84.1257 64.5158 86.563 72.7983 88.312L72.9111 87.7591C65.1365 86.1229 57.4859 83.8549 50.0497 81C31.4312 73.846 14.1441 63.0246 -0.310738 49.3484Z" fill="url(#paint1_linear_3169_30141)"/>
<path d="M-0.310966 38.3013V38.3351C19.357 54.5502 42.3651 66.6015 66.8627 73.5863C70.5074 74.6245 74.1747 75.5498 77.8759 76.3622L78 75.8093C74.2537 74.9856 70.5413 74.049 66.8627 72.9996C43.8997 66.4323 22.257 55.3965 3.46917 40.6483C2.19408 39.881 0.941559 39.1024 -0.310966 38.3013Z" fill="url(#paint2_linear_3169_30141)"/>
<path d="M10.1604 44.3948C19.3343 49.6983 29.4335 54.0087 40.2774 57.2247C48.921 59.7862 57.9594 61.6142 66.8625 62.6184C70.259 63.0021 73.6442 63.2616 76.9843 63.397L77.0068 62.8328C73.6329 62.6974 70.2477 62.4379 66.8625 62.0542C51.5501 60.3391 36.3731 56.2204 22.6631 50.1045C18.409 48.4232 14.2339 46.5162 10.1604 44.3948Z" fill="url(#paint3_linear_3169_30141)"/>
<g opacity="0.5">
<path opacity="0.5" d="M-19.4037 47.4188C-19.3472 47.4188 -19.2908 47.4188 -19.2344 47.4188C-18.862 47.4188 -18.4445 47.4188 -18.0044 47.4188C-15.4317 47.4188 -11.9901 47.4076 -11.9901 47.4076C-11.4146 47.2947 -10.8842 47.1819 -10.3877 47.0465C-10.399 47.0352 -10.4103 47.0352 -10.4216 47.0239C-10.557 46.8998 -10.6473 46.7757 -10.6698 46.6515C-10.6811 46.629 -10.6811 46.6064 -10.6698 46.5838C-10.6698 46.5725 -10.6698 46.5725 -10.6698 46.5613C-10.6698 46.55 -10.6586 46.5274 -10.6586 46.5161C-10.6586 46.5048 -10.6473 46.5048 -10.6473 46.4936C-10.636 46.4823 -10.6247 46.471 -10.6134 46.4597C-10.6021 46.4484 -10.6021 46.4484 -10.5909 46.4371C-10.5796 46.4258 -10.5683 46.4146 -10.5457 46.4033C-10.5344 46.392 -10.5232 46.392 -10.5119 46.3807C-10.4893 46.3694 -10.478 46.3581 -10.4554 46.3469C-10.4442 46.3356 -10.4329 46.3356 -10.4103 46.3243C-10.3877 46.313 -10.3652 46.3017 -10.3313 46.2904C-10.32 46.2904 -10.3088 46.2792 -10.2862 46.2792C-10.2523 46.2679 -10.2072 46.2566 -10.1621 46.2453H-10.1508C-10.1056 46.234 -10.0492 46.2227 -9.9928 46.2115C-9.97023 46.2115 -9.94767 46.2002 -9.93638 46.2002C-9.90253 46.1889 -9.85739 46.1889 -9.82354 46.1776C-9.80097 46.1776 -9.76713 46.1663 -9.74456 46.1663C-9.71071 46.1663 -9.66557 46.155 -9.63172 46.155C-9.59787 46.155 -9.57529 46.155 -9.54144 46.1438C-9.50759 46.1438 -9.46246 46.1325 -9.41732 46.1325C-9.38347 46.1325 -9.34962 46.1325 -9.32705 46.1325C-9.28191 46.1325 -9.23677 46.1325 -9.20292 46.1325C-9.16907 46.1325 -9.13522 46.1325 -9.10137 46.1325C-9.05623 46.1325 -8.99981 46.1325 -8.95468 46.1325C-8.92083 46.1325 -8.88697 46.1325 -8.8644 46.1325C-8.7967 46.1325 -8.729 46.1325 -8.67258 46.1325C-8.46947 46.1325 -8.26636 46.1438 -8.05196 46.1663C-7.1041 46.2453 -6.13367 46.3356 -5.16325 46.4484C-5.27609 46.3243 -5.38893 46.1889 -5.50177 46.0648C-5.51305 46.0648 -5.53563 46.0648 -5.54691 46.0535C-5.56948 46.0535 -5.60333 46.0422 -5.6259 46.0422C-5.67104 46.0422 -5.71617 46.0309 -5.77259 46.0309C-5.99827 45.8504 -6.22395 45.6698 -6.33679 45.4893C-6.43835 45.32 -6.41578 45.1508 -6.15624 45.0379C-5.7613 44.8574 -4.85858 44.8235 -3.89944 44.8912C-2.74847 44.9702 -1.48467 45.1846 -0.469112 45.4667C-0.378841 45.4893 -0.29985 45.5231 -0.209579 45.5457C-0.187012 45.557 -0.175728 45.557 -0.15316 45.5683C-0.074173 45.5908 -0.00646591 45.6134 0.0612373 45.636C0.095089 45.6473 0.117657 45.6585 0.151508 45.6698C0.196644 45.6811 0.241783 45.7037 0.286919 45.715C0.343338 45.7375 0.399757 45.7601 0.456177 45.7827C0.478745 45.7939 0.501316 45.7939 0.5126 45.8052C0.591587 45.8391 0.67057 45.8729 0.749557 45.9068C0.986523 46.0196 1.17836 46.1212 1.32505 46.234C1.34761 46.2453 1.3589 46.2679 1.3589 46.2792C1.44917 46.2904 1.53944 46.313 1.62971 46.3243C1.76512 46.3469 1.85539 46.392 1.82154 46.4259C1.78769 46.4597 1.65228 46.4597 1.51688 46.4371C1.38147 46.4146 1.23477 46.3807 1.0768 46.3581C1.00909 46.3581 0.930103 46.3469 0.851116 46.3356C0.817265 46.3356 0.783409 46.3243 0.749557 46.3243C0.760841 46.4033 0.749561 46.4936 0.71571 46.5725C0.726994 46.5725 0.726994 46.5838 0.738277 46.5838C0.941391 46.6967 1.22349 46.8208 1.48302 46.9336C1.71999 46.9788 1.95695 47.0239 2.19392 47.0578L2.38574 47.0916V47.1367C2.38574 47.2044 2.38575 47.2834 2.36318 47.3511C2.38575 47.3624 2.39702 47.385 2.38574 47.3963C2.37445 47.4076 2.36317 47.4076 2.34061 47.4188C2.31804 47.4527 2.29547 47.4865 2.26162 47.5204C2.96123 47.6332 3.64955 47.7574 4.33788 47.8815C5.33087 48.062 6.10946 48.3216 6.73008 48.6037C6.74136 48.6037 6.74136 48.6149 6.75265 48.6149C6.79778 48.6375 6.84292 48.6601 6.88806 48.6827C6.89934 48.6939 6.91063 48.6939 6.9332 48.7052C6.97833 48.7278 7.01218 48.7504 7.05732 48.7616C7.07988 48.7729 7.09117 48.7842 7.11374 48.7842C7.14759 48.8068 7.18144 48.8181 7.21529 48.8406C7.23786 48.8519 7.26043 48.8632 7.27172 48.8745C7.30557 48.897 7.32814 48.9083 7.36199 48.9309C7.38456 48.9422 7.40712 48.9535 7.42969 48.976C7.45226 48.9873 7.47483 49.0099 7.50868 49.0212C7.53125 49.0437 7.5651 49.055 7.58767 49.0776C7.61023 49.0889 7.62152 49.1002 7.64408 49.1114C7.68922 49.1453 7.73436 49.1679 7.76821 49.2017C7.65537 49.3484 7.49739 49.4838 7.26043 49.5967C7.31685 49.6756 7.36198 49.7659 7.40712 49.8449C7.61023 50.1947 7.80206 50.5445 8.00518 50.8943C9.48338 51.3457 10.9164 51.797 12.3157 52.2597C13.083 52.5079 13.839 52.7675 14.5837 53.027C14.5837 53.027 15.1705 52.9931 15.509 53.0044C15.8476 53.027 16.1974 53.0721 16.5472 53.0947C16.897 53.1285 17.2468 53.1398 17.4837 53.106C17.5853 53.0947 17.6981 53.0721 17.8448 53.0947C17.9577 53.1173 18.0254 53.1511 18.0479 53.1737C18.0705 53.1962 18.0366 53.2301 18.0141 53.2527C17.9464 53.3091 17.7658 53.3317 17.5402 53.3317C17.3145 53.3317 17.0549 53.3317 16.8744 53.3542C16.6374 53.3881 16.5697 53.4671 16.5133 53.5461C17.0888 53.8169 17.8448 54.0877 18.6686 54.3247C18.7363 54.3472 18.8604 54.3811 18.9055 54.4036C18.9507 54.4262 18.9619 54.4601 18.9168 54.4713C18.8491 54.4826 18.6911 54.4713 18.567 54.4488C18.1721 54.3811 17.7884 54.2908 17.4612 54.1892C17.7433 54.3472 18.0592 54.4939 18.3865 54.6519C18.4542 54.6857 18.2962 54.6857 18.1721 54.6857C18.0592 54.6857 17.9238 54.6632 17.7997 54.6406C17.2581 54.5503 16.6939 54.4601 16.2199 54.3247C15.1931 54.0426 14.8433 53.6589 13.8503 53.3655C13.8503 53.3655 13.2409 53.2752 12.3382 53.1398C12.5301 53.3091 12.7106 53.4671 12.8686 53.6363C12.9927 53.6702 13.1055 53.704 13.2297 53.7379C13.2522 53.7492 13.2748 53.7492 13.2974 53.7605C13.4666 53.8056 13.6472 53.862 13.8164 53.9071C15.3623 54.3472 16.9872 54.7534 18.5106 55.2048C19.8872 55.611 21.1736 56.0285 22.4148 56.4573C23.4417 56.8071 24.4347 57.1682 25.439 57.5293C26.1724 57.7888 26.9172 58.0597 27.6845 58.3192C27.8876 58.3869 28.0907 58.4546 28.2938 58.5223C28.3051 58.5223 28.3164 58.5336 28.3277 58.5336C28.5195 58.6013 28.7113 58.6577 28.9031 58.7254C28.937 58.7367 28.9596 58.748 28.9934 58.748C29.174 58.8044 29.3545 58.8608 29.5238 58.9172C29.5689 58.9285 29.6027 58.9398 29.6479 58.9624C29.8623 59.0301 30.088 59.0978 30.3136 59.1655C31.521 59.5266 32.8074 59.8764 34.0825 60.2262C34.737 60.4067 35.3914 60.576 36.0346 60.7565C36.1475 60.7904 36.328 60.8355 36.5198 60.8807C36.5537 60.8807 36.5763 60.8919 36.5988 60.8919C37.5805 61.0838 38.4494 61.332 39.4198 61.5238C40.2887 61.6931 41.2027 61.8059 42.0828 61.9526C42.963 62.1106 43.8883 62.3476 44.1817 62.5958C44.2155 62.6184 44.2381 62.6522 44.2155 62.6635C44.1817 62.6974 44.0801 62.6974 43.9786 62.7087C43.0081 62.7651 41.7895 62.7087 40.5708 62.5507C39.1716 62.3701 37.7498 62.0542 36.3844 61.9639C36.1475 61.9526 35.8766 61.9301 35.6623 61.8736C35.572 61.8511 35.5043 61.8172 35.4366 61.7834C35.4027 61.7608 35.3689 61.7495 35.335 61.727C35.3237 61.727 35.3237 61.7157 35.3124 61.7157C35.2786 61.7044 35.256 61.6818 35.2335 61.6705C35.2335 61.6705 35.2222 61.6705 35.2222 61.6593C35.1658 61.6141 35.1093 61.5803 35.0642 61.5351C34.9175 61.3997 34.8949 61.2643 34.9965 61.1515C33.5521 60.9258 32.1529 60.6437 30.765 60.3616C28.6098 59.9215 26.4545 59.4702 24.367 58.9962C24.288 58.9737 24.1977 58.9624 24.1187 58.9398C24.0962 58.9398 24.0736 58.9285 24.051 58.9285C23.9833 58.9172 23.9156 58.8947 23.8592 58.8834C23.8366 58.8834 23.8141 58.8721 23.7915 58.8721C23.7125 58.8495 23.6448 58.8383 23.5658 58.8157C23.5545 58.8157 23.5432 58.8157 23.532 58.8044C23.3514 58.7593 23.1822 58.7141 23.0129 58.669C23.0016 58.669 22.9903 58.6577 22.979 58.6577C22.9001 58.6351 22.8323 58.6239 22.7534 58.6013C22.7421 58.6013 22.7308 58.59 22.7195 58.59C22.46 58.5223 22.2004 58.4433 21.9635 58.3643C21.9522 58.3643 21.9409 58.353 21.9296 58.353C21.8506 58.3305 21.7604 58.2966 21.6814 58.2741C21.6814 58.2741 21.6814 58.2741 21.6701 58.2741C21.5911 58.2515 21.5234 58.2176 21.4557 58.1951C21.4331 58.1838 21.4218 58.1838 21.3993 58.1725C21.3316 58.1499 21.2639 58.1161 21.1962 58.0935C20.8464 57.9468 20.5756 57.7888 20.2257 57.6309C20.1355 57.597 20.0565 57.5632 19.9549 57.518C19.6503 57.4052 19.2779 57.3036 18.8829 57.2134C18.8491 57.2021 18.804 57.1908 18.7701 57.1908C18.5783 57.1457 18.3865 57.1005 18.1946 57.0554C16.8067 56.7394 15.4188 56.4122 14.0308 56.0962C13.9857 56.3783 13.8051 56.6379 13.3425 56.841C13.3199 56.8523 13.2861 56.8635 13.2635 56.8748C12.5526 57.1456 11.1873 57.2811 9.57365 57.1118C8.1293 56.9538 6.76393 56.604 5.54526 56.2542C5.31958 56.1865 5.0939 56.1301 4.86822 56.0624C4.72153 56.0173 4.57483 55.9721 4.41686 55.927C4.34916 55.9044 4.27017 55.8818 4.20247 55.8593C3.99935 55.8029 3.80753 55.7464 3.60442 55.6787C3.58185 55.6787 3.57056 55.6674 3.548 55.6674C3.3336 55.5997 3.11921 55.5433 2.90481 55.4756C1.9908 55.1935 1.08808 54.9227 0.18536 54.6406C-1.4621 54.1328 -3.09828 53.625 -4.74574 53.1173C-5.43407 53.0608 -6.21266 52.9593 -6.76558 52.8803C-7.75857 52.7449 -8.74028 52.5756 -9.72199 52.4402C-10.6811 52.2935 -11.6516 52.1807 -12.6107 52.0791C-12.7461 52.0678 -12.9041 52.0453 -13.0282 52.0227C-13.1636 51.9889 -13.22 51.9437 -13.22 51.8986V51.8873C-13.22 51.876 -13.2087 51.8647 -13.1975 51.8535L-13.1862 51.8422C-13.1862 51.8422 -13.1749 51.8309 -13.1636 51.8309C-12.9041 51.6616 -12.2835 51.5714 -11.5387 51.5714C-10.794 51.5601 -9.9251 51.6391 -9.0788 51.7519C-8.57102 51.8196 -8.06324 51.9099 -7.56674 51.955C-6.73173 52.034 -6.02084 52.0001 -5.27609 52.0001C-5.0617 52.0001 -4.82473 52.0001 -4.57648 52.034C-4.53135 52.034 -4.4975 52.0453 -4.45236 52.0566C-4.44108 52.0566 -4.42979 52.0566 -4.41851 52.0679C-4.38466 52.0679 -4.36209 52.0791 -4.32824 52.0791C-4.31696 52.0791 -4.30567 52.0791 -4.29438 52.0904C-4.2154 52.1017 -4.13641 52.1243 -4.0687 52.1468C-4.05742 52.1468 -4.05742 52.1468 -4.04614 52.1581C-4.01229 52.1694 -3.98972 52.1807 -3.95586 52.1807H-3.94458C-3.87688 52.2033 -3.80917 52.2258 -3.75275 52.2484C-3.7189 52.2597 -3.69633 52.271 -3.66248 52.2823C-3.54964 52.3387 -3.44808 52.3951 -3.35781 52.4402C-3.23369 52.5192 -3.12085 52.6095 -3.04186 52.6998C-0.0516014 53.1398 2.88224 53.7379 5.51141 54.4375C5.45499 54.2682 5.43242 54.1328 5.376 53.9636C3.71725 53.625 2.23905 53.1624 1.27991 52.6772C1.22349 52.6433 1.16707 52.6208 1.11065 52.5869C1.08808 52.5756 1.0768 52.5643 1.05423 52.5531C1.02038 52.5305 0.98653 52.5192 0.952679 52.4966C0.930111 52.4854 0.907536 52.4741 0.884968 52.4628C0.8624 52.4515 0.828548 52.4289 0.805981 52.4177C0.783413 52.4064 0.760845 52.3951 0.738277 52.3725C0.71571 52.3612 0.693146 52.3387 0.670578 52.3274C0.64801 52.3161 0.625435 52.2935 0.602867 52.2823C0.580299 52.271 0.569016 52.2597 0.546448 52.2371C0.52388 52.2258 0.501312 52.2033 0.490028 52.192C0.478745 52.1807 0.456181 52.1694 0.444897 52.1581C0.422329 52.1468 0.411045 52.1243 0.388477 52.113C0.377193 52.1017 0.365902 52.0904 0.354618 52.0791C0.33205 52.0566 0.320766 52.0453 0.298199 52.0227C0.286915 52.0114 0.275639 52.0001 0.275639 51.9889C0.264355 51.9663 0.241783 51.955 0.230499 51.9324C0.219215 51.9212 0.219212 51.9212 0.207928 51.9099C0.196644 51.8873 0.17408 51.876 0.162796 51.8535L0.151508 51.8422C0.140224 51.8196 0.128944 51.797 0.106377 51.7745C0.0161057 51.6165 0.0161057 51.4585 0.0838089 51.3118C-2.92902 50.2511 -5.29866 49.45 -7.96168 48.2426C-8.78541 48.4005 -9.54145 48.5924 -10.6473 48.6375C-11.7757 48.6826 -13.1749 48.5924 -14.5403 48.4231C-15.4317 48.3103 -16.3231 48.1862 -17.2146 48.0395C-17.6885 47.9605 -18.1624 47.8815 -18.6363 47.8025C-19.1554 47.8476 -19.8324 47.8025 -20.5095 47.7009C-20.8931 47.7461 -21.3896 47.7461 -21.9087 47.7009C-22.2811 47.6558 -20.4079 47.4188 -19.4037 47.4188ZM1.05423 46.9788L1.04295 47.0916L1.84411 47.2383C1.85539 47.2044 1.8554 47.1706 1.8554 47.1255C1.59586 47.0803 1.32505 47.0239 1.05423 46.9788ZM1.79898 47.3624L1.03166 47.2157V47.2947L1.61843 47.4076C1.66356 47.4188 1.69742 47.4188 1.74256 47.4301C1.76513 47.4076 1.78769 47.385 1.79898 47.3624Z" fill="#5B3A29"/>
<path opacity="0.5" d="M37.5122 58.8156C37.4784 58.8156 37.4445 58.8269 37.4107 58.8269C37.3994 58.8269 37.3881 58.8269 37.3768 58.8269C37.343 58.8269 37.2978 58.8382 37.264 58.8382C37.0721 58.8495 36.8577 58.8495 36.6433 58.8269C34.3076 58.5899 29.6021 57.9242 29.0379 56.3106C29.0154 56.2541 29.0718 56.1977 29.1846 56.1526C29.2072 56.1413 29.2298 56.1413 29.2523 56.13C29.2636 56.13 29.2636 56.13 29.2749 56.1187C29.2975 56.1074 29.3313 56.1074 29.3539 56.0962C29.5796 56.051 29.9068 56.0397 30.234 56.0623C32.5247 56.2767 34.127 56.6039 35.2554 56.9537C35.8535 57.1681 36.4289 57.3825 37.2865 57.9129C37.5912 58.1611 37.783 58.3981 37.862 58.5786C37.9184 58.6915 37.7717 58.7705 37.5122 58.8156Z" fill="#5B3A29"/>
</g>
<path d="M9.38167 27.6214C8.60307 27.2039 7.89218 26.6735 7.14744 26.2109C6.41398 25.7595 5.63538 25.3871 4.83422 25.0825C4.72138 25.0373 4.58597 24.9922 4.51826 24.8906C4.38286 24.6875 4.54083 24.428 4.71009 24.2475C5.24044 23.7171 6.00776 23.435 6.76378 23.4124C7.51981 23.3899 8.27583 23.6155 8.93031 23.9879C9.32525 24.2136 9.68634 24.4844 10.1151 24.6311C10.8147 24.8794 11.582 24.7778 12.3381 24.7665C12.5638 24.7665 12.7894 24.7778 12.9813 24.8681C13.4326 25.0938 13.5342 25.6918 13.5342 26.1883C13.5229 27.0797 13.1731 28.2871 12.135 28.479C11.2774 28.6482 10.0926 28.005 9.38167 27.6214Z" fill="#9B2405"/>
<path d="M27.6843 6.40706C27.5263 6.82457 27.3232 7.21951 27.0862 7.59188C27.0975 8.06581 27.2442 8.5623 27.3232 9.03623C27.1088 8.91211 26.8154 8.79927 26.6461 8.60744C26.3979 9.23934 26.2512 9.92767 26.003 10.5596C25.1792 10.2549 24.5586 9.45374 24.3104 8.60744C24.0621 7.76114 24.1072 6.85842 24.2652 5.98955C24.3216 5.70745 24.3781 5.42535 24.5248 5.1771C24.6602 4.92885 24.8858 4.71446 25.1567 4.64675C25.5065 4.55648 25.8788 4.70317 26.2174 4.86115C26.5672 5.01913 26.917 5.1771 27.2103 5.41407C27.4924 5.65103 27.8197 6.04597 27.6843 6.40706Z" fill="#F4904D"/>
<path d="M5.76028 10.3003C6.13265 10.3003 6.55016 10.3003 6.99023 10.3003C6.75327 10.9435 6.69685 11.6431 6.82097 12.3088C6.47117 12.0719 6.12136 11.8236 5.77156 11.5641C5.77156 11.5641 5.35405 11.1015 5.76028 10.3003Z" fill="url(#paint4_linear_3169_30141)"/>
<path d="M6.99023 10.3003C9.56298 10.3003 13.0159 10.2777 13.0159 10.2777C13.9299 9.86023 14.8213 9.38631 15.6902 8.85596L17.0781 12.3878C15.4984 12.9182 14.0766 13.9789 12.4291 14.1933C11.2217 14.3513 9.98049 14.0353 8.88594 13.5162C8.16377 13.1777 7.48673 12.7602 6.83225 12.3089C6.69685 11.6431 6.75327 10.9435 6.99023 10.3003Z" fill="#F4904D"/>
<path d="M10.5443 13.0649C10.4314 12.8166 10.3073 12.512 10.454 12.275C10.5443 12.1283 10.7022 12.0493 10.8715 12.0268C11.0407 12.0042 11.21 12.038 11.368 12.0832C12.045 12.2524 12.6769 12.5684 13.2186 13.0085C13.196 13.0198 13.1734 13.031 13.1396 13.031C13.7602 12.8166 14.4485 12.5684 15.0691 12.3653C14.9676 11.8688 14.6516 11.44 14.268 11.1128C13.8843 10.7855 13.4555 10.5034 13.0042 10.2777C13.9182 9.86023 14.8096 9.38631 15.6785 8.85596L17.0664 12.3878C15.4866 12.9182 14.0649 13.9789 12.4174 14.1933C11.21 14.3513 9.96877 14.0353 8.87422 13.5162C8.15204 13.1777 7.47501 12.7602 6.82054 12.3089C6.82054 12.2976 6.82053 12.275 6.80925 12.2637C8.02792 12.6587 9.28044 12.9295 10.5443 13.0649Z" fill="#A83F1E"/>
<path d="M5.59094 10.3003C5.64736 10.3003 5.70378 10.3003 5.7602 10.3003C5.35398 11.1015 5.77148 11.5641 5.77148 11.5641C5.18472 11.6995 4.57538 11.5528 4.0676 11.2256C3.61624 11.3497 3.13103 11.3497 2.67967 11.2256C2.34115 11.0338 4.58667 10.3003 5.59094 10.3003Z" fill="url(#paint5_linear_3169_30141)"/>
<path d="M24.254 5.97856C24.3104 5.69646 24.3668 5.41436 24.5135 5.16611C24.6602 4.91787 24.8746 4.70347 25.1454 4.63577C25.4952 4.5455 25.8676 4.69219 26.2061 4.85016C26.5559 5.00814 26.9057 5.16611 27.1991 5.40308C27.4925 5.65133 27.8197 6.04627 27.6843 6.40735C27.5263 6.82486 27.3232 7.2198 27.0863 7.59217C27.0863 7.60346 27.0863 7.61474 27.0863 7.62603C26.8155 7.75015 26.4769 7.7163 26.2625 7.52447C26.4205 7.54704 26.5785 7.55832 26.7365 7.58089C26.4995 7.44548 26.2964 7.25365 26.161 7.01669C26.3754 6.98284 26.6011 7.02797 26.7929 7.11825C26.6688 6.99412 26.5446 6.87 26.3979 6.79101C26.24 6.71202 26.0594 6.66689 25.9015 6.73459C25.766 6.79101 25.6645 6.90385 25.5855 7.01669C25.1454 7.62603 25.01 8.42719 25.1003 9.18322C25.1454 9.51045 25.2244 9.83769 25.326 10.1536C24.8408 9.7587 24.4797 9.18322 24.3104 8.59645C24.0396 7.75015 24.096 6.84743 24.254 5.97856Z" fill="#A83F1E"/>
<path d="M21.8288 5.48193C21.6031 6.46364 21.3662 7.44535 21.1405 8.42706C22.1109 8.29165 23.1716 8.40449 24.0518 8.822C23.6004 7.53562 22.8669 6.3508 21.8288 5.48193Z" fill="#F4904D"/>
<path d="M21.4784 5.89934C21.5461 5.32386 21.6138 4.74838 21.7943 4.19546C21.9749 3.64254 22.2683 3.1122 22.7083 2.75111C23.3854 2.19819 24.3558 2.08535 25.2021 2.27718C26.2289 2.51414 27.1542 3.19118 27.6959 4.0939C28.1247 4.81608 28.3165 5.68495 28.2375 6.51996C28.2036 6.83592 27.8651 7.00518 27.5943 6.8472C27.1768 6.61024 26.7819 6.37327 26.3644 6.13631C26.0823 5.97833 25.7212 6.09117 25.5858 6.38456C25.2472 7.10673 25.0328 7.88533 24.9313 8.67521C24.9087 8.8896 24.8636 9.14914 24.6718 9.25069C24.5476 9.3184 24.3897 9.28454 24.2542 9.23941C23.5434 8.97988 23.1597 8.22385 22.855 7.53552C22.5278 6.8472 22.1893 6.13631 21.4784 5.89934Z" fill="url(#paint6_linear_3169_30141)"/>
<path d="M24.8075 10.5261C24.8188 10.5261 24.8301 10.5261 24.8527 10.5261C24.9768 10.5035 25.0558 10.3907 25.0332 10.2666C24.8865 9.44284 24.864 8.60783 24.9768 7.80666V7.77281C25.0445 7.29888 25.2251 6.03507 25.699 5.80939C25.778 5.76426 25.9021 5.77554 26.0262 5.80939C26.7822 6.05764 27.5608 6.73468 28.0912 7.17476C28.1815 7.25375 28.3282 7.24246 28.4071 7.15219C28.4861 7.06192 28.4748 6.91523 28.3846 6.83624C27.685 6.24947 26.9515 5.65142 26.1729 5.39189C25.9359 5.3129 25.699 5.3129 25.5072 5.40317C24.8978 5.68527 24.6721 6.67826 24.5254 7.70511V7.73896C24.4013 8.59654 24.4239 9.46541 24.5819 10.3456C24.6044 10.4471 24.706 10.5261 24.8075 10.5261Z" fill="white"/>
<path d="M26.4325 11.1354C26.4776 11.1354 26.5228 11.1241 26.5679 11.0902C27.1547 10.6614 27.5158 10.007 27.8204 9.4202L27.8994 9.26222L27.764 9.14938C26.8726 8.40464 25.9473 7.67118 25.022 6.97157C24.9204 6.89258 24.785 6.91515 24.706 7.01671C24.6271 7.11826 24.6496 7.25367 24.7512 7.33266C25.6313 7.98713 26.5002 8.67545 27.3352 9.37506C27.0757 9.88284 26.7597 10.3906 26.3084 10.7291C26.2068 10.8081 26.1842 10.9435 26.2632 11.0451C26.2971 11.1015 26.3648 11.1354 26.4325 11.1354Z" fill="white"/>
<path d="M27.2105 10.3115C27.2782 10.3115 27.3347 10.2889 27.3798 10.2325C27.4588 10.1422 27.4475 9.99556 27.3572 9.91657L24.9425 7.86288C24.8522 7.78389 24.7055 7.79518 24.6265 7.88545C24.5475 7.97572 24.5588 8.12241 24.6491 8.2014L27.0638 10.2551C27.109 10.2889 27.1654 10.3115 27.2105 10.3115Z" fill="white"/>
<path d="M26.692 10.853C26.7597 10.853 26.8161 10.8305 26.8613 10.7741C26.9403 10.6838 26.9403 10.5371 26.8387 10.4581L24.8527 8.6978C24.7625 8.61881 24.6158 8.61881 24.5368 8.72037C24.4578 8.81064 24.4578 8.95733 24.5593 9.03632L26.5453 10.7966C26.5905 10.8305 26.6469 10.853 26.692 10.853Z" fill="white"/>
<path d="M26.0264 10.1536C26.0715 10.1536 26.1053 10.131 26.1279 10.0972L26.8952 8.66412C26.9291 8.6077 26.9065 8.53999 26.8501 8.50614C26.7937 8.47229 26.726 8.49486 26.6921 8.55128L25.9248 9.98434C25.891 10.0408 25.9135 10.1085 25.9699 10.1423C25.9925 10.1536 26.0038 10.1536 26.0264 10.1536Z" fill="white"/>
<path d="M27.5725 40.8575C26.0717 39.0972 24.5597 37.3482 23.0589 35.5879L27.2565 28.7949C28.227 30.9615 29.739 32.8346 30.9126 34.8996C31.646 36.1747 32.2328 37.5175 32.7744 38.8828C31.2849 39.8984 29.6713 40.7334 27.99 41.3766C27.8546 41.196 27.7192 41.0268 27.5725 40.8575Z" fill="#DE3D06"/>
<path d="M23.059 35.5879L27.2567 28.7949C27.5614 29.4832 27.9337 30.149 28.3174 30.8035C27.2454 34.2225 27.0761 37.8785 27.9224 41.2863C27.8096 41.1396 27.6855 41.0042 27.5726 40.8575C26.0719 39.0972 24.5598 37.3482 23.059 35.5879Z" fill="#9B2405"/>
<path d="M27.9898 41.3653C29.6711 40.7222 31.2847 39.8871 32.7742 38.8716C33.2255 40 33.6318 41.1397 34.0605 42.2794C32.3341 42.9 30.4497 43.0467 28.6555 42.6856C28.6329 42.5727 28.5991 42.4599 28.5652 42.3471C28.4298 41.986 28.2267 41.67 27.9898 41.3653Z" fill="#F4904D"/>
<path d="M34.0605 42.2793C34.715 44.0396 35.4033 45.7886 36.2948 47.4474C36.9154 48.5983 37.6376 49.7042 38.3485 50.7987C38.7095 51.3629 39.0819 51.9271 39.4317 52.4913C39.6574 52.8524 40.3683 53.6536 40.1877 54.1049C39.8379 54.9964 38.213 54.1501 37.7391 53.8454C36.6446 53.1458 35.6967 52.2318 34.7714 51.3291C33.3271 49.9299 31.894 48.5193 30.5851 47.0073C29.8516 46.161 29.1294 45.2357 28.8812 44.1299C28.7796 43.6559 28.7683 43.1594 28.6555 42.6855C30.4496 43.0466 32.3454 42.8999 34.0605 42.2793Z" fill="#DE3D06"/>
<path d="M19.7973 31.0177C18.6802 29.9457 17.958 28.4788 17.7887 26.9442C17.6195 25.4096 17.958 23.9314 18.8156 22.645L18.9397 20.817C19.7973 20.3543 20.7 19.8917 21.6366 19.6435C22.5732 19.3952 23.6 19.3614 24.4914 19.7563C25.4167 20.1738 26.0938 20.9975 26.6467 21.8551C27.1996 22.7127 27.6171 23.7508 28.3167 24.4956C28.407 28.6368 27.3914 32.7667 25.6311 36.513C24.9992 37.8784 24.2319 39.2325 23.0697 40.1691C23.0245 40.2029 22.9794 40.2368 22.9342 40.2706C21.6592 36.0391 19.1654 32.4959 19.1654 32.4959C19.3798 31.9881 19.5829 31.5481 19.7973 31.0177Z" fill="#DE3D06"/>
<path d="M10.3863 26.4138C10.5217 26.1204 10.8715 25.985 11.1875 25.9963C11.5034 26.0075 11.8081 26.1429 12.0902 26.2896C14.9225 27.7001 17.3598 29.9005 19.154 32.5184C19.154 32.5184 21.6478 36.0616 22.9229 40.2931C21.7606 41.1732 20.1808 41.5795 18.8493 41.0378C17.6645 40.5413 16.8746 39.4129 16.2089 38.3071C15.2159 36.6484 14.3357 34.9219 13.4556 33.2067C12.4852 31.311 11.526 29.4153 10.5556 27.5083C10.3976 27.1585 10.2284 26.7636 10.3863 26.4138Z" fill="#F4904D"/>
<path d="M26.1051 20.377C26.816 19.3953 27.2335 18.2669 28.2152 17.556C28.881 17.0821 29.3888 16.5405 29.8853 15.886C29.953 14.3852 29.7386 12.6813 28.5763 11.7335C26.8611 10.3455 25.0219 9.10431 23.0923 8.04361C21.7946 7.33272 20.418 6.73467 18.9849 6.32844C17.597 5.9335 16.1188 6.58798 15.5433 7.91949C15.3853 8.29186 15.2725 8.67552 15.1935 9.08174C15.848 15.2767 17.1456 18.2556 18.8269 22.6451C20.4518 21.0428 22.9456 20.219 25.1685 20.7494C25.3942 20.8058 25.6425 20.8735 25.8682 20.8284C26.0938 20.7832 26.1503 20.614 26.1051 20.377Z" fill="#106C8E"/>
<path d="M24.4685 15.7393C24.4685 15.7393 24.0961 13.2907 25.4502 12.546C26.1949 12.1285 27.5151 11.9705 28.8692 12.0269C29.7719 13.0086 29.9412 14.532 29.8848 15.8973C29.3883 16.5518 28.8805 17.0821 28.2147 17.5673C27.8762 17.8156 27.5941 18.1203 27.3572 18.4475C26.4319 17.8833 25.5404 17.2852 24.7054 16.6533L24.4685 15.7393Z" fill="url(#paint7_linear_3169_30141)"/>
<path d="M15.5311 7.91941C16.0388 6.75716 17.2349 6.11397 18.4536 6.23809C16.8626 7.63731 16.0388 9.88283 16.3999 11.9817C17.077 15.8859 20.575 18.4925 24.3213 20.6252C22.3353 20.4446 20.2365 21.2458 18.8147 22.6563C17.1334 18.2668 15.8357 15.2879 15.1812 9.09295C15.2602 8.67544 15.3731 8.2805 15.5311 7.91941Z" fill="#3C8AAC"/>
<path d="M21.2646 36.1408C19.7977 37.2579 18.0713 38.0252 16.2658 38.375C16.2546 38.3524 16.232 38.3186 16.2207 38.296C15.7355 37.4949 15.2841 36.6711 14.8441 35.8361C16.6044 35.3058 18.2631 34.4595 19.7075 33.3311C20.1024 33.9855 20.6779 34.956 21.2646 36.1408Z" fill="url(#paint8_linear_3169_30141)"/>
<path d="M41.5752 54.951C42.1619 55.4926 42.918 55.8311 43.5386 56.3163C44.1705 56.8128 44.7121 57.5576 44.5993 58.3474C44.588 58.4264 44.5654 58.5167 44.5203 58.5731C44.4413 58.6634 44.3285 58.6973 44.2043 58.7085C43.1324 58.9004 42.004 58.7198 41.0448 58.2233C39.939 57.6478 39.025 56.6436 37.8063 56.3727C37.5919 56.3276 37.3437 56.2825 37.2308 56.1019C37.1744 56.0229 37.1631 55.9214 37.1518 55.8198C37.0616 55.0525 37.3211 54.2401 37.8515 53.6759C37.9304 53.5856 38.032 53.4953 38.0658 53.3825C38.0997 53.2809 38.0997 53.1794 38.1223 53.0778C38.3028 52.209 39.3297 52.5475 39.7697 52.9424C40.4468 53.5518 40.9094 54.3416 41.5752 54.951Z" fill="#9B2405"/>
<path d="M39.4431 56.023C40.2669 56.6662 40.8649 57.6479 41.8353 58.0541C42.456 58.3136 43.1443 58.2911 43.7988 58.4039C44.047 58.4377 44.284 58.4942 44.5322 58.5732C44.5322 58.5732 44.5322 58.5844 44.5209 58.5844C44.442 58.6747 44.3291 58.7086 44.205 58.7198C43.133 58.9117 42.0046 58.7311 41.0455 58.2346C39.9396 57.6591 39.0256 56.6549 37.807 56.3841C37.5926 56.3389 37.3443 56.2938 37.2315 56.1132C37.1751 56.0343 37.1638 55.9327 37.1525 55.8311C37.1186 55.5716 37.1299 55.3008 37.1751 55.0413C37.9988 55.2218 38.7887 55.5152 39.4431 56.023Z" fill="#DE3D06"/>
<path d="M29.3089 45.2808C29.117 44.9197 28.959 44.5473 28.8688 44.1411C28.7672 43.6672 28.7559 43.1707 28.6431 42.6968C30.4373 43.0578 32.333 42.9111 34.0481 42.2905C34.3641 43.1255 34.68 43.9606 35.0186 44.7843C33.2244 45.4839 31.2158 45.6644 29.3089 45.2808Z" fill="url(#paint9_linear_3169_30141)"/>
<path d="M31.8033 45.4613C32.9091 45.4049 34.0037 45.1679 35.0305 44.7729C35.4142 45.687 35.8204 46.5784 36.283 47.4473C36.9037 48.5982 37.6258 49.7041 38.3367 50.7986C38.6978 51.3628 39.0702 51.927 39.42 52.4912C39.6457 52.8523 40.3566 53.6535 40.176 54.1048C40.0293 54.4772 39.657 54.5449 39.2395 54.4772C36.2041 51.8932 33.541 48.9255 31.8033 45.4613Z" fill="#FFCF00"/>
<path d="M31.8035 45.4614C33.53 48.9255 36.2043 51.8932 39.251 54.4773C38.6755 54.3757 38.0097 54.0259 37.7389 53.8454C36.6444 53.1458 35.6965 52.2318 34.7712 51.329C33.3269 49.9298 31.8938 48.5193 30.5849 47.0073C30.1222 46.4656 29.6596 45.9014 29.3211 45.2695C30.1335 45.4388 30.9685 45.5065 31.8035 45.4614Z" fill="#F2B808"/>
<path d="M14.5385 29.1446C13.3311 28.0049 11.9432 27.0232 10.4311 26.3349C10.5891 26.0979 10.8938 25.9851 11.1872 25.9964C11.5031 26.0077 11.8078 26.1431 12.0899 26.2898C14.9222 27.7003 17.3595 29.9006 19.1537 32.5185C19.1537 32.5185 19.3681 32.8232 19.6953 33.3423C19.3455 33.6131 18.9844 33.8726 18.612 34.1096C17.4047 32.3267 16.107 30.6115 14.5385 29.1446Z" fill="#F2B808"/>
<path d="M10.4314 26.3347C11.9435 27.023 13.3314 28.0047 14.5388 29.1444C16.1073 30.6114 17.4049 32.3265 18.6123 34.1094C17.4388 34.8541 16.1637 35.4409 14.8322 35.8471C14.3695 34.967 13.9182 34.0868 13.4668 33.1954C12.4964 31.2997 11.5372 29.404 10.5668 27.497C10.3976 27.1585 10.217 26.7522 10.3863 26.4137C10.3976 26.3799 10.4201 26.3573 10.4314 26.3347Z" fill="#FFCF00"/>
<path d="M25.9579 20.9187C26.2061 21.2121 26.4318 21.5393 26.6462 21.8666C26.9396 22.3292 27.1991 22.8483 27.4925 23.3448C27.5602 27.5537 26.6688 31.7739 24.8859 35.5879C24.2766 36.8856 23.5318 38.1607 22.5727 39.1988C22.3696 38.6233 22.1439 38.0704 21.9182 37.54C23.6559 35.4525 24.7956 32.8459 25.3937 30.1829C26.0594 27.1475 26.1046 24.0218 25.9579 20.9187Z" fill="white"/>
<path d="M29.4796 25.5901C29.8406 26.3913 30.1792 27.2037 30.4951 28.0274C29.615 28.2982 29.2087 29.0994 29.2087 29.0994C29.2087 29.0994 28.2609 28.5465 27.1325 27.6776C27.8321 26.8877 28.6107 26.1769 29.4796 25.5901Z" fill="url(#paint10_linear_3169_30141)"/>
<path d="M30.4951 28.0273C30.4951 28.0273 31.1383 27.9032 31.4429 27.9709C31.7476 28.0386 32.0297 28.174 32.3231 28.2756C32.6165 28.3771 32.9437 28.4223 33.2371 28.3207C33.3612 28.2756 33.5079 28.2079 33.6094 28.2756C33.6884 28.332 33.711 28.4448 33.6771 28.5351C33.6433 28.6254 33.5869 28.7044 33.5192 28.7721C33.3612 28.9526 33.1468 29.0203 32.9211 29.0316C32.6954 29.0429 32.4472 29.0203 32.2215 29.0993C31.9394 29.2008 31.7363 29.4604 31.5558 29.7086C31.6912 30.5775 32.0071 31.4238 32.4359 32.1798C32.4698 32.2475 32.5262 32.3717 32.5375 32.4506C32.5487 32.5296 32.5149 32.6086 32.4472 32.6538C32.3456 32.7102 32.2328 32.6425 32.1425 32.5635C31.8604 32.3378 31.6347 32.0444 31.4655 31.7285C31.4993 32.2137 31.567 32.6989 31.646 33.1841C31.6686 33.2969 31.4993 33.2857 31.3865 33.2744C31.2737 33.2631 31.1834 33.1954 31.0931 33.1277C30.6869 32.8456 30.2807 32.5522 30.0211 32.1347C29.4569 31.232 29.7277 30.0133 29.2087 29.0767C29.2087 29.088 29.6149 28.2868 30.4951 28.0273Z" fill="url(#paint11_linear_3169_30141)"/>
<path d="M24.4694 15.739C27.5161 15.9308 28.7347 17.1382 28.7347 17.1382C28.2947 18.5149 27.8207 19.8802 27.3807 21.2569C28.1254 22.6787 28.825 24.123 29.4795 25.5787C28.6219 26.1767 27.832 26.8763 27.1324 27.6549C25.6993 26.5491 23.9842 24.9129 23.6005 23.2542C22.9348 20.2865 24.4694 15.739 24.4694 15.739Z" fill="#F4904D"/>
<path d="M24.469 15.739C27.5157 15.9308 28.7344 17.1382 28.7344 17.1382C28.6441 17.409 28.5651 17.6686 28.4748 17.9394C27.7527 17.6234 26.9628 17.4655 26.1842 17.4993C25.7893 17.5219 25.3717 17.5896 25.0558 17.8378C24.7286 18.0974 24.5819 18.5149 24.4577 18.9098C24.1305 19.9592 23.9161 21.0425 23.8033 22.1258C23.7807 22.3176 23.7694 22.5207 23.8371 22.7012C23.9048 22.8818 24.0628 23.0398 24.2546 23.0398C24.4803 23.0398 24.6496 22.8254 24.864 22.8028C25.1461 22.7689 25.3717 23.0398 25.541 23.2767C26.3422 24.4615 27.1433 25.6351 27.9445 26.8199C27.6624 27.0907 27.3916 27.3728 27.132 27.6662C25.699 26.5604 23.9838 24.9242 23.6002 23.2654C22.9344 20.2865 24.469 15.739 24.469 15.739Z" fill="#A83F1E"/>
<path d="M15.5315 7.91916C16.0393 6.75691 17.2354 6.11373 18.4541 6.23785C18.409 6.2717 18.3638 6.31684 18.3187 6.36197C17.6191 6.63279 16.9985 7.09543 16.5697 7.71605C15.8813 8.70904 15.6895 9.96157 15.6331 11.1577C15.6105 11.4962 15.6105 11.8347 15.5993 12.1732C15.4413 11.2367 15.2946 10.2098 15.1817 9.0927C15.2607 8.67519 15.3736 8.28025 15.5315 7.91916Z" fill="url(#paint12_linear_3169_30141)"/>
<path d="M18.3195 25.026C18.3646 26.696 19.1771 28.2419 20.4521 29.3365L19.7977 31.0291C18.6806 29.9571 17.9584 28.4902 17.7891 26.9555C17.6424 25.5337 17.9132 24.1684 18.6354 22.9497C18.4097 23.6155 18.2969 24.3151 18.3195 25.026Z" fill="#9B2405"/>
<path d="M6.75325 23.4124C7.50928 23.3899 8.26531 23.6155 8.91978 23.9879C9.31472 24.2136 9.67581 24.4844 10.1046 24.6311C10.8042 24.8794 11.5715 24.7778 12.3275 24.7665C12.5532 24.7665 12.7789 24.7778 12.9707 24.8681C13.2754 25.026 13.4221 25.3307 13.4785 25.6805C13.1174 25.4323 12.7112 25.2743 12.2824 25.2179C11.6956 25.1502 11.0863 25.2969 10.4995 25.2066C9.94662 25.1163 9.46141 24.8117 8.95363 24.5634C8.18632 24.1798 7.34002 23.9089 6.48244 23.9202C5.74898 23.9315 5.00423 24.1797 4.4626 24.6537C4.48517 24.507 4.58672 24.349 4.69956 24.2362C5.24119 23.7171 5.99722 23.435 6.75325 23.4124Z" fill="#DE3D06"/>
<path d="M43.1326 46.4652C43.3132 46.5329 43.5276 46.5442 43.7307 46.4991C43.7758 46.4878 43.8209 46.4765 43.8661 46.4652C43.8774 46.4652 43.8886 46.454 43.8999 46.454C43.9451 46.4427 43.9789 46.4201 44.0241 46.4088C44.3513 46.2734 44.6334 46.0252 44.7349 45.7205C44.9381 45.1789 45.1412 44.4003 45.2314 43.6217C45.2314 41.9404 45.017 41.2407 44.7575 40.575C44.1933 39.4579 43.1101 38.431 41.1692 37.754C40.8871 37.6524 40.5373 37.6976 40.2326 37.8443C40.1988 37.8668 40.1649 37.8781 40.1198 37.9007C40.1085 37.912 40.0972 37.912 40.0859 37.9233C40.0521 37.9458 40.0182 37.9684 39.9844 37.991C39.8038 38.1264 39.6684 38.2956 39.5894 38.4762C37.5583 43.5991 41.1805 45.7205 43.1326 46.4652Z" fill="#C7251A"/>
<path d="M43.7311 46.499C43.7763 46.4877 43.8214 46.4764 43.8665 46.4651C43.8778 46.4651 43.8891 46.4539 43.9004 46.4539C42.0837 43.9037 40.7973 40.9924 40.1428 37.9119C40.1315 37.9231 40.1203 37.9232 40.109 37.9344C40.0751 37.957 40.0413 37.9796 40.0074 38.0021C40.6619 41.0714 41.937 43.9601 43.7311 46.499Z" fill="white"/>
<path d="M43.8664 46.4652C43.8777 46.4652 43.889 46.4539 43.9003 46.4539C43.9454 46.4426 43.9793 46.42 44.0244 46.4087C42.1964 43.8586 40.91 40.9473 40.2443 37.8555C40.2104 37.878 40.1766 37.8893 40.1314 37.9119C40.1201 37.9232 40.1089 37.9232 40.0976 37.9345C40.7633 41.015 42.0497 43.9263 43.8664 46.4652Z" fill="#8F080C"/>
<path d="M40.1982 40.7556C40.5819 40.451 41.0445 40.2591 41.541 40.1802L41.4959 39.8755C40.9542 39.9545 40.4465 40.1689 40.0064 40.5074L40.1982 40.7556Z" fill="#8F080C"/>
<path d="M40.5146 41.5342C40.8983 41.2295 41.3609 41.0377 41.8574 40.9587L41.8123 40.6541C41.2707 40.733 40.7629 40.9474 40.3228 41.286L40.5146 41.5342Z" fill="#8F080C"/>
<path d="M40.8418 42.324C41.2254 42.0193 41.6881 41.8275 42.1846 41.7485L42.1394 41.4438C41.5978 41.5228 41.09 41.7372 40.6499 42.0758L40.8418 42.324Z" fill="#8F080C"/>
<path d="M41.1689 43.114C41.5526 42.8094 42.0152 42.6175 42.5117 42.5386L42.4666 42.2339C41.925 42.3129 41.4172 42.5273 40.9771 42.8658L41.1689 43.114Z" fill="#8F080C"/>
<path d="M41.4961 43.9036C41.8797 43.5989 42.3424 43.4071 42.8389 43.3281L42.7937 43.0234C42.2521 43.1024 41.7443 43.3168 41.3042 43.6553L41.4961 43.9036Z" fill="#8F080C"/>
<path d="M41.8232 44.6936C42.2069 44.389 42.6695 44.1971 43.166 44.1181L43.1209 43.8135C42.5792 43.8925 42.0715 44.1069 41.6314 44.4454L41.8232 44.6936Z" fill="#8F080C"/>
<path d="M40.1084 40.6541C40.492 40.3494 40.9547 40.1576 41.4512 40.0786L41.406 39.7739C40.8644 39.8529 40.3566 40.0673 39.9165 40.4058L40.1084 40.6541Z" fill="white"/>
<path d="M40.4355 41.4441C40.8192 41.1394 41.2818 40.9476 41.7783 40.8686L41.7332 40.564C41.1916 40.643 40.6838 40.8573 40.2437 41.1959L40.4355 41.4441Z" fill="white"/>
<path d="M40.7636 42.2337C41.1473 41.929 41.6099 41.7372 42.1064 41.6582L42.0613 41.3535C41.5197 41.4325 41.0119 41.6469 40.5718 41.9854L40.7636 42.2337Z" fill="white"/>
<path d="M41.0908 43.0237C41.4745 42.719 41.9371 42.5272 42.4336 42.4482L42.3885 42.1436C41.8468 42.2225 41.339 42.4369 40.899 42.7755L41.0908 43.0237Z" fill="white"/>
<path d="M41.4179 43.8137C41.8016 43.5091 42.2642 43.3173 42.7607 43.2383L42.7156 42.9336C42.174 43.0126 41.6662 43.227 41.2261 43.5655L41.4179 43.8137Z" fill="white"/>
<path d="M41.7334 44.6035C42.117 44.2989 42.5797 44.107 43.0762 44.0281L43.031 43.7234C42.4894 43.8024 41.9816 44.0168 41.5415 44.3553L41.7334 44.6035Z" fill="white"/>
<path d="M23.9021 6.14121C23.7123 6.03359 23.6857 5.72224 23.8425 5.44579C23.9993 5.16934 24.2802 5.03248 24.47 5.1401C24.6597 5.24772 24.6864 5.55907 24.5295 5.83552C24.3727 6.11197 24.0918 6.24883 23.9021 6.14121Z" fill="#062C3F"/>
<path d="M21.7836 4.18447C21.9642 3.63156 22.2575 3.10121 22.6976 2.74012C23.3747 2.18721 24.3451 2.07437 25.1914 2.26619C26.2182 2.50316 27.1435 3.1802 27.6851 4.08292C27.9334 4.51171 28.1027 4.98564 28.1816 5.47085C27.719 4.60198 27.0645 3.82339 26.2746 3.23662C26.5229 3.49615 26.4439 3.94751 26.1844 4.19576C25.9361 4.44401 25.5637 4.53428 25.2027 4.56813C24.6723 4.61327 24.142 4.53428 23.6455 4.35373C23.2618 4.20704 22.8556 3.94751 22.7992 3.53C22.314 4.31988 22.0093 5.20003 21.8739 6.11404C21.7498 6.02377 21.6144 5.94478 21.4564 5.88836C21.5466 5.32416 21.6144 4.73739 21.7836 4.18447Z" fill="#DE3D06"/>
<path d="M124.058 45.1097L124.406 45.3356H124.815C124.846 45.2302 124.861 45.1398 124.891 45.0343C125.118 44.2812 125.512 43.5732 126.057 42.9706C127.163 41.7204 127.753 40.1839 127.39 38.6323L126.451 41.7204C126.209 42.4886 125.557 43.0459 124.755 43.1665L124.058 43.2568C123.785 44.4619 124.058 45.1097 124.058 45.1097Z" fill="#511608"/>
<path d="M118.757 33.1792C118.909 34.7157 120.923 35.2881 120.923 35.2881C123.074 36.0563 124.573 35.2881 124.573 35.2881C124.27 35.1224 123.967 34.9718 123.665 34.8211C122.12 34.0981 120.439 33.5407 118.757 33.1792Z" fill="#511608"/>
<path d="M154.637 42.85C154.818 42.7747 154.955 42.6241 155.015 42.4282C155.515 40.8315 157.651 33.0436 153.486 26.6115C153.486 26.6115 147.049 16.4737 133.766 17.0612C133.766 17.0612 123.997 17.1215 119.211 26.2801C119.121 26.4609 119.105 26.6868 119.211 26.8676C119.393 27.214 119.62 27.8467 119.348 28.615L118.151 32.6369C118.091 32.8328 118.212 33.0436 118.424 33.0888C120.226 33.4504 122.044 34.0228 123.695 34.8061C125.042 35.4387 126.375 36.2974 127.072 37.6531C128.041 39.521 127.435 41.4642 126.103 42.9555C124.8 44.4317 124.315 46.4653 125.103 48.3181C125.542 49.3424 126.3 50.2161 127.117 50.9542C128.48 52.1894 130.101 53.1083 131.797 53.8163C133.781 54.6448 135.947 54.5544 137.886 53.6355C139.476 52.8673 141.097 52.1141 142.732 51.4513C143.293 51.2254 143.853 51.0446 144.444 50.909L145.898 50.5475C146.276 50.4571 146.504 50.0805 146.413 49.7039C146.413 49.7039 146.413 49.6889 146.413 49.6738C146.382 49.5533 146.382 49.4177 146.428 49.2972C146.67 48.5591 147.624 45.9983 149.76 44.989L154.637 42.85Z" fill="#942E0B"/>
<path d="M146.337 50.1557C146.337 50.5022 146.67 50.7583 147.004 50.6679L153.395 49.1013C153.622 49.041 153.804 48.8904 153.88 48.6644L154.016 48.2878C154.031 48.2577 154.031 48.2125 154.031 48.1673C154.031 48.1071 154.016 48.0619 153.986 48.0016C153.94 47.9263 153.925 47.8359 153.955 47.7455L155.182 43.4223C155.243 43.2114 155.182 42.9704 155.016 42.8198L154.849 42.6541C154.788 42.7294 154.697 42.7896 154.622 42.8198L149.699 44.9889C147.564 45.9982 146.61 48.559 146.367 49.2971C146.322 49.4176 146.322 49.5532 146.352 49.6737V49.6887C146.413 49.8695 146.398 50.0201 146.337 50.1557Z" fill="white"/>
<path d="M151.35 45.8024L150.926 47.5498C150.91 47.595 150.865 47.6251 150.82 47.6251L149.699 47.5046C149.623 47.5046 149.578 47.4444 149.578 47.369C149.578 47.2033 149.638 46.8569 150.047 46.5104C150.123 46.4351 150.214 46.3749 150.305 46.3297L151.259 45.7572C151.304 45.7121 151.35 45.7572 151.35 45.8024Z" fill="#942E0B"/>
<path d="M134.827 52.0086C134.408 52.0086 134.069 51.6713 134.069 51.2554C134.069 50.8394 134.408 50.5022 134.827 50.5022C135.245 50.5022 135.584 50.8394 135.584 51.2554C135.584 51.6713 135.245 52.0086 134.827 52.0086Z" fill="#C5C5C5"/>
<path d="M134.615 51.2555C134.615 51.376 134.721 51.4814 134.842 51.4814C134.963 51.4814 135.069 51.376 135.069 51.2555C135.069 51.135 134.963 51.0295 134.842 51.0295C134.706 51.0295 134.615 51.1199 134.615 51.2555Z" fill="#6F6F6E"/>
<path d="M130.98 50.3667C130.98 50.7885 131.313 51.1199 131.737 51.1199C132.161 51.1199 132.494 50.7885 132.494 50.3667C132.494 49.9449 132.161 49.6135 131.737 49.6135C131.313 49.6135 130.98 49.9449 130.98 50.3667Z" fill="#C5C5C5"/>
<path d="M131.51 50.3666C131.51 50.4871 131.616 50.5925 131.737 50.5925C131.858 50.5925 131.964 50.4871 131.964 50.3666C131.964 50.2461 131.858 50.1406 131.737 50.1406C131.616 50.1406 131.51 50.2461 131.51 50.3666Z" fill="#6F6F6E"/>
<path d="M142.914 41.6751L142.339 43.3773C142.309 43.4676 142.248 43.543 142.172 43.5881L141.294 44.1455C141.021 44.3263 140.658 44.1003 140.688 43.784L140.839 41.8106C140.855 41.6449 140.961 41.5094 141.112 41.4642C141.369 41.3889 141.839 41.2533 142.475 41.1629C142.778 41.1177 143.005 41.3889 142.914 41.6751Z" fill="#511608"/>
<path d="M139.719 42.3078L139.113 45.0946C139.037 45.426 138.825 45.7272 138.537 45.908L136.705 47.0378C135.857 47.565 134.736 47.3842 134.085 46.631L133.388 45.8176C133.024 45.3958 133.176 44.7481 133.691 44.5071L139.31 41.9764C139.537 41.886 139.764 42.0818 139.719 42.3078Z" fill="#511608"/>
<path d="M111.306 43.4377C111.291 43.4226 111.291 43.4076 111.276 43.3925C110.927 42.8804 111.412 42.2176 112.018 42.3531C114.623 42.9707 119.454 42.3983 120.802 42.2326C121.014 42.2025 121.181 42.0519 121.226 41.841L122.71 33.9175C122.741 33.7217 122.619 33.5409 122.438 33.4958L116.819 32.0195C116.561 31.9593 116.395 31.7183 116.395 31.4772C116.395 31.432 116.395 31.4019 116.41 31.3567C116.486 31.0404 116.804 30.8446 117.122 30.9349L127.557 33.6916C128.314 33.8874 128.981 34.3694 129.389 35.0322L134.13 42.5038C134.357 42.8502 134.236 43.3172 133.873 43.5281L130.404 45.4713C129.95 45.7274 129.465 45.8629 128.95 45.8931L122.498 46.2998C122.286 46.3148 122.105 46.4805 122.074 46.6914L121.605 50.3669C121.529 51.4967 120.651 52.0541 120.651 52.0541C119.469 52.7319 116.667 53.1236 115.471 53.2591C114.971 53.3194 114.471 53.3043 113.971 53.229C113.744 53.1838 113.563 53.1386 113.426 53.0934C113.154 53.0031 112.942 52.7621 112.896 52.4758L111.684 46.0588C111.654 45.9081 111.594 45.7726 111.488 45.6671C111.215 45.3508 111.291 45.0194 111.397 44.8386C111.472 44.703 111.503 44.5524 111.503 44.3867L111.457 43.8294C111.442 43.6938 111.382 43.5582 111.306 43.4377ZM128.405 35.8306L128.011 35.2733C127.89 35.1076 127.708 34.972 127.511 34.9268L124.407 34.0832C124.255 34.038 124.104 34.1435 124.073 34.2941L122.756 41.841C122.726 42.0519 122.892 42.2326 123.104 42.2176L124.346 42.0669C124.74 42.0217 125.058 41.7506 125.164 41.3891L126.315 37.6081C126.542 36.87 127.209 36.3578 127.996 36.3578H128.148C128.405 36.3126 128.541 36.0415 128.405 35.8306ZM122.619 45.2152L128.784 44.7181C129.374 44.6729 129.935 44.5072 130.45 44.221L132.464 43.1063C132.631 43.0159 132.676 42.805 132.585 42.6544L129.677 37.8642C129.556 37.6684 129.344 37.5479 129.117 37.5479H128.269C127.951 37.5479 127.663 37.7587 127.572 38.06L126.451 41.7355C126.209 42.5038 125.558 43.0611 124.755 43.1816L122.726 43.4678C122.604 43.4829 122.498 43.5883 122.483 43.7088L122.317 44.929C122.301 45.0796 122.438 45.2303 122.619 45.2152ZM112.881 46.4504L113.759 51.798C113.79 51.9787 113.956 52.1294 114.138 52.1294C116.834 52.2499 118.909 51.572 119.848 51.1954C120.181 51.0599 120.408 50.7586 120.454 50.3971L120.817 46.7818C120.832 46.586 120.681 46.4052 120.469 46.4203C117.001 46.5408 114.259 46.2245 113.244 46.0889C113.017 46.0588 112.836 46.2395 112.881 46.4504ZM112.745 44.6127C112.76 44.7482 112.836 44.8537 112.972 44.8989C114.85 45.5466 119.318 45.3207 120.499 45.2453C120.666 45.2303 120.802 45.1098 120.817 44.9441L120.923 44.0704C120.953 43.8444 120.757 43.6486 120.529 43.6637C119.363 43.7842 117.743 43.9348 116.258 43.9047C114.804 43.8896 113.502 43.7239 112.942 43.6486C112.79 43.6335 112.669 43.754 112.684 43.8896L112.745 44.6127Z" fill="#C5C5C5"/>
<path d="M122.877 41.0726C123.044 41.0576 123.21 41.0425 123.362 41.0124C124.164 40.922 124.816 40.3647 125.043 39.5964L125.967 36.2824C125.709 36.0414 125.422 35.8155 125.119 35.6196L124.104 39.3403C124.013 39.6868 123.71 39.9429 123.347 40.0031L123.074 40.0333L122.877 41.0726Z" fill="#6F6F6E"/>
<path d="M111.427 42.5038C111.579 42.3833 111.791 42.323 112.018 42.3682C112.503 42.4887 113.063 42.549 113.669 42.5942C114.85 42.1121 118.546 41.5849 121.332 41.2384L121.529 40.2141L115.713 41.1179C114.986 41.2384 114.259 41.374 113.563 41.5698C111.548 42.1272 111.427 42.5038 111.427 42.5038Z" fill="#6F6F6E"/>
<path d="M112.669 43.9043L112.744 44.6123C112.76 44.7479 112.835 44.8533 112.972 44.8985C113.108 44.9437 113.244 44.9889 113.396 45.019C114.092 44.5972 119.484 43.7838 119.757 43.7386C118.697 43.829 117.424 43.9194 116.258 43.9043C115.38 43.8893 114.547 43.829 113.911 43.7688C113.093 44.3412 113.032 43.6633 113.032 43.6633C113.002 43.6633 112.972 43.6482 112.941 43.6482C112.79 43.6332 112.654 43.7537 112.669 43.9043Z" fill="#6F6F6E"/>
<path d="M112.881 46.4505L113.759 51.798C113.79 51.9487 113.896 52.0692 114.047 52.1144C114.047 51.8733 114.653 51.6173 114.653 51.6173L120.59 48.9811L120.817 46.7668C120.832 46.6463 120.772 46.5408 120.696 46.4806L120.484 46.4053L120.408 47.52C120.378 47.9116 120.135 48.2732 119.757 48.4238L114.35 50.7285C114.168 50.8038 113.971 50.6984 113.941 50.5026L113.244 46.0739C113.017 46.0588 112.835 46.2396 112.881 46.4505Z" fill="#6F6F6E"/>
<path d="M116.076 32.2753C116.258 32.3205 116.394 32.441 116.44 32.6218C116.546 33.0285 116.879 33.1792 116.879 33.1792L117.984 33.5407C118.287 33.6461 118.636 33.4804 118.742 33.1792C118.62 33.149 118.499 33.134 118.378 33.1038C118.181 33.0587 118.045 32.8478 118.106 32.6519L119.317 28.63C119.59 27.8617 119.363 27.214 119.181 26.8826C119.12 26.7772 119.105 26.6566 119.105 26.5361H118.53C118.181 26.5361 117.863 26.732 117.712 27.0483L117.515 27.4701C117.5 27.5153 117.454 27.5454 117.394 27.5454C117.348 27.5454 117.303 27.5755 117.273 27.6207L116.939 28.2986C116.894 28.389 116.803 28.4492 116.697 28.4492C116.591 28.4492 116.5 28.5095 116.455 28.5998C116.258 28.9915 115.697 30.0911 115.455 30.543C115.349 30.7389 115.273 30.9648 115.258 31.1908C115.228 31.9289 115.728 32.185 116.076 32.2753Z" fill="white"/>
<path d="M134.129 25.7831C132.675 26.3856 129.419 28.0878 127.192 31.9892C126.995 32.3357 126.571 32.5014 126.193 32.396L120.71 30.8745C120.241 30.739 119.968 30.2569 120.089 29.79C120.725 27.5154 123.164 21.3996 131.206 20.074C131.691 19.9986 132.175 20.2397 132.402 20.6765L134.508 24.7738C134.689 25.1654 134.523 25.6174 134.129 25.7831Z" fill="#B73715"/>
<path d="M154.727 35.4084C154.333 31.6576 152.758 27.9218 150.123 25.2103C147.109 22.1223 142.868 20.5256 138.809 19.3808C138.597 19.3205 138.385 19.2602 138.173 19.2151C138.067 19.1849 138.022 19.0494 138.098 18.959L138.734 18.1907C138.779 18.1305 138.87 18.1003 138.946 18.1154C141.278 18.6426 143.565 19.5615 145.655 20.6913C149.305 22.6646 152.561 25.5568 154.212 29.4281C154.985 31.2358 155.424 33.4953 154.97 35.4234C154.924 35.559 154.742 35.544 154.727 35.4084Z" fill="#B73715"/>
<path d="M143.581 50.5325C143.611 50.5325 143.626 50.5777 143.596 50.5777C141.4 51.1802 139.431 52.2497 137.326 53.1083C136.644 53.3795 135.917 53.5301 135.19 53.5753C133.055 53.6958 130.934 52.6866 129.223 51.4965C127.799 50.5174 126.36 49.011 125.982 47.2787C125.967 47.2034 126.027 47.113 126.103 47.113H126.421C126.481 47.113 126.527 47.1432 126.542 47.2034C127.193 49.1165 128.723 50.3969 130.404 51.4062C131.888 52.2949 133.6 52.8974 135.357 52.7619C136.523 52.6715 137.644 52.325 138.719 51.9183C139.567 51.602 140.415 51.2555 141.294 50.9994C142.036 50.7885 142.808 50.6228 143.581 50.5325Z" fill="#7C230A"/>
<path d="M142.339 46.6911L136.841 48.7549C136.023 49.0561 135.129 49.1013 134.281 48.8603L134.069 48.8C133.039 48.4988 132.085 47.9866 131.283 47.2786L130.98 47.0225C130.874 46.9322 130.798 46.7966 130.783 46.661L130.737 46.3146C130.707 46.0886 130.813 45.8777 131.01 45.7723L132.297 45.0342C132.373 44.989 132.464 45.0643 132.449 45.1396C132.373 45.5162 132.464 45.9229 132.721 46.2242L133.66 47.3389C133.918 47.6401 134.251 47.8812 134.63 48.0318C135.145 48.2427 135.72 48.2578 136.25 48.0921C136.765 47.9414 137.28 47.7908 137.81 47.6703L142.293 46.6008C142.369 46.6008 142.384 46.661 142.339 46.6911Z" fill="#7C230A"/>
<path d="M134.993 42.383L134.493 41.5395C134.447 41.4491 134.493 41.3436 134.584 41.3286C135.689 41.0424 141.535 39.6113 145.822 39.7921C145.912 39.7921 145.928 39.9427 145.822 39.9427C143.747 40.1235 138.885 40.726 135.174 42.4282C135.099 42.4734 135.023 42.4583 134.993 42.383Z" fill="#7C230A"/>
<path d="M154.53 40.8916C154.667 40.2891 154.939 38.843 155.03 37.0052C155.03 36.9601 154.955 36.945 154.939 36.9902C154.621 37.9844 153.44 40.982 150.805 42.5938C150.729 42.639 150.774 42.7595 150.865 42.7445C151.683 42.5034 153.107 42.0365 154.152 41.4038C154.349 41.2833 154.485 41.1025 154.53 40.8916Z" fill="#7C230A"/>
<path d="M133.282 40.9521L130.298 42.7446C129.677 43.1212 128.859 42.9254 128.496 42.2927C128.117 41.6601 128.344 40.8466 128.98 40.4851L131.994 38.8281C132.085 38.7829 132.191 38.8131 132.237 38.8884L133.342 40.7111C133.388 40.7864 133.373 40.9069 133.282 40.9521Z" fill="white"/>
<path d="M129.496 42.5037C129.077 42.5037 128.738 42.1665 128.738 41.7505C128.738 41.3345 129.077 40.9973 129.496 40.9973C129.914 40.9973 130.253 41.3345 130.253 41.7505C130.253 42.1665 129.914 42.5037 129.496 42.5037Z" fill="#6F6F6E"/>
<path d="M129.495 41.9766C129.37 41.9766 129.268 41.8754 129.268 41.7506C129.268 41.6258 129.37 41.5247 129.495 41.5247C129.621 41.5247 129.723 41.6258 129.723 41.7506C129.723 41.8754 129.621 41.9766 129.495 41.9766Z" fill="#C5C5C5"/>
<path d="M129.496 31.9895C129.496 32.5468 129.95 32.9987 130.511 32.9987C131.071 32.9987 131.525 32.5468 131.525 31.9895C131.525 31.4321 131.071 30.9802 130.511 30.9802C129.95 30.9802 129.496 31.4321 129.496 31.9895Z" fill="#C5C5C5"/>
<path d="M129.799 31.9892C129.799 32.3809 130.117 32.6972 130.511 32.6972C130.905 32.6972 131.223 32.3809 131.223 31.9892C131.223 31.5976 130.905 31.2812 130.511 31.2812C130.117 31.2963 129.799 31.5976 129.799 31.9892Z" fill="#6F6F6E"/>
<path d="M130.072 31.9893C130.072 32.2303 130.269 32.4262 130.511 32.4262C130.753 32.4262 130.95 32.2303 130.95 31.9893C130.95 31.7483 130.753 31.5525 130.511 31.5525C130.269 31.5525 130.072 31.7483 130.072 31.9893Z" fill="#C5C5C5"/>
<path d="M141.233 48.8306C141.233 49.3879 141.688 49.8398 142.248 49.8398C142.808 49.8398 143.263 49.3879 143.263 48.8306C143.263 48.2732 142.808 47.8213 142.248 47.8213C141.688 47.8213 141.233 48.2732 141.233 48.8306Z" fill="#C5C5C5"/>
<path d="M141.536 48.8303C141.536 49.222 141.854 49.5383 142.248 49.5383C142.642 49.5383 142.96 49.222 142.96 48.8303C142.96 48.4387 142.642 48.1223 142.248 48.1223C141.854 48.1223 141.536 48.4387 141.536 48.8303Z" fill="#6F6F6E"/>
<path d="M141.809 48.8304C141.809 49.0714 142.006 49.2672 142.248 49.2672C142.491 49.2672 142.688 49.0714 142.688 48.8304C142.688 48.5894 142.491 48.3936 142.248 48.3936C142.006 48.3936 141.809 48.5894 141.809 48.8304Z" fill="#C5C5C5"/>
<path d="M128.48 48.2729C128.48 48.8303 128.935 49.2822 129.495 49.2822C130.055 49.2822 130.51 48.8303 130.51 48.2729C130.51 47.7156 130.055 47.2637 129.495 47.2637C128.935 47.2637 128.48 47.7156 128.48 48.2729Z" fill="#C5C5C5"/>
<path d="M128.783 48.2729C128.783 48.6646 129.101 48.9809 129.495 48.9809C129.889 48.9809 130.207 48.6646 130.207 48.2729C130.207 47.8813 129.889 47.5649 129.495 47.5649C129.101 47.5649 128.783 47.8813 128.783 48.2729Z" fill="#6F6F6E"/>
<path d="M129.056 48.273C129.056 48.514 129.253 48.7099 129.495 48.7099C129.738 48.7099 129.935 48.514 129.935 48.273C129.935 48.032 129.738 47.8362 129.495 47.8362C129.253 47.8362 129.056 48.032 129.056 48.273Z" fill="#C5C5C5"/>
<path d="M150.275 25.301C150.714 27.0032 151.38 28.6301 152.138 30.1214C154.636 35.017 158.483 39.0992 163.148 42.0366C164.693 43.0158 166.132 43.7539 167.45 44.2962C168.404 44.7029 169.282 45.0042 170.1 45.2301C170.161 45.2452 170.236 45.2602 170.297 45.2904C170.297 45.2602 170.297 45.2301 170.282 45.2151C170.145 44.1757 169.918 43.1513 169.6 42.1571C168.979 40.1085 168.04 38.1502 166.874 36.3426C165.874 34.776 164.693 33.2998 163.36 31.9742C158.938 27.5455 154.167 25.8283 150.275 25.301Z" fill="#EDA548"/>
<path d="M142.066 25.9185C139.218 35.4537 149.729 45.5313 149.729 45.5313C153.561 48.8603 156.893 50.8487 159.68 52.0387C160.634 52.4454 161.513 52.7467 162.33 52.9727C166.95 54.2681 169.449 53.1534 169.449 53.1534C169.615 53.0781 169.767 52.1894 169.827 52.0237C170.479 49.7943 170.6 47.5197 170.312 45.2903C170.251 45.2752 170.176 45.2601 170.115 45.23C169.297 45.004 168.419 44.6877 167.465 44.2961C166.147 43.7387 164.723 43.0006 163.163 42.0215C158.499 39.0841 154.636 35.0169 152.153 30.1062C151.395 28.6149 150.729 26.988 150.29 25.2858C145.564 24.6682 142.126 25.7679 142.066 25.9185Z" fill="#DC911B"/>
<path d="M142.066 25.9338C141.991 26.0845 136.902 35.6498 147.897 47.3693L147.912 47.3542L147.897 47.3693C159.59 58.215 169.161 53.3194 169.449 53.1688C169.192 53.2742 162.013 56.1815 149.73 45.5466C149.73 45.5466 139.219 35.454 142.066 25.9338Z" fill="#BA7315"/>
<path d="M142.656 25.8734C142.702 25.9186 142.747 25.9336 142.808 25.9186C142.974 25.8885 143.141 25.8583 143.307 25.8433C143.398 25.8282 143.474 25.7378 143.459 25.6474C143.444 25.5571 143.353 25.4817 143.262 25.4968C143.095 25.5269 142.914 25.542 142.747 25.5721C142.656 25.5872 142.596 25.6776 142.611 25.7679C142.626 25.8282 142.641 25.8583 142.656 25.8734ZM169.524 52.5359C169.539 52.551 169.57 52.5811 169.615 52.5811C169.706 52.5962 169.797 52.551 169.827 52.4455C169.857 52.2798 169.903 52.1141 169.933 51.9334C169.948 51.843 169.888 51.7526 169.797 51.7375C169.706 51.7225 169.615 51.7827 169.6 51.8731C169.57 52.0388 169.539 52.2045 169.509 52.3702C169.464 52.4455 169.494 52.5058 169.524 52.5359ZM143.671 25.7378C143.701 25.7679 143.762 25.7981 143.807 25.783C143.974 25.7679 144.14 25.7529 144.307 25.7529C144.398 25.7529 144.474 25.6625 144.474 25.5721C144.474 25.4817 144.383 25.4064 144.292 25.4064C144.125 25.4215 143.943 25.4215 143.777 25.4365C143.686 25.4516 143.61 25.5269 143.625 25.6173C143.625 25.6776 143.656 25.7077 143.671 25.7378ZM169.706 51.5417C169.736 51.5718 169.766 51.5869 169.812 51.5869C169.903 51.602 169.994 51.5266 170.009 51.4363C170.024 51.2706 170.054 51.0898 170.054 50.9241C170.069 50.8337 169.994 50.7433 169.903 50.7433C169.812 50.7283 169.721 50.8036 169.721 50.894C169.706 51.0597 169.691 51.2254 169.676 51.3911C169.645 51.4513 169.66 51.4965 169.706 51.5417ZM144.701 25.6926C144.731 25.7228 144.776 25.7378 144.822 25.7378C144.988 25.7378 145.155 25.7378 145.322 25.7529C145.413 25.7529 145.503 25.6776 145.503 25.5872C145.503 25.4968 145.428 25.4064 145.337 25.4064C145.17 25.4064 144.988 25.3914 144.822 25.3914C144.731 25.3914 144.655 25.4667 144.655 25.5571C144.655 25.6173 144.67 25.6625 144.701 25.6926ZM169.782 50.5174C169.812 50.5475 169.857 50.5626 169.903 50.5626C169.994 50.5626 170.084 50.4873 170.084 50.3969C170.084 50.2312 170.1 50.0504 170.1 49.8847C170.1 49.7943 170.024 49.719 169.933 49.719C169.842 49.719 169.766 49.7943 169.766 49.8847C169.766 50.0504 169.766 50.2161 169.751 50.3818C169.736 50.4421 169.751 50.4873 169.782 50.5174ZM145.731 25.7378C145.761 25.7679 145.791 25.783 145.837 25.783C146.003 25.7981 146.17 25.8131 146.336 25.8282C146.427 25.8433 146.518 25.7679 146.533 25.6776C146.548 25.5872 146.473 25.4968 146.382 25.4817C146.215 25.4667 146.034 25.4516 145.867 25.4365C145.776 25.4365 145.685 25.4968 145.685 25.5872C145.67 25.6474 145.7 25.6926 145.731 25.7378ZM169.782 49.5081C169.812 49.5382 169.857 49.5533 169.903 49.5533C169.994 49.5533 170.069 49.478 170.069 49.3726C170.069 49.2069 170.054 49.0261 170.039 48.8604C170.039 48.77 169.948 48.6947 169.857 48.6947C169.766 48.6947 169.691 48.7851 169.691 48.8755C169.706 49.0411 169.706 49.2069 169.721 49.3726C169.736 49.4328 169.766 49.478 169.782 49.5081ZM146.745 25.8433C146.776 25.8734 146.806 25.8885 146.836 25.8885C147.003 25.9186 147.169 25.9336 147.336 25.9638C147.427 25.9788 147.518 25.9186 147.533 25.8282C147.548 25.7378 147.487 25.6474 147.397 25.6324C147.23 25.6022 147.048 25.5721 146.882 25.5571C146.791 25.542 146.7 25.6022 146.685 25.7077C146.685 25.7529 146.715 25.8131 146.745 25.8433ZM169.721 48.4838C169.751 48.5139 169.812 48.5441 169.857 48.529C169.948 48.5139 170.024 48.4386 170.009 48.3482C169.994 48.1825 169.978 48.0018 169.948 47.8361C169.933 47.7457 169.857 47.6704 169.751 47.6854C169.66 47.7005 169.585 47.7758 169.6 47.8813C169.615 48.047 169.645 48.2127 169.66 48.3784C169.676 48.4235 169.706 48.4537 169.721 48.4838ZM147.76 26.024C147.775 26.0391 147.806 26.0692 147.851 26.0692C148.018 26.0993 148.184 26.1445 148.351 26.1747C148.442 26.1897 148.533 26.1445 148.563 26.0542C148.578 25.9638 148.533 25.8734 148.442 25.8433C148.275 25.7981 148.108 25.7679 147.942 25.7228C147.851 25.7077 147.76 25.7679 147.745 25.8583C147.7 25.9336 147.715 25.9788 147.76 26.024ZM169.6 47.4745C169.63 47.5047 169.691 47.5348 169.751 47.5197C169.842 47.5047 169.903 47.4143 169.888 47.3239C169.857 47.1582 169.827 46.9925 169.797 46.8117C169.782 46.7214 169.691 46.6611 169.6 46.6762C169.509 46.6912 169.448 46.7816 169.464 46.872C169.494 47.0377 169.524 47.2034 169.554 47.3691C169.554 47.4143 169.57 47.4444 169.6 47.4745ZM148.745 26.265C148.76 26.2801 148.79 26.2952 148.82 26.3102C148.987 26.3554 149.153 26.4006 149.305 26.4458C149.396 26.4759 149.487 26.4157 149.517 26.3253C149.547 26.2349 149.487 26.1445 149.396 26.1144C149.229 26.0692 149.063 26.024 148.896 25.9788C148.805 25.9487 148.714 26.009 148.684 26.0993C148.684 26.1596 148.714 26.2199 148.745 26.265ZM169.403 46.4653C169.448 46.5105 169.509 46.5255 169.554 46.5105C169.645 46.4954 169.706 46.405 169.691 46.3146C169.66 46.1489 169.615 45.9832 169.57 45.8175C169.539 45.7272 169.448 45.6669 169.357 45.697C169.267 45.7272 169.206 45.8176 169.236 45.9079C169.282 46.0736 169.312 46.2393 169.357 46.405C169.373 46.4201 169.388 46.4502 169.403 46.4653ZM149.729 26.5513C149.744 26.5663 149.774 26.5814 149.805 26.5964C149.971 26.6416 150.123 26.7019 150.289 26.7621C150.38 26.7923 150.471 26.7471 150.501 26.6567C150.532 26.5663 150.486 26.4759 150.395 26.4458C150.229 26.3856 150.062 26.3404 149.911 26.2801C149.82 26.25 149.729 26.2952 149.699 26.3856C149.668 26.4458 149.699 26.5061 149.729 26.5513ZM169.161 45.4861C169.206 45.5313 169.267 45.5464 169.327 45.5313C169.418 45.5012 169.479 45.4108 169.448 45.3204C169.403 45.1547 169.357 44.9891 169.297 44.8234C169.267 44.733 169.176 44.6878 169.085 44.7179C168.994 44.748 168.949 44.8384 168.979 44.9288C169.024 45.0945 169.07 45.2451 169.115 45.4108C169.13 45.441 169.145 45.456 169.161 45.4861ZM150.698 26.8977C150.713 26.9128 150.729 26.9278 150.759 26.9429C150.91 27.0032 151.077 27.0634 151.228 27.1237C151.319 27.1538 151.41 27.1086 151.456 27.0333C151.486 26.9429 151.456 26.8525 151.365 26.8073C151.198 26.7471 151.047 26.6868 150.88 26.6266C150.789 26.5964 150.698 26.6416 150.653 26.732C150.638 26.7772 150.653 26.8525 150.698 26.8977ZM168.858 44.507C168.903 44.5522 168.964 44.5673 169.039 44.5522C169.13 44.5221 169.176 44.4317 169.145 44.3413C169.085 44.1756 169.039 44.025 168.979 43.8593C168.949 43.7689 168.843 43.7237 168.752 43.7538C168.661 43.784 168.615 43.8894 168.646 43.9798C168.706 44.1455 168.767 44.2961 168.812 44.4618C168.827 44.4618 168.843 44.492 168.858 44.507ZM151.652 27.2743C151.668 27.2894 151.683 27.3044 151.713 27.3044C151.865 27.3647 152.031 27.44 152.183 27.5003C152.273 27.5454 152.364 27.5003 152.41 27.4099C152.455 27.3195 152.41 27.2291 152.319 27.1839C152.167 27.1086 152.001 27.0483 151.849 26.9881C151.758 26.958 151.668 26.9881 151.622 27.0785C151.592 27.1538 151.607 27.2291 151.652 27.2743ZM168.509 43.558C168.555 43.6032 168.631 43.6183 168.691 43.6032C168.782 43.5731 168.827 43.4676 168.782 43.3773C168.721 43.2266 168.661 43.0609 168.585 42.8952C168.555 42.8048 168.449 42.7747 168.358 42.8048C168.267 42.835 168.237 42.9404 168.267 43.0308C168.328 43.1814 168.403 43.3471 168.464 43.4978C168.479 43.5128 168.494 43.5429 168.509 43.558ZM152.591 27.681C152.607 27.6961 152.622 27.7111 152.637 27.7111C152.788 27.7865 152.94 27.8618 153.091 27.922C153.182 27.9672 153.273 27.922 153.318 27.8467C153.364 27.7563 153.318 27.666 153.243 27.6208C153.091 27.5454 152.94 27.4701 152.773 27.3948C152.682 27.3496 152.591 27.3948 152.546 27.4701C152.531 27.5605 152.546 27.6358 152.591 27.681ZM153.515 28.1329C153.531 28.148 153.546 28.1631 153.561 28.1631C153.712 28.2384 153.864 28.3137 154.015 28.389C154.106 28.4342 154.197 28.4041 154.242 28.3137C154.288 28.2233 154.257 28.1329 154.167 28.0877C154.015 28.0124 153.864 27.9371 153.712 27.8467C153.621 27.8015 153.531 27.8317 153.485 27.922C153.455 27.9974 153.47 28.0727 153.515 28.1329ZM168.116 42.609C168.161 42.6542 168.237 42.6693 168.312 42.6391C168.403 42.5939 168.434 42.5036 168.403 42.4132C168.328 42.2625 168.267 42.0968 168.191 41.9462C168.146 41.8558 168.055 41.8257 167.964 41.8709C167.873 41.9161 167.843 42.0065 167.888 42.0968C167.964 42.2475 168.025 42.3981 168.1 42.5488C168.085 42.5789 168.1 42.5939 168.116 42.609ZM154.424 28.5999C154.439 28.615 154.454 28.615 154.47 28.63C154.621 28.7053 154.772 28.7957 154.909 28.871C154.984 28.9162 155.09 28.8861 155.136 28.8108C155.181 28.7355 155.151 28.63 155.075 28.5848C154.924 28.4945 154.772 28.4191 154.621 28.3288C154.545 28.2836 154.439 28.3137 154.394 28.4041C154.348 28.4643 154.364 28.5547 154.424 28.5999ZM167.676 41.6901C167.722 41.7353 167.813 41.7504 167.873 41.7203C167.964 41.6751 167.994 41.5696 167.949 41.4943C167.873 41.3437 167.798 41.193 167.707 41.0424C167.661 40.952 167.555 40.9219 167.479 40.9671C167.389 41.0123 167.358 41.1177 167.404 41.193C167.479 41.3437 167.555 41.4943 167.631 41.6449C167.646 41.66 167.661 41.6751 167.676 41.6901ZM155.318 29.1121C155.333 29.1271 155.333 29.1271 155.348 29.1422C155.499 29.2326 155.636 29.3079 155.787 29.3983C155.863 29.4435 155.969 29.4284 156.03 29.338C156.075 29.2627 156.045 29.1572 155.969 29.097C155.817 29.0066 155.681 28.9162 155.53 28.8409C155.454 28.7957 155.348 28.8258 155.303 28.9012C155.242 28.9614 155.257 29.0518 155.318 29.1121ZM167.192 40.7863C167.237 40.8315 167.328 40.8466 167.389 40.8164C167.464 40.7713 167.495 40.6658 167.449 40.5905C167.373 40.4399 167.283 40.2892 167.192 40.1386C167.146 40.0633 167.04 40.0331 166.965 40.0783C166.889 40.1235 166.858 40.229 166.904 40.3043C166.995 40.4549 167.071 40.6056 167.161 40.7411C167.177 40.7713 167.192 40.7863 167.192 40.7863ZM156.196 29.6393C156.211 29.6543 156.211 29.6543 156.226 29.6694C156.378 29.7598 156.514 29.8502 156.666 29.9406C156.741 29.9857 156.847 29.9707 156.908 29.8954C156.953 29.82 156.938 29.7146 156.863 29.6543C156.726 29.564 156.575 29.4736 156.423 29.3832C156.348 29.338 156.242 29.3531 156.181 29.4435C156.12 29.4886 156.136 29.579 156.196 29.6393ZM166.677 39.9126C166.737 39.9729 166.813 39.9729 166.889 39.9428C166.965 39.8976 166.995 39.7921 166.949 39.7017C166.858 39.5511 166.768 39.4155 166.677 39.2649C166.631 39.1896 166.525 39.1595 166.434 39.2046C166.359 39.2498 166.328 39.3553 166.374 39.4457C166.465 39.5963 166.556 39.7319 166.646 39.8825C166.662 39.8825 166.677 39.8976 166.677 39.9126ZM157.059 30.1816C157.075 30.1966 157.075 30.1966 157.09 30.1966C157.241 30.287 157.377 30.3774 157.514 30.4828C157.589 30.528 157.696 30.513 157.756 30.4376C157.802 30.3623 157.786 30.2569 157.711 30.1966C157.574 30.1063 157.423 30.0008 157.287 29.9104C157.211 29.8652 157.105 29.8803 157.044 29.9556C156.984 30.0309 156.999 30.1213 157.059 30.1816ZM166.132 39.054C166.192 39.1143 166.283 39.1143 166.344 39.0691C166.419 39.0239 166.45 38.9184 166.389 38.8281C166.298 38.6925 166.207 38.5418 166.101 38.4063C166.041 38.331 165.935 38.3159 165.859 38.3611C165.783 38.4213 165.768 38.5268 165.813 38.6021C165.904 38.7377 166.01 38.8883 166.101 39.0239C166.116 39.0389 166.132 39.0389 166.132 39.054ZM157.908 30.754C157.908 30.754 157.923 30.7691 157.938 30.7691C158.074 30.8745 158.226 30.9649 158.362 31.0553C158.438 31.1155 158.544 31.0854 158.604 31.0101C158.665 30.9347 158.635 30.8293 158.559 30.7691C158.422 30.6787 158.286 30.5732 158.135 30.4678C158.059 30.4075 157.953 30.4376 157.892 30.513C157.847 30.6033 157.847 30.6937 157.908 30.754ZM165.556 38.2104C165.617 38.2707 165.707 38.2707 165.783 38.2255C165.859 38.1653 165.874 38.0598 165.829 37.9845C165.738 37.8489 165.632 37.7134 165.526 37.5627C165.465 37.4874 165.359 37.4723 165.283 37.5326C165.208 37.5928 165.192 37.6983 165.253 37.7736C165.359 37.9092 165.45 38.0448 165.556 38.1803C165.541 38.1954 165.556 38.1954 165.556 38.2104ZM158.741 31.3415L158.756 31.3565C158.892 31.462 159.028 31.5524 159.165 31.6578C159.24 31.7181 159.346 31.703 159.407 31.6277C159.468 31.5524 159.452 31.4469 159.377 31.3867C159.24 31.2812 159.104 31.1908 158.968 31.0854C158.892 31.0251 158.786 31.0402 158.725 31.1155C158.68 31.1908 158.68 31.2812 158.741 31.3415ZM164.95 37.382C165.011 37.4422 165.102 37.4422 165.177 37.397C165.253 37.3368 165.268 37.2313 165.208 37.156C165.102 37.0204 164.996 36.8849 164.89 36.7493C164.829 36.674 164.723 36.6589 164.647 36.7192C164.572 36.7794 164.556 36.8849 164.617 36.9602C164.723 37.0957 164.829 37.2313 164.935 37.3669C164.935 37.382 164.95 37.382 164.95 37.382ZM159.574 31.9591L159.589 31.9741C159.725 32.0796 159.861 32.185 159.998 32.2905C160.073 32.3507 160.179 32.3357 160.24 32.2603C160.301 32.185 160.285 32.0796 160.21 32.0193C160.073 31.9139 159.937 31.8084 159.801 31.703C159.725 31.6427 159.619 31.6578 159.558 31.7331C159.498 31.7934 159.513 31.8988 159.574 31.9591ZM164.314 36.5836C164.375 36.6438 164.481 36.6438 164.541 36.5986C164.617 36.5384 164.632 36.4329 164.572 36.3576C164.466 36.2221 164.359 36.1016 164.238 35.966C164.178 35.8907 164.072 35.8907 163.996 35.9509C163.92 36.0112 163.92 36.1166 163.981 36.1919C164.087 36.3124 164.193 36.448 164.314 36.5836ZM160.376 32.5917C160.376 32.5917 160.391 32.5917 160.376 32.5917C160.528 32.7122 160.664 32.8328 160.785 32.9231C160.861 32.9834 160.967 32.9683 161.027 32.893C161.088 32.8177 161.073 32.7122 160.997 32.652C160.876 32.5466 160.74 32.4411 160.603 32.3206C160.528 32.2603 160.422 32.2754 160.361 32.3507C160.316 32.426 160.316 32.5164 160.376 32.5917ZM163.663 35.8003C163.723 35.8605 163.829 35.8605 163.89 35.8153C163.966 35.7551 163.966 35.6496 163.905 35.5743C163.799 35.4388 163.678 35.3182 163.572 35.1827C163.511 35.1074 163.405 35.1074 163.33 35.1676C163.254 35.2279 163.254 35.3333 163.314 35.4086C163.436 35.5442 163.542 35.6647 163.663 35.8003ZM162.981 35.0471C163.042 35.1074 163.148 35.1074 163.224 35.0471C163.299 34.9868 163.299 34.8814 163.239 34.8061C163.118 34.6856 163.012 34.55 162.89 34.4295C162.83 34.3542 162.724 34.3542 162.648 34.4144C162.572 34.4747 162.572 34.5801 162.633 34.6554C162.754 34.791 162.86 34.9115 162.981 35.0471C162.981 35.032 162.981 35.032 162.981 35.0471ZM161.164 33.2395C161.179 33.2395 161.179 33.2395 161.164 33.2395C161.346 33.3901 161.482 33.5106 161.558 33.5859C161.633 33.6462 161.739 33.6462 161.8 33.5709C161.86 33.4956 161.86 33.3901 161.785 33.3299C161.709 33.2545 161.573 33.1491 161.391 32.9985C161.315 32.9382 161.209 32.9533 161.149 33.0135C161.103 33.0738 161.103 33.1792 161.164 33.2395ZM162.285 34.2939C162.345 34.3542 162.451 34.3542 162.527 34.2939C162.603 34.2337 162.603 34.1282 162.527 34.0529C162.406 33.9324 162.285 33.8119 162.163 33.6914C162.103 33.6161 161.982 33.6161 161.921 33.6914C161.86 33.7516 161.845 33.8721 161.921 33.9324C162.042 34.0529 162.163 34.1734 162.285 34.2939Z" fill="#BA7315"/>
<path d="M169.615 42.1572L159.679 52.0389C160.634 52.4456 161.512 52.7469 162.33 52.9729L162.496 52.9578L170.281 45.2151C170.16 44.1908 169.933 43.1665 169.615 42.1572Z" fill="white"/>
<path d="M153.349 25.9488L143.141 36.1016C142.732 35.1526 142.414 34.294 142.186 33.4805L142.156 33.36L150.259 25.301C151.289 25.4366 152.334 25.6475 153.349 25.9488Z" fill="white"/>
<path d="M162.224 33.2242C162.905 33.9021 163.556 34.595 164.177 35.3181C165.238 36.5533 166.222 37.8487 167.04 39.2647C167.085 39.3551 167.07 39.4605 166.994 39.5509L166.555 39.9878C166.449 40.0932 166.267 40.0781 166.192 39.9576C166.01 39.6413 165.677 39.1743 165.662 39.1291C165.056 38.2103 164.389 37.3215 163.693 36.4629C163.011 35.6193 162.345 34.7758 161.572 34.0075C160.694 33.1188 159.694 32.3656 158.74 31.5522C157.786 30.799 156.802 30.0609 155.772 29.4282C155.635 29.3378 155.484 29.2474 155.332 29.1721C155.211 29.0968 155.181 28.9311 155.287 28.8257C155.438 28.675 155.635 28.4792 155.757 28.3587C155.832 28.2834 155.938 28.2683 156.029 28.3135C157.665 29.2625 159.164 30.4224 160.573 31.6727C161.133 32.1848 161.694 32.697 162.224 33.2242Z" fill="#D9D9D9"/>
<path d="M165.344 39.4153C165.556 39.2044 166.177 38.5717 166.571 38.0295C166.646 37.9391 166.783 37.9391 166.843 38.0295L167.04 38.3307C167.086 38.391 167.086 38.4663 167.04 38.5266C166.858 38.7826 166.298 39.5358 165.783 40.0178C165.692 40.1082 165.556 40.1233 165.45 40.0781C165.298 40.0178 165.208 39.8672 165.238 39.7166L165.253 39.5961C165.253 39.5207 165.283 39.4605 165.344 39.4153Z" fill="white"/>
<path d="M155.893 30.0157C156.105 29.8048 156.741 29.1872 157.286 28.7955C157.377 28.7202 157.377 28.5847 157.286 28.5244L156.983 28.3286C156.923 28.2834 156.847 28.2834 156.787 28.3286C156.529 28.5093 155.772 29.0667 155.287 29.5788C155.196 29.6692 155.181 29.8048 155.227 29.9102C155.287 30.0609 155.439 30.1513 155.59 30.1211L155.711 30.1061C155.772 30.1061 155.848 30.0609 155.893 30.0157Z" fill="white"/>
<path d="M164.466 38.5867C164.799 38.3307 165.678 37.6227 165.92 36.7339C165.935 36.6737 165.92 36.6134 165.89 36.5682L165.693 36.282C165.647 36.2218 165.571 36.2218 165.526 36.282C165.299 36.5983 164.632 37.472 164.012 37.8486C163.89 37.9239 163.815 38.0595 163.815 38.2101V38.2704C163.815 38.4662 163.966 38.647 164.178 38.662C164.269 38.6771 164.375 38.647 164.466 38.5867Z" fill="white"/>
<path d="M156.712 30.8893C156.969 30.5579 157.681 29.6842 158.574 29.4432C158.635 29.4281 158.696 29.4432 158.741 29.4733L159.029 29.6691C159.089 29.7143 159.089 29.7896 159.029 29.8348C158.711 30.0608 157.832 30.7236 157.454 31.3412C157.378 31.4617 157.242 31.537 157.09 31.537H157.03C156.833 31.537 156.651 31.3864 156.636 31.1755C156.636 31.07 156.651 30.9646 156.712 30.8893Z" fill="white"/>
<path d="M164.662 35.0619L164.39 34.7004C164.344 34.6251 164.238 34.6402 164.193 34.7004C163.996 35.0017 163.481 35.6946 162.663 36.267C162.512 36.3725 162.451 36.5834 162.512 36.7641C162.633 37.0804 163.133 37.201 163.36 36.9599C163.648 36.6587 164.284 35.9507 164.678 35.1824C164.693 35.1373 164.693 35.0921 164.662 35.0619Z" fill="white"/>
<path d="M160.27 30.6934L160.633 30.9646C160.709 31.0097 160.694 31.1152 160.633 31.1604C160.33 31.3562 159.634 31.8684 159.058 32.6818C158.952 32.8324 158.74 32.8927 158.558 32.8324C158.24 32.7119 158.119 32.2148 158.361 31.9889C158.664 31.7027 159.376 31.07 160.149 30.6784C160.179 30.6633 160.24 30.6633 160.27 30.6934Z" fill="white"/>
<path d="M163.391 33.5106L163.178 33.2997C163.088 33.2093 162.951 33.2093 162.876 33.2997L161.21 34.9567C161.119 35.0471 161.119 35.1827 161.21 35.258L161.512 35.5593C161.603 35.6496 161.74 35.6346 161.831 35.5442L163.391 33.7968C163.481 33.7215 163.466 33.5859 163.391 33.5106Z" fill="white"/>
<path d="M161.83 31.959L162.042 32.1698C162.133 32.2602 162.133 32.3958 162.042 32.4711L160.376 34.1281C160.285 34.2185 160.149 34.2185 160.073 34.1281L159.77 33.8268C159.68 33.7365 159.695 33.6009 159.786 33.5105L161.527 31.9439C161.618 31.8686 161.739 31.8686 161.83 31.959Z" fill="white"/>
<path d="M137.31 23.4334L137.052 22.9664C136.977 22.8308 136.856 22.7103 136.719 22.635L136.25 22.3789L136.719 22.1228C136.856 22.0475 136.977 21.927 137.052 21.7914L137.31 21.3245L137.567 21.7914C137.643 21.927 137.764 22.0475 137.901 22.1228L138.37 22.3789L137.901 22.635C137.764 22.7103 137.643 22.8308 137.567 22.9664L137.31 23.4334Z" fill="#F7F09A"/>
<path d="M145.897 12L145.382 12.949C145.231 13.2352 144.988 13.4612 144.701 13.6269L143.747 14.139L144.701 14.6512C144.988 14.8018 145.216 15.0428 145.382 15.329L145.897 16.2781L146.412 15.329C146.564 15.0428 146.806 14.8169 147.094 14.6512L148.048 14.139L147.094 13.6269C146.806 13.4762 146.579 13.2352 146.412 12.949L145.897 12Z" fill="#F9DD29"/>
<path d="M149.775 16.8655L149.517 17.3324C149.442 17.468 149.32 17.5885 149.184 17.6638L148.715 17.9199L149.184 18.176C149.32 18.2513 149.442 18.3718 149.517 18.5074L149.775 18.9744L150.032 18.5074C150.108 18.3718 150.229 18.2513 150.365 18.176L150.835 17.9199L150.365 17.6638C150.229 17.5885 150.108 17.468 150.032 17.3324L149.775 16.8655Z" fill="#F9DD29"/>
<path d="M168.146 31.477L168.661 30.528C168.813 30.2418 169.055 30.0159 169.343 29.8502L170.297 29.338L169.343 28.8258C169.055 28.6752 168.828 28.4342 168.661 28.148L168.146 27.199L167.631 28.148C167.48 28.4342 167.237 28.6601 166.95 28.8258L165.996 29.338L166.95 29.8502C167.237 30.0008 167.465 30.2418 167.631 30.528L168.146 31.477Z" fill="#F9DD29"/>
<path d="M163.663 26.0093L163.921 25.5423C163.997 25.4067 164.118 25.2862 164.254 25.2109L164.724 24.9548L164.254 24.6988C164.118 24.6234 163.997 24.5029 163.921 24.3674L163.663 23.9004L163.406 24.3674C163.33 24.5029 163.209 24.6234 163.073 24.6988L162.603 24.9548L163.073 25.2109C163.209 25.2862 163.33 25.4067 163.406 25.5423L163.663 26.0093Z" fill="#F9DD29"/>
<path d="M112.669 27.5156L112.154 26.5666C112.002 26.2804 111.76 26.0544 111.472 25.8887L110.518 25.3766L111.472 24.8644C111.76 24.7138 111.987 24.4728 112.154 24.1866L112.669 23.2375L113.184 24.1866C113.335 24.4728 113.577 24.6987 113.865 24.8644L114.819 25.3766L113.865 25.8887C113.577 26.0394 113.35 26.2804 113.184 26.5666L112.669 27.5156Z" fill="#F9DD29"/>
<path d="M116.545 22.6499L116.288 22.1829C116.212 22.0474 116.091 21.9269 115.955 21.8515L115.485 21.5955L115.955 21.3394C116.091 21.2641 116.212 21.1436 116.288 21.008L116.545 20.541L116.803 21.008C116.878 21.1436 117 21.2641 117.136 21.3394L117.605 21.5955L117.136 21.8515C117 21.9269 116.878 22.0474 116.803 22.1829L116.545 22.6499Z" fill="#F9DD29"/>
<path d="M115.288 38.0298L115.031 37.5628C114.955 37.4273 114.834 37.3067 114.698 37.2314L114.228 36.9753L114.698 36.7193C114.834 36.644 114.955 36.5234 115.031 36.3879L115.288 35.9209L115.546 36.3879C115.622 36.5234 115.743 36.644 115.879 36.7193L116.349 36.9753L115.879 37.2314C115.743 37.3067 115.622 37.4273 115.546 37.5628L115.288 38.0298Z" fill="#F9DD29"/>
<path d="M107.761 33.4956L107.504 33.0286C107.428 32.8931 107.307 32.7726 107.17 32.6972L106.701 32.4412L107.17 32.1851C107.307 32.1098 107.428 31.9893 107.504 31.8537L107.761 31.3867L108.019 31.8537C108.094 31.9893 108.215 32.1098 108.352 32.1851L108.821 32.4412L108.352 32.6972C108.215 32.7726 108.094 32.8931 108.019 33.0286L107.761 33.4956Z" fill="#F9DD29"/>
<path d="M171.538 36.5838L171.281 36.1168C171.205 35.9812 171.084 35.8607 170.948 35.7854L170.478 35.5293L170.948 35.2732C171.084 35.1979 171.205 35.0774 171.281 34.9418L171.538 34.4749L171.796 34.9418C171.872 35.0774 171.993 35.1979 172.129 35.2732L172.599 35.5293L172.129 35.7854C171.993 35.8607 171.872 35.9812 171.796 36.1168L171.538 36.5838Z" fill="#F9DD29"/>
<path d="M171.038 21.8817C171.038 22.1528 171.251 22.3637 171.523 22.3637C171.796 22.3637 172.008 22.1528 172.008 21.8817C172.008 21.6105 171.796 21.3997 171.523 21.3997C171.266 21.3997 171.038 21.6105 171.038 21.8817Z" fill="white"/>
<path d="M159.21 21.8817C159.21 22.1528 159.422 22.3637 159.695 22.3637C159.968 22.3637 160.18 22.1528 160.18 21.8817C160.18 21.6105 159.968 21.3997 159.695 21.3997C159.438 21.3997 159.21 21.6105 159.21 21.8817Z" fill="white"/>
<path d="M168.146 17.4379C167.879 17.4379 167.662 17.2221 167.662 16.9559C167.662 16.6897 167.879 16.4739 168.146 16.4739C168.414 16.4739 168.631 16.6897 168.631 16.9559C168.631 17.2221 168.414 17.4379 168.146 17.4379Z" fill="white"/>
<path d="M107.277 21.5804C107.277 21.8516 107.489 22.0625 107.761 22.0625C108.034 22.0625 108.246 21.8516 108.246 21.5804C108.246 21.3093 108.034 21.0984 107.761 21.0984C107.489 21.0984 107.277 21.3093 107.277 21.5804Z" fill="white"/>
<path d="M110.336 35.6197C110.336 35.8909 110.548 36.1018 110.821 36.1018C111.094 36.1018 111.306 35.8909 111.306 35.6197C111.306 35.3486 111.094 35.1377 110.821 35.1377C110.548 35.1377 110.336 35.3486 110.336 35.6197Z" fill="white"/>
<path d="M112.184 18.0856C112.184 18.3567 112.396 18.5676 112.669 18.5676C112.941 18.5676 113.153 18.3567 113.153 18.0856C113.153 17.8144 112.941 17.6035 112.669 17.6035C112.396 17.6035 112.184 17.8144 112.184 18.0856Z" fill="white"/>
<path d="M121.043 17.0462C121.043 17.3174 121.255 17.5283 121.528 17.5283C121.801 17.5283 122.013 17.3174 122.013 17.0462C122.013 16.7751 121.801 16.5642 121.528 16.5642C121.255 16.5642 121.043 16.7751 121.043 17.0462Z" fill="white"/>
<path d="M107.761 15.4345C107.494 15.4345 107.277 15.2187 107.277 14.9525C107.277 14.6863 107.494 14.4705 107.761 14.4705C108.029 14.4705 108.246 14.6863 108.246 14.9525C108.246 15.2187 108.029 15.4345 107.761 15.4345Z" fill="white"/>
<path d="M173.023 40.214C173.023 40.4851 173.235 40.696 173.508 40.696C173.78 40.696 173.992 40.4851 173.992 40.214C173.992 39.9428 173.78 39.7319 173.508 39.7319C173.25 39.7319 173.023 39.9428 173.023 40.214Z" fill="white"/>
<path d="M105.884 40.2592C105.616 40.2592 105.399 40.0434 105.399 39.7772C105.399 39.511 105.616 39.2952 105.884 39.2952C106.151 39.2952 106.368 39.511 106.368 39.7772C106.368 40.0434 106.151 40.2592 105.884 40.2592Z" fill="white"/>
<path d="M173.023 13.6419C173.023 13.9131 173.235 14.124 173.508 14.124C173.78 14.124 173.992 13.9131 173.992 13.6419C173.992 13.3708 173.78 13.1599 173.508 13.1599C173.25 13.1599 173.023 13.3859 173.023 13.6419Z" fill="white"/>
<path d="M154.773 17.9349C154.773 18.2061 154.985 18.4169 155.258 18.4169C155.53 18.4169 155.742 18.2061 155.742 17.9349C155.742 17.6638 155.53 17.4529 155.258 17.4529C155 17.4529 154.773 17.6638 154.773 17.9349Z" fill="white"/>
<path d="M194.471 59.7875V82.3999H85V65.1391C85 65.1391 91.0059 62.1618 100.763 59.0902C103.643 58.1857 106.845 57.2812 110.312 56.4521C119.255 54.2851 129.997 52.5703 141.573 52.5703C172.929 52.5892 194.471 59.7875 194.471 59.7875Z" fill="url(#paint13_radial_3169_30141)"/>
<path opacity="0.5" d="M195.91 60.315C188.749 58.4307 168.874 53.927 142.52 53.927C130.205 53.927 118.762 55.6418 109.232 57.8088C105.537 58.6568 102.127 59.5613 99.0576 60.4658C92.7296 62.3313 87.8794 64.1591 85.0564 65.3086V65.1579C85.0564 65.1579 91.1381 62.1806 101.047 59.109C103.965 58.2045 107.204 57.3 110.728 56.4709C119.804 54.3039 130.698 52.5891 142.425 52.5891C172.815 52.5891 194.129 59.6932 195.91 60.315Z" fill="url(#paint14_radial_3169_30141)"/>
<path opacity="0.6" d="M194.471 73.4681V82.4H193.978C185.471 76.8034 160.216 61.4646 136.609 59.1092C121.85 57.6394 109.251 58.1858 100.782 59.1092C103.662 58.2047 106.864 57.3002 110.331 56.4711C117.512 55.8681 126.738 55.2651 139.11 56.5653C163.361 59.128 181.682 66.5901 194.471 73.4681Z" fill="white"/>
</g>
<defs>
<linearGradient id="paint0_linear_3169_30141" x1="65.001" y1="53.0854" x2="60.4874" y2="53.0854" gradientUnits="userSpaceOnUse">
<stop stop-color="#BE1403"/>
<stop offset="1" stop-color="#D83800"/>
</linearGradient>
<linearGradient id="paint1_linear_3169_30141" x1="72.919" y1="68.8296" x2="-0.308482" y2="68.8296" gradientUnits="userSpaceOnUse">
<stop stop-color="#BF891D" stop-opacity="0"/>
<stop offset="1" stop-color="#C18D20"/>
</linearGradient>
<linearGradient id="paint2_linear_3169_30141" x1="77.9977" y1="57.3312" x2="-0.308705" y2="57.3312" gradientUnits="userSpaceOnUse">
<stop stop-color="#BF891D" stop-opacity="0"/>
<stop offset="1" stop-color="#C18D20"/>
</linearGradient>
<linearGradient id="paint3_linear_3169_30141" x1="77.0046" y1="53.8942" x2="10.1649" y2="53.8942" gradientUnits="userSpaceOnUse">
<stop stop-color="#BF891D" stop-opacity="0"/>
<stop offset="1" stop-color="#C18D20"/>
</linearGradient>
<linearGradient id="paint4_linear_3169_30141" x1="6.98812" y1="11.3064" x2="5.58259" y2="11.3064" gradientUnits="userSpaceOnUse">
<stop stop-color="#00A297"/>
<stop offset="1" stop-color="#0B4960"/>
</linearGradient>
<linearGradient id="paint5_linear_3169_30141" x1="5.7718" y1="10.9584" x2="2.63972" y2="10.9584" gradientUnits="userSpaceOnUse">
<stop stop-color="#3DBBB8"/>
<stop offset="1" stop-color="#00A297"/>
</linearGradient>
<linearGradient id="paint6_linear_3169_30141" x1="28.255" y1="5.73435" x2="21.476" y2="5.73435" gradientUnits="userSpaceOnUse">
<stop stop-color="#D83800"/>
<stop offset="1" stop-color="#BE1403"/>
</linearGradient>
<linearGradient id="paint7_linear_3169_30141" x1="29.8952" y1="15.2248" x2="24.4242" y2="15.2248" gradientUnits="userSpaceOnUse">
<stop stop-color="#30798C"/>
<stop offset="1" stop-color="#2D7B91" stop-opacity="0"/>
</linearGradient>
<linearGradient id="paint8_linear_3169_30141" x1="21.265" y1="35.8595" x2="14.841" y2="35.8595" gradientUnits="userSpaceOnUse">
<stop stop-color="#00A297"/>
<stop offset="1" stop-color="#0B4960"/>
</linearGradient>
<linearGradient id="paint9_linear_3169_30141" x1="35.0337" y1="43.8771" x2="28.6554" y2="43.8771" gradientUnits="userSpaceOnUse">
<stop stop-color="#00A297"/>
<stop offset="1" stop-color="#0B4960"/>
</linearGradient>
<linearGradient id="paint10_linear_3169_30141" x1="29.9095" y1="28.5866" x2="28.3861" y2="26.7248" gradientUnits="userSpaceOnUse">
<stop stop-color="#0B4960"/>
<stop offset="1" stop-color="#00A297"/>
</linearGradient>
<linearGradient id="paint11_linear_3169_30141" x1="33.6982" y1="30.6167" x2="29.2124" y2="30.6167" gradientUnits="userSpaceOnUse">
<stop stop-color="#3DBBB8"/>
<stop offset="1" stop-color="#00A297"/>
</linearGradient>
<linearGradient id="paint12_linear_3169_30141" x1="18.4622" y1="9.19129" x2="15.1892" y2="9.19129" gradientUnits="userSpaceOnUse">
<stop stop-color="#30798C"/>
<stop offset="1" stop-color="#2D7B91" stop-opacity="0"/>
</linearGradient>
<radialGradient id="paint13_radial_3169_30141" cx="0" cy="0" r="1" gradientUnits="userSpaceOnUse" gradientTransform="translate(138.905 55.4312) rotate(0.23212) scale(79.761 23.8069)">
<stop stop-color="#009A0F"/>
<stop offset="1" stop-color="#00ADA1"/>
</radialGradient>
<radialGradient id="paint14_radial_3169_30141" cx="0" cy="0" r="1" gradientUnits="userSpaceOnUse" gradientTransform="translate(139.639 53.7972) rotate(0.229005) scale(74.1386 21.8318)">
<stop stop-color="#009A77"/>
<stop offset="1" stop-color="#009A77" stop-opacity="0"/>
</radialGradient>
<clipPath id="clip0_3169_30141">
<rect width="236" height="60" fill="white" transform="matrix(-1 0 0 1 236 0)"/>
</clipPath>
</defs>
</svg>
