<svg width="236" height="60" viewBox="0 0 236 60" fill="none" xmlns="http://www.w3.org/2000/svg">
<g clip-path="url(#clip0_3169_30370)">
<path d="M236.311 30.2107C218.99 45.6923 200.563 54.46 180.5 58.4658C200.303 56.0623 219.543 49.1227 236.299 38.3013V30.2107H236.311Z" fill="#009F32"/>
<path d="M174.948 45.7939V52.8577C174.948 53.0496 174.802 53.1962 174.61 53.1962H171.902C171.71 53.1962 171.563 53.0496 171.563 52.8577V45.7939H170.999V52.8577C170.999 53.3542 171.405 53.7604 171.902 53.7604H172.974V60.3729H173.538V53.7604H174.61C175.106 53.7604 175.513 53.3542 175.513 52.8577V45.7939H174.948Z" fill="url(#paint0_linear_3169_30370)"/>
<path d="M236.31 38.3013V80.9999H169.137V59.3346C184.257 58.8382 199.265 55.6673 213.336 50.1043C217.602 48.4117 221.777 46.5047 225.839 44.3946C228.107 43.2098 230.341 41.9686 232.53 40.6596C233.805 39.881 235.058 39.1024 236.31 38.3013Z" fill="#0D8802"/>
<path d="M236.31 38.3013C235.069 39.1024 233.805 39.8923 232.53 40.6483C230.341 41.9573 228.107 43.2098 225.839 44.3833C221.777 46.5047 217.602 48.4117 213.336 50.0931C199.265 55.6786 184.257 58.8494 169.137 59.3346V59.9553C192.111 59.7409 215.04 55.1144 236.31 46.4257V38.3013Z" fill="#007D1C"/>
<path d="M236.311 49.3484V50.127C227.047 58.8382 216.654 66.3872 205.359 72.616C199.57 75.7981 193.623 78.5965 187.553 81C179.631 84.1257 171.484 86.563 163.202 88.312L163.089 87.7591C170.864 86.1229 178.514 83.8549 185.95 81C204.569 73.846 221.856 63.0246 236.311 49.3484Z" fill="url(#paint1_linear_3169_30370)"/>
<path d="M236.311 38.3013V38.3351C216.643 54.5502 193.635 66.6015 169.137 73.5863C165.493 74.6245 161.825 75.5498 158.124 76.3622L158 75.8093C161.746 74.9856 165.459 74.049 169.137 72.9996C192.1 66.4323 213.743 55.3965 232.531 40.6483C233.806 39.881 235.058 39.1024 236.311 38.3013Z" fill="url(#paint2_linear_3169_30370)"/>
<path d="M225.84 44.3948C216.666 49.6983 206.567 54.0087 195.723 57.2247C187.079 59.7862 178.041 61.6142 169.137 62.6184C165.741 63.0021 162.356 63.2616 159.016 63.397L158.993 62.8328C162.367 62.6974 165.752 62.4379 169.137 62.0542C184.45 60.3391 199.627 56.2204 213.337 50.1045C217.591 48.4232 221.766 46.5162 225.84 44.3948Z" fill="url(#paint3_linear_3169_30370)"/>
<g opacity="0.5">
<path opacity="0.5" d="M255.404 47.4188C255.347 47.4188 255.291 47.4188 255.234 47.4188C254.862 47.4188 254.445 47.4188 254.004 47.4188C251.432 47.4188 247.99 47.4076 247.99 47.4076C247.415 47.2947 246.884 47.1819 246.388 47.0465C246.399 47.0352 246.41 47.0352 246.422 47.0239C246.557 46.8998 246.647 46.7757 246.67 46.6515C246.681 46.629 246.681 46.6064 246.67 46.5838C246.67 46.5725 246.67 46.5725 246.67 46.5613C246.67 46.55 246.659 46.5274 246.659 46.5161C246.659 46.5048 246.647 46.5048 246.647 46.4936C246.636 46.4823 246.625 46.471 246.613 46.4597C246.602 46.4484 246.602 46.4484 246.591 46.4371C246.58 46.4258 246.568 46.4146 246.546 46.4033C246.534 46.392 246.523 46.392 246.512 46.3807C246.489 46.3694 246.478 46.3581 246.455 46.3469C246.444 46.3356 246.433 46.3356 246.41 46.3243C246.388 46.313 246.365 46.3017 246.331 46.2904C246.32 46.2904 246.309 46.2792 246.286 46.2792C246.252 46.2679 246.207 46.2566 246.162 46.2453H246.151C246.106 46.234 246.049 46.2227 245.993 46.2115C245.97 46.2115 245.948 46.2002 245.936 46.2002C245.903 46.1889 245.857 46.1889 245.824 46.1776C245.801 46.1776 245.767 46.1663 245.745 46.1663C245.711 46.1663 245.666 46.155 245.632 46.155C245.598 46.155 245.575 46.155 245.541 46.1438C245.508 46.1438 245.462 46.1325 245.417 46.1325C245.383 46.1325 245.35 46.1325 245.327 46.1325C245.282 46.1325 245.237 46.1325 245.203 46.1325C245.169 46.1325 245.135 46.1325 245.101 46.1325C245.056 46.1325 245 46.1325 244.955 46.1325C244.921 46.1325 244.887 46.1325 244.864 46.1325C244.797 46.1325 244.729 46.1325 244.673 46.1325C244.469 46.1325 244.266 46.1438 244.052 46.1663C243.104 46.2453 242.134 46.3356 241.163 46.4484C241.276 46.3243 241.389 46.1889 241.502 46.0648C241.513 46.0648 241.536 46.0648 241.547 46.0535C241.569 46.0535 241.603 46.0422 241.626 46.0422C241.671 46.0422 241.716 46.0309 241.773 46.0309C241.998 45.8504 242.224 45.6698 242.337 45.4893C242.438 45.32 242.416 45.1508 242.156 45.0379C241.761 44.8574 240.859 44.8235 239.899 44.8912C238.748 44.9702 237.485 45.1846 236.469 45.4667C236.379 45.4893 236.3 45.5231 236.21 45.5457C236.187 45.557 236.176 45.557 236.153 45.5683C236.074 45.5908 236.006 45.6134 235.939 45.636C235.905 45.6473 235.882 45.6585 235.848 45.6698C235.803 45.6811 235.758 45.7037 235.713 45.715C235.657 45.7375 235.6 45.7601 235.544 45.7827C235.521 45.7939 235.499 45.7939 235.487 45.8052C235.408 45.8391 235.329 45.8729 235.25 45.9068C235.013 46.0196 234.822 46.1212 234.675 46.234C234.652 46.2453 234.641 46.2679 234.641 46.2792C234.551 46.2904 234.461 46.313 234.37 46.3243C234.235 46.3469 234.145 46.392 234.178 46.4259C234.212 46.4597 234.348 46.4597 234.483 46.4371C234.619 46.4146 234.765 46.3807 234.923 46.3581C234.991 46.3581 235.07 46.3469 235.149 46.3356C235.183 46.3356 235.217 46.3243 235.25 46.3243C235.239 46.4033 235.25 46.4936 235.284 46.5725C235.273 46.5725 235.273 46.5838 235.262 46.5838C235.059 46.6967 234.777 46.8208 234.517 46.9336C234.28 46.9788 234.043 47.0239 233.806 47.0578L233.614 47.0916V47.1367C233.614 47.2044 233.614 47.2834 233.637 47.3511C233.614 47.3624 233.603 47.385 233.614 47.3963C233.626 47.4076 233.637 47.4076 233.659 47.4188C233.682 47.4527 233.705 47.4865 233.738 47.5204C233.039 47.6332 232.35 47.7574 231.662 47.8815C230.669 48.062 229.891 48.3216 229.27 48.6037C229.259 48.6037 229.259 48.6149 229.247 48.6149C229.202 48.6375 229.157 48.6601 229.112 48.6827C229.101 48.6939 229.089 48.6939 229.067 48.7052C229.022 48.7278 228.988 48.7504 228.943 48.7616C228.92 48.7729 228.909 48.7842 228.886 48.7842C228.852 48.8068 228.819 48.8181 228.785 48.8406C228.762 48.8519 228.74 48.8632 228.728 48.8745C228.694 48.897 228.672 48.9083 228.638 48.9309C228.615 48.9422 228.593 48.9535 228.57 48.976C228.548 48.9873 228.525 49.0099 228.491 49.0212C228.469 49.0437 228.435 49.055 228.412 49.0776C228.39 49.0889 228.378 49.1002 228.356 49.1114C228.311 49.1453 228.266 49.1679 228.232 49.2017C228.345 49.3484 228.503 49.4838 228.74 49.5967C228.683 49.6756 228.638 49.7659 228.593 49.8449C228.39 50.1947 228.198 50.5445 227.995 50.8943C226.517 51.3457 225.084 51.797 223.684 52.2597C222.917 52.5079 222.161 52.7675 221.416 53.027C221.416 53.027 220.829 52.9931 220.491 53.0044C220.152 53.027 219.803 53.0721 219.453 53.0947C219.103 53.1285 218.753 53.1398 218.516 53.106C218.415 53.0947 218.302 53.0721 218.155 53.0947C218.042 53.1173 217.975 53.1511 217.952 53.1737C217.93 53.1962 217.963 53.2301 217.986 53.2527C218.054 53.3091 218.234 53.3317 218.46 53.3317C218.686 53.3317 218.945 53.3317 219.126 53.3542C219.363 53.3881 219.43 53.4671 219.487 53.5461C218.911 53.8169 218.155 54.0877 217.331 54.3247C217.264 54.3472 217.14 54.3811 217.094 54.4036C217.049 54.4262 217.038 54.4601 217.083 54.4713C217.151 54.4826 217.309 54.4713 217.433 54.4488C217.828 54.3811 218.212 54.2908 218.539 54.1892C218.257 54.3472 217.941 54.4939 217.614 54.6519C217.546 54.6857 217.704 54.6857 217.828 54.6857C217.941 54.6857 218.076 54.6632 218.2 54.6406C218.742 54.5503 219.306 54.4601 219.78 54.3247C220.807 54.0426 221.157 53.6589 222.15 53.3655C222.15 53.3655 222.759 53.2752 223.662 53.1398C223.47 53.3091 223.289 53.4671 223.131 53.6363C223.007 53.6702 222.894 53.704 222.77 53.7379C222.748 53.7492 222.725 53.7492 222.703 53.7605C222.533 53.8056 222.353 53.862 222.184 53.9071C220.638 54.3472 219.013 54.7534 217.489 55.2048C216.113 55.611 214.826 56.0285 213.585 56.4573C212.558 56.8071 211.565 57.1682 210.561 57.5293C209.828 57.7888 209.083 58.0597 208.316 58.3192C208.112 58.3869 207.909 58.4546 207.706 58.5223C207.695 58.5223 207.684 58.5336 207.672 58.5336C207.481 58.6013 207.289 58.6577 207.097 58.7254C207.063 58.7367 207.04 58.748 207.007 58.748C206.826 58.8044 206.646 58.8608 206.476 58.9172C206.431 58.9285 206.397 58.9398 206.352 58.9624C206.138 59.0301 205.912 59.0978 205.686 59.1655C204.479 59.5266 203.193 59.8764 201.918 60.2262C201.263 60.4067 200.609 60.576 199.965 60.7565C199.853 60.7904 199.672 60.8355 199.48 60.8807C199.446 60.8807 199.424 60.8919 199.401 60.8919C198.419 61.0838 197.551 61.332 196.58 61.5238C195.711 61.6931 194.797 61.8059 193.917 61.9526C193.037 62.1106 192.112 62.3476 191.818 62.5958C191.784 62.6184 191.762 62.6522 191.784 62.6635C191.818 62.6974 191.92 62.6974 192.021 62.7087C192.992 62.7651 194.211 62.7087 195.429 62.5507C196.828 62.3701 198.25 62.0542 199.616 61.9639C199.853 61.9526 200.123 61.9301 200.338 61.8736C200.428 61.8511 200.496 61.8172 200.563 61.7834C200.597 61.7608 200.631 61.7495 200.665 61.727C200.676 61.727 200.676 61.7157 200.688 61.7157C200.721 61.7044 200.744 61.6818 200.767 61.6705C200.767 61.6705 200.778 61.6705 200.778 61.6593C200.834 61.6141 200.891 61.5803 200.936 61.5351C201.082 61.3997 201.105 61.2643 201.004 61.1515C202.448 60.9258 203.847 60.6437 205.235 60.3616C207.39 59.9215 209.545 59.4702 211.633 58.9962C211.712 58.9737 211.802 58.9624 211.881 58.9398C211.904 58.9398 211.926 58.9285 211.949 58.9285C212.017 58.9172 212.084 58.8947 212.141 58.8834C212.163 58.8834 212.186 58.8721 212.209 58.8721C212.288 58.8495 212.355 58.8383 212.434 58.8157C212.445 58.8157 212.457 58.8157 212.468 58.8044C212.649 58.7593 212.818 58.7141 212.987 58.669C212.998 58.669 213.01 58.6577 213.021 58.6577C213.1 58.6351 213.168 58.6239 213.247 58.6013C213.258 58.6013 213.269 58.59 213.28 58.59C213.54 58.5223 213.8 58.4433 214.037 58.3643C214.048 58.3643 214.059 58.353 214.07 58.353C214.149 58.3305 214.24 58.2966 214.319 58.2741C214.319 58.2741 214.319 58.2741 214.33 58.2741C214.409 58.2515 214.477 58.2176 214.544 58.1951C214.567 58.1838 214.578 58.1838 214.601 58.1725C214.668 58.1499 214.736 58.1161 214.804 58.0935C215.154 57.9468 215.424 57.7888 215.774 57.6309C215.865 57.597 215.944 57.5632 216.045 57.518C216.35 57.4052 216.722 57.3036 217.117 57.2134C217.151 57.2021 217.196 57.1908 217.23 57.1908C217.422 57.1457 217.614 57.1005 217.805 57.0554C219.193 56.7394 220.581 56.4122 221.969 56.0962C222.014 56.3783 222.195 56.6379 222.657 56.841C222.68 56.8523 222.714 56.8635 222.736 56.8748C223.447 57.1456 224.813 57.2811 226.426 57.1118C227.871 56.9538 229.236 56.604 230.455 56.2542C230.68 56.1865 230.906 56.1301 231.132 56.0624C231.278 56.0173 231.425 55.9721 231.583 55.927C231.651 55.9044 231.73 55.8818 231.798 55.8593C232.001 55.8029 232.192 55.7464 232.396 55.6787C232.418 55.6787 232.429 55.6674 232.452 55.6674C232.666 55.5997 232.881 55.5433 233.095 55.4756C234.009 55.1935 234.912 54.9227 235.815 54.6406C237.462 54.1328 239.098 53.625 240.746 53.1173C241.434 53.0608 242.213 52.9593 242.766 52.8803C243.759 52.7449 244.74 52.5756 245.722 52.4402C246.681 52.2935 247.652 52.1807 248.611 52.0791C248.746 52.0678 248.904 52.0453 249.028 52.0227C249.164 51.9889 249.22 51.9437 249.22 51.8986V51.8873C249.22 51.876 249.209 51.8647 249.197 51.8535L249.186 51.8422C249.186 51.8422 249.175 51.8309 249.164 51.8309C248.904 51.6616 248.283 51.5714 247.539 51.5714C246.794 51.5601 245.925 51.6391 245.079 51.7519C244.571 51.8196 244.063 51.9099 243.567 51.955C242.732 52.034 242.021 52.0001 241.276 52.0001C241.062 52.0001 240.825 52.0001 240.576 52.034C240.531 52.034 240.497 52.0453 240.452 52.0566C240.441 52.0566 240.43 52.0566 240.419 52.0679C240.385 52.0679 240.362 52.0791 240.328 52.0791C240.317 52.0791 240.306 52.0791 240.294 52.0904C240.215 52.1017 240.136 52.1243 240.069 52.1468C240.057 52.1468 240.057 52.1468 240.046 52.1581C240.012 52.1694 239.99 52.1807 239.956 52.1807H239.945C239.877 52.2033 239.809 52.2258 239.753 52.2484C239.719 52.2597 239.696 52.271 239.662 52.2823C239.55 52.3387 239.448 52.3951 239.358 52.4402C239.234 52.5192 239.121 52.6095 239.042 52.6998C236.052 53.1398 233.118 53.7379 230.489 54.4375C230.545 54.2682 230.568 54.1328 230.624 53.9636C232.283 53.625 233.761 53.1624 234.72 52.6772C234.777 52.6433 234.833 52.6208 234.889 52.5869C234.912 52.5756 234.923 52.5643 234.946 52.5531C234.98 52.5305 235.013 52.5192 235.047 52.4966C235.07 52.4854 235.092 52.4741 235.115 52.4628C235.138 52.4515 235.171 52.4289 235.194 52.4177C235.217 52.4064 235.239 52.3951 235.262 52.3725C235.284 52.3612 235.307 52.3387 235.329 52.3274C235.352 52.3161 235.375 52.2935 235.397 52.2823C235.42 52.271 235.431 52.2597 235.454 52.2371C235.476 52.2258 235.499 52.2033 235.51 52.192C235.521 52.1807 235.544 52.1694 235.555 52.1581C235.578 52.1468 235.589 52.1243 235.612 52.113C235.623 52.1017 235.634 52.0904 235.645 52.0791C235.668 52.0566 235.679 52.0453 235.702 52.0227C235.713 52.0114 235.724 52.0001 235.724 51.9889C235.736 51.9663 235.758 51.955 235.77 51.9324C235.781 51.9212 235.781 51.9212 235.792 51.9099C235.803 51.8873 235.826 51.876 235.837 51.8535L235.848 51.8422C235.86 51.8196 235.871 51.797 235.894 51.7745C235.984 51.6165 235.984 51.4585 235.916 51.3118C238.929 50.2511 241.299 49.45 243.962 48.2426C244.785 48.4005 245.541 48.5924 246.647 48.6375C247.776 48.6826 249.175 48.5924 250.54 48.4231C251.432 48.3103 252.323 48.1862 253.215 48.0395C253.688 47.9605 254.162 47.8815 254.636 47.8025C255.155 47.8476 255.832 47.8025 256.509 47.7009C256.893 47.7461 257.39 47.7461 257.909 47.7009C258.281 47.6558 256.408 47.4188 255.404 47.4188ZM234.946 46.9788L234.957 47.0916L234.156 47.2383C234.145 47.2044 234.145 47.1706 234.145 47.1255C234.404 47.0803 234.675 47.0239 234.946 46.9788ZM234.201 47.3624L234.968 47.2157V47.2947L234.382 47.4076C234.336 47.4188 234.303 47.4188 234.257 47.4301C234.235 47.4076 234.212 47.385 234.201 47.3624Z" fill="#5B3A29"/>
<path opacity="0.5" d="M198.488 58.8156C198.522 58.8156 198.555 58.8269 198.589 58.8269C198.601 58.8269 198.612 58.8269 198.623 58.8269C198.657 58.8269 198.702 58.8382 198.736 58.8382C198.928 58.8495 199.142 58.8495 199.357 58.8269C201.692 58.5899 206.398 57.9242 206.962 56.3106C206.985 56.2541 206.928 56.1977 206.815 56.1526C206.793 56.1413 206.77 56.1413 206.748 56.13C206.736 56.13 206.736 56.13 206.725 56.1187C206.703 56.1074 206.669 56.1074 206.646 56.0962C206.42 56.051 206.093 56.0397 205.766 56.0623C203.475 56.2767 201.873 56.6039 200.745 56.9537C200.147 57.1681 199.571 57.3825 198.713 57.9129C198.409 58.1611 198.217 58.3981 198.138 58.5786C198.082 58.6915 198.228 58.7705 198.488 58.8156Z" fill="#5B3A29"/>
</g>
<path d="M226.618 27.6214C227.397 27.2039 228.108 26.6735 228.853 26.2109C229.586 25.7595 230.365 25.3871 231.166 25.0825C231.279 25.0373 231.414 24.9922 231.482 24.8906C231.617 24.6875 231.459 24.428 231.29 24.2475C230.76 23.7171 229.992 23.435 229.236 23.4124C228.48 23.3899 227.724 23.6155 227.07 23.9879C226.675 24.2136 226.314 24.4844 225.885 24.6311C225.185 24.8794 224.418 24.7778 223.662 24.7665C223.436 24.7665 223.211 24.7778 223.019 24.8681C222.567 25.0938 222.466 25.6918 222.466 26.1883C222.477 27.0797 222.827 28.2871 223.865 28.479C224.723 28.6482 225.907 28.005 226.618 27.6214Z" fill="#9B2405"/>
<path d="M208.316 6.40706C208.474 6.82457 208.677 7.21951 208.914 7.59188C208.902 8.06581 208.756 8.5623 208.677 9.03623C208.891 8.91211 209.185 8.79927 209.354 8.60744C209.602 9.23934 209.749 9.92767 209.997 10.5596C210.821 10.2549 211.441 9.45374 211.69 8.60744C211.938 7.76114 211.893 6.85842 211.735 5.98955C211.678 5.70745 211.622 5.42535 211.475 5.1771C211.34 4.92885 211.114 4.71446 210.843 4.64675C210.494 4.55648 210.121 4.70317 209.783 4.86115C209.433 5.01913 209.083 5.1771 208.79 5.41407C208.508 5.65103 208.18 6.04597 208.316 6.40706Z" fill="#F4904D"/>
<path d="M230.24 10.3003C229.867 10.3003 229.45 10.3003 229.01 10.3003C229.247 10.9435 229.303 11.6431 229.179 12.3088C229.529 12.0719 229.879 11.8236 230.228 11.5641C230.228 11.5641 230.646 11.1015 230.24 10.3003Z" fill="url(#paint4_linear_3169_30370)"/>
<path d="M229.01 10.3003C226.437 10.3003 222.984 10.2777 222.984 10.2777C222.07 9.86023 221.179 9.38631 220.31 8.85596L218.922 12.3878C220.502 12.9182 221.923 13.9789 223.571 14.1933C224.778 14.3513 226.02 14.0353 227.114 13.5162C227.836 13.1777 228.513 12.7602 229.168 12.3089C229.303 11.6431 229.247 10.9435 229.01 10.3003Z" fill="#F4904D"/>
<path d="M225.456 13.0649C225.569 12.8166 225.693 12.512 225.546 12.275C225.456 12.1283 225.298 12.0493 225.129 12.0268C224.959 12.0042 224.79 12.038 224.632 12.0832C223.955 12.2524 223.323 12.5684 222.781 13.0085C222.804 13.0198 222.827 13.031 222.86 13.031C222.24 12.8166 221.551 12.5684 220.931 12.3653C221.032 11.8688 221.348 11.44 221.732 11.1128C222.116 10.7855 222.544 10.5034 222.996 10.2777C222.082 9.86023 221.19 9.38631 220.322 8.85596L218.934 12.3878C220.513 12.9182 221.935 13.9789 223.583 14.1933C224.79 14.3513 226.031 14.0353 227.126 13.5162C227.848 13.1777 228.525 12.7602 229.179 12.3089C229.179 12.2976 229.179 12.275 229.191 12.2637C227.972 12.6587 226.72 12.9295 225.456 13.0649Z" fill="#A83F1E"/>
<path d="M230.409 10.3003C230.353 10.3003 230.296 10.3003 230.24 10.3003C230.646 11.1015 230.229 11.5641 230.229 11.5641C230.815 11.6995 231.425 11.5528 231.932 11.2256C232.384 11.3497 232.869 11.3497 233.32 11.2256C233.659 11.0338 231.413 10.3003 230.409 10.3003Z" fill="url(#paint5_linear_3169_30370)"/>
<path d="M211.746 5.97856C211.69 5.69646 211.633 5.41436 211.486 5.16611C211.34 4.91787 211.125 4.70347 210.855 4.63577C210.505 4.5455 210.132 4.69219 209.794 4.85016C209.444 5.00814 209.094 5.16611 208.801 5.40308C208.508 5.65133 208.18 6.04627 208.316 6.40735C208.474 6.82486 208.677 7.2198 208.914 7.59217C208.914 7.60346 208.914 7.61474 208.914 7.62603C209.185 7.75015 209.523 7.7163 209.737 7.52447C209.579 7.54704 209.422 7.55832 209.264 7.58089C209.5 7.44548 209.704 7.25365 209.839 7.01669C209.625 6.98284 209.399 7.02797 209.207 7.11825C209.331 6.99412 209.455 6.87 209.602 6.79101C209.76 6.71202 209.941 6.66689 210.099 6.73459C210.234 6.79101 210.336 6.90385 210.414 7.01669C210.855 7.62603 210.99 8.42719 210.9 9.18322C210.855 9.51045 210.776 9.83769 210.674 10.1536C211.159 9.7587 211.52 9.18322 211.69 8.59645C211.96 7.75015 211.904 6.84743 211.746 5.97856Z" fill="#A83F1E"/>
<path d="M214.171 5.48193C214.397 6.46364 214.634 7.44535 214.86 8.42706C213.889 8.29165 212.828 8.40449 211.948 8.822C212.4 7.53562 213.133 6.3508 214.171 5.48193Z" fill="#F4904D"/>
<path d="M214.522 5.89934C214.454 5.32386 214.386 4.74838 214.206 4.19546C214.025 3.64254 213.732 3.1122 213.292 2.75111C212.615 2.19819 211.644 2.08535 210.798 2.27718C209.771 2.51414 208.846 3.19118 208.304 4.0939C207.875 4.81608 207.684 5.68495 207.763 6.51996C207.796 6.83592 208.135 7.00518 208.406 6.8472C208.823 6.61024 209.218 6.37327 209.636 6.13631C209.918 5.97833 210.279 6.09117 210.414 6.38456C210.753 7.10673 210.967 7.88533 211.069 8.67521C211.091 8.8896 211.136 9.14914 211.328 9.25069C211.452 9.3184 211.61 9.28454 211.746 9.23941C212.457 8.97988 212.84 8.22385 213.145 7.53552C213.472 6.8472 213.811 6.13631 214.522 5.89934Z" fill="url(#paint6_linear_3169_30370)"/>
<path d="M211.192 10.5261C211.181 10.5261 211.17 10.5261 211.147 10.5261C211.023 10.5035 210.944 10.3907 210.967 10.2666C211.113 9.44284 211.136 8.60783 211.023 7.80666V7.77281C210.955 7.29888 210.775 6.03507 210.301 5.80939C210.222 5.76426 210.098 5.77554 209.974 5.80939C209.218 6.05764 208.439 6.73468 207.909 7.17476C207.819 7.25375 207.672 7.24246 207.593 7.15219C207.514 7.06192 207.525 6.91523 207.615 6.83624C208.315 6.24947 209.048 5.65142 209.827 5.39189C210.064 5.3129 210.301 5.3129 210.493 5.40317C211.102 5.68527 211.328 6.67826 211.475 7.70511V7.73896C211.599 8.59654 211.576 9.46541 211.418 10.3456C211.396 10.4471 211.294 10.5261 211.192 10.5261Z" fill="white"/>
<path d="M209.568 11.1354C209.522 11.1354 209.477 11.1241 209.432 11.0902C208.845 10.6614 208.484 10.007 208.18 9.4202L208.101 9.26222L208.236 9.14938C209.127 8.40464 210.053 7.67118 210.978 6.97157C211.08 6.89258 211.215 6.91515 211.294 7.01671C211.373 7.11826 211.35 7.25367 211.249 7.33266C210.369 7.98713 209.5 8.67545 208.665 9.37506C208.924 9.88284 209.24 10.3906 209.692 10.7291C209.793 10.8081 209.816 10.9435 209.737 11.0451C209.703 11.1015 209.635 11.1354 209.568 11.1354Z" fill="white"/>
<path d="M208.789 10.3115C208.722 10.3115 208.665 10.2889 208.62 10.2325C208.541 10.1422 208.553 9.99556 208.643 9.91657L211.058 7.86288C211.148 7.78389 211.295 7.79518 211.373 7.88545C211.452 7.97572 211.441 8.12241 211.351 8.2014L208.936 10.2551C208.891 10.2889 208.835 10.3115 208.789 10.3115Z" fill="white"/>
<path d="M209.308 10.853C209.24 10.853 209.184 10.8305 209.139 10.7741C209.06 10.6838 209.06 10.5371 209.161 10.4581L211.147 8.6978C211.238 8.61881 211.384 8.61881 211.463 8.72037C211.542 8.81064 211.542 8.95733 211.441 9.03632L209.455 10.7966C209.41 10.8305 209.353 10.853 209.308 10.853Z" fill="white"/>
<path d="M209.974 10.1536C209.929 10.1536 209.895 10.131 209.872 10.0972L209.105 8.66412C209.071 8.6077 209.093 8.53999 209.15 8.50614C209.206 8.47229 209.274 8.49486 209.308 8.55128L210.075 9.98434C210.109 10.0408 210.086 10.1085 210.03 10.1423C210.007 10.1536 209.996 10.1536 209.974 10.1536Z" fill="white"/>
<path d="M208.428 40.8575C209.928 39.0972 211.44 37.3482 212.941 35.5879L208.743 28.7949C207.773 30.9615 206.261 32.8346 205.087 34.8996C204.354 36.1747 203.767 37.5175 203.226 38.8828C204.715 39.8984 206.329 40.7334 208.01 41.3766C208.145 41.196 208.281 41.0268 208.428 40.8575Z" fill="#DE3D06"/>
<path d="M212.941 35.5879L208.743 28.7949C208.439 29.4832 208.066 30.149 207.683 30.8035C208.755 34.2225 208.924 37.8785 208.078 41.2863C208.19 41.1396 208.315 41.0042 208.427 40.8575C209.928 39.0972 211.44 37.3482 212.941 35.5879Z" fill="#9B2405"/>
<path d="M208.01 41.3653C206.329 40.7222 204.715 39.8871 203.226 38.8716C202.774 40 202.368 41.1397 201.939 42.2794C203.666 42.9 205.55 43.0467 207.344 42.6856C207.367 42.5727 207.401 42.4599 207.435 42.3471C207.57 41.986 207.773 41.67 208.01 41.3653Z" fill="#F4904D"/>
<path d="M201.939 42.2793C201.285 44.0396 200.597 45.7886 199.705 47.4474C199.085 48.5983 198.362 49.7042 197.652 50.7987C197.29 51.3629 196.918 51.9271 196.568 52.4913C196.343 52.8524 195.632 53.6536 195.812 54.1049C196.162 54.9964 197.787 54.1501 198.261 53.8454C199.355 53.1458 200.303 52.2318 201.229 51.3291C202.673 49.9299 204.106 48.5193 205.415 47.0073C206.148 46.161 206.871 45.2357 207.119 44.1299C207.22 43.6559 207.232 43.1594 207.345 42.6855C205.55 43.0466 203.655 42.8999 201.939 42.2793Z" fill="#DE3D06"/>
<path d="M216.203 31.0177C217.32 29.9457 218.042 28.4788 218.211 26.9442C218.381 25.4096 218.042 23.9314 217.184 22.645L217.06 20.817C216.203 20.3543 215.3 19.8917 214.363 19.6435C213.427 19.3952 212.4 19.3614 211.509 19.7563C210.583 20.1738 209.906 20.9975 209.353 21.8551C208.8 22.7127 208.383 23.7508 207.683 24.4956C207.593 28.6368 208.609 32.7667 210.369 36.513C211.001 37.8784 211.768 39.2325 212.93 40.1691C212.975 40.2029 213.021 40.2368 213.066 40.2706C214.341 36.0391 216.835 32.4959 216.835 32.4959C216.62 31.9881 216.417 31.5481 216.203 31.0177Z" fill="#DE3D06"/>
<path d="M225.614 26.4138C225.478 26.1204 225.128 25.985 224.813 25.9963C224.497 26.0075 224.192 26.1429 223.91 26.2896C221.078 27.7001 218.64 29.9005 216.846 32.5184C216.846 32.5184 214.352 36.0616 213.077 40.2931C214.239 41.1732 215.819 41.5795 217.151 41.0378C218.335 40.5413 219.125 39.4129 219.791 38.3071C220.784 36.6484 221.664 34.9219 222.544 33.2067C223.515 31.311 224.474 29.4153 225.444 27.5083C225.602 27.1585 225.772 26.7636 225.614 26.4138Z" fill="#F4904D"/>
<path d="M209.895 20.377C209.184 19.3953 208.766 18.2669 207.785 17.556C207.119 17.0821 206.611 16.5405 206.115 15.886C206.047 14.3852 206.261 12.6813 207.424 11.7335C209.139 10.3455 210.978 9.10431 212.908 8.04361C214.205 7.33272 215.582 6.73467 217.015 6.32844C218.403 5.9335 219.881 6.58798 220.457 7.91949C220.615 8.29186 220.728 8.67552 220.807 9.08174C220.152 15.2767 218.854 18.2556 217.173 22.6451C215.548 21.0428 213.054 20.219 210.831 20.7494C210.606 20.8058 210.358 20.8735 210.132 20.8284C209.906 20.7832 209.85 20.614 209.895 20.377Z" fill="#106C8E"/>
<path d="M211.532 15.7393C211.532 15.7393 211.904 13.2907 210.55 12.546C209.805 12.1285 208.485 11.9705 207.131 12.0269C206.228 13.0086 206.059 14.532 206.115 15.8973C206.612 16.5518 207.119 17.0821 207.785 17.5673C208.124 17.8156 208.406 18.1203 208.643 18.4475C209.568 17.8833 210.46 17.2852 211.295 16.6533L211.532 15.7393Z" fill="url(#paint7_linear_3169_30370)"/>
<path d="M220.469 7.91941C219.961 6.75716 218.765 6.11397 217.546 6.23809C219.137 7.63731 219.961 9.88283 219.6 11.9817C218.923 15.8859 215.425 18.4925 211.679 20.6252C213.665 20.4446 215.764 21.2458 217.185 22.6563C218.867 18.2668 220.164 15.2879 220.819 9.09295C220.74 8.67544 220.627 8.2805 220.469 7.91941Z" fill="#3C8AAC"/>
<path d="M214.735 36.1408C216.202 37.2579 217.929 38.0252 219.734 38.375C219.745 38.3524 219.768 38.3186 219.779 38.296C220.265 37.4949 220.716 36.6711 221.156 35.8361C219.396 35.3058 217.737 34.4595 216.293 33.3311C215.898 33.9855 215.322 34.956 214.735 36.1408Z" fill="url(#paint8_linear_3169_30370)"/>
<path d="M194.425 54.951C193.838 55.4926 193.082 55.8311 192.461 56.3163C191.83 56.8128 191.288 57.5576 191.401 58.3474C191.412 58.4264 191.435 58.5167 191.48 58.5731C191.559 58.6634 191.672 58.6973 191.796 58.7085C192.868 58.9004 193.996 58.7198 194.955 58.2233C196.061 57.6478 196.975 56.6436 198.194 56.3727C198.408 56.3276 198.656 56.2825 198.769 56.1019C198.826 56.0229 198.837 55.9214 198.848 55.8198C198.938 55.0525 198.679 54.2401 198.149 53.6759C198.07 53.5856 197.968 53.4953 197.934 53.3825C197.9 53.2809 197.9 53.1794 197.878 53.0778C197.697 52.209 196.67 52.5475 196.23 52.9424C195.553 53.5518 195.091 54.3416 194.425 54.951Z" fill="#9B2405"/>
<path d="M196.557 56.023C195.733 56.6662 195.135 57.6479 194.165 58.0541C193.544 58.3136 192.856 58.2911 192.201 58.4039C191.953 58.4377 191.716 58.4942 191.468 58.5732C191.468 58.5732 191.468 58.5844 191.479 58.5844C191.558 58.6747 191.671 58.7086 191.795 58.7198C192.867 58.9117 193.995 58.7311 194.955 58.2346C196.06 57.6591 196.974 56.6549 198.193 56.3841C198.407 56.3389 198.656 56.2938 198.769 56.1132C198.825 56.0343 198.836 55.9327 198.848 55.8311C198.881 55.5716 198.87 55.3008 198.825 55.0413C198.001 55.2218 197.211 55.5152 196.557 56.023Z" fill="#DE3D06"/>
<path d="M206.691 45.2808C206.883 44.9197 207.041 44.5473 207.131 44.1411C207.233 43.6672 207.244 43.1707 207.357 42.6968C205.563 43.0578 203.667 42.9111 201.952 42.2905C201.636 43.1255 201.32 43.9606 200.981 44.7843C202.776 45.4839 204.784 45.6644 206.691 45.2808Z" fill="url(#paint9_linear_3169_30370)"/>
<path d="M204.197 45.4613C203.091 45.4049 201.996 45.1679 200.969 44.7729C200.586 45.687 200.18 46.5784 199.717 47.4473C199.096 48.5982 198.374 49.7041 197.663 50.7986C197.302 51.3628 196.93 51.927 196.58 52.4912C196.354 52.8523 195.643 53.6535 195.824 54.1048C195.971 54.4772 196.343 54.5449 196.761 54.4772C199.796 51.8932 202.459 48.9255 204.197 45.4613Z" fill="#FFCF00"/>
<path d="M204.196 45.4614C202.47 48.9255 199.796 51.8932 196.749 54.4773C197.325 54.3757 197.99 54.0259 198.261 53.8454C199.356 53.1458 200.303 52.2318 201.229 51.329C202.673 49.9298 204.106 48.5193 205.415 47.0073C205.878 46.4656 206.34 45.9014 206.679 45.2695C205.866 45.4388 205.031 45.5065 204.196 45.4614Z" fill="#F2B808"/>
<path d="M221.461 29.1446C222.669 28.0049 224.057 27.0232 225.569 26.3349C225.411 26.0979 225.106 25.9851 224.813 25.9964C224.497 26.0077 224.192 26.1431 223.91 26.2898C221.078 27.7003 218.64 29.9006 216.846 32.5185C216.846 32.5185 216.632 32.8232 216.305 33.3423C216.654 33.6131 217.016 33.8726 217.388 34.1096C218.595 32.3267 219.893 30.6115 221.461 29.1446Z" fill="#F2B808"/>
<path d="M225.569 26.3347C224.057 27.023 222.669 28.0047 221.461 29.1444C219.893 30.6114 218.595 32.3265 217.388 34.1094C218.561 34.8541 219.836 35.4409 221.168 35.8471C221.63 34.967 222.082 34.0868 222.533 33.1954C223.504 31.2997 224.463 29.404 225.433 27.497C225.602 27.1585 225.783 26.7522 225.614 26.4137C225.602 26.3799 225.58 26.3573 225.569 26.3347Z" fill="#FFCF00"/>
<path d="M210.042 20.9187C209.794 21.2121 209.568 21.5393 209.354 21.8666C209.06 22.3292 208.801 22.8483 208.507 23.3448C208.44 27.5537 209.331 31.7739 211.114 35.5879C211.723 36.8856 212.468 38.1607 213.427 39.1988C213.63 38.6233 213.856 38.0704 214.082 37.54C212.344 35.4525 211.204 32.8459 210.606 30.1829C209.941 27.1475 209.895 24.0218 210.042 20.9187Z" fill="white"/>
<path d="M206.52 25.5901C206.159 26.3913 205.821 27.2037 205.505 28.0274C206.385 28.2982 206.791 29.0994 206.791 29.0994C206.791 29.0994 207.739 28.5465 208.868 27.6776C208.168 26.8877 207.389 26.1769 206.52 25.5901Z" fill="url(#paint10_linear_3169_30370)"/>
<path d="M205.505 28.0273C205.505 28.0273 204.862 27.9032 204.557 27.9709C204.252 28.0386 203.97 28.174 203.677 28.2756C203.384 28.3771 203.056 28.4223 202.763 28.3207C202.639 28.2756 202.492 28.2079 202.391 28.2756C202.312 28.332 202.289 28.4448 202.323 28.5351C202.357 28.6254 202.413 28.7044 202.481 28.7721C202.639 28.9526 202.853 29.0203 203.079 29.0316C203.305 29.0429 203.553 29.0203 203.778 29.0993C204.061 29.2008 204.264 29.4604 204.444 29.7086C204.309 30.5775 203.993 31.4238 203.564 32.1798C203.53 32.2475 203.474 32.3717 203.463 32.4506C203.451 32.5296 203.485 32.6086 203.553 32.6538C203.654 32.7102 203.767 32.6425 203.857 32.5635C204.14 32.3378 204.365 32.0444 204.535 31.7285C204.501 32.2137 204.433 32.6989 204.354 33.1841C204.331 33.2969 204.501 33.2857 204.614 33.2744C204.726 33.2631 204.817 33.1954 204.907 33.1277C205.313 32.8456 205.719 32.5522 205.979 32.1347C206.543 31.232 206.272 30.0133 206.791 29.0767C206.791 29.088 206.385 28.2868 205.505 28.0273Z" fill="url(#paint11_linear_3169_30370)"/>
<path d="M211.531 15.739C208.484 15.9308 207.265 17.1382 207.265 17.1382C207.705 18.5149 208.179 19.8802 208.619 21.2569C207.875 22.6787 207.175 24.123 206.521 25.5787C207.378 26.1767 208.168 26.8763 208.868 27.6549C210.301 26.5491 212.016 24.9129 212.399 23.2542C213.065 20.2865 211.531 15.739 211.531 15.739Z" fill="#F4904D"/>
<path d="M211.531 15.739C208.484 15.9308 207.266 17.1382 207.266 17.1382C207.356 17.409 207.435 17.6686 207.525 17.9394C208.247 17.6234 209.037 17.4655 209.816 17.4993C210.211 17.5219 210.628 17.5896 210.944 17.8378C211.271 18.0974 211.418 18.5149 211.542 18.9098C211.869 19.9592 212.084 21.0425 212.197 22.1258C212.219 22.3176 212.231 22.5207 212.163 22.7012C212.095 22.8818 211.937 23.0398 211.745 23.0398C211.52 23.0398 211.35 22.8254 211.136 22.8028C210.854 22.7689 210.628 23.0398 210.459 23.2767C209.658 24.4615 208.857 25.6351 208.056 26.8199C208.338 27.0907 208.608 27.3728 208.868 27.6662C210.301 26.5604 212.016 24.9242 212.4 23.2654C213.066 20.2865 211.531 15.739 211.531 15.739Z" fill="#A83F1E"/>
<path d="M220.468 7.91916C219.961 6.75691 218.765 6.11373 217.546 6.23785C217.591 6.2717 217.636 6.31684 217.681 6.36197C218.381 6.63279 219.002 7.09543 219.43 7.71605C220.119 8.70904 220.31 9.96157 220.367 11.1577C220.389 11.4962 220.389 11.8347 220.401 12.1732C220.559 11.2367 220.705 10.2098 220.818 9.0927C220.739 8.67519 220.626 8.28025 220.468 7.91916Z" fill="url(#paint12_linear_3169_30370)"/>
<path d="M217.681 25.026C217.635 26.696 216.823 28.2419 215.548 29.3365L216.202 31.0291C217.319 29.9571 218.042 28.4902 218.211 26.9555C218.358 25.5337 218.087 24.1684 217.365 22.9497C217.59 23.6155 217.703 24.3151 217.681 25.026Z" fill="#9B2405"/>
<path d="M229.247 23.4124C228.491 23.3899 227.735 23.6155 227.08 23.9879C226.685 24.2136 226.324 24.4844 225.895 24.6311C225.196 24.8794 224.428 24.7778 223.672 24.7665C223.447 24.7665 223.221 24.7778 223.029 24.8681C222.725 25.026 222.578 25.3307 222.521 25.6805C222.883 25.4323 223.289 25.2743 223.718 25.2179C224.304 25.1502 224.914 25.2969 225.5 25.2066C226.053 25.1163 226.539 24.8117 227.046 24.5634C227.814 24.1798 228.66 23.9089 229.518 23.9202C230.251 23.9315 230.996 24.1797 231.537 24.6537C231.515 24.507 231.413 24.349 231.3 24.2362C230.759 23.7171 230.003 23.435 229.247 23.4124Z" fill="#DE3D06"/>
<path d="M192.867 46.4652C192.687 46.5329 192.472 46.5442 192.269 46.4991C192.224 46.4878 192.179 46.4765 192.134 46.4652C192.123 46.4652 192.111 46.454 192.1 46.454C192.055 46.4427 192.021 46.4201 191.976 46.4088C191.649 46.2734 191.367 46.0252 191.265 45.7205C191.062 45.1789 190.859 44.4003 190.769 43.6217C190.769 41.9404 190.983 41.2407 191.242 40.575C191.807 39.4579 192.89 38.431 194.831 37.754C195.113 37.6524 195.463 37.6976 195.767 37.8443C195.801 37.8668 195.835 37.8781 195.88 37.9007C195.891 37.912 195.903 37.912 195.914 37.9233C195.948 37.9458 195.982 37.9684 196.016 37.991C196.196 38.1264 196.332 38.2956 196.411 38.4762C198.442 43.5991 194.82 45.7205 192.867 46.4652Z" fill="#C7251A"/>
<path d="M192.269 46.499C192.224 46.4877 192.179 46.4764 192.133 46.4651C192.122 46.4651 192.111 46.4539 192.1 46.4539C193.916 43.9037 195.203 40.9924 195.857 37.9119C195.868 37.9231 195.88 37.9232 195.891 37.9344C195.925 37.957 195.959 37.9796 195.993 38.0021C195.338 41.0714 194.063 43.9601 192.269 46.499Z" fill="white"/>
<path d="M192.134 46.4652C192.122 46.4652 192.111 46.4539 192.1 46.4539C192.055 46.4426 192.021 46.42 191.976 46.4087C193.804 43.8586 195.09 40.9473 195.756 37.8555C195.79 37.878 195.823 37.8893 195.869 37.9119C195.88 37.9232 195.891 37.9232 195.902 37.9345C195.237 41.015 193.95 43.9263 192.134 46.4652Z" fill="#8F080C"/>
<path d="M195.802 40.7556C195.418 40.451 194.955 40.2591 194.459 40.1802L194.504 39.8755C195.046 39.9545 195.554 40.1689 195.994 40.5074L195.802 40.7556Z" fill="#8F080C"/>
<path d="M195.485 41.5342C195.102 41.2295 194.639 41.0377 194.143 40.9587L194.188 40.6541C194.729 40.733 195.237 40.9474 195.677 41.286L195.485 41.5342Z" fill="#8F080C"/>
<path d="M195.158 42.324C194.775 42.0193 194.312 41.8275 193.815 41.7485L193.861 41.4438C194.402 41.5228 194.91 41.7372 195.35 42.0758L195.158 42.324Z" fill="#8F080C"/>
<path d="M194.831 43.114C194.447 42.8094 193.985 42.6175 193.488 42.5386L193.533 42.2339C194.075 42.3129 194.583 42.5273 195.023 42.8658L194.831 43.114Z" fill="#8F080C"/>
<path d="M194.504 43.9036C194.12 43.5989 193.658 43.4071 193.161 43.3281L193.206 43.0234C193.748 43.1024 194.256 43.3168 194.696 43.6553L194.504 43.9036Z" fill="#8F080C"/>
<path d="M194.177 44.6936C193.793 44.389 193.33 44.1971 192.834 44.1181L192.879 43.8135C193.421 43.8925 193.929 44.1069 194.369 44.4454L194.177 44.6936Z" fill="#8F080C"/>
<path d="M195.892 40.6541C195.508 40.3494 195.045 40.1576 194.549 40.0786L194.594 39.7739C195.136 39.8529 195.643 40.0673 196.083 40.4058L195.892 40.6541Z" fill="white"/>
<path d="M195.564 41.4441C195.181 41.1394 194.718 40.9476 194.222 40.8686L194.267 40.564C194.808 40.643 195.316 40.8573 195.756 41.1959L195.564 41.4441Z" fill="white"/>
<path d="M195.236 42.2337C194.853 41.929 194.39 41.7372 193.894 41.6582L193.939 41.3535C194.48 41.4325 194.988 41.6469 195.428 41.9854L195.236 42.2337Z" fill="white"/>
<path d="M194.909 43.0237C194.526 42.719 194.063 42.5272 193.566 42.4482L193.612 42.1436C194.153 42.2225 194.661 42.4369 195.101 42.7755L194.909 43.0237Z" fill="white"/>
<path d="M194.582 43.8137C194.198 43.5091 193.736 43.3173 193.239 43.2383L193.284 42.9336C193.826 43.0126 194.334 43.227 194.774 43.5655L194.582 43.8137Z" fill="white"/>
<path d="M194.267 44.6035C193.883 44.2989 193.42 44.107 192.924 44.0281L192.969 43.7234C193.511 43.8024 194.018 44.0168 194.458 44.3553L194.267 44.6035Z" fill="white"/>
<path d="M212.098 6.14121C212.288 6.03359 212.314 5.72224 212.158 5.44579C212.001 5.16934 211.72 5.03248 211.53 5.1401C211.34 5.24772 211.314 5.55907 211.47 5.83552C211.627 6.11197 211.908 6.24883 212.098 6.14121Z" fill="#062C3F"/>
<path d="M214.216 4.18447C214.036 3.63156 213.742 3.10121 213.302 2.74012C212.625 2.18721 211.655 2.07437 210.809 2.26619C209.782 2.50316 208.856 3.1802 208.315 4.08292C208.067 4.51171 207.897 4.98564 207.818 5.47085C208.281 4.60198 208.935 3.82339 209.725 3.23662C209.477 3.49615 209.556 3.94751 209.816 4.19576C210.064 4.44401 210.436 4.53428 210.797 4.56813C211.328 4.61327 211.858 4.53428 212.355 4.35373C212.738 4.20704 213.144 3.94751 213.201 3.53C213.686 4.31988 213.991 5.20003 214.126 6.11404C214.25 6.02377 214.386 5.94478 214.544 5.88836C214.453 5.32416 214.386 4.73739 214.216 4.18447Z" fill="#DE3D06"/>
<path d="M111.942 45.1097L111.594 45.3356H111.185C111.154 45.2302 111.139 45.1398 111.109 45.0343C110.882 44.2812 110.488 43.5732 109.943 42.9706C108.837 41.7204 108.247 40.1839 108.61 38.6323L109.549 41.7204C109.791 42.4886 110.443 43.0459 111.245 43.1665L111.942 43.2568C112.215 44.4619 111.942 45.1097 111.942 45.1097Z" fill="#511608"/>
<path d="M117.243 33.1792C117.091 34.7157 115.077 35.2881 115.077 35.2881C112.926 36.0563 111.427 35.2881 111.427 35.2881C111.73 35.1224 112.033 34.9718 112.335 34.8211C113.88 34.0981 115.561 33.5407 117.243 33.1792Z" fill="#511608"/>
<path d="M81.3634 42.85C81.1816 42.7747 81.0453 42.6241 80.9847 42.4282C80.4849 40.8315 78.3494 33.0436 82.5144 26.6115C82.5144 26.6115 88.9512 16.4737 102.234 17.0612C102.234 17.0612 112.003 17.1215 116.789 26.2801C116.879 26.4609 116.895 26.6868 116.789 26.8676C116.607 27.214 116.38 27.8467 116.652 28.615L117.849 32.6369C117.909 32.8328 117.788 33.0436 117.576 33.0888C115.774 33.4504 113.956 34.0228 112.305 34.8061C110.958 35.4387 109.625 36.2974 108.928 37.6531C107.959 39.521 108.565 41.4642 109.897 42.9555C111.2 44.4317 111.685 46.4653 110.897 48.3181C110.458 49.3424 109.7 50.2161 108.883 50.9542C107.52 52.1894 105.899 53.1083 104.203 53.8163C102.219 54.6448 100.053 54.5544 98.1142 53.6355C96.524 52.8673 94.9034 52.1141 93.2677 51.4513C92.7073 51.2254 92.1469 51.0446 91.5563 50.909L90.1023 50.5475C89.7237 50.4571 89.4965 50.0805 89.5873 49.7039C89.5873 49.7039 89.5873 49.6889 89.5873 49.6738C89.6176 49.5533 89.6176 49.4177 89.5722 49.2972C89.3299 48.5591 88.3757 45.9983 86.2402 44.989L81.3634 42.85Z" fill="#942E0B"/>
<path d="M89.6628 50.1557C89.6628 50.5022 89.3296 50.7583 88.9964 50.6679L82.605 49.1013C82.3779 49.041 82.1961 48.8904 82.1204 48.6644L81.9841 48.2878C81.9689 48.2577 81.9689 48.2125 81.9689 48.1673C81.9689 48.1071 81.9841 48.0619 82.0144 48.0016C82.0598 47.9263 82.075 47.8359 82.0447 47.7455L80.8179 43.4223C80.7573 43.2114 80.8179 42.9704 80.9845 42.8198L81.1511 42.6541C81.2117 42.7294 81.3025 42.7896 81.3783 42.8198L86.3005 44.9889C88.436 45.9982 89.3902 48.559 89.6325 49.2971C89.678 49.4176 89.678 49.5532 89.6477 49.6737V49.6887C89.5871 49.8695 89.6022 50.0201 89.6628 50.1557Z" fill="white"/>
<path d="M84.6504 45.8024L85.0745 47.5498C85.0896 47.595 85.135 47.6251 85.1805 47.6251L86.3012 47.5046C86.377 47.5046 86.4224 47.4444 86.4224 47.369C86.4224 47.2033 86.3618 46.8569 85.9529 46.5104C85.8772 46.4351 85.7863 46.3749 85.6954 46.3297L84.7413 45.7572C84.6958 45.7121 84.6504 45.7572 84.6504 45.8024Z" fill="#942E0B"/>
<path d="M101.173 52.0086C101.592 52.0086 101.931 51.6713 101.931 51.2554C101.931 50.8394 101.592 50.5022 101.173 50.5022C100.755 50.5022 100.416 50.8394 100.416 51.2554C100.416 51.6713 100.755 52.0086 101.173 52.0086Z" fill="#C5C5C5"/>
<path d="M101.385 51.2555C101.385 51.376 101.279 51.4814 101.158 51.4814C101.037 51.4814 100.931 51.376 100.931 51.2555C100.931 51.135 101.037 51.0295 101.158 51.0295C101.294 51.0295 101.385 51.1199 101.385 51.2555Z" fill="#6F6F6E"/>
<path d="M105.02 50.3667C105.02 50.7885 104.687 51.1199 104.263 51.1199C103.839 51.1199 103.506 50.7885 103.506 50.3667C103.506 49.9449 103.839 49.6135 104.263 49.6135C104.687 49.6135 105.02 49.9449 105.02 50.3667Z" fill="#C5C5C5"/>
<path d="M104.49 50.3666C104.49 50.4871 104.384 50.5925 104.263 50.5925C104.142 50.5925 104.036 50.4871 104.036 50.3666C104.036 50.2461 104.142 50.1406 104.263 50.1406C104.384 50.1406 104.49 50.2461 104.49 50.3666Z" fill="#6F6F6E"/>
<path d="M93.0857 41.6751L93.6612 43.3773C93.6915 43.4676 93.7521 43.543 93.8278 43.5881L94.7062 44.1455C94.9789 44.3263 95.3424 44.1003 95.3121 43.784L95.1606 41.8106C95.1455 41.6449 95.0394 41.5094 94.888 41.4642C94.6305 41.3889 94.161 41.2533 93.5249 41.1629C93.222 41.1177 92.9948 41.3889 93.0857 41.6751Z" fill="#511608"/>
<path d="M96.2812 42.3078L96.8871 45.0946C96.9628 45.426 97.1748 45.7272 97.4626 45.908L99.2952 47.0378C100.143 47.565 101.264 47.3842 101.915 46.631L102.612 45.8176C102.976 45.3958 102.824 44.7481 102.309 44.5071L96.6902 41.9764C96.463 41.886 96.2358 42.0818 96.2812 42.3078Z" fill="#511608"/>
<path d="M124.694 43.4377C124.709 43.4226 124.709 43.4076 124.724 43.3925C125.073 42.8804 124.588 42.2176 123.982 42.3531C121.377 42.9707 116.546 42.3983 115.198 42.2326C114.986 42.2025 114.819 42.0519 114.774 41.841L113.29 33.9175C113.259 33.7217 113.381 33.5409 113.562 33.4958L119.181 32.0195C119.439 31.9593 119.605 31.7183 119.605 31.4772C119.605 31.432 119.605 31.4019 119.59 31.3567C119.514 31.0404 119.196 30.8446 118.878 30.9349L108.443 33.6916C107.686 33.8874 107.019 34.3694 106.611 35.0322L101.87 42.5038C101.643 42.8502 101.764 43.3172 102.127 43.5281L105.596 45.4713C106.05 45.7274 106.535 45.8629 107.05 45.8931L113.502 46.2998C113.714 46.3148 113.895 46.4805 113.926 46.6914L114.395 50.3669C114.471 51.4967 115.349 52.0541 115.349 52.0541C116.531 52.7319 119.333 53.1236 120.529 53.2591C121.029 53.3194 121.529 53.3043 122.029 53.229C122.256 53.1838 122.437 53.1386 122.574 53.0934C122.846 53.0031 123.058 52.7621 123.104 52.4758L124.316 46.0588C124.346 45.9081 124.406 45.7726 124.512 45.6671C124.785 45.3508 124.709 45.0194 124.603 44.8386C124.528 44.703 124.497 44.5524 124.497 44.3867L124.543 43.8294C124.558 43.6938 124.618 43.5582 124.694 43.4377ZM107.595 35.8306L107.989 35.2733C108.11 35.1076 108.292 34.972 108.489 34.9268L111.593 34.0832C111.745 34.038 111.896 34.1435 111.927 34.2941L113.244 41.841C113.274 42.0519 113.108 42.2326 112.896 42.2176L111.654 42.0669C111.26 42.0217 110.942 41.7506 110.836 41.3891L109.685 37.6081C109.458 36.87 108.791 36.3578 108.004 36.3578H107.852C107.595 36.3126 107.459 36.0415 107.595 35.8306ZM113.381 45.2152L107.216 44.7181C106.626 44.6729 106.065 44.5072 105.55 44.221L103.536 43.1063C103.369 43.0159 103.324 42.805 103.415 42.6544L106.323 37.8642C106.444 37.6684 106.656 37.5479 106.883 37.5479H107.731C108.049 37.5479 108.337 37.7587 108.428 38.06L109.549 41.7355C109.791 42.5038 110.442 43.0611 111.245 43.1816L113.274 43.4678C113.396 43.4829 113.502 43.5883 113.517 43.7088L113.683 44.929C113.699 45.0796 113.562 45.2303 113.381 45.2152ZM123.119 46.4504L122.241 51.798C122.21 51.9787 122.044 52.1294 121.862 52.1294C119.166 52.2499 117.091 51.572 116.152 51.1954C115.819 51.0599 115.592 50.7586 115.546 50.3971L115.183 46.7818C115.168 46.586 115.319 46.4052 115.531 46.4203C118.999 46.5408 121.741 46.2245 122.756 46.0889C122.983 46.0588 123.164 46.2395 123.119 46.4504ZM123.255 44.6127C123.24 44.7482 123.164 44.8537 123.028 44.8989C121.15 45.5466 116.682 45.3207 115.501 45.2453C115.334 45.2303 115.198 45.1098 115.183 44.9441L115.077 44.0704C115.047 43.8444 115.243 43.6486 115.471 43.6637C116.637 43.7842 118.257 43.9348 119.742 43.9047C121.196 43.8896 122.498 43.7239 123.058 43.6486C123.21 43.6335 123.331 43.754 123.316 43.8896L123.255 44.6127Z" fill="#C5C5C5"/>
<path d="M113.123 41.0726C112.956 41.0576 112.79 41.0425 112.638 41.0124C111.836 40.922 111.184 40.3647 110.957 39.5964L110.033 36.2824C110.291 36.0414 110.578 35.8155 110.881 35.6196L111.896 39.3403C111.987 39.6868 112.29 39.9429 112.653 40.0031L112.926 40.0333L113.123 41.0726Z" fill="#6F6F6E"/>
<path d="M124.573 42.5038C124.421 42.3833 124.209 42.323 123.982 42.3682C123.497 42.4887 122.937 42.549 122.331 42.5942C121.15 42.1121 117.454 41.5849 114.668 41.2384L114.471 40.2141L120.287 41.1179C121.014 41.2384 121.741 41.374 122.437 41.5698C124.452 42.1272 124.573 42.5038 124.573 42.5038Z" fill="#6F6F6E"/>
<path d="M123.331 43.9043L123.256 44.6123C123.24 44.7479 123.165 44.8533 123.028 44.8985C122.892 44.9437 122.756 44.9889 122.604 45.019C121.908 44.5972 116.516 43.7838 116.243 43.7386C117.303 43.829 118.576 43.9194 119.742 43.9043C120.62 43.8893 121.453 43.829 122.089 43.7688C122.907 44.3412 122.968 43.6633 122.968 43.6633C122.998 43.6633 123.028 43.6482 123.059 43.6482C123.21 43.6332 123.346 43.7537 123.331 43.9043Z" fill="#6F6F6E"/>
<path d="M123.119 46.4505L122.241 51.798C122.21 51.9487 122.104 52.0692 121.953 52.1144C121.953 51.8733 121.347 51.6173 121.347 51.6173L115.41 48.9811L115.183 46.7668C115.168 46.6463 115.228 46.5408 115.304 46.4806L115.516 46.4053L115.592 47.52C115.622 47.9116 115.865 48.2732 116.243 48.4238L121.65 50.7285C121.832 50.8038 122.029 50.6984 122.059 50.5026L122.756 46.0739C122.983 46.0588 123.165 46.2396 123.119 46.4505Z" fill="#6F6F6E"/>
<path d="M119.924 32.2753C119.742 32.3205 119.606 32.441 119.56 32.6218C119.454 33.0285 119.121 33.1792 119.121 33.1792L118.016 33.5407C117.713 33.6461 117.364 33.4804 117.258 33.1792C117.38 33.149 117.501 33.134 117.622 33.1038C117.819 33.0587 117.955 32.8478 117.894 32.6519L116.683 28.63C116.41 27.8617 116.637 27.214 116.819 26.8826C116.88 26.7772 116.895 26.6566 116.895 26.5361H117.47C117.819 26.5361 118.137 26.732 118.288 27.0483L118.485 27.4701C118.5 27.5153 118.546 27.5454 118.606 27.5454C118.652 27.5454 118.697 27.5755 118.727 27.6207L119.061 28.2986C119.106 28.389 119.197 28.4492 119.303 28.4492C119.409 28.4492 119.5 28.5095 119.545 28.5998C119.742 28.9915 120.303 30.0911 120.545 30.543C120.651 30.7389 120.727 30.9648 120.742 31.1908C120.772 31.9289 120.272 32.185 119.924 32.2753Z" fill="white"/>
<path d="M101.871 25.7831C103.325 26.3856 106.581 28.0878 108.808 31.9892C109.005 32.3357 109.429 32.5014 109.807 32.396L115.29 30.8745C115.759 30.739 116.032 30.2569 115.911 29.79C115.275 27.5154 112.836 21.3996 104.794 20.074C104.309 19.9986 103.825 20.2397 103.598 20.6765L101.492 24.7738C101.311 25.1654 101.477 25.6174 101.871 25.7831Z" fill="#B73715"/>
<path d="M81.2728 35.4084C81.6666 31.6576 83.2417 27.9218 85.877 25.2103C88.891 22.1223 93.1317 20.5256 97.1907 19.3808C97.4027 19.3205 97.6147 19.2602 97.8268 19.2151C97.9328 19.1849 97.9782 19.0494 97.9025 18.959L97.2664 18.1907C97.2209 18.1305 97.1301 18.1003 97.0543 18.1154C94.722 18.6426 92.435 19.5615 90.3449 20.6913C86.6949 22.6646 83.4386 25.5568 81.7878 29.4281C81.0153 31.2358 80.5761 33.4953 81.0305 35.4234C81.0759 35.559 81.2577 35.544 81.2728 35.4084Z" fill="#B73715"/>
<path d="M92.4194 50.5325C92.3891 50.5325 92.3739 50.5777 92.4042 50.5777C94.6003 51.1802 96.5692 52.2497 98.6744 53.1083C99.356 53.3795 100.083 53.5301 100.81 53.5753C102.945 53.6958 105.066 52.6866 106.777 51.4965C108.201 50.5174 109.64 49.011 110.018 47.2787C110.033 47.2034 109.973 47.113 109.897 47.113H109.579C109.519 47.113 109.473 47.1432 109.458 47.2034C108.807 49.1165 107.277 50.3969 105.596 51.4062C104.112 52.2949 102.4 52.8974 100.643 52.7619C99.4771 52.6715 98.3564 52.325 97.281 51.9183C96.4329 51.602 95.5847 51.2555 94.7063 50.9994C93.9642 50.7885 93.1918 50.6228 92.4194 50.5325Z" fill="#7C230A"/>
<path d="M93.6613 46.6911L99.1591 48.7549C99.9769 49.0561 100.871 49.1013 101.719 48.8603L101.931 48.8C102.961 48.4988 103.915 47.9866 104.717 47.2786L105.02 47.0225C105.126 46.9322 105.202 46.7966 105.217 46.661L105.263 46.3146C105.293 46.0886 105.187 45.8777 104.99 45.7723L103.703 45.0342C103.627 44.989 103.536 45.0643 103.551 45.1396C103.627 45.5162 103.536 45.9229 103.279 46.2242L102.34 47.3389C102.082 47.6401 101.749 47.8812 101.37 48.0318C100.855 48.2427 100.28 48.2578 99.7498 48.0921C99.2348 47.9414 98.7199 47.7908 98.1898 47.6703L93.7067 46.6008C93.631 46.6008 93.6159 46.661 93.6613 46.6911Z" fill="#7C230A"/>
<path d="M101.007 42.383L101.507 41.5395C101.553 41.4491 101.507 41.3436 101.416 41.3286C100.311 41.0424 94.4646 39.6113 90.1784 39.7921C90.0876 39.7921 90.0724 39.9427 90.1784 39.9427C92.2534 40.1235 97.115 40.726 100.826 42.4282C100.901 42.4734 100.977 42.4583 101.007 42.383Z" fill="#7C230A"/>
<path d="M81.4695 40.8916C81.3332 40.2891 81.0606 38.843 80.9697 37.0052C80.9697 36.9601 81.0455 36.945 81.0606 36.9902C81.3787 37.9844 82.56 40.982 85.1953 42.5938C85.271 42.639 85.2256 42.7595 85.1347 42.7445C84.3169 42.5034 82.8932 42.0365 81.8482 41.4038C81.6513 41.2833 81.515 41.1025 81.4695 40.8916Z" fill="#7C230A"/>
<path d="M102.718 40.9521L105.702 42.7446C106.323 43.1212 107.141 42.9254 107.504 42.2927C107.883 41.6601 107.656 40.8466 107.02 40.4851L104.006 38.8281C103.915 38.7829 103.809 38.8131 103.763 38.8884L102.658 40.7111C102.612 40.7864 102.627 40.9069 102.718 40.9521Z" fill="white"/>
<path d="M106.504 42.5037C106.923 42.5037 107.262 42.1665 107.262 41.7505C107.262 41.3345 106.923 40.9973 106.504 40.9973C106.086 40.9973 105.747 41.3345 105.747 41.7505C105.747 42.1665 106.086 42.5037 106.504 42.5037Z" fill="#6F6F6E"/>
<path d="M106.505 41.9766C106.63 41.9766 106.732 41.8754 106.732 41.7506C106.732 41.6258 106.63 41.5247 106.505 41.5247C106.379 41.5247 106.277 41.6258 106.277 41.7506C106.277 41.8754 106.379 41.9766 106.505 41.9766Z" fill="#C5C5C5"/>
<path d="M106.504 31.9895C106.504 32.5468 106.05 32.9987 105.489 32.9987C104.929 32.9987 104.475 32.5468 104.475 31.9895C104.475 31.4321 104.929 30.9802 105.489 30.9802C106.05 30.9802 106.504 31.4321 106.504 31.9895Z" fill="#C5C5C5"/>
<path d="M106.201 31.9892C106.201 32.3809 105.883 32.6972 105.489 32.6972C105.095 32.6972 104.777 32.3809 104.777 31.9892C104.777 31.5976 105.095 31.2812 105.489 31.2812C105.883 31.2963 106.201 31.5976 106.201 31.9892Z" fill="#6F6F6E"/>
<path d="M105.928 31.9893C105.928 32.2303 105.731 32.4262 105.489 32.4262C105.247 32.4262 105.05 32.2303 105.05 31.9893C105.05 31.7483 105.247 31.5525 105.489 31.5525C105.731 31.5525 105.928 31.7483 105.928 31.9893Z" fill="#C5C5C5"/>
<path d="M94.7668 48.8306C94.7668 49.3879 94.3124 49.8398 93.752 49.8398C93.1917 49.8398 92.7373 49.3879 92.7373 48.8306C92.7373 48.2732 93.1917 47.8213 93.752 47.8213C94.3124 47.8213 94.7668 48.2732 94.7668 48.8306Z" fill="#C5C5C5"/>
<path d="M94.4637 48.8303C94.4637 49.222 94.1457 49.5383 93.7519 49.5383C93.3581 49.5383 93.04 49.222 93.04 48.8303C93.04 48.4387 93.3581 48.1223 93.7519 48.1223C94.1457 48.1223 94.4637 48.4387 94.4637 48.8303Z" fill="#6F6F6E"/>
<path d="M94.1909 48.8304C94.1909 49.0714 93.9941 49.2672 93.7517 49.2672C93.5094 49.2672 93.3125 49.0714 93.3125 48.8304C93.3125 48.5894 93.5094 48.3936 93.7517 48.3936C93.9941 48.3936 94.1909 48.5894 94.1909 48.8304Z" fill="#C5C5C5"/>
<path d="M107.52 48.2729C107.52 48.8303 107.065 49.2822 106.505 49.2822C105.945 49.2822 105.49 48.8303 105.49 48.2729C105.49 47.7156 105.945 47.2637 106.505 47.2637C107.065 47.2637 107.52 47.7156 107.52 48.2729Z" fill="#C5C5C5"/>
<path d="M107.217 48.2729C107.217 48.6646 106.899 48.9809 106.505 48.9809C106.111 48.9809 105.793 48.6646 105.793 48.2729C105.793 47.8813 106.111 47.5649 106.505 47.5649C106.899 47.5649 107.217 47.8813 107.217 48.2729Z" fill="#6F6F6E"/>
<path d="M106.944 48.273C106.944 48.514 106.747 48.7099 106.505 48.7099C106.262 48.7099 106.065 48.514 106.065 48.273C106.065 48.032 106.262 47.8362 106.505 47.8362C106.747 47.8362 106.944 48.032 106.944 48.273Z" fill="#C5C5C5"/>
<path d="M85.7254 25.301C85.2862 27.0032 84.6198 28.6301 83.8625 30.1214C81.3635 35.017 77.5166 39.0992 72.8518 42.0366C71.3069 43.0158 69.8681 43.7539 68.5505 44.2962C67.5963 44.7029 66.7179 45.0042 65.9 45.2301C65.8394 45.2452 65.7637 45.2602 65.7031 45.2904C65.7031 45.2602 65.7031 45.2301 65.7183 45.2151C65.8546 44.1757 66.0818 43.1513 66.3998 42.1571C67.0208 40.1085 67.9598 38.1502 69.126 36.3426C70.1256 34.776 71.3069 33.2998 72.6397 31.9742C77.0622 27.5455 81.833 25.8283 85.7254 25.301Z" fill="#EDA548"/>
<path d="M93.9342 25.9185C96.7815 35.4537 86.2706 45.5313 86.2706 45.5313C82.4388 48.8603 79.1068 50.8487 76.3201 52.0387C75.3659 52.4454 74.4875 52.7467 73.6696 52.9727C69.0503 54.2681 66.5513 53.1534 66.5513 53.1534C66.3847 53.0781 66.2332 52.1894 66.1726 52.0237C65.5214 49.7943 65.4002 47.5197 65.688 45.2903C65.7486 45.2752 65.8243 45.2601 65.8849 45.23C66.7027 45.004 67.5812 44.6877 68.5353 44.2961C69.853 43.7387 71.2766 43.0006 72.8366 42.0215C77.5014 39.0841 81.3635 35.0169 83.8474 30.1062C84.6046 28.6149 85.271 26.988 85.7102 25.2858C90.4356 24.6682 93.8736 25.7679 93.9342 25.9185Z" fill="#DC911B"/>
<path d="M93.9337 25.9338C94.0094 26.0845 99.0983 35.6498 88.1027 47.3693L88.0876 47.3542L88.1027 47.3693C76.4105 58.215 66.8385 53.3194 66.5508 53.1688C66.8083 53.2742 73.9872 56.1815 86.2701 45.5466C86.2701 45.5466 96.7811 35.454 93.9337 25.9338Z" fill="#BA7315"/>
<path d="M93.3439 25.8734C93.2985 25.9186 93.253 25.9336 93.1925 25.9186C93.0259 25.8885 92.8593 25.8583 92.6927 25.8433C92.6018 25.8282 92.5261 25.7378 92.5412 25.6474C92.5563 25.5571 92.6472 25.4817 92.7381 25.4968C92.9047 25.5269 93.0864 25.542 93.253 25.5721C93.3439 25.5872 93.4045 25.6776 93.3893 25.7679C93.3742 25.8282 93.3591 25.8583 93.3439 25.8734ZM66.4759 52.5359C66.4608 52.551 66.4305 52.5811 66.385 52.5811C66.2942 52.5962 66.2033 52.551 66.173 52.4455C66.1427 52.2798 66.0973 52.1141 66.067 51.9334C66.0518 51.843 66.1124 51.7526 66.2033 51.7375C66.2942 51.7225 66.385 51.7827 66.4002 51.8731C66.4305 52.0388 66.4608 52.2045 66.4911 52.3702C66.5365 52.4455 66.5062 52.5058 66.4759 52.5359ZM92.3292 25.7378C92.2989 25.7679 92.2383 25.7981 92.1929 25.783C92.0263 25.7679 91.8597 25.7529 91.6931 25.7529C91.6022 25.7529 91.5265 25.6625 91.5265 25.5721C91.5265 25.4817 91.6173 25.4064 91.7082 25.4064C91.8748 25.4215 92.0565 25.4215 92.2231 25.4365C92.314 25.4516 92.3897 25.5269 92.3746 25.6173C92.3746 25.6776 92.3443 25.7077 92.3292 25.7378ZM66.2942 51.5417C66.2639 51.5718 66.2336 51.5869 66.1882 51.5869C66.0973 51.602 66.0064 51.5266 65.9913 51.4363C65.9761 51.2706 65.9458 51.0898 65.9458 50.9241C65.9307 50.8337 66.0064 50.7433 66.0973 50.7433C66.1882 50.7283 66.279 50.8036 66.279 50.894C66.2942 51.0597 66.3093 51.2254 66.3245 51.3911C66.3548 51.4513 66.3396 51.4965 66.2942 51.5417ZM91.2993 25.6926C91.269 25.7228 91.2235 25.7378 91.1781 25.7378C91.0115 25.7378 90.8449 25.7378 90.6783 25.7529C90.5874 25.7529 90.4966 25.6776 90.4966 25.5872C90.4966 25.4968 90.5723 25.4064 90.6632 25.4064C90.8298 25.4064 91.0115 25.3914 91.1781 25.3914C91.269 25.3914 91.3447 25.4667 91.3447 25.5571C91.3447 25.6173 91.3296 25.6625 91.2993 25.6926ZM66.2184 50.5174C66.1882 50.5475 66.1427 50.5626 66.0973 50.5626C66.0064 50.5626 65.9155 50.4873 65.9155 50.3969C65.9155 50.2312 65.9004 50.0504 65.9004 49.8847C65.9004 49.7943 65.9761 49.719 66.067 49.719C66.1579 49.719 66.2336 49.7943 66.2336 49.8847C66.2336 50.0504 66.2336 50.2161 66.2487 50.3818C66.2639 50.4421 66.2487 50.4873 66.2184 50.5174ZM90.2694 25.7378C90.2391 25.7679 90.2088 25.783 90.1634 25.783C89.9968 25.7981 89.8302 25.8131 89.6636 25.8282C89.5727 25.8433 89.4818 25.7679 89.4667 25.6776C89.4515 25.5872 89.5273 25.4968 89.6181 25.4817C89.7847 25.4667 89.9665 25.4516 90.1331 25.4365C90.224 25.4365 90.3148 25.4968 90.3148 25.5872C90.33 25.6474 90.2997 25.6926 90.2694 25.7378ZM66.2184 49.5081C66.1882 49.5382 66.1427 49.5533 66.0973 49.5533C66.0064 49.5533 65.9307 49.478 65.9307 49.3726C65.9307 49.2069 65.9458 49.0261 65.961 48.8604C65.961 48.77 66.0518 48.6947 66.1427 48.6947C66.2336 48.6947 66.3093 48.7851 66.3093 48.8755C66.2942 49.0411 66.2942 49.2069 66.279 49.3726C66.2639 49.4328 66.2336 49.478 66.2184 49.5081ZM89.2546 25.8433C89.2244 25.8734 89.1941 25.8885 89.1638 25.8885C88.9972 25.9186 88.8306 25.9336 88.664 25.9638C88.5731 25.9788 88.4822 25.9186 88.4671 25.8282C88.4519 25.7378 88.5125 25.6474 88.6034 25.6324C88.77 25.6022 88.9517 25.5721 89.1183 25.5571C89.2092 25.542 89.3001 25.6022 89.3152 25.7077C89.3152 25.7529 89.2849 25.8131 89.2546 25.8433ZM66.279 48.4838C66.2487 48.5139 66.1882 48.5441 66.1427 48.529C66.0518 48.5139 65.9761 48.4386 65.9913 48.3482C66.0064 48.1825 66.0216 48.0018 66.0518 47.8361C66.067 47.7457 66.1427 47.6704 66.2487 47.6854C66.3396 47.7005 66.4153 47.7758 66.4002 47.8813C66.385 48.047 66.3548 48.2127 66.3396 48.3784C66.3245 48.4235 66.2942 48.4537 66.279 48.4838ZM88.2399 26.024C88.2248 26.0391 88.1945 26.0692 88.149 26.0692C87.9824 26.0993 87.8158 26.1445 87.6492 26.1747C87.5584 26.1897 87.4675 26.1445 87.4372 26.0542C87.422 25.9638 87.4675 25.8734 87.5584 25.8433C87.725 25.7981 87.8916 25.7679 88.0582 25.7228C88.149 25.7077 88.2399 25.7679 88.255 25.8583C88.3005 25.9336 88.2853 25.9788 88.2399 26.024ZM66.4002 47.4745C66.3699 47.5047 66.3093 47.5348 66.2487 47.5197C66.1579 47.5047 66.0973 47.4143 66.1124 47.3239C66.1427 47.1582 66.173 46.9925 66.2033 46.8117C66.2184 46.7214 66.3093 46.6611 66.4002 46.6762C66.4911 46.6912 66.5516 46.7816 66.5365 46.872C66.5062 47.0377 66.4759 47.2034 66.4456 47.3691C66.4456 47.4143 66.4305 47.4444 66.4002 47.4745ZM87.2554 26.265C87.2403 26.2801 87.21 26.2952 87.1797 26.3102C87.0131 26.3554 86.8465 26.4006 86.6951 26.4458C86.6042 26.4759 86.5133 26.4157 86.483 26.3253C86.4527 26.2349 86.5133 26.1445 86.6042 26.1144C86.7708 26.0692 86.9374 26.024 87.104 25.9788C87.1949 25.9487 87.2857 26.009 87.316 26.0993C87.316 26.1596 87.2857 26.2199 87.2554 26.265ZM66.5971 46.4653C66.5516 46.5105 66.4911 46.5255 66.4456 46.5105C66.3548 46.4954 66.2942 46.405 66.3093 46.3146C66.3396 46.1489 66.385 45.9832 66.4305 45.8175C66.4608 45.7272 66.5516 45.6669 66.6425 45.697C66.7334 45.7272 66.794 45.8176 66.7637 45.9079C66.7182 46.0736 66.688 46.2393 66.6425 46.405C66.6274 46.4201 66.6122 46.4502 66.5971 46.4653ZM86.271 26.5513C86.2558 26.5663 86.2256 26.5814 86.1953 26.5964C86.0287 26.6416 85.8772 26.7019 85.7106 26.7621C85.6197 26.7923 85.5289 26.7471 85.4986 26.6567C85.4683 26.5663 85.5137 26.4759 85.6046 26.4458C85.7712 26.3856 85.9378 26.3404 86.0892 26.2801C86.1801 26.25 86.271 26.2952 86.3013 26.3856C86.3316 26.4458 86.3013 26.5061 86.271 26.5513ZM66.8394 45.4861C66.794 45.5313 66.7334 45.5464 66.6728 45.5313C66.5819 45.5012 66.5214 45.4108 66.5516 45.3204C66.5971 45.1547 66.6425 44.9891 66.7031 44.8234C66.7334 44.733 66.8243 44.6878 66.9151 44.7179C67.006 44.748 67.0514 44.8384 67.0212 44.9288C66.9757 45.0945 66.9303 45.2451 66.8848 45.4108C66.8697 45.441 66.8546 45.456 66.8394 45.4861ZM85.3017 26.8977C85.2865 26.9128 85.2714 26.9278 85.2411 26.9429C85.0896 27.0032 84.923 27.0634 84.7716 27.1237C84.6807 27.1538 84.5898 27.1086 84.5444 27.0333C84.5141 26.9429 84.5444 26.8525 84.6353 26.8073C84.8019 26.7471 84.9533 26.6868 85.1199 26.6266C85.2108 26.5964 85.3017 26.6416 85.3471 26.732C85.3623 26.7772 85.3471 26.8525 85.3017 26.8977ZM67.1423 44.507C67.0969 44.5522 67.0363 44.5673 66.9606 44.5522C66.8697 44.5221 66.8243 44.4317 66.8546 44.3413C66.9151 44.1756 66.9606 44.025 67.0212 43.8593C67.0514 43.7689 67.1575 43.7237 67.2483 43.7538C67.3392 43.784 67.3846 43.8894 67.3544 43.9798C67.2938 44.1455 67.2332 44.2961 67.1878 44.4618C67.1726 44.4618 67.1575 44.492 67.1423 44.507ZM84.3475 27.2743C84.3324 27.2894 84.3172 27.3044 84.2869 27.3044C84.1355 27.3647 83.9689 27.44 83.8174 27.5003C83.7266 27.5454 83.6357 27.5003 83.5903 27.4099C83.5448 27.3195 83.5903 27.2291 83.6811 27.1839C83.8326 27.1086 83.9992 27.0483 84.1506 26.9881C84.2415 26.958 84.3324 26.9881 84.3778 27.0785C84.4081 27.1538 84.393 27.2291 84.3475 27.2743ZM67.4907 43.558C67.4452 43.6032 67.3695 43.6183 67.3089 43.6032C67.218 43.5731 67.1726 43.4676 67.218 43.3773C67.2786 43.2266 67.3392 43.0609 67.4149 42.8952C67.4452 42.8048 67.5512 42.7747 67.6421 42.8048C67.733 42.835 67.7633 42.9404 67.733 43.0308C67.6724 43.1814 67.5967 43.3471 67.5361 43.4978C67.521 43.5128 67.5058 43.5429 67.4907 43.558ZM83.4085 27.681C83.3934 27.6961 83.3782 27.7111 83.3631 27.7111C83.2116 27.7865 83.0602 27.8618 82.9087 27.922C82.8178 27.9672 82.727 27.922 82.6815 27.8467C82.6361 27.7563 82.6815 27.666 82.7573 27.6208C82.9087 27.5454 83.0602 27.4701 83.2268 27.3948C83.3176 27.3496 83.4085 27.3948 83.4539 27.4701C83.4691 27.5605 83.4539 27.6358 83.4085 27.681ZM82.4846 28.1329C82.4695 28.148 82.4543 28.1631 82.4392 28.1631C82.2877 28.2384 82.1363 28.3137 81.9848 28.389C81.894 28.4342 81.8031 28.4041 81.7577 28.3137C81.7122 28.2233 81.7425 28.1329 81.8334 28.0877C81.9848 28.0124 82.1363 27.9371 82.2877 27.8467C82.3786 27.8015 82.4695 27.8317 82.5149 27.922C82.5452 27.9974 82.5301 28.0727 82.4846 28.1329ZM67.8844 42.609C67.839 42.6542 67.7633 42.6693 67.6876 42.6391C67.5967 42.5939 67.5664 42.5036 67.5967 42.4132C67.6724 42.2625 67.733 42.0968 67.8087 41.9462C67.8542 41.8558 67.945 41.8257 68.0359 41.8709C68.1268 41.9161 68.1571 42.0065 68.1116 42.0968C68.0359 42.2475 67.9753 42.3981 67.8996 42.5488C67.9147 42.5789 67.8996 42.5939 67.8844 42.609ZM81.5759 28.5999C81.5608 28.615 81.5456 28.615 81.5305 28.63C81.379 28.7053 81.2276 28.7957 81.0913 28.871C81.0155 28.9162 80.9095 28.8861 80.8641 28.8108C80.8186 28.7355 80.8489 28.63 80.9247 28.5848C81.0761 28.4945 81.2276 28.4191 81.379 28.3288C81.4547 28.2836 81.5608 28.3137 81.6062 28.4041C81.6516 28.4643 81.6365 28.5547 81.5759 28.5999ZM68.3237 41.6901C68.2782 41.7353 68.1874 41.7504 68.1268 41.7203C68.0359 41.6751 68.0056 41.5696 68.051 41.4943C68.1268 41.3437 68.2025 41.193 68.2934 41.0424C68.3388 40.952 68.4448 40.9219 68.5205 40.9671C68.6114 41.0123 68.6417 41.1177 68.5963 41.193C68.5205 41.3437 68.4448 41.4943 68.3691 41.6449C68.3539 41.66 68.3388 41.6751 68.3237 41.6901ZM80.6823 29.1121C80.6672 29.1271 80.6672 29.1271 80.652 29.1422C80.5006 29.2326 80.3643 29.3079 80.2128 29.3983C80.1371 29.4435 80.0311 29.4284 79.9705 29.338C79.9251 29.2627 79.9553 29.1572 80.0311 29.097C80.1825 29.0066 80.3188 28.9162 80.4703 28.8409C80.546 28.7957 80.652 28.8258 80.6975 28.9012C80.7581 28.9614 80.7429 29.0518 80.6823 29.1121ZM68.8083 40.7863C68.7629 40.8315 68.672 40.8466 68.6114 40.8164C68.5357 40.7713 68.5054 40.6658 68.5508 40.5905C68.6266 40.4399 68.7174 40.2892 68.8083 40.1386C68.8537 40.0633 68.9598 40.0331 69.0355 40.0783C69.1112 40.1235 69.1415 40.229 69.0961 40.3043C69.0052 40.4549 68.9295 40.6056 68.8386 40.7411C68.8235 40.7713 68.8083 40.7863 68.8083 40.7863ZM79.8039 29.6393C79.7887 29.6543 79.7887 29.6543 79.7736 29.6694C79.6221 29.7598 79.4858 29.8502 79.3344 29.9406C79.2587 29.9857 79.1526 29.9707 79.0921 29.8954C79.0466 29.82 79.0618 29.7146 79.1375 29.6543C79.2738 29.564 79.4253 29.4736 79.5767 29.3832C79.6524 29.338 79.7585 29.3531 79.819 29.4435C79.8796 29.4886 79.8645 29.579 79.8039 29.6393ZM69.3233 39.9126C69.2627 39.9729 69.1869 39.9729 69.1112 39.9428C69.0355 39.8976 69.0052 39.7921 69.0506 39.7017C69.1415 39.5511 69.2324 39.4155 69.3233 39.2649C69.3687 39.1896 69.4747 39.1595 69.5656 39.2046C69.6413 39.2498 69.6716 39.3553 69.6262 39.4457C69.5353 39.5963 69.4444 39.7319 69.3535 39.8825C69.3384 39.8825 69.3233 39.8976 69.3233 39.9126ZM78.9406 30.1816C78.9255 30.1966 78.9255 30.1966 78.9103 30.1966C78.7589 30.287 78.6226 30.3774 78.4862 30.4828C78.4105 30.528 78.3045 30.513 78.2439 30.4376C78.1985 30.3623 78.2136 30.2569 78.2894 30.1966C78.4257 30.1063 78.5771 30.0008 78.7134 29.9104C78.7892 29.8652 78.8952 29.8803 78.9558 29.9556C79.0163 30.0309 79.0012 30.1213 78.9406 30.1816ZM69.8685 39.054C69.8079 39.1143 69.717 39.1143 69.6565 39.0691C69.5807 39.0239 69.5504 38.9184 69.611 38.8281C69.7019 38.6925 69.7928 38.5418 69.8988 38.4063C69.9594 38.331 70.0654 38.3159 70.1411 38.3611C70.2168 38.4213 70.232 38.5268 70.1865 38.6021C70.0957 38.7377 69.9897 38.8883 69.8988 39.0239C69.8836 39.0389 69.8685 39.0389 69.8685 39.054ZM78.0925 30.754C78.0925 30.754 78.0773 30.7691 78.0622 30.7691C77.9259 30.8745 77.7744 30.9649 77.6381 31.0553C77.5624 31.1155 77.4564 31.0854 77.3958 31.0101C77.3352 30.9347 77.3655 30.8293 77.4412 30.7691C77.5775 30.6787 77.7138 30.5732 77.8653 30.4678C77.941 30.4075 78.047 30.4376 78.1076 30.513C78.153 30.6033 78.153 30.6937 78.0925 30.754ZM70.444 38.2104C70.3834 38.2707 70.2926 38.2707 70.2168 38.2255C70.1411 38.1653 70.126 38.0598 70.1714 37.9845C70.2623 37.8489 70.3683 37.7134 70.4743 37.5627C70.5349 37.4874 70.6409 37.4723 70.7166 37.5326C70.7924 37.5928 70.8075 37.6983 70.7469 37.7736C70.6409 37.9092 70.55 38.0448 70.444 38.1803C70.4592 38.1954 70.444 38.1954 70.444 38.2104ZM77.2595 31.3415L77.2443 31.3565C77.108 31.462 76.9717 31.5524 76.8354 31.6578C76.7597 31.7181 76.6536 31.703 76.5931 31.6277C76.5325 31.5524 76.5476 31.4469 76.6234 31.3867C76.7597 31.2812 76.896 31.1908 77.0323 31.0854C77.108 31.0251 77.214 31.0402 77.2746 31.1155C77.32 31.1908 77.32 31.2812 77.2595 31.3415ZM71.0498 37.382C70.9893 37.4422 70.8984 37.4422 70.8227 37.397C70.7469 37.3368 70.7318 37.2313 70.7924 37.156C70.8984 37.0204 71.0044 36.8849 71.1104 36.7493C71.171 36.674 71.277 36.6589 71.3527 36.7192C71.4285 36.7794 71.4436 36.8849 71.383 36.9602C71.277 37.0957 71.171 37.2313 71.065 37.3669C71.065 37.382 71.0498 37.382 71.0498 37.382ZM76.4265 31.9591L76.4113 31.9741C76.275 32.0796 76.1387 32.185 76.0024 32.2905C75.9267 32.3507 75.8206 32.3357 75.7601 32.2603C75.6995 32.185 75.7146 32.0796 75.7904 32.0193C75.9267 31.9139 76.063 31.8084 76.1993 31.703C76.275 31.6427 76.381 31.6578 76.4416 31.7331C76.5022 31.7934 76.487 31.8988 76.4265 31.9591ZM71.6859 36.5836C71.6254 36.6438 71.5193 36.6438 71.4588 36.5986C71.383 36.5384 71.3679 36.4329 71.4285 36.3576C71.5345 36.2221 71.6405 36.1016 71.7617 35.966C71.8223 35.8907 71.9283 35.8907 72.004 35.9509C72.0797 36.0112 72.0797 36.1166 72.0191 36.1919C71.9131 36.3124 71.8071 36.448 71.6859 36.5836ZM75.6238 32.5917C75.6238 32.5917 75.6086 32.5917 75.6238 32.5917C75.4723 32.7122 75.336 32.8328 75.2148 32.9231C75.1391 32.9834 75.0331 32.9683 74.9725 32.893C74.9119 32.8177 74.9271 32.7122 75.0028 32.652C75.124 32.5466 75.2603 32.4411 75.3966 32.3206C75.4723 32.2603 75.5783 32.2754 75.6389 32.3507C75.6843 32.426 75.6843 32.5164 75.6238 32.5917ZM72.3372 35.8003C72.2766 35.8605 72.1706 35.8605 72.11 35.8153C72.0343 35.7551 72.0343 35.6496 72.0949 35.5743C72.2009 35.4388 72.3221 35.3182 72.4281 35.1827C72.4887 35.1074 72.5947 35.1074 72.6704 35.1676C72.7461 35.2279 72.7461 35.3333 72.6855 35.4086C72.5644 35.5442 72.4584 35.6647 72.3372 35.8003ZM73.0187 35.0471C72.9582 35.1074 72.8521 35.1074 72.7764 35.0471C72.7007 34.9868 72.7007 34.8814 72.7613 34.8061C72.8824 34.6856 72.9885 34.55 73.1096 34.4295C73.1702 34.3542 73.2762 34.3542 73.3519 34.4144C73.4277 34.4747 73.4277 34.5801 73.3671 34.6554C73.2459 34.791 73.1399 34.9115 73.0187 35.0471C73.0187 35.032 73.0187 35.032 73.0187 35.0471ZM74.8362 33.2395C74.821 33.2395 74.821 33.2395 74.8362 33.2395C74.6544 33.3901 74.5181 33.5106 74.4424 33.5859C74.3667 33.6462 74.2607 33.6462 74.2001 33.5709C74.1395 33.4956 74.1395 33.3901 74.2152 33.3299C74.291 33.2545 74.4273 33.1491 74.609 32.9985C74.6847 32.9382 74.7908 32.9533 74.8513 33.0135C74.8968 33.0738 74.8968 33.1792 74.8362 33.2395ZM73.7154 34.2939C73.6549 34.3542 73.5488 34.3542 73.4731 34.2939C73.3974 34.2337 73.3974 34.1282 73.4731 34.0529C73.5943 33.9324 73.7154 33.8119 73.8366 33.6914C73.8972 33.6161 74.0183 33.6161 74.0789 33.6914C74.1395 33.7516 74.1546 33.8721 74.0789 33.9324C73.9578 34.0529 73.8366 34.1734 73.7154 34.2939Z" fill="#BA7315"/>
<path d="M66.3851 42.1572L76.3206 52.0389C75.3664 52.4456 74.488 52.7469 73.6701 52.9729L73.5035 52.9578L65.7188 45.2151C65.8399 44.1908 66.0671 43.1665 66.3851 42.1572Z" fill="white"/>
<path d="M82.6514 25.9488L92.8594 36.1016C93.2683 35.1526 93.5864 34.294 93.8135 33.4805L93.8438 33.36L85.741 25.301C84.7111 25.4366 83.6661 25.6475 82.6514 25.9488Z" fill="white"/>
<path d="M73.7764 33.2242C73.0948 33.9021 72.4436 34.595 71.8226 35.3181C70.7624 36.5533 69.778 37.8487 68.9601 39.2647C68.9147 39.3551 68.9298 39.4605 69.0056 39.5509L69.4448 39.9878C69.5508 40.0932 69.7325 40.0781 69.8083 39.9576C69.99 39.6413 70.3232 39.1743 70.3384 39.1291C70.9442 38.2103 71.6106 37.3215 72.3073 36.4629C72.9888 35.6193 73.6552 34.7758 74.4276 34.0075C75.3061 33.1188 76.3057 32.3656 77.2598 31.5522C78.214 30.799 79.1984 30.0609 80.2283 29.4282C80.3646 29.3378 80.5161 29.2474 80.6675 29.1721C80.7887 29.0968 80.819 28.9311 80.713 28.8257C80.5615 28.675 80.3646 28.4792 80.2435 28.3587C80.1678 28.2834 80.0617 28.2683 79.9709 28.3135C78.3352 29.2625 76.8358 30.4224 75.4272 31.6727C74.8668 32.1848 74.3065 32.697 73.7764 33.2242Z" fill="#D9D9D9"/>
<path d="M70.6561 39.4153C70.4441 39.2044 69.8231 38.5717 69.4294 38.0295C69.3536 37.9391 69.2173 37.9391 69.1567 38.0295L68.9599 38.3307C68.9144 38.391 68.9144 38.4663 68.9599 38.5266C69.1416 38.7826 69.702 39.5358 70.2169 40.0178C70.3078 40.1082 70.4441 40.1233 70.5501 40.0781C70.7016 40.0178 70.7925 39.8672 70.7622 39.7166L70.747 39.5961C70.747 39.5207 70.7167 39.4605 70.6561 39.4153Z" fill="white"/>
<path d="M80.107 30.0157C79.895 29.8048 79.2589 29.1872 78.7137 28.7955C78.6228 28.7202 78.6228 28.5847 78.7137 28.5244L79.0166 28.3286C79.0772 28.2834 79.1529 28.2834 79.2135 28.3286C79.4709 28.5093 80.2282 29.0667 80.7129 29.5788C80.8037 29.6692 80.8189 29.8048 80.7734 29.9102C80.7129 30.0609 80.5614 30.1513 80.4099 30.1211L80.2888 30.1061C80.2282 30.1061 80.1525 30.0609 80.107 30.0157Z" fill="white"/>
<path d="M71.5341 38.5867C71.2009 38.3307 70.3225 37.6227 70.0802 36.7339C70.065 36.6737 70.0802 36.6134 70.1105 36.5682L70.3073 36.282C70.3528 36.2218 70.4285 36.2218 70.4739 36.282C70.7011 36.5983 71.3675 37.472 71.9885 37.8486C72.1096 37.9239 72.1854 38.0595 72.1854 38.2101V38.2704C72.1854 38.4662 72.0339 38.647 71.8219 38.662C71.731 38.6771 71.625 38.647 71.5341 38.5867Z" fill="white"/>
<path d="M79.2885 30.8893C79.031 30.5579 78.3192 29.6842 77.4256 29.4432C77.365 29.4281 77.3044 29.4432 77.259 29.4733L76.9712 29.6691C76.9106 29.7143 76.9106 29.7896 76.9712 29.8348C77.2893 30.0608 78.1677 30.7236 78.5463 31.3412C78.6221 31.4617 78.7584 31.537 78.9098 31.537H78.9704C79.1673 31.537 79.3491 31.3864 79.3642 31.1755C79.3642 31.07 79.3491 30.9646 79.2885 30.8893Z" fill="white"/>
<path d="M71.3376 35.0619L71.6102 34.7004C71.6556 34.6251 71.7617 34.6402 71.8071 34.7004C72.004 35.0017 72.5189 35.6946 73.3368 36.267C73.4882 36.3725 73.5488 36.5834 73.4882 36.7641C73.3671 37.0804 72.8673 37.201 72.6401 36.9599C72.3523 36.6587 71.7162 35.9507 71.3224 35.1824C71.3073 35.1373 71.3073 35.0921 71.3376 35.0619Z" fill="white"/>
<path d="M75.7302 30.6934L75.3667 30.9646C75.291 31.0097 75.3061 31.1152 75.3667 31.1604C75.6696 31.3562 76.3663 31.8684 76.9418 32.6818C77.0478 32.8324 77.2599 32.8927 77.4416 32.8324C77.7597 32.7119 77.8808 32.2148 77.6385 31.9889C77.3356 31.7027 76.6238 31.07 75.8514 30.6784C75.8211 30.6633 75.7605 30.6633 75.7302 30.6934Z" fill="white"/>
<path d="M72.6095 33.5106L72.8215 33.2997C72.9124 33.2093 73.0487 33.2093 73.1244 33.2997L74.7904 34.9567C74.8813 35.0471 74.8813 35.1827 74.7904 35.258L74.4875 35.5593C74.3966 35.6496 74.2603 35.6346 74.1695 35.5442L72.6095 33.7968C72.5186 33.7215 72.5338 33.5859 72.6095 33.5106Z" fill="white"/>
<path d="M74.1698 31.959L73.9578 32.1698C73.8669 32.2602 73.8669 32.3958 73.9578 32.4711L75.6238 34.1281C75.7147 34.2185 75.851 34.2185 75.9267 34.1281L76.2296 33.8268C76.3205 33.7365 76.3053 33.6009 76.2145 33.5105L74.4727 31.9439C74.3819 31.8686 74.2607 31.8686 74.1698 31.959Z" fill="white"/>
<path d="M98.6901 23.4334L98.9475 22.9664C99.0233 22.8308 99.1444 22.7103 99.2807 22.635L99.7502 22.3789L99.2807 22.1228C99.1444 22.0475 99.0233 21.927 98.9475 21.7914L98.6901 21.3245L98.4326 21.7914C98.3569 21.927 98.2357 22.0475 98.0994 22.1228L97.6299 22.3789L98.0994 22.635C98.2357 22.7103 98.3569 22.8308 98.4326 22.9664L98.6901 23.4334Z" fill="#F7F09A"/>
<path d="M90.1028 12L90.6177 12.949C90.7692 13.2352 91.0115 13.4612 91.2993 13.6269L92.2534 14.139L91.2993 14.6512C91.0115 14.8018 90.7843 15.0428 90.6177 15.329L90.1028 16.2781L89.5879 15.329C89.4364 15.0428 89.1941 14.8169 88.9063 14.6512L87.9521 14.139L88.9063 13.6269C89.1941 13.4762 89.4213 13.2352 89.5879 12.949L90.1028 12Z" fill="#F9DD29"/>
<path d="M86.2252 16.8655L86.4827 17.3324C86.5584 17.468 86.6796 17.5885 86.8159 17.6638L87.2854 17.9199L86.8159 18.176C86.6796 18.2513 86.5584 18.3718 86.4827 18.5074L86.2252 18.9744L85.9677 18.5074C85.892 18.3718 85.7709 18.2513 85.6345 18.176L85.165 17.9199L85.6345 17.6638C85.7709 17.5885 85.892 17.468 85.9677 17.3324L86.2252 16.8655Z" fill="#F9DD29"/>
<path d="M67.8538 31.477L67.3388 30.528C67.1874 30.2418 66.9451 30.0159 66.6573 29.8502L65.7031 29.338L66.6573 28.8258C66.9451 28.6752 67.1722 28.4342 67.3388 28.148L67.8538 27.199L68.3687 28.148C68.5202 28.4342 68.7625 28.6601 69.0503 28.8258L70.0044 29.338L69.0503 29.8502C68.7625 30.0008 68.5353 30.2418 68.3687 30.528L67.8538 31.477Z" fill="#F9DD29"/>
<path d="M72.3365 26.0093L72.0791 25.5423C72.0033 25.4067 71.8822 25.2862 71.7459 25.2109L71.2764 24.9548L71.7459 24.6988C71.8822 24.6234 72.0033 24.5029 72.0791 24.3674L72.3365 23.9004L72.594 24.3674C72.6697 24.5029 72.7909 24.6234 72.9272 24.6988L73.3967 24.9548L72.9272 25.2109C72.7909 25.2862 72.6697 25.4067 72.594 25.5423L72.3365 26.0093Z" fill="#F9DD29"/>
<path d="M123.331 27.5156L123.846 26.5666C123.998 26.2804 124.24 26.0544 124.528 25.8887L125.482 25.3766L124.528 24.8644C124.24 24.7138 124.013 24.4728 123.846 24.1866L123.331 23.2375L122.816 24.1866C122.665 24.4728 122.423 24.6987 122.135 24.8644L121.181 25.3766L122.135 25.8887C122.423 26.0394 122.65 26.2804 122.816 26.5666L123.331 27.5156Z" fill="#F9DD29"/>
<path d="M119.455 22.6499L119.712 22.1829C119.788 22.0474 119.909 21.9269 120.045 21.8515L120.515 21.5955L120.045 21.3394C119.909 21.2641 119.788 21.1436 119.712 21.008L119.455 20.541L119.197 21.008C119.122 21.1436 119 21.2641 118.864 21.3394L118.395 21.5955L118.864 21.8515C119 21.9269 119.122 22.0474 119.197 22.1829L119.455 22.6499Z" fill="#F9DD29"/>
<path d="M120.712 38.0298L120.969 37.5628C121.045 37.4273 121.166 37.3067 121.302 37.2314L121.772 36.9753L121.302 36.7193C121.166 36.644 121.045 36.5234 120.969 36.3879L120.712 35.9209L120.454 36.3879C120.378 36.5234 120.257 36.644 120.121 36.7193L119.651 36.9753L120.121 37.2314C120.257 37.3067 120.378 37.4273 120.454 37.5628L120.712 38.0298Z" fill="#F9DD29"/>
<path d="M128.239 33.4956L128.496 33.0286C128.572 32.8931 128.693 32.7726 128.83 32.6972L129.299 32.4412L128.83 32.1851C128.693 32.1098 128.572 31.9893 128.496 31.8537L128.239 31.3867L127.981 31.8537C127.906 31.9893 127.785 32.1098 127.648 32.1851L127.179 32.4412L127.648 32.6972C127.785 32.7726 127.906 32.8931 127.981 33.0286L128.239 33.4956Z" fill="#F9DD29"/>
<path d="M64.4615 36.5838L64.719 36.1168C64.7947 35.9812 64.9159 35.8607 65.0522 35.7854L65.5217 35.5293L65.0522 35.2732C64.9159 35.1979 64.7947 35.0774 64.719 34.9418L64.4615 34.4749L64.2041 34.9418C64.1283 35.0774 64.0072 35.1979 63.8709 35.2732L63.4014 35.5293L63.8709 35.7854C64.0072 35.8607 64.1283 35.9812 64.2041 36.1168L64.4615 36.5838Z" fill="#F9DD29"/>
<path d="M64.9615 21.8817C64.9615 22.1528 64.7495 22.3637 64.4768 22.3637C64.2042 22.3637 63.9922 22.1528 63.9922 21.8817C63.9922 21.6105 64.2042 21.3997 64.4768 21.3997C64.7343 21.3997 64.9615 21.6105 64.9615 21.8817Z" fill="white"/>
<path d="M76.7896 21.8817C76.7896 22.1528 76.5776 22.3637 76.305 22.3637C76.0323 22.3637 75.8203 22.1528 75.8203 21.8817C75.8203 21.6105 76.0323 21.3997 76.305 21.3997C76.5624 21.3997 76.7896 21.6105 76.7896 21.8817Z" fill="white"/>
<path d="M67.8538 17.4379C68.1215 17.4379 68.3384 17.2221 68.3384 16.9559C68.3384 16.6897 68.1215 16.4739 67.8538 16.4739C67.5861 16.4739 67.3691 16.6897 67.3691 16.9559C67.3691 17.2221 67.5861 17.4379 67.8538 17.4379Z" fill="white"/>
<path d="M128.723 21.5804C128.723 21.8516 128.511 22.0625 128.239 22.0625C127.966 22.0625 127.754 21.8516 127.754 21.5804C127.754 21.3093 127.966 21.0984 128.239 21.0984C128.511 21.0984 128.723 21.3093 128.723 21.5804Z" fill="white"/>
<path d="M125.664 35.6197C125.664 35.8909 125.452 36.1018 125.179 36.1018C124.906 36.1018 124.694 35.8909 124.694 35.6197C124.694 35.3486 124.906 35.1377 125.179 35.1377C125.452 35.1377 125.664 35.3486 125.664 35.6197Z" fill="white"/>
<path d="M123.816 18.0856C123.816 18.3567 123.604 18.5676 123.331 18.5676C123.059 18.5676 122.847 18.3567 122.847 18.0856C122.847 17.8144 123.059 17.6035 123.331 17.6035C123.604 17.6035 123.816 17.8144 123.816 18.0856Z" fill="white"/>
<path d="M114.957 17.0462C114.957 17.3174 114.745 17.5283 114.472 17.5283C114.199 17.5283 113.987 17.3174 113.987 17.0462C113.987 16.7751 114.199 16.5642 114.472 16.5642C114.745 16.5642 114.957 16.7751 114.957 17.0462Z" fill="white"/>
<path d="M128.239 15.4345C128.506 15.4345 128.723 15.2187 128.723 14.9525C128.723 14.6863 128.506 14.4705 128.239 14.4705C127.971 14.4705 127.754 14.6863 127.754 14.9525C127.754 15.2187 127.971 15.4345 128.239 15.4345Z" fill="white"/>
<path d="M62.9771 40.214C62.9771 40.4851 62.7651 40.696 62.4925 40.696C62.2198 40.696 62.0078 40.4851 62.0078 40.214C62.0078 39.9428 62.2198 39.7319 62.4925 39.7319C62.7499 39.7319 62.9771 39.9428 62.9771 40.214Z" fill="white"/>
<path d="M130.116 40.2592C130.384 40.2592 130.601 40.0434 130.601 39.7772C130.601 39.511 130.384 39.2952 130.116 39.2952C129.849 39.2952 129.632 39.511 129.632 39.7772C129.632 40.0434 129.849 40.2592 130.116 40.2592Z" fill="white"/>
<path d="M62.9771 13.6419C62.9771 13.9131 62.7651 14.124 62.4925 14.124C62.2198 14.124 62.0078 13.9131 62.0078 13.6419C62.0078 13.3708 62.2198 13.1599 62.4925 13.1599C62.7499 13.1599 62.9771 13.3859 62.9771 13.6419Z" fill="white"/>
<path d="M81.2271 17.9349C81.2271 18.2061 81.0151 18.4169 80.7425 18.4169C80.4698 18.4169 80.2578 18.2061 80.2578 17.9349C80.2578 17.6638 80.4698 17.4529 80.7425 17.4529C80.9999 17.4529 81.2271 17.6638 81.2271 17.9349Z" fill="white"/>
<path d="M41.5293 59.7875V82.3999H151V65.1391C151 65.1391 144.994 62.1618 135.237 59.0902C132.357 58.1857 129.155 57.2812 125.688 56.4521C116.745 54.2851 106.003 52.5703 94.4269 52.5703C63.071 52.5892 41.5293 59.7875 41.5293 59.7875Z" fill="url(#paint13_radial_3169_30370)"/>
<path opacity="0.5" d="M40.0898 60.315C47.2515 58.4307 67.126 53.927 93.48 53.927C105.795 53.927 117.238 55.6418 126.768 57.8088C130.463 58.6568 133.873 59.5613 136.942 60.4658C143.27 62.3313 148.121 64.1591 150.944 65.3086V65.1579C150.944 65.1579 144.862 62.1806 134.953 59.109C132.035 58.2045 128.796 57.3 125.272 56.4709C116.196 54.3039 105.302 52.5891 93.5748 52.5891C63.1852 52.5891 41.8708 59.6932 40.0898 60.315Z" fill="url(#paint14_radial_3169_30370)"/>
<path opacity="0.6" d="M41.5293 73.4681V82.4H42.0219C50.5287 76.8034 75.7839 61.4646 99.3907 59.1092C114.15 57.6394 126.749 58.1858 135.218 59.1092C132.338 58.2047 129.136 57.3002 125.669 56.4711C118.488 55.8681 109.262 55.2651 96.8899 56.5653C72.6388 59.128 54.3179 66.5901 41.5293 73.4681Z" fill="white"/>
</g>
<defs>
<linearGradient id="paint0_linear_3169_30370" x1="170.999" y1="53.0854" x2="175.513" y2="53.0854" gradientUnits="userSpaceOnUse">
<stop stop-color="#BE1403"/>
<stop offset="1" stop-color="#D83800"/>
</linearGradient>
<linearGradient id="paint1_linear_3169_30370" x1="163.081" y1="68.8296" x2="236.308" y2="68.8296" gradientUnits="userSpaceOnUse">
<stop stop-color="#BF891D" stop-opacity="0"/>
<stop offset="1" stop-color="#C18D20"/>
</linearGradient>
<linearGradient id="paint2_linear_3169_30370" x1="158.002" y1="57.3312" x2="236.309" y2="57.3312" gradientUnits="userSpaceOnUse">
<stop stop-color="#BF891D" stop-opacity="0"/>
<stop offset="1" stop-color="#C18D20"/>
</linearGradient>
<linearGradient id="paint3_linear_3169_30370" x1="158.995" y1="53.8942" x2="225.835" y2="53.8942" gradientUnits="userSpaceOnUse">
<stop stop-color="#BF891D" stop-opacity="0"/>
<stop offset="1" stop-color="#C18D20"/>
</linearGradient>
<linearGradient id="paint4_linear_3169_30370" x1="229.012" y1="11.3064" x2="230.417" y2="11.3064" gradientUnits="userSpaceOnUse">
<stop stop-color="#00A297"/>
<stop offset="1" stop-color="#0B4960"/>
</linearGradient>
<linearGradient id="paint5_linear_3169_30370" x1="230.228" y1="10.9584" x2="233.36" y2="10.9584" gradientUnits="userSpaceOnUse">
<stop stop-color="#3DBBB8"/>
<stop offset="1" stop-color="#00A297"/>
</linearGradient>
<linearGradient id="paint6_linear_3169_30370" x1="207.745" y1="5.73435" x2="214.524" y2="5.73435" gradientUnits="userSpaceOnUse">
<stop stop-color="#D83800"/>
<stop offset="1" stop-color="#BE1403"/>
</linearGradient>
<linearGradient id="paint7_linear_3169_30370" x1="206.105" y1="15.2248" x2="211.576" y2="15.2248" gradientUnits="userSpaceOnUse">
<stop stop-color="#30798C"/>
<stop offset="1" stop-color="#2D7B91" stop-opacity="0"/>
</linearGradient>
<linearGradient id="paint8_linear_3169_30370" x1="214.735" y1="35.8595" x2="221.159" y2="35.8595" gradientUnits="userSpaceOnUse">
<stop stop-color="#00A297"/>
<stop offset="1" stop-color="#0B4960"/>
</linearGradient>
<linearGradient id="paint9_linear_3169_30370" x1="200.966" y1="43.8771" x2="207.345" y2="43.8771" gradientUnits="userSpaceOnUse">
<stop stop-color="#00A297"/>
<stop offset="1" stop-color="#0B4960"/>
</linearGradient>
<linearGradient id="paint10_linear_3169_30370" x1="206.091" y1="28.5866" x2="207.614" y2="26.7248" gradientUnits="userSpaceOnUse">
<stop stop-color="#0B4960"/>
<stop offset="1" stop-color="#00A297"/>
</linearGradient>
<linearGradient id="paint11_linear_3169_30370" x1="202.302" y1="30.6167" x2="206.788" y2="30.6167" gradientUnits="userSpaceOnUse">
<stop stop-color="#3DBBB8"/>
<stop offset="1" stop-color="#00A297"/>
</linearGradient>
<linearGradient id="paint12_linear_3169_30370" x1="217.538" y1="9.19129" x2="220.811" y2="9.19129" gradientUnits="userSpaceOnUse">
<stop stop-color="#30798C"/>
<stop offset="1" stop-color="#2D7B91" stop-opacity="0"/>
</linearGradient>
<radialGradient id="paint13_radial_3169_30370" cx="0" cy="0" r="1" gradientUnits="userSpaceOnUse" gradientTransform="translate(97.0955 55.4312) rotate(179.768) scale(79.761 23.8069)">
<stop stop-color="#009A0F"/>
<stop offset="1" stop-color="#00ADA1"/>
</radialGradient>
<radialGradient id="paint14_radial_3169_30370" cx="0" cy="0" r="1" gradientUnits="userSpaceOnUse" gradientTransform="translate(96.3611 53.7972) rotate(179.771) scale(74.1386 21.8318)">
<stop stop-color="#009A77"/>
<stop offset="1" stop-color="#009A77" stop-opacity="0"/>
</radialGradient>
<clipPath id="clip0_3169_30370">
<rect width="236" height="60" fill="white"/>
</clipPath>
</defs>
</svg>
