<svg width="140" height="60" viewBox="0 0 140 60" fill="none" xmlns="http://www.w3.org/2000/svg">
<path opacity="0.75" d="M34.288 0C23.413 3.474 6.43899 11.544 1.68399 28.836C-1.43001 40.17 6.09999 53.631 15.73 60H140V0H34.288Z" fill="url(#paint0_linear_2_1266)"/>
<path opacity="0.3" d="M78.0859 39.6433L61.8342 39.5742V39.5783C61.8302 39.9196 61.5539 40.1918 61.2125 40.1918C61.2085 40.1918 61.2044 40.1918 61.2003 40.1918C61.1638 40.1918 61.1272 40.1878 61.0906 40.1797V40.4519H61.1963V40.586H61.0866L61.0825 40.9029H61.1922V41.037H61.0866L61.0825 41.3539H61.1922V41.488H61.0866L61.0825 41.805C61.0825 41.805 61.18 41.805 61.1882 41.805V41.9391H61.0784L61.0744 42.256C61.0744 42.256 61.176 42.256 61.1841 42.256V42.3901C61.176 42.3901 61.0784 42.3901 61.0744 42.3901L61.0703 42.707H61.18V42.8411C61.1719 42.8411 61.0744 42.8411 61.0744 42.8411L61.0703 43.1581H61.18V43.2921C61.1719 43.2921 61.0744 43.2921 61.0703 43.2921L61.0663 43.6091H61.176V43.7432H61.0663L61.0622 44.0601H61.1719V44.1942H61.0622L61.0581 44.5111H61.1678V44.6452H61.0581L61.0541 44.9622C61.0541 44.9622 61.1597 44.9622 61.1638 44.9622V45.0963H61.0541L61.05 45.4132C61.05 45.4132 61.1516 45.4132 61.1597 45.4132V45.5473C61.1556 45.5473 61.0541 45.5473 61.05 45.5473L61.0459 45.8642C61.0459 45.8642 61.1475 45.8642 61.1556 45.8642V45.9983C61.1516 45.9983 61.0459 45.9983 61.0459 45.9983L61.0419 46.3152H61.1516V46.4493C61.1435 46.4493 61.0459 46.4493 61.0419 46.4493L61.0378 46.7663H61.1475V46.9004H61.0378L61.0337 47.2173H61.1435V47.3514H61.0337L61.0297 47.6683H61.1394V47.8024H61.0297L61.0256 48.1315C61.0744 48.1234 61.1231 48.1234 61.1353 48.1234C61.4766 48.1275 61.7489 48.4038 61.7489 48.741L78.0006 48.8101L78.0859 39.6433Z" fill="url(#paint1_linear_2_1266)"/>
<path d="M63.0859 39.6433L52.8342 39.5742V39.5783C52.8302 39.9196 52.5539 40.1918 52.2125 40.1918C52.2085 40.1918 52.2044 40.1918 52.2003 40.1918C52.1638 40.1918 52.1272 40.1878 52.0906 40.1797V40.4519H52.1963V40.586H52.0866L52.0825 40.9029H52.1922V41.037H52.0866L52.0825 41.3539H52.1922V41.488H52.0866L52.0825 41.805C52.0825 41.805 52.18 41.805 52.1882 41.805V41.9391H52.0784L52.0744 42.256C52.0744 42.256 52.176 42.256 52.1841 42.256V42.3901C52.176 42.3901 52.0784 42.3901 52.0744 42.3901L52.0703 42.707H52.18V42.8411C52.1719 42.8411 52.0744 42.8411 52.0744 42.8411L52.0703 43.1581H52.18V43.2921C52.1719 43.2921 52.0744 43.2921 52.0703 43.2921L52.0663 43.6091H52.176V43.7432H52.0663L52.0622 44.0601H52.1719V44.1942H52.0622L52.0581 44.5111H52.1678V44.6452H52.0581L52.0541 44.9622C52.0541 44.9622 52.1597 44.9622 52.1638 44.9622V45.0963H52.0541L52.05 45.4132C52.05 45.4132 52.1516 45.4132 52.1597 45.4132V45.5473C52.1556 45.5473 52.0541 45.5473 52.05 45.5473L52.0459 45.8642C52.0459 45.8642 52.1475 45.8642 52.1556 45.8642V45.9983C52.1516 45.9983 52.0459 45.9983 52.0459 45.9983L52.0419 46.3152H52.1516V46.4493C52.1435 46.4493 52.0459 46.4493 52.0419 46.4493L52.0378 46.7663H52.1475V46.9004H52.0378L52.0337 47.2173H52.1435V47.3514H52.0337L52.0297 47.6683H52.1394V47.8024H52.0297L52.0256 48.1315C52.0744 48.1234 52.1231 48.1234 52.1353 48.1234C52.4766 48.1275 52.7489 48.4038 52.7489 48.741L63.0006 48.8101L63.0859 39.6433Z" fill="white"/>
<path d="M51.5234 48.7241V48.72L46.4077 48.6875L51.5234 48.7241Z" fill="white"/>
<path d="M52.1505 47.6582L52.1545 47.3412V47.2072L52.1586 46.8902V46.7561V46.4392V46.3051L52.1627 45.9882V45.8541L52.1667 45.5371V45.403L52.1708 45.0861V44.952V44.6351V44.501L52.1748 44.1841V44.05L52.1789 43.733V43.5989L52.183 43.282V43.1479V42.831V42.6969L52.187 42.3799V42.2459L52.1911 41.9289V41.7948L52.1952 41.4779V41.3438V41.0269V40.8928L52.1992 40.5758V40.4417V40.1817C52.1626 40.1817 52.1261 40.1776 52.0936 40.1695C51.8091 40.1126 51.5978 39.8607 51.6019 39.56L46.4861 39.5234V39.751C46.6486 39.751 46.7827 39.8851 46.7786 40.0476C46.7786 40.2101 46.6445 40.3442 46.482 40.3402L46.4779 40.653C46.6405 40.653 46.7746 40.7871 46.7705 40.9497C46.7664 41.1122 46.6364 41.2463 46.4739 41.2422L46.4698 41.5551C46.6323 41.5551 46.7664 41.6892 46.7624 41.8517C46.7624 42.0142 46.6283 42.1483 46.4657 42.1443L46.4617 42.4571C46.6242 42.4571 46.7583 42.5912 46.7542 42.7578C46.7542 42.9204 46.6201 43.0545 46.4576 43.0504L46.4535 43.3633C46.6161 43.3633 46.7502 43.4974 46.7461 43.6599C46.742 43.8224 46.612 43.9565 46.4495 43.9524L46.4454 44.2653C46.608 44.2653 46.7421 44.3994 46.738 44.5619C46.738 44.7245 46.6039 44.8586 46.4414 44.8545L46.4373 45.1674C46.5998 45.1674 46.7339 45.3015 46.7299 45.4681C46.7299 45.6306 46.5958 45.7647 46.4332 45.7606L46.4292 46.0735C46.5917 46.0735 46.7258 46.2076 46.7217 46.3701C46.7217 46.5326 46.5876 46.6667 46.4251 46.6627L46.421 46.9755C46.5836 46.9755 46.7177 47.1096 46.7136 47.2762C46.7136 47.4388 46.5795 47.5728 46.417 47.5688L46.4129 47.8817C46.5755 47.8817 46.7095 48.0157 46.7055 48.1783C46.7055 48.3408 46.5714 48.4749 46.4088 48.4708V48.6578L51.5247 48.6943C51.5288 48.3611 51.7969 48.093 52.1261 48.0848H52.1301C52.1342 48.0848 52.1423 48.0848 52.1464 48.0848L52.1505 47.7679V47.6582Z" fill="#FCFE5B"/>
<path d="M47.628 41.1649L49.0664 41.1719L49.0631 41.8545L47.6247 41.8475L47.628 41.1649Z" fill="#3B3B3B"/>
<path d="M47.6242 42.1493L49.0625 42.1562L49.0582 43.0463L47.6199 43.0393L47.6242 42.1493Z" fill="#3B3B3B"/>
<path d="M47.6202 43.2743L49.0586 43.2812L49.0556 43.9071L47.6171 43.9001L47.6202 43.2743Z" fill="#3B3B3B"/>
<path d="M47.6163 44.0555L49.0547 44.0625L49.0522 44.5664L47.6138 44.5594L47.6163 44.0555Z" fill="#3B3B3B"/>
<path d="M47.6124 44.7899L49.0508 44.7969L49.0479 45.3982L47.6095 45.3912L47.6124 44.7899Z" fill="#3B3B3B"/>
<path d="M47.6084 45.5595L49.0469 45.5664L49.043 46.3586L47.6045 46.3517L47.6084 45.5595Z" fill="#3B3B3B"/>
<path d="M47.6045 46.5907L49.043 46.5977L49.0404 47.1257L47.602 47.1188L47.6045 46.5907Z" fill="#3B3B3B"/>
<path d="M59.927 42.8056L59.923 43.1632C59.923 43.4476 59.7889 43.6183 59.5004 43.6142C59.2119 43.6101 59.09 43.4517 59.0859 43.1672L59.09 42.8015C59.09 42.5862 59.1835 42.3749 59.5126 42.379C59.8092 42.379 59.927 42.5862 59.927 42.8056ZM59.3541 44.7113L60.4146 42.4237H60.6584L59.606 44.7113H59.3541ZM59.4516 42.7812L59.4476 43.1916C59.4476 43.2607 59.4679 43.2891 59.5045 43.2891C59.541 43.2891 59.5573 43.2688 59.5573 43.1916L59.5613 42.7812C59.5613 42.7122 59.541 42.6918 59.5085 42.6918C59.472 42.6918 59.4516 42.7122 59.4516 42.7812ZM60.951 43.9393L60.9469 44.2968C60.9469 44.5813 60.8128 44.7519 60.5244 44.7479C60.2359 44.7479 60.114 44.5772 60.1099 44.3009L60.114 43.9352C60.114 43.728 60.2074 43.5086 60.5365 43.5126C60.8332 43.5126 60.951 43.7198 60.951 43.9393ZM60.4715 43.9149L60.4675 44.3253C60.4675 44.3944 60.4878 44.4228 60.5244 44.4228C60.5609 44.4228 60.5772 44.4025 60.5772 44.3253L60.5812 43.9149C60.5812 43.8458 60.5609 43.8255 60.5284 43.8255C60.4959 43.8255 60.4756 43.8458 60.4715 43.9149Z" fill="#3B3B3B"/>
<path d="M59.7868 45.4531C59.7828 45.839 59.6487 45.9934 59.4537 45.9934C59.2222 45.9934 59.1328 45.7456 59.1328 45.4653C59.1328 45.1849 59.2466 44.9452 59.474 44.9493C59.7178 44.9493 59.7868 45.2215 59.7868 45.4531ZM59.3359 45.4693C59.3359 45.7009 59.3766 45.8187 59.4578 45.8187C59.5431 45.8187 59.5756 45.6684 59.5756 45.4612C59.5756 45.2824 59.5512 45.1199 59.4619 45.1199C59.3847 45.1199 59.34 45.2499 59.3359 45.4693Z" fill="#3B3B3B"/>
<path d="M59.9142 44.9609L60.3571 44.965V45.1397H60.1133V45.4038H60.3449V45.5704H60.1133L60.1093 45.993H59.9102L59.9142 44.9609Z" fill="#3B3B3B"/>
<path d="M60.5119 44.9648L60.9548 44.9689V45.1436H60.711V45.4077H60.9426V45.5743H60.711L60.7069 45.9969H60.5078L60.5119 44.9648Z" fill="#3B3B3B"/>
<path d="M50.4348 45.7695C50.382 45.7736 50.1057 45.798 50.1057 46.0946C50.1057 46.3993 50.3739 46.4318 50.6623 46.4318C51.0077 46.4278 51.2149 46.3262 51.2109 46.0783C51.2109 45.7939 50.963 45.7736 50.8777 45.7695V45.9605C50.9143 45.9646 51.0443 45.9646 51.0443 46.0824C51.0443 46.2043 50.898 46.2327 50.6542 46.2368C50.4511 46.2368 50.2601 46.2206 50.2601 46.0946C50.2601 45.9808 50.3901 45.9686 50.4307 45.9646L50.4348 45.7695Z" fill="#3B3B3B"/>
<path d="M50.6624 44.9727C50.2683 44.9767 50.1017 45.0824 50.1017 45.3302C50.1017 45.5618 50.2723 45.6715 50.6705 45.6715C51.0565 45.6675 51.2109 45.5375 51.2109 45.314C51.2069 45.0824 51.0362 44.9727 50.6624 44.9727ZM50.6705 45.4724C50.4145 45.4724 50.2642 45.4359 50.2642 45.3221C50.2642 45.2043 50.4023 45.1677 50.6705 45.1677C50.9184 45.1677 51.0484 45.2002 51.0525 45.318C51.0484 45.4359 50.9103 45.4724 50.6705 45.4724Z" fill="#3B3B3B"/>
<path d="M51.1875 44.6352L50.4479 44.6393C50.3585 44.6393 50.2569 44.619 50.2529 44.5012C50.2529 44.3874 50.3382 44.363 50.4439 44.363L51.1834 44.3589V44.168L50.4398 44.172C50.2488 44.172 50.0903 44.2492 50.0944 44.5093C50.0944 44.7653 50.2448 44.8384 50.4439 44.8343L51.1875 44.8303V44.6352Z" fill="#3B3B3B"/>
<path d="M51.1836 43.997L51.1795 43.676C51.1795 43.4972 51.0698 43.3672 50.8585 43.3672C50.6513 43.3672 50.5416 43.4891 50.5416 43.6923V43.806L50.1068 43.8101V44.0011L51.1836 43.997ZM50.7001 43.806V43.7126C50.7001 43.6069 50.7529 43.5582 50.8667 43.5582C50.9723 43.5582 51.0292 43.611 51.0292 43.7004V43.806H50.7001Z" fill="#3B3B3B"/>
<path d="M50.6468 42.5665C50.2526 42.5706 50.086 42.6762 50.086 42.9241C50.086 43.1557 50.2567 43.2654 50.6549 43.2654C51.0409 43.2614 51.1953 43.1313 51.1953 42.9078C51.1912 42.6762 51.0206 42.5624 50.6468 42.5665ZM50.6549 43.0663C50.3989 43.0663 50.2486 43.0297 50.2486 42.916C50.2486 42.7981 50.3867 42.7616 50.6549 42.7616C50.9028 42.7616 51.0328 42.7941 51.0368 42.9119C51.0328 43.0297 50.8946 43.0663 50.6549 43.0663Z" fill="#3B3B3B"/>
<path d="M50.1031 42.4201L51.1758 42.412V42.1926C50.5825 41.9732 50.4688 41.9325 50.4159 41.9203C50.546 41.9285 50.7044 41.9285 50.8792 41.9285H51.1758V41.7578L50.1031 41.7659V41.9732C50.7369 42.1966 50.8507 42.2373 50.8995 42.2495C50.7654 42.2413 50.611 42.2413 50.4159 42.2454L50.1031 42.2495V42.4201Z" fill="#3B3B3B"/>
<path d="M61.5982 48.1127L53.7031 48.0508L53.7094 47.2542L61.6044 47.3162L61.5982 48.1127Z" fill="#FC8B1E"/>
<path d="M55.078 40.3867L55.1715 40.6874H55.4844L55.2284 40.8703L55.3218 41.1669L55.074 40.98L54.818 41.1628L54.9155 40.8662L54.6676 40.6833H54.9805L55.078 40.3867Z" fill="#FC8B1E"/>
<path d="M56.16 40.3945L56.2535 40.6952H56.5664L56.3144 40.8781L56.4079 41.1747L56.1559 40.9918L55.904 41.1706L56.0015 40.874L55.7495 40.6912H56.0625L56.16 40.3945Z" fill="#FC8B1E"/>
<path d="M57.25 40.4062L57.3434 40.7029H57.6562L57.4003 40.8857L57.4938 41.1823L57.2419 40.9995L56.99 41.1783L57.0875 40.8817L56.8356 40.6988H57.1484L57.25 40.4062Z" fill="#FC8B1E"/>
<path d="M58.3358 40.4141L58.4293 40.7107H58.7422L58.4862 40.8935L58.5837 41.1902L58.3317 41.0073L58.0757 41.1861L58.1773 40.8935L57.9253 40.7066H58.2382L58.3358 40.4141Z" fill="#FC8B1E"/>
<path d="M59.4219 40.4219L59.5153 40.7185L59.8281 40.7226L59.5762 40.9013L59.6697 41.198L59.4178 41.0151L59.1659 41.198L59.2634 40.9013L59.0116 40.7144L59.3244 40.7185L59.4219 40.4219Z" fill="#FC8B1E"/>
<path d="M60.5077 40.4297L60.6011 40.7263L60.9141 40.7304L60.658 40.9092L60.7515 41.2098L60.4995 41.0229L60.2476 41.2058L60.3451 40.9092L60.0972 40.7222L60.406 40.7263L60.5077 40.4297Z" fill="#FC8B1E"/>
<path d="M56.7157 45.949C56.5613 45.8637 56.4394 45.7377 56.346 45.5711C56.2525 45.4086 56.1997 45.2135 56.1875 44.99V44.986L56.8701 44.99V44.9941C56.8823 45.1282 56.9229 45.2298 56.9879 45.3029C57.057 45.3761 57.1423 45.4167 57.252 45.4167C57.3698 45.4167 57.4633 45.3801 57.5283 45.3029C57.5933 45.2257 57.6299 45.116 57.6299 44.9738L57.6339 44.669C57.6339 44.5268 57.6055 44.4171 57.5486 44.3399C57.4917 44.2627 57.4064 44.2221 57.3008 44.2221C57.2032 44.2221 57.1179 44.2465 57.0489 44.2952C56.9798 44.344 56.931 44.413 56.9026 44.5024L56.2647 44.4984L56.281 42.418L58.2231 42.4342L58.219 43.0925L56.9595 43.0803L56.9554 43.7182C57.0082 43.6695 57.0773 43.6288 57.1667 43.6004C57.2561 43.5719 57.3454 43.5598 57.4308 43.5598C57.6177 43.5598 57.7761 43.6045 57.9102 43.6938C58.0443 43.7792 58.1418 43.9092 58.2109 44.0758C58.2799 44.2424 58.3124 44.4415 58.3124 44.6772L58.3084 44.9819C58.3084 45.2176 58.2637 45.4167 58.1784 45.5792C58.093 45.7458 57.9712 45.8718 57.8127 45.9571C57.6542 46.0424 57.4592 46.0831 57.2358 46.0831C57.0448 46.079 56.8701 46.0343 56.7157 45.949Z" fill="#3B3B3B"/>
<path d="M29.9062 34.0444V34.0403L21.4505 34.0078L29.9062 34.0444Z" fill="white"/>
<path d="M30.9322 32.285V31.7568V31.5374L30.9362 31.0091V30.7897V30.2615V30.0421L30.9403 29.5138V29.2944L30.9444 28.7662V28.5468L30.9484 28.0226V27.8032V27.279V27.0596L30.9525 26.5314V26.3119L30.9566 25.7837V25.5643L30.9606 25.0361V24.8167V24.2884V24.069L30.9647 23.5408V23.3214V22.7972V22.5778V22.0536V21.8342V21.306V21.0865L30.9688 20.5583V20.3389V19.9082C30.9078 19.9082 30.8469 19.9001 30.79 19.8879C30.3227 19.7944 29.9732 19.3799 29.9732 18.8842L21.5175 18.8477V19.2215C21.7857 19.2215 22.0051 19.445 22.0051 19.7131C22.0051 19.9854 21.7816 20.2007 21.5134 20.2007L21.5094 20.7208C21.7776 20.7208 21.997 20.9443 21.997 21.2125C21.997 21.4807 21.7735 21.7001 21.5053 21.7001L21.5013 22.2202C21.7694 22.2202 21.9888 22.4437 21.9888 22.7119C21.9888 22.98 21.7654 23.1995 21.4972 23.1995L21.4931 23.7155C21.7613 23.7155 21.9807 23.939 21.9807 24.2072C21.9807 24.4753 21.7572 24.6948 21.4891 24.6948L21.485 25.2149C21.7532 25.2149 21.9726 25.4383 21.9726 25.7065C21.9726 25.9747 21.7491 26.1941 21.4809 26.1941L21.4769 26.7142C21.7451 26.7142 21.9645 26.9377 21.9645 27.2059C21.9645 27.4781 21.741 27.6935 21.4728 27.6935L21.4687 28.2095C21.7369 28.2095 21.9563 28.433 21.9563 28.7012C21.9563 28.9694 21.7329 29.1888 21.4647 29.1888L21.4606 29.7089C21.7288 29.7089 21.9482 29.9324 21.9482 30.2005C21.9482 30.4687 21.7247 30.6881 21.4566 30.6881L21.4525 31.2082C21.7207 31.2082 21.9401 31.4317 21.9401 31.6999C21.9401 31.9681 21.7166 32.1875 21.4484 32.1875L21.4444 32.7076C21.7125 32.7076 21.932 32.9311 21.932 33.1993C21.932 33.4674 21.7085 33.6868 21.4403 33.6868V33.9957L29.896 34.0282C29.9001 33.4756 30.343 33.0286 30.8916 33.0164H30.8956C30.9037 33.0164 30.9119 33.0164 30.92 33.0164V32.4922L30.9322 32.285Z" fill="#FFAA45"/>
<path d="M26.2719 21.3785L26.2773 22.5L23.7136 22.5124L23.7082 21.3909L26.2719 21.3785Z" fill="#3B3B3B"/>
<path d="M26.282 22.9828L26.2891 24.4375L23.7253 24.4499L23.7182 22.9952L26.282 22.9828Z" fill="#3B3B3B"/>
<path d="M26.2919 24.8315L26.2969 25.8555L23.7329 25.8679L23.7279 24.8439L26.2919 24.8315Z" fill="#3B3B3B"/>
<path d="M26.2968 26.1127L26.3008 26.9375L23.737 26.9499L23.733 26.1251L26.2968 26.1127Z" fill="#3B3B3B"/>
<path d="M26.2999 27.3097L26.3047 28.293L23.7408 28.3054L23.7361 27.322L26.2999 27.3097Z" fill="#3B3B3B"/>
<path d="M26.3101 28.571L26.3164 29.8672L23.7524 29.8796L23.7461 28.5834L26.3101 28.571Z" fill="#3B3B3B"/>
<path d="M26.3161 30.2634L26.3203 31.1289L23.7562 31.1413L23.752 30.2758L26.3161 30.2634Z" fill="#3B3B3B"/>
<path d="M48.9688 18.9791L32.0207 18.9141V18.9181C32.0166 19.4829 31.5575 19.938 30.9968 19.934C30.9886 19.934 30.9846 19.934 30.9764 19.934C30.9155 19.934 30.8545 19.9258 30.7977 19.9136V20.3647H30.9764V20.5841H30.7977L30.7936 21.1123H30.9724V21.3317H30.7936L30.7895 21.86H30.9683V22.0794H30.7895L30.7855 22.6076C30.7855 22.6076 30.9439 22.6076 30.9643 22.6076V22.827H30.7855L30.7814 23.3553C30.7814 23.3553 30.948 23.3553 30.9602 23.3553V23.5747C30.948 23.5747 30.7814 23.5747 30.7814 23.5747L30.7773 24.0988H30.9561V24.3183C30.9439 24.3183 30.7814 24.3183 30.7773 24.3183L30.7733 24.8424H30.9521V25.0618C30.9399 25.0618 30.7733 25.0618 30.7733 25.0618L30.7692 25.586H30.948V25.8054H30.7692L30.7651 26.3337H30.9439V26.5531H30.7651V27.0813H30.9439V27.3007H30.7651V27.829C30.7651 27.829 30.9358 27.829 30.9439 27.829V28.0484H30.7651L30.7611 28.5766C30.7611 28.5766 30.9277 28.5766 30.9399 28.5766V28.796C30.9317 28.796 30.7611 28.796 30.7611 28.796V29.3242C30.7611 29.3242 30.9277 29.3242 30.9399 29.3242V29.5437C30.9317 29.5437 30.7611 29.5437 30.7611 29.5437L30.757 30.0678H30.9358V30.2873C30.9236 30.2873 30.757 30.2873 30.757 30.2873V30.8114H30.9358V31.0308H30.757L30.753 31.5591H30.9317V31.7785H30.753L30.7489 32.3067H30.9277V32.5261H30.7489L30.7448 33.0666C30.822 33.0544 30.9033 33.0503 30.9236 33.0503C31.4844 33.0544 31.9394 33.5094 31.9394 34.0702L48.8875 34.1352L48.9688 18.9791Z" fill="white"/>
<path opacity="0.3" d="M68.625 18.9791L48.4713 18.9141V18.9181C48.4664 19.4829 47.9204 19.938 47.2536 19.934C47.244 19.934 47.2391 19.934 47.2295 19.934C47.157 19.934 47.0845 19.9258 47.0169 19.9136V20.3647H47.2295V20.5841H47.0169L47.012 21.1123H47.2246V21.3317H47.012L47.0072 21.86H47.2198V22.0794H47.0072L47.0024 22.6076C47.0024 22.6076 47.1908 22.6076 47.215 22.6076V22.827H47.0024L46.9975 23.3553C46.9975 23.3553 47.1956 23.3553 47.2101 23.3553V23.5747C47.1956 23.5747 46.9975 23.5747 46.9975 23.5747L46.9927 24.0988H47.2053V24.3183C47.1908 24.3183 46.9975 24.3183 46.9927 24.3183L46.9879 24.8424H47.2005V25.0618C47.186 25.0618 46.9879 25.0618 46.9879 25.0618L46.983 25.586H47.1956V25.8054H46.983L46.9782 26.3337H47.1908V26.5531H46.9782V27.0813H47.1908V27.3007H46.9782V27.829C46.9782 27.829 47.1811 27.829 47.1908 27.829V28.0484H46.9782L46.9734 28.5766C46.9734 28.5766 47.1715 28.5766 47.186 28.5766V28.796C47.1763 28.796 46.9734 28.796 46.9734 28.796V29.3242C46.9734 29.3242 47.1715 29.3242 47.186 29.3242V29.5437C47.1763 29.5437 46.9734 29.5437 46.9734 29.5437L46.9685 30.0678H47.1811V30.2873C47.1666 30.2873 46.9685 30.2873 46.9685 30.2873V30.8114H47.1811V31.0308H46.9685L46.9637 31.5591H47.1763V31.7785H46.9637L46.9589 32.3067H47.1715V32.5261H46.9589L46.954 33.0666C47.0458 33.0544 47.1425 33.0503 47.1666 33.0503C47.8334 33.0544 48.3746 33.5094 48.3746 34.0702L68.5284 34.1352L68.625 18.9791Z" fill="url(#paint2_linear_2_1266)"/>
<path d="M44.3298 24.0928L44.3257 24.6738C44.3257 25.133 44.1104 25.4052 43.6472 25.4052C43.1839 25.4052 42.9848 25.1452 42.9727 24.686L42.9767 24.0969C42.9767 23.7474 43.123 23.4102 43.6553 23.4102C44.1388 23.4102 44.3339 23.7433 44.3298 24.0928ZM43.4196 27.1728L45.1181 23.4752H45.5122L43.826 27.1728H43.4196ZM43.5618 24.0522L43.5578 24.7185C43.5578 24.8282 43.5903 24.8729 43.6472 24.8729C43.7041 24.8729 43.7325 24.8404 43.7325 24.7145L43.7366 24.0562C43.7366 23.9465 43.7041 23.914 43.6512 23.914C43.5984 23.9099 43.5618 23.9465 43.5618 24.0522ZM45.9876 25.9172L45.9836 26.4983C45.9836 26.9574 45.7682 27.2297 45.305 27.2297C44.8418 27.2297 44.6427 26.9574 44.6305 26.5105L44.6346 25.9213C44.6346 25.5881 44.7808 25.2346 45.3131 25.2346C45.7967 25.2305 45.9876 25.5637 45.9876 25.9172ZM45.2197 25.8766L45.2156 26.543C45.2156 26.6527 45.2481 26.6974 45.305 26.6974C45.3619 26.6974 45.3903 26.6649 45.3903 26.5389L45.3944 25.8806C45.3944 25.7709 45.3619 25.7384 45.3091 25.7384C45.2522 25.7344 45.2197 25.7709 45.2197 25.8766Z" fill="#F13005"/>
<path d="M44.1188 29.3636C44.1148 29.9852 43.8954 30.2372 43.5825 30.2331C43.2087 30.2331 43.0624 29.8349 43.0665 29.3839C43.0665 28.9329 43.2493 28.5469 43.6109 28.5469C44.0091 28.5469 44.1229 28.9857 44.1188 29.3636ZM43.3997 29.388C43.3997 29.7618 43.4687 29.9527 43.5987 29.9527C43.7328 29.9527 43.7856 29.709 43.7856 29.3758C43.7856 29.0873 43.745 28.8272 43.5987 28.8232C43.4728 28.8232 43.3997 29.0345 43.3997 29.388Z" fill="#F13005"/>
<path d="M44.3284 28.5703L45.0437 28.5744V28.8547H44.6454V29.2773H45.0153V29.5455H44.6454L44.6414 30.2241H44.3203L44.3284 28.5703Z" fill="#F13005"/>
<path d="M45.2855 28.5742L46.0005 28.5783V28.8587H45.6023V29.2812H45.972V29.5494H45.6023L45.5983 30.228H45.2773L45.2855 28.5742Z" fill="#F13005"/>
<path d="M28.29 29.1797C28.2006 29.1878 27.7414 29.2244 27.7455 29.716C27.7455 30.2199 28.1925 30.2768 28.6679 30.2768C29.2409 30.2727 29.5781 30.1061 29.5781 29.6917C29.5781 29.2203 29.1718 29.1878 29.0296 29.1797V29.4926C29.0905 29.4966 29.3059 29.5007 29.3059 29.6957C29.3059 29.8948 29.0621 29.9436 28.6557 29.9477C28.3225 29.9477 28.0056 29.9151 28.0056 29.712C28.0056 29.521 28.2209 29.5088 28.2859 29.5007L28.29 29.1797Z" fill="#3B3B3B"/>
<path d="M28.6684 27.8633C28.0183 27.8673 27.738 28.0421 27.738 28.4524C27.738 28.8344 28.0183 29.0213 28.6725 29.0172C29.3104 29.0131 29.5704 28.7978 29.5664 28.4321C29.5704 28.0461 29.286 27.8633 28.6684 27.8633ZM28.6765 28.6921C28.254 28.6921 28.0061 28.6312 28.0061 28.4443C28.0061 28.2493 28.2377 28.1924 28.6765 28.1883C29.0869 28.1883 29.3023 28.2452 29.3023 28.4402C29.3023 28.6312 29.0747 28.6921 28.6765 28.6921Z" fill="#3B3B3B"/>
<path d="M29.535 27.3036L28.316 27.3076C28.1697 27.3076 27.9991 27.2711 27.9991 27.076C27.9991 26.8891 28.1453 26.8444 28.3119 26.8444L29.535 26.8404V26.5234L28.3079 26.5275C27.9909 26.5275 27.7309 26.6535 27.7309 27.0841C27.7309 27.5067 27.9747 27.6286 28.3119 27.6245L29.5391 27.6205L29.535 27.3036Z" fill="#3B3B3B"/>
<path d="M29.5312 26.2474V25.7151C29.5312 25.4225 29.3525 25.2031 29.003 25.2031C28.6617 25.2031 28.4789 25.4022 28.4789 25.7435V25.9345L27.7556 25.9386V26.2555L29.5312 26.2474ZM28.7348 25.9305V25.7761C28.7348 25.6013 28.8202 25.5201 29.0071 25.5201C29.1859 25.5201 29.2712 25.6095 29.2753 25.7557V25.9264L28.7348 25.9305Z" fill="#3B3B3B"/>
<path d="M28.6527 23.8828C28.0026 23.8869 27.7222 24.0616 27.7222 24.472C27.7222 24.854 28.0026 25.0409 28.6568 25.0368C29.2947 25.0327 29.5548 24.8174 29.5507 24.4517C29.5548 24.0657 29.2704 23.8828 28.6527 23.8828ZM28.6649 24.7117C28.2423 24.7117 27.9944 24.6508 27.9944 24.4639C27.9944 24.2688 28.226 24.2119 28.6649 24.2079C29.0753 24.2079 29.2907 24.2648 29.2907 24.4598C29.2907 24.6508 29.0591 24.7117 28.6649 24.7117Z" fill="#3B3B3B"/>
<path d="M27.7518 23.6402L29.5234 23.6321V23.2705C28.5442 22.9088 28.3532 22.8357 28.2679 22.8154V22.8113C28.4792 22.8276 28.7433 22.8235 29.0318 22.8235H29.5194V22.5391L27.7478 22.5472V22.8926C28.792 23.2664 28.983 23.3355 29.0643 23.3558V23.3598C28.8449 23.3477 28.5848 23.3477 28.2679 23.3477H27.7518V23.6402Z" fill="#3B3B3B"/>
<path d="M46.5513 32.9889L33.5 32.9258L33.5064 31.6053L46.5576 31.6684L46.5513 32.9889Z" fill="#F13005"/>
<path d="M34.9896 20.0156L35.148 20.5073H35.6641L35.2455 20.808L35.3999 21.2996L34.9855 20.9949L34.567 21.2956L34.7295 20.808L34.311 20.5032H34.827L34.9896 20.0156Z" fill="#F13005"/>
<path d="M36.7825 20.0234L36.941 20.5151H37.457L37.0385 20.8198L37.1929 21.3115L36.7785 21.0027L36.3599 21.3074L36.5225 20.8158L36.1039 20.511H36.62L36.7825 20.0234Z" fill="#F13005"/>
<path d="M38.5793 20.0312L38.7378 20.5229L39.2539 20.527L38.8353 20.8277L38.9898 21.3193L38.5753 21.0146L38.1567 21.3153L38.3192 20.8236L37.9007 20.5188L38.4168 20.5229L38.5793 20.0312Z" fill="#F13005"/>
<path d="M40.3724 20.0391L40.5308 20.5307L41.0469 20.5348L40.6284 20.8355L40.7828 21.3271L40.3683 21.0224L39.9498 21.3231L40.1123 20.8314L39.6938 20.5267L40.2098 20.5307L40.3724 20.0391Z" fill="#F13005"/>
<path d="M42.1692 20.0469L42.3277 20.5385L42.8438 20.5426L42.4252 20.8433L42.5796 21.3349L42.1652 21.0302L41.7467 21.3309L41.9092 20.8392L41.4907 20.5345L42.0067 20.5385L42.1692 20.0469Z" fill="#F13005"/>
<path d="M43.9661 20.0547L44.1246 20.5463L44.6406 20.5504L44.2221 20.8511L44.3765 21.3428L43.9621 21.038L43.5435 21.3387L43.7061 20.8511L43.2875 20.5423L43.8036 20.5463L43.9661 20.0547Z" fill="#F13005"/>
<path d="M77.6602 6.43563L64.7795 6.38281V6.38688C64.7754 6.81352 64.43 7.1589 63.9993 7.1589C63.9953 7.1589 63.9871 7.1589 63.9831 7.1589C63.9384 7.1589 63.8896 7.15078 63.849 7.14265V7.48397H63.9831V7.65056H63.849V8.04877H63.9831V8.21536H63.849V8.61357H63.9831V8.78016H63.849V9.17837C63.849 9.17837 63.9709 9.17837 63.9831 9.17837V9.34496H63.849V9.74316C63.849 9.74316 63.9749 9.74316 63.9831 9.74316V9.90976C63.9749 9.90976 63.849 9.90976 63.849 9.90976V10.308H63.9831V10.4746C63.9749 10.4746 63.849 10.4746 63.849 10.4746V10.8728H63.9831V11.0394C63.9749 11.0394 63.849 11.0394 63.849 11.0394V11.4376H63.9831V11.6042H63.849V12.0024H63.9831V12.169H63.849V12.5672H63.9831V12.7338H63.849V13.132C63.849 13.132 63.979 13.132 63.9831 13.132V13.2986H63.849V13.6968C63.849 13.6968 63.9749 13.6968 63.9831 13.6968V13.8634C63.979 13.8634 63.849 13.8634 63.849 13.8634V14.2616C63.849 14.2616 63.9749 14.2616 63.9831 14.2616V14.4282C63.979 14.4282 63.849 14.4282 63.849 14.4282V14.8264H63.9831V14.993C63.9749 14.993 63.849 14.993 63.849 14.993V15.3912H63.9831V15.5578H63.849V15.956H63.9831V16.1226H63.849V16.5208H63.9831V16.6874H63.849V17.0977C63.9059 17.0896 63.9709 17.0856 63.9871 17.0856C64.4138 17.0896 64.7592 17.435 64.7592 17.8616L77.6398 17.9145L77.6602 6.43563Z" fill="white"/>
<path opacity="0.3" d="M90.2969 6.43563L77.4162 6.38281V6.38688C77.4121 6.81352 77.0668 7.1589 76.636 7.1589C76.632 7.1589 76.6239 7.1589 76.6198 7.1589C76.5751 7.1589 76.5263 7.15078 76.4857 7.14265V7.48397H76.6198V7.65056H76.4857V8.04877H76.6198V8.21536H76.4857V8.61357H76.6198V8.78016H76.4857V9.17837C76.4857 9.17837 76.6076 9.17837 76.6198 9.17837V9.34496H76.4857V9.74316C76.4857 9.74316 76.6117 9.74316 76.6198 9.74316V9.90976C76.6117 9.90976 76.4857 9.90976 76.4857 9.90976V10.308H76.6198V10.4746C76.6117 10.4746 76.4857 10.4746 76.4857 10.4746V10.8728H76.6198V11.0394C76.6117 11.0394 76.4857 11.0394 76.4857 11.0394V11.4376H76.6198V11.6042H76.4857V12.0024H76.6198V12.169H76.4857V12.5672H76.6198V12.7338H76.4857V13.132C76.4857 13.132 76.6157 13.132 76.6198 13.132V13.2986H76.4857V13.6968C76.4857 13.6968 76.6117 13.6968 76.6198 13.6968V13.8634C76.6157 13.8634 76.4857 13.8634 76.4857 13.8634V14.2616C76.4857 14.2616 76.6117 14.2616 76.6198 14.2616V14.4282C76.6157 14.4282 76.4857 14.4282 76.4857 14.4282V14.8264H76.6198V14.993C76.6117 14.993 76.4857 14.993 76.4857 14.993V15.3912H76.6198V15.5578H76.4857V15.956H76.6198V16.1226H76.4857V16.5208H76.6198V16.6874H76.4857V17.0977C76.5426 17.0896 76.6076 17.0856 76.6239 17.0856C77.0505 17.0896 77.3959 17.435 77.3959 17.8616L90.2766 17.9145L90.2969 6.43563Z" fill="url(#paint3_linear_2_1266)"/>
<path d="M63.1641 17.8919V17.8878L56.7361 17.8594L63.1641 17.8919Z" fill="white"/>
<path d="M63.9453 16.5494V16.1512V15.9846V15.5864V15.4198V15.0216V14.855V14.4568V14.2902V13.892V13.7254V13.3272V13.1606V12.7624V12.5958V12.1976V12.031V11.6328V11.4662V11.068V10.9014V10.5032V10.3366V9.93836V9.77177V9.37356V9.20697V8.80876V8.64217V8.24396V8.07737V7.67916V7.51257V7.1875C63.9006 7.1875 63.8559 7.17938 63.8112 7.17125C63.4577 7.09811 63.1895 6.78524 63.1895 6.40735L56.7614 6.37891V6.66334C56.9686 6.66334 57.1311 6.82993 57.1311 7.03716C57.1311 7.24439 56.9646 7.40692 56.7573 7.40692L56.7533 7.80106C56.9605 7.80106 57.123 7.96766 57.123 8.17489C57.123 8.38212 56.9564 8.54465 56.7492 8.54465L56.7451 8.93879C56.9524 8.93879 57.1149 9.10538 57.1149 9.31261C57.1149 9.51984 56.9483 9.68237 56.7411 9.68237L56.737 10.0765C56.9442 10.0765 57.1068 10.2431 57.1068 10.4503C57.1068 10.6576 56.9402 10.8201 56.7329 10.8201L56.7289 11.2142C56.9361 11.2142 57.0986 11.3808 57.0986 11.5881C57.0986 11.7953 56.932 11.9578 56.7248 11.9578L56.7208 12.352C56.928 12.352 57.0905 12.5186 57.0905 12.7258C57.0905 12.933 56.9239 13.0955 56.7167 13.0955L56.7126 13.4897C56.9199 13.4897 57.0824 13.6603 57.0824 13.8635C57.0824 14.0707 56.9158 14.2333 56.7086 14.2333L56.7045 14.6274C56.9117 14.6274 57.0743 14.794 57.0743 15.0012C57.0743 15.2085 56.9077 15.371 56.7004 15.371L56.6964 15.7651C56.9036 15.7651 57.0661 15.9317 57.0661 16.139C57.0661 16.3462 56.8995 16.5087 56.6923 16.5087L56.6882 16.9029C56.8955 16.9029 57.058 17.0695 57.058 17.2767C57.058 17.4839 56.8914 17.6465 56.6842 17.6465V17.8821L63.1123 17.9065C63.1164 17.488 63.4537 17.1467 63.8681 17.1385H63.8722C63.8803 17.1385 63.8844 17.1385 63.8925 17.1385V16.7403L63.9453 16.5494Z" fill="#54B5FF"/>
<path d="M60.702 8.29528L62.6484 8.30469L62.6442 9.17422L60.6978 9.16481L60.702 8.29528Z" fill="#3B3B3B"/>
<path d="M60.6942 9.54528L62.6406 9.55469L62.6352 10.6844L60.6887 10.675L60.6942 9.54528Z" fill="#3B3B3B"/>
<path d="M60.6865 10.9789L62.6328 10.9883L62.629 11.7847L60.6827 11.7753L60.6865 10.9789Z" fill="#3B3B3B"/>
<path d="M60.6866 11.975L62.6328 11.9844L62.6297 12.6263L60.6835 12.6169L60.6866 11.975Z" fill="#3B3B3B"/>
<path d="M60.6787 12.9047L62.625 12.9141L62.6213 13.678L60.6751 13.6686L60.6787 12.9047Z" fill="#3B3B3B"/>
<path d="M60.6708 13.8851L62.6172 13.8945L62.6123 14.9022L60.6659 14.8928L60.6708 13.8851Z" fill="#3B3B3B"/>
<path d="M60.667 15.1976L62.6133 15.207L62.61 15.8774L60.6638 15.868L60.667 15.1976Z" fill="#3B3B3B"/>
<path d="M74.6099 10.2759V10.7594C74.6099 11.1414 74.4311 11.3689 74.0451 11.3689C73.6591 11.3689 73.4925 11.1536 73.4844 10.7716V10.28C73.4844 9.9874 73.6063 9.70703 74.0492 9.70703C74.4473 9.70703 74.6099 9.98334 74.6099 10.2759ZM73.8501 12.8439L75.2681 9.76392H75.5972L74.1914 12.8439H73.8501ZM73.9679 10.2434L73.9638 10.796C73.9638 10.8854 73.9923 10.926 74.041 10.926C74.0898 10.926 74.1142 10.8976 74.1142 10.7919L74.1182 10.2434C74.1182 10.154 74.0898 10.1256 74.0451 10.1256C73.9963 10.1256 73.9679 10.154 73.9679 10.2434ZM75.9873 11.7956V12.2791C75.9873 12.6611 75.8085 12.8886 75.4225 12.8886C75.0365 12.8886 74.8699 12.661 74.8618 12.2913V11.7996C74.8618 11.5233 74.9837 11.2267 75.4266 11.2267C75.8288 11.2267 75.9913 11.503 75.9873 11.7956ZM75.3494 11.7631L75.3453 12.3157C75.3453 12.4051 75.3738 12.4457 75.4225 12.4457C75.4713 12.4457 75.4956 12.4173 75.4956 12.3116L75.4997 11.7631C75.4997 11.6737 75.4713 11.6452 75.4266 11.6452C75.3778 11.6452 75.3494 11.6737 75.3494 11.7631Z" fill="#00579C"/>
<path d="M74.4324 14.1786C74.4324 14.6946 74.2455 14.9059 73.9854 14.9059C73.6725 14.9059 73.5547 14.5727 73.5547 14.1989C73.5547 13.8251 73.705 13.5 74.0098 13.5C74.343 13.5 74.4365 13.8657 74.4324 14.1786ZM73.831 14.203C73.831 14.5158 73.8879 14.6743 73.9976 14.6743C74.1114 14.6743 74.152 14.4711 74.1561 14.1908C74.1561 13.951 74.1195 13.7316 74.0017 13.7316C73.892 13.7316 73.8351 13.9063 73.831 14.203Z" fill="#00579C"/>
<path d="M74.6017 13.5156L75.199 13.5197V13.7513H74.8699V14.1048H75.1787V14.3283H74.8699L74.8658 14.8931H74.5977L74.6017 13.5156Z" fill="#00579C"/>
<path d="M75.4025 13.5195L75.9998 13.5236V13.7552H75.6707V14.1087H75.9795V14.3322H75.6707L75.6666 14.897H75.3984L75.4025 13.5195Z" fill="#00579C"/>
<path d="M58.8841 14.1875C58.815 14.1956 58.4696 14.22 58.4696 14.5938C58.4696 14.9758 58.8069 15.0205 59.1685 15.0205C59.6033 15.0205 59.8634 14.8905 59.8593 14.5776C59.8593 14.22 59.5505 14.1916 59.4448 14.1875V14.4272C59.4895 14.4313 59.6562 14.4354 59.6562 14.5816C59.6562 14.732 59.4733 14.7726 59.1645 14.7726C58.9085 14.7726 58.6728 14.7482 58.6728 14.5938C58.6728 14.4516 58.8353 14.4394 58.8881 14.4313L58.8841 14.1875Z" fill="#3B3B3B"/>
<path d="M59.1727 13.1875C58.681 13.1875 58.4657 13.3257 58.4657 13.6345C58.4657 13.923 58.677 14.0652 59.1767 14.0652C59.6643 14.0652 59.8594 13.8986 59.8594 13.6182C59.8594 13.3257 59.64 13.1875 59.1727 13.1875ZM59.1808 13.8173C58.8598 13.8173 58.6688 13.7726 58.6688 13.6304C58.6688 13.4801 58.8435 13.4394 59.1767 13.4354C59.4896 13.4354 59.6521 13.4801 59.6521 13.6263C59.6562 13.7686 59.4815 13.8173 59.1808 13.8173Z" fill="#3B3B3B"/>
<path d="M59.8359 12.7689L58.9095 12.773C58.7998 12.773 58.6698 12.7445 58.6657 12.5982C58.6657 12.456 58.7754 12.4235 58.9054 12.4235L59.8359 12.4194V12.1797L58.9014 12.1838C58.6576 12.1838 58.4625 12.2813 58.4625 12.6064C58.4625 12.9274 58.6495 13.0209 58.9014 13.0168L59.8359 13.0127V12.7689Z" fill="#3B3B3B"/>
<path d="M59.8359 11.9643V11.558C59.8359 11.3345 59.7018 11.1679 59.4337 11.1719C59.1736 11.1719 59.0355 11.3264 59.0355 11.5824V11.7286L58.4869 11.7327V11.9724L59.8359 11.9643ZM59.2305 11.7246V11.6067C59.2305 11.4726 59.2955 11.4117 59.4377 11.4117C59.5718 11.4117 59.6409 11.4808 59.6409 11.5905V11.7205L59.2305 11.7246Z" fill="#3B3B3B"/>
<path d="M59.1649 10.1681C58.6732 10.1681 58.4578 10.3062 58.4578 10.615C58.4578 10.9035 58.6691 11.0457 59.1689 11.0457C59.6565 11.0457 59.8516 10.8791 59.8516 10.5987C59.8516 10.3062 59.6321 10.164 59.1649 10.1681ZM59.173 10.7978C58.852 10.7978 58.661 10.7531 58.661 10.6109C58.661 10.4606 58.8357 10.42 59.1689 10.4159C59.4818 10.4159 59.6443 10.4606 59.6443 10.6069C59.6484 10.7491 59.4737 10.7938 59.173 10.7978Z" fill="#3B3B3B"/>
<path d="M58.4791 9.97735L59.8281 9.97329V9.70104C59.0805 9.42474 58.9383 9.37192 58.8732 9.35566C59.0358 9.36785 59.2349 9.36785 59.4543 9.36379H59.8281V9.14844L58.4791 9.1525V9.41661C59.2755 9.70104 59.4177 9.75387 59.4787 9.77012C59.3121 9.76199 59.113 9.76199 58.8732 9.76199H58.4791V9.97735Z" fill="#3B3B3B"/>
<path d="M65.9017 16.0366L75.8242 16.0859L75.8192 17.0896L65.8967 17.0402L65.9017 16.0366Z" fill="#00579C"/>
<path d="M67.5974 7.39844L67.7152 7.77228L68.1094 7.77634L67.7884 8.00389L67.9103 8.37773L67.5933 8.14612L67.2723 8.37367L67.3983 8.00389L67.0814 7.76821L67.4755 7.77228L67.5974 7.39844Z" fill="#00579C"/>
<path d="M68.9646 7.40625L69.0824 7.78009H69.4766L69.1556 8.01171L69.2775 8.38555L68.9605 8.15393L68.6395 8.38148L68.7655 8.00764L68.4485 7.77603L68.8427 7.78009L68.9646 7.40625Z" fill="#00579C"/>
<path d="M70.3318 7.41406L70.4496 7.78787H70.8438L70.5228 8.01541L70.6447 8.38921L70.3277 8.15762L70.0068 8.38921L70.1327 8.01541L69.8158 7.78381H70.2099L70.3318 7.41406Z" fill="#00579C"/>
<path d="M71.6951 7.41797L71.8129 7.79179L72.207 7.79586L71.886 8.0234L72.0079 8.39723L71.691 8.16562L71.37 8.39316L71.496 8.0234L71.179 7.79179H71.5732L71.6951 7.41797Z" fill="#00579C"/>
<path d="M73.0583 7.42578L73.1762 7.79961H73.5703L73.2493 8.03121L73.3712 8.40504L73.0543 8.17343L72.7333 8.40097L72.8592 8.02715L72.5423 7.79554L72.9324 7.79961L73.0583 7.42578Z" fill="#00579C"/>
<path d="M74.4256 7.4375L74.5434 7.81132H74.9375L74.6165 8.03887L74.7384 8.41269L74.4215 8.18108L74.1005 8.41269L74.2265 8.03887L73.9096 7.80726H74.2996L74.4256 7.4375Z" fill="#00579C"/>
<path d="M80.8242 3.64885L77.6182 0L73.1811 0.414458L80.8242 3.64885Z" fill="white"/>
<path d="M45.4367 10.0768L45.7617 7.98828L43.3808 9.34136L45.4367 10.0768Z" fill="#FCE05B"/>
<path d="M63.2741 34.5789L75.8906 33.1445L67.6827 37.5248L63.2741 34.5789Z" fill="#33A6FF"/>
<path d="M31.9868 49.1112L32.5597 48.0547L35.6641 47.9531L33.4699 49.4159L31.9868 49.1112Z" fill="white"/>
<path d="M55.1852 25.3281L57.359 25.9092L58.2773 26.7543L56.0994 27.372L53.6533 26.474L55.1852 25.3281Z" fill="#33A6FF"/>
<path d="M65.7456 56.4539L61.8774 58.896L62.0765 56.7749L66.9727 53.1992L65.7456 56.4539Z" fill="#FCA858"/>
<path d="M114.777 7.54328C114.578 8.1609 92.9129 58.6312 92.7341 58.8953C92.2059 60.094 90.3774 59.9518 89.65 59.2407C89.516 59.1066 89.4022 58.9522 89.3168 58.7775C89.3087 58.4321 89.3494 58.1152 89.4225 57.8267L85.7046 50.4965C85.4974 50.0861 85.7249 48.863 86.2125 47.7497L102.518 10.2779C102.998 9.17267 103.742 8.16497 104.184 8.02681L111.901 5.44255C112.112 4.77211 112.811 4.52018 113.469 4.65021C114.387 4.83712 115.476 5.95047 114.777 7.54328Z" fill="#F10101"/>
<path d="M89.2708 58.6844L85.1182 50.314C84.915 49.9036 85.1507 48.6724 85.6342 47.555L102.03 9.88001C102.513 8.76667 103.257 7.75084 103.7 7.60863L112.74 4.67492C113.468 4.43925 113.553 5.44289 112.911 6.92599L91.0628 57.2134C90.4126 58.7087 89.6081 59.3589 89.2708 58.6844Z" fill="black"/>
<path d="M89.4946 58.4804C89.4662 58.4479 89.4418 58.4113 89.4215 58.3666L85.2444 50.0409C85.0697 49.6915 85.2729 48.6106 85.6995 47.6314L102.132 9.87116C102.554 8.89597 103.204 8.0061 103.586 7.8842L112.611 4.99926C112.627 4.9952 112.647 4.98707 112.664 4.98301C112.94 4.918 113.107 5.07647 113.127 5.43404C113.147 5.79973 113.017 6.34015 112.753 6.94558L90.9696 57.0908C90.4536 58.261 89.8197 58.8542 89.4946 58.4804Z" fill="black"/>
<path d="M90.725 56.8091L85.7637 47.9308L102.57 9.31713L112.594 6.46875L90.725 56.8091Z" fill="white"/>
<path d="M110.574 11.1253L101.013 12.8888L102.57 9.31713L112.594 6.46875L110.574 11.1253Z" fill="#1FBFC7"/>
<path d="M107.369 10.7941L103.842 11.5295L104.171 10.7697L107.734 9.95703L107.369 10.7941Z" fill="#D2F2F4"/>
<path d="M98.7968 35.9769L93.0107 32.1736L98.4108 20.2031L105.469 21.1905L98.7968 35.9769Z" fill="#04BEF5"/>
<path d="M98.8622 29.2335L96.6801 28.2867C96.6395 28.2705 96.6314 28.1974 96.6558 28.1039L97.4684 25.2962C97.4887 25.2311 97.5213 25.1661 97.5619 25.1174C97.6025 25.0686 97.6472 25.0483 97.6757 25.0564L100.845 26.0357C100.882 26.0479 100.902 26.0926 100.898 26.1576C100.894 26.2226 100.865 26.2998 100.825 26.3648L99.0328 29.1157C98.98 29.2091 98.9109 29.2538 98.8622 29.2335ZM96.9361 27.9048L98.9841 28.7581L100.488 26.442L97.6228 25.5115L96.9361 27.9048Z" fill="#025B75"/>
<path d="M98.1209 30.3711L96.2965 29.4894C96.2477 29.465 96.2477 29.3512 96.2965 29.2374C96.3493 29.1237 96.4306 29.0505 96.4834 29.0749L98.2428 29.8916C98.3728 29.9445 98.515 29.786 98.6125 29.5991C98.6979 29.4325 98.7466 29.2456 98.7141 29.1684L101.408 25.0156C101.465 24.9262 101.542 24.8734 101.591 24.8896L102.387 25.1009C102.456 25.1213 102.465 25.2391 102.408 25.3691C102.351 25.4991 102.245 25.5845 102.176 25.5682L101.469 25.3691L98.9579 29.2496C98.8726 29.8835 98.3362 30.4727 98.1209 30.3711Z" fill="#025B75"/>
<path d="M96.5492 30.4718C96.4273 30.74 96.2323 30.9066 96.1144 30.8416C95.9966 30.7806 96.0007 30.5124 96.1185 30.2483C96.2363 29.9841 96.4314 29.8175 96.5492 29.8744C96.6711 29.9394 96.6711 30.2036 96.5492 30.4718Z" fill="#025B75"/>
<path d="M97.6893 31.0574C97.5633 31.3377 97.3561 31.5084 97.2301 31.4393C97.1041 31.3702 97.1041 31.0939 97.226 30.8176C97.3479 30.5413 97.5552 30.3707 97.6811 30.4357C97.8112 30.5007 97.8152 30.777 97.6893 31.0574Z" fill="#025B75"/>
<path d="M97.7853 28.7673C97.7284 28.7429 97.7284 28.6291 97.7813 28.5113L99.0368 25.7279C99.0896 25.6101 99.179 25.5288 99.2359 25.545C99.2928 25.5613 99.2969 25.6751 99.244 25.7929L97.9804 28.5966C97.9316 28.7145 97.8422 28.7917 97.7853 28.7673Z" fill="#025B75"/>
<path d="M97.2343 28.5324C97.1896 28.5121 97.1815 28.4308 97.214 28.3292L98.1525 25.5053C98.1891 25.3915 98.2744 25.2899 98.3394 25.2818C98.4044 25.2737 98.4248 25.359 98.3882 25.4768L97.4456 28.3211C97.4049 28.439 97.3237 28.5405 97.2587 28.5405C97.2505 28.5365 97.2424 28.5324 97.2343 28.5324Z" fill="#025B75"/>
<path d="M98.3292 29.0012C98.3251 28.9971 98.3211 28.9971 98.317 28.993C98.2682 28.9524 98.2804 28.8224 98.3414 28.7086L99.8245 25.9416C99.8855 25.8238 99.9789 25.7588 100.032 25.7953C100.085 25.8319 100.076 25.9579 100.011 26.0757L98.5161 28.863C98.4592 28.9646 98.382 29.0255 98.3292 29.0012Z" fill="#025B75"/>
<path d="M99.7384 27.894L97.0851 26.8863C97.0322 26.866 97.0322 26.7603 97.0851 26.6466C97.1379 26.5328 97.2192 26.4556 97.272 26.4759L99.9416 27.447C100.003 27.4714 100.011 27.5892 99.9538 27.7111C99.8969 27.8371 99.7994 27.9183 99.7384 27.894Z" fill="#025B75"/>
<path d="M95.7816 39.4973L92.1571 36.3888C91.897 36.1653 91.9417 35.438 92.2465 34.7594C92.5553 34.0809 93.0185 33.6827 93.2907 33.8777L97.0859 36.6001C97.4557 36.8642 97.4638 37.75 97.094 38.5668C96.7283 39.3875 96.1351 39.802 95.7816 39.4973Z" fill="#F15330"/>
<path d="M92.9315 35.6587L92.8299 35.8131L92.769 35.7643L93.2078 35.0898L93.2891 35.1508L93.0534 35.9919L92.9843 35.935L93.0371 35.74L92.9315 35.6587ZM93.09 35.6018C93.1428 35.423 93.1753 35.3133 93.1956 35.2402C93.155 35.3093 93.0859 35.4149 93.0087 35.5409L93.09 35.6018Z" fill="white"/>
<path d="M93.4334 35.2617L93.5553 35.3552C93.6447 35.4242 93.6366 35.6152 93.535 35.8428C93.4334 36.0663 93.2994 36.1922 93.2059 36.115L93.0881 36.0216L93.4334 35.2617ZM93.214 35.9444L93.2628 35.985C93.3197 36.0297 93.3969 35.9403 93.4659 35.794C93.5228 35.6681 93.5513 35.534 93.4903 35.4893L93.4416 35.4486L93.214 35.9444Z" fill="white"/>
<path d="M93.7623 35.5156L93.8882 35.6131C93.9817 35.6822 93.9736 35.8813 93.8679 36.1088C93.7663 36.3363 93.6282 36.4623 93.5347 36.3851L93.4169 36.2876L93.7623 35.5156ZM93.5429 36.2063L93.5916 36.2469C93.6526 36.2957 93.7298 36.2063 93.7948 36.0519C93.8517 35.926 93.8801 35.7878 93.8192 35.7391L93.7663 35.6985L93.5429 36.2063Z" fill="white"/>
<path d="M94.2137 36.0513L94.1161 35.9741L94.1771 35.8359L94.4453 36.0432L94.3803 36.1854L94.2828 36.1082L93.9902 36.7583L93.9211 36.7014L94.2137 36.0513Z" fill="white"/>
<path d="M94.6048 36.7011C94.5032 36.9246 94.361 37.0709 94.2554 36.9856C94.1538 36.9002 94.1823 36.6767 94.2838 36.4492C94.3895 36.2176 94.5276 36.0876 94.6292 36.1688C94.7267 36.242 94.7145 36.4533 94.6048 36.7011ZM94.357 36.502C94.2879 36.6564 94.2635 36.7987 94.3204 36.8434C94.3854 36.8962 94.4667 36.7824 94.5276 36.6402C94.5967 36.4898 94.6251 36.3476 94.5601 36.3029C94.5032 36.2582 94.426 36.3476 94.357 36.502Z" fill="white"/>
<path d="M95.0123 37.2339C94.931 37.3761 94.8294 37.4493 94.7441 37.3802C94.6344 37.2908 94.6669 37.0714 94.7726 36.8398C94.8741 36.6164 95.0164 36.462 95.1261 36.5473C95.2195 36.6164 95.2073 36.7789 95.1545 36.9251L95.0814 36.8683C95.1017 36.7992 95.1139 36.722 95.0651 36.6854C95.0042 36.6367 94.9229 36.7504 94.8538 36.8967C94.7929 37.0348 94.7482 37.1933 94.8132 37.2461C94.8619 37.2867 94.9107 37.2217 94.9392 37.177L95.0123 37.2339Z" fill="white"/>
<path d="M95.1018 37.3951L94.988 37.5617L94.9149 37.5008L95.4025 36.7734L95.5 36.8466L95.2521 37.773L95.1709 37.708L95.2278 37.4926L95.1018 37.3951ZM95.2765 37.3382C95.3293 37.1432 95.3659 37.0213 95.3903 36.94C95.3456 37.0132 95.2684 37.131 95.1831 37.2651L95.2765 37.3382Z" fill="white"/>
<path d="M95.5237 37.545L95.3734 37.8781L95.2962 37.8172L95.67 36.9883L95.8285 37.1102C95.9097 37.1711 95.9057 37.3052 95.8488 37.4352C95.8 37.549 95.7431 37.5856 95.7066 37.5937C95.7188 37.6222 95.7269 37.6872 95.6578 37.8375L95.6375 37.8781C95.6131 37.935 95.5847 38 95.5725 38.0407L95.4993 37.9797C95.5075 37.9391 95.5359 37.8741 95.5765 37.7847L95.5806 37.7725C95.6212 37.6831 95.6294 37.6303 95.5725 37.5856L95.5237 37.545ZM95.5887 37.3987L95.6537 37.4515C95.6944 37.484 95.731 37.4596 95.7594 37.3905C95.7919 37.3215 95.7878 37.2686 95.7513 37.2402L95.6822 37.1874L95.5887 37.3987Z" fill="white"/>
<path d="M96.0368 37.4661L95.9231 37.3808L95.9881 37.2305L96.2969 37.4661L96.2278 37.6165L96.114 37.5271L95.8012 38.2219L95.7199 38.1569L96.0368 37.4661Z" fill="white"/>
<path d="M110.041 16.0302C110.13 16.0749 110.223 16.1155 110.317 16.1602L112.442 11.2842C112.523 11.0932 112.438 10.8698 112.247 10.7885C112.056 10.7072 111.832 10.7926 111.751 10.9835L109.638 15.827C109.768 15.8961 109.902 15.9651 110.041 16.0302Z" fill="black"/>
<path d="M109.209 16.6797L106.84 22.1123C106.758 22.3033 106.844 22.5268 107.035 22.608C107.226 22.6893 107.449 22.604 107.53 22.413L109.875 17.0413C109.652 16.9194 109.432 16.8016 109.209 16.6797Z" fill="black"/>
<path d="M48.5904 13.673C49.0862 14.6766 46.9163 15.8915 46.9163 15.8915C46.9163 15.8915 44.7587 14.7172 45.2422 13.673C45.7786 12.5149 46.9285 13.8802 46.9285 13.8802C46.9285 13.8802 48.0866 12.649 48.5904 13.673Z" fill="white"/>
<path d="M37.8855 57.1376C37.8855 57.1376 38.8936 57.2891 39.6119 57.2891C40.3302 57.2891 41.5547 56.6573 41.5547 56.6573V53.5722L39.6552 52.9405L37.8855 52.7891C37.2537 52.7891 36.7388 53.304 36.7388 53.9357V55.991C36.7388 56.6227 37.2537 57.1376 37.8855 57.1376Z" fill="white"/>
<path d="M42 53H44V57H42V53Z" fill="white"/>
<path opacity="0.3" d="M44 53H62V57H44V53Z" fill="url(#paint4_linear_2_1266)"/>
<path opacity="0.5" d="M57 21H75V24H57V21Z" fill="url(#paint5_linear_2_1266)"/>
<path opacity="0.3" d="M47 13.1992H57V15.8992H47V13.1992Z" fill="url(#paint6_linear_2_1266)"/>
<path d="M39.8561 51.0455C40.2259 50.9073 40.6444 51.0942 40.7826 51.4681L41.5547 53.5241L40.0755 53.6826L39.4335 51.9719C39.2953 51.6021 39.4863 51.1836 39.8561 51.0455Z" fill="white"/>
<path d="M36.6057 30.0921C36.1146 30.0921 35.7401 29.954 35.4822 29.6777C35.2244 29.3953 35.0955 28.9932 35.0955 28.4713V28.3516H36.0532V28.5358C36.0532 28.9594 36.2281 29.1712 36.5781 29.1712C36.7684 29.1712 36.9096 29.1129 37.0017 28.9962C37.0938 28.8796 37.1398 28.6739 37.1398 28.3793V27.1453H37.1214C36.9434 27.5198 36.6364 27.707 36.2005 27.707C35.8322 27.707 35.5528 27.5812 35.3625 27.3295C35.1722 27.0778 35.077 26.7125 35.077 26.2336V25.0825C35.077 24.5668 35.209 24.1678 35.473 23.8854C35.737 23.603 36.1176 23.4618 36.6149 23.4618C37.1122 23.4618 37.4928 23.603 37.7568 23.8854C38.0208 24.1678 38.1528 24.5668 38.1528 25.0825V28.4161C38.1528 29.5334 37.6371 30.0921 36.6057 30.0921ZM36.6149 26.7861C36.9648 26.7861 37.1398 26.5743 37.1398 26.1507V25.0088C37.1398 24.5914 36.9648 24.3827 36.6149 24.3827C36.265 24.3827 36.09 24.5914 36.09 25.0088V26.1507C36.09 26.5743 36.265 26.7861 36.6149 26.7861ZM40.5138 30.0921C40.0165 30.0921 39.6359 29.9509 39.3719 29.6685C39.1079 29.3861 38.9759 28.987 38.9759 28.4713V25.0825C38.9759 24.5668 39.1079 24.1678 39.3719 23.8854C39.6359 23.603 40.0165 23.4618 40.5138 23.4618C41.0111 23.4618 41.3917 23.603 41.6557 23.8854C41.9197 24.1678 42.0517 24.5668 42.0517 25.0825V28.4713C42.0517 28.987 41.9197 29.3861 41.6557 29.6685C41.3917 29.9509 41.0111 30.0921 40.5138 30.0921ZM40.5138 29.1712C40.8637 29.1712 41.0387 28.9594 41.0387 28.5358V25.0181C41.0387 24.5945 40.8637 24.3827 40.5138 24.3827C40.1639 24.3827 39.9889 24.5945 39.9889 25.0181V28.5358C39.9889 28.9594 40.1639 29.1712 40.5138 29.1712Z" fill="#F13005"/>
<path d="M35.4822 29.6777L35.3198 29.826L35.3214 29.8278L35.4822 29.6777ZM35.0955 28.3516V28.1316H34.8755V28.3516H35.0955ZM36.0532 28.3516H36.2732V28.1316H36.0532V28.3516ZM37.1398 27.1453H37.3598V26.9253H37.1398V27.1453ZM37.1214 27.1453V26.9253H36.9824L36.9227 27.0508L37.1214 27.1453ZM35.473 23.8854L35.6337 24.0356L35.473 23.8854ZM37.7568 23.8854L37.5961 24.0356L37.7568 23.8854ZM36.6057 29.8721C36.1563 29.8721 35.8478 29.7469 35.6431 29.5276L35.3214 29.8278C35.6324 30.161 36.0728 30.3121 36.6057 30.3121V29.8721ZM35.6447 29.5294C35.4356 29.3003 35.3155 28.9585 35.3155 28.4713H34.8755C34.8755 29.0278 35.0132 29.4903 35.3198 29.826L35.6447 29.5294ZM35.3155 28.4713V28.3516H34.8755V28.4713H35.3155ZM35.0955 28.5716H36.0532V28.1316H35.0955V28.5716ZM35.8332 28.3516V28.5358H36.2732V28.3516H35.8332ZM35.8332 28.5358C35.8332 28.7724 35.8812 28.9907 36.0148 29.1525C36.1551 29.3223 36.3569 29.3912 36.5781 29.3912V28.9512C36.4493 28.9512 36.3887 28.9143 36.354 28.8722C36.3127 28.8222 36.2732 28.7228 36.2732 28.5358H35.8332ZM36.5781 29.3912C36.8151 29.3912 37.0293 29.3163 37.1744 29.1326L36.829 28.8599C36.7899 28.9094 36.7216 28.9512 36.5781 28.9512V29.3912ZM37.1744 29.1326C37.3154 28.9539 37.3598 28.6823 37.3598 28.3793H36.9198C36.9198 28.6656 36.8722 28.8053 36.829 28.8599L37.1744 29.1326ZM37.3598 28.3793V27.1453H36.9198V28.3793H37.3598ZM37.1398 26.9253H37.1214V27.3653H37.1398V26.9253ZM36.9227 27.0508C36.8492 27.2055 36.7547 27.3107 36.6431 27.3788C36.5308 27.4473 36.3866 27.487 36.2005 27.487V27.927C36.4503 27.927 36.6776 27.8731 36.8722 27.7544C37.0676 27.6352 37.2156 27.4596 37.3201 27.2397L36.9227 27.0508ZM36.2005 27.487C35.888 27.487 35.6794 27.3838 35.538 27.1968L35.187 27.4621C35.4262 27.7785 35.7763 27.927 36.2005 27.927V27.487ZM35.538 27.1968C35.3881 26.9985 35.297 26.688 35.297 26.2336H34.857C34.857 26.7369 34.9563 27.157 35.187 27.4621L35.538 27.1968ZM35.297 26.2336V25.0825H34.857V26.2336H35.297ZM35.297 25.0825C35.297 24.6036 35.4191 24.2652 35.6337 24.0356L35.3123 23.7351C34.999 24.0704 34.857 24.5301 34.857 25.0825H35.297ZM35.6337 24.0356C35.845 23.8096 36.1601 23.6818 36.6149 23.6818V23.2418C36.0752 23.2418 35.629 23.3964 35.3123 23.7351L35.6337 24.0356ZM36.6149 23.6818C37.0697 23.6818 37.3848 23.8096 37.5961 24.0356L37.9175 23.7351C37.6008 23.3964 37.1547 23.2418 36.6149 23.2418V23.6818ZM37.5961 24.0356C37.8107 24.2652 37.9328 24.6036 37.9328 25.0825H38.3728C38.3728 24.5301 38.2309 24.0704 37.9175 23.7351L37.5961 24.0356ZM37.9328 25.0825V28.4161H38.3728V25.0825H37.9328ZM37.9328 28.4161C37.9328 28.945 37.8103 29.3007 37.6043 29.5239C37.4014 29.7437 37.0828 29.8721 36.6057 29.8721V30.3121C37.16 30.3121 37.6149 30.1611 37.9277 29.8223C38.2374 29.4868 38.3728 29.0045 38.3728 28.4161H37.9328ZM36.6149 27.0061C36.836 27.0061 37.0379 26.9372 37.1782 26.7674C37.3118 26.6057 37.3598 26.3873 37.3598 26.1507H36.9198C36.9198 26.3378 36.8803 26.4371 36.839 26.4872C36.8043 26.5292 36.7437 26.5661 36.6149 26.5661V27.0061ZM37.3598 26.1507V25.0088H36.9198V26.1507H37.3598ZM37.3598 25.0088C37.3598 24.7747 37.3116 24.5582 37.1772 24.3979C37.0366 24.2301 36.835 24.1627 36.6149 24.1627V24.6027C36.7448 24.6027 36.8056 24.6395 36.84 24.6805C36.8806 24.729 36.9198 24.8255 36.9198 25.0088H37.3598ZM36.6149 24.1627C36.3948 24.1627 36.1932 24.2301 36.0526 24.3979C35.9183 24.5582 35.87 24.7747 35.87 25.0088H36.31C36.31 24.8255 36.3492 24.729 36.3898 24.6805C36.4242 24.6395 36.485 24.6027 36.6149 24.6027V24.1627ZM35.87 25.0088V26.1507H36.31V25.0088H35.87ZM35.87 26.1507C35.87 26.3873 35.918 26.6057 36.0516 26.7674C36.1919 26.9372 36.3938 27.0061 36.6149 27.0061V26.5661C36.4861 26.5661 36.4255 26.5292 36.3908 26.4872C36.3495 26.4371 36.31 26.3378 36.31 26.1507H35.87ZM39.3719 29.6685L39.5326 29.5182L39.3719 29.6685ZM39.3719 23.8854L39.5326 24.0356L39.3719 23.8854ZM41.6557 23.8854L41.495 24.0356L41.6557 23.8854ZM41.6557 29.6685L41.495 29.5182L41.6557 29.6685ZM40.5138 29.8721C40.059 29.8721 39.7439 29.7443 39.5326 29.5182L39.2112 29.8187C39.5279 30.1575 39.9741 30.3121 40.5138 30.3121V29.8721ZM39.5326 29.5182C39.318 29.2887 39.1959 28.9503 39.1959 28.4713H38.7559C38.7559 29.0238 38.8979 29.4835 39.2112 29.8187L39.5326 29.5182ZM39.1959 28.4713V25.0825H38.7559V28.4713H39.1959ZM39.1959 25.0825C39.1959 24.6036 39.318 24.2652 39.5326 24.0356L39.2112 23.7351C38.8979 24.0704 38.7559 24.5301 38.7559 25.0825H39.1959ZM39.5326 24.0356C39.7439 23.8096 40.059 23.6818 40.5138 23.6818V23.2418C39.9741 23.2418 39.5279 23.3964 39.2112 23.7351L39.5326 24.0356ZM40.5138 23.6818C40.9686 23.6818 41.2837 23.8096 41.495 24.0356L41.8164 23.7351C41.4997 23.3964 41.0536 23.2418 40.5138 23.2418V23.6818ZM41.495 24.0356C41.7096 24.2652 41.8317 24.6036 41.8317 25.0825H42.2717C42.2717 24.5301 42.1298 24.0704 41.8164 23.7351L41.495 24.0356ZM41.8317 25.0825V28.4713H42.2717V25.0825H41.8317ZM41.8317 28.4713C41.8317 28.9503 41.7096 29.2887 41.495 29.5182L41.8164 29.8187C42.1298 29.4835 42.2717 29.0238 42.2717 28.4713H41.8317ZM41.495 29.5182C41.2837 29.7443 40.9686 29.8721 40.5138 29.8721V30.3121C41.0536 30.3121 41.4997 30.1575 41.8164 29.8187L41.495 29.5182ZM40.5138 29.3912C40.7349 29.3912 40.9368 29.3223 41.0771 29.1525C41.2107 28.9907 41.2587 28.7724 41.2587 28.5358H40.8187C40.8187 28.7228 40.7792 28.8222 40.7379 28.8722C40.7032 28.9143 40.6426 28.9512 40.5138 28.9512V29.3912ZM41.2587 28.5358V25.0181H40.8187V28.5358H41.2587ZM41.2587 25.0181C41.2587 24.7815 41.2107 24.5631 41.0771 24.4014C40.9368 24.2316 40.7349 24.1627 40.5138 24.1627V24.6027C40.6426 24.6027 40.7032 24.6396 40.7379 24.6816C40.7792 24.7317 40.8187 24.831 40.8187 25.0181H41.2587ZM40.5138 24.1627C40.2927 24.1627 40.0908 24.2316 39.9505 24.4014C39.8169 24.5631 39.7689 24.7815 39.7689 25.0181H40.2089C40.2089 24.831 40.2484 24.7317 40.2897 24.6816C40.3245 24.6396 40.385 24.6027 40.5138 24.6027V24.1627ZM39.7689 25.0181V28.5358H40.2089V25.0181H39.7689ZM39.7689 28.5358C39.7689 28.7724 39.8169 28.9907 39.9505 29.1525C40.0908 29.3223 40.2927 29.3912 40.5138 29.3912V28.9512C40.385 28.9512 40.3245 28.9143 40.2897 28.8722C40.2484 28.8222 40.2089 28.7228 40.2089 28.5358H39.7689Z" fill="#F13005"/>
<path d="M55.0165 42.9862H53.9014V42.4839H55.5589V42.9661L54.695 46H54.1324L55.0165 42.9862Z" fill="#3B3B3B"/>
<path d="M55.0165 42.9862L55.1316 43.02L55.1767 42.8662H55.0165V42.9862ZM53.9014 42.9862H53.7814V43.1062H53.9014V42.9862ZM53.9014 42.4839V42.3639H53.7814V42.4839H53.9014ZM55.5589 42.4839H55.6789V42.3639H55.5589V42.4839ZM55.5589 42.9661L55.6744 42.999L55.6789 42.9829V42.9661H55.5589ZM54.695 46V46.12H54.7856L54.8104 46.0329L54.695 46ZM54.1324 46L54.0173 45.9662L53.9722 46.12H54.1324V46ZM55.0165 42.8662H53.9014V43.1062H55.0165V42.8662ZM54.0214 42.9862V42.4839H53.7814V42.9862H54.0214ZM53.9014 42.6039H55.5589V42.3639H53.9014V42.6039ZM55.4389 42.4839V42.9661H55.6789V42.4839H55.4389ZM55.4435 42.9333L54.5796 45.9671L54.8104 46.0329L55.6744 42.999L55.4435 42.9333ZM54.695 45.88H54.1324V46.12H54.695V45.88ZM54.2476 46.0338L55.1316 43.02L54.9013 42.9524L54.0173 45.9662L54.2476 46.0338Z" fill="#3B3B3B"/>
<path d="M68.1006 15.0753C67.6837 15.0753 67.3623 14.9648 67.1362 14.7438C66.9152 14.5178 66.8047 14.1938 66.8047 13.7719V13.3048C66.8047 13.0436 66.8474 12.8251 66.9328 12.6493C67.0182 12.4684 67.1563 12.3278 67.3472 12.2273V12.2123C67.1714 12.1168 67.0408 11.9862 66.9554 11.8205C66.875 11.6497 66.8349 11.4337 66.8349 11.1725V10.954C66.8349 10.5321 66.9428 10.2106 67.1588 9.9896C67.3798 9.76356 67.6938 9.65055 68.1006 9.65055C68.5075 9.65055 68.8189 9.76356 69.0349 9.9896C69.2559 10.2106 69.3664 10.5321 69.3664 10.954V11.1725C69.3664 11.6748 69.1956 12.0214 68.8541 12.2123V12.2273C69.045 12.3278 69.1831 12.4684 69.2685 12.6493C69.3539 12.8251 69.3966 13.0436 69.3966 13.3048V13.7719C69.3966 14.1938 69.2835 14.5178 69.0575 14.7438C68.8365 14.9648 68.5175 15.0753 68.1006 15.0753ZM68.1006 11.8732C68.392 11.8732 68.5376 11.6974 68.5376 11.3458V10.9314C68.5376 10.5798 68.392 10.404 68.1006 10.404C67.8093 10.404 67.6636 10.5798 67.6636 10.9314V11.3458C67.6636 11.6974 67.8093 11.8732 68.1006 11.8732ZM68.1006 14.3219C68.4121 14.3219 68.5678 14.1235 68.5678 13.7267V13.2219C68.5678 12.8251 68.4121 12.6267 68.1006 12.6267C67.7892 12.6267 67.6335 12.8251 67.6335 13.2219V13.7267C67.6335 14.1235 67.7892 14.3219 68.1006 14.3219ZM71.2907 15.0753C70.8838 15.0753 70.5724 14.9598 70.3564 14.7288C70.1404 14.4977 70.0324 14.1712 70.0324 13.7493V11.0218C70.0324 10.1076 70.4543 9.65055 71.2982 9.65055C71.7 9.65055 72.0064 9.76607 72.2174 9.99713C72.4284 10.2232 72.5338 10.5497 72.5338 10.9766V11.0746H71.7503V10.9239C71.7503 10.5773 71.6071 10.404 71.3208 10.404C71.1651 10.404 71.0495 10.4517 70.9742 10.5471C70.8989 10.6426 70.8612 10.8109 70.8612 11.052V12.0616H70.8763C71.0219 11.7552 71.2731 11.602 71.6297 11.602C71.9311 11.602 72.1596 11.7049 72.3153 11.9109C72.471 12.1168 72.5489 12.4157 72.5489 12.8075V13.7493C72.5489 14.1712 72.4409 14.4977 72.2249 14.7288C72.0089 14.9598 71.6975 15.0753 71.2907 15.0753ZM71.2907 14.3219C71.577 14.3219 71.7201 14.1511 71.7201 13.8096V12.8753C71.7201 12.5287 71.577 12.3554 71.2907 12.3554C71.0043 12.3554 70.8612 12.5287 70.8612 12.8753V13.8096C70.8612 14.1511 71.0043 14.3219 71.2907 14.3219Z" fill="#00579C"/>
<defs>
<linearGradient id="paint0_linear_2_1266" x1="21" y1="30" x2="132" y2="30" gradientUnits="userSpaceOnUse">
<stop stop-color="#F12C00"/>
<stop offset="1" stop-color="#F12C00" stop-opacity="0"/>
</linearGradient>
<linearGradient id="paint1_linear_2_1266" x1="61.0015" y1="44.0017" x2="78.0015" y2="44.0017" gradientUnits="userSpaceOnUse">
<stop stop-color="white"/>
<stop offset="1" stop-color="white" stop-opacity="0"/>
</linearGradient>
<linearGradient id="paint2_linear_2_1266" x1="46.954" y1="26.1333" x2="68.625" y2="26.1333" gradientUnits="userSpaceOnUse">
<stop stop-color="white"/>
<stop offset="1" stop-color="white" stop-opacity="0"/>
</linearGradient>
<linearGradient id="paint3_linear_2_1266" x1="76.7525" y1="12.5889" x2="89.6197" y2="12.5889" gradientUnits="userSpaceOnUse">
<stop stop-color="white"/>
<stop offset="1" stop-color="white" stop-opacity="0"/>
</linearGradient>
<linearGradient id="paint4_linear_2_1266" x1="44" y1="55" x2="63" y2="55" gradientUnits="userSpaceOnUse">
<stop stop-color="white"/>
<stop offset="1" stop-color="white" stop-opacity="0"/>
</linearGradient>
<linearGradient id="paint5_linear_2_1266" x1="57" y1="22.5" x2="76" y2="22.5" gradientUnits="userSpaceOnUse">
<stop stop-color="white"/>
<stop offset="1" stop-color="white" stop-opacity="0"/>
</linearGradient>
<linearGradient id="paint6_linear_2_1266" x1="47" y1="14.5492" x2="57.5556" y2="14.5492" gradientUnits="userSpaceOnUse">
<stop stop-color="white"/>
<stop offset="1" stop-color="white" stop-opacity="0"/>
</linearGradient>
</defs>
</svg>
