<svg width="140" height="60" viewBox="0 0 140 60" fill="none" xmlns="http://www.w3.org/2000/svg">
<path d="M20.9657 38.1297C24.7804 38.1297 27.1221 36.2054 27.1221 33.1568C27.1221 30.7892 25.7234 29.4595 22.481 28.8L20.8703 28.4649C19.0584 28.0973 18.3272 27.5027 18.3272 26.5405C18.3272 25.3946 19.3763 24.6378 20.9551 24.6378C22.269 24.6378 23.2545 25.1243 23.7631 26.3027C24.1234 26.973 24.5684 27.2649 25.289 27.2649C26.1049 27.2649 26.6559 26.7351 26.6559 25.9568C26.6559 25.6757 26.6135 25.4486 26.5394 25.2324C25.8612 23.2 23.7525 22 20.9551 22C17.5537 22 15.1166 23.8919 15.1166 26.7459C15.1166 29.0703 16.6106 30.5622 19.6624 31.1784L21.2836 31.5027C23.2015 31.9027 23.9221 32.4865 23.9221 33.5135C23.9221 34.6595 22.7565 35.5027 21.0399 35.5027C19.5776 35.5027 18.3802 34.9622 17.8822 33.773C17.5007 33.0811 17.0663 32.8216 16.4093 32.8216C15.5828 32.8216 15 33.3946 15 34.2595C15 34.5514 15.0636 34.8541 15.1695 35.1351C15.7841 36.8432 17.808 38.1297 20.9657 38.1297Z" fill="#FF8800"/>
<path d="M32.8547 38.0865C34.5713 38.0865 35.6945 37.2432 36.2561 35.7838H36.3197V36.4973C36.3197 37.5459 36.9237 38.0973 37.8138 38.0973C38.7039 38.0973 39.3079 37.5459 39.3079 36.4973V27.6973C39.3079 26.6162 38.6721 26.0432 37.7608 26.0432C36.8601 26.0432 36.2138 26.6162 36.2138 27.6973V32.9189C36.2138 34.4541 35.3555 35.4595 33.9779 35.4595C32.611 35.4595 31.8587 34.6378 31.8587 33.0919V27.6973C31.8587 26.6162 31.2229 26.0432 30.3116 26.0432C29.4109 26.0432 28.7646 26.6162 28.7646 27.6973V33.7514C28.7646 36.4541 30.3964 38.0865 32.8547 38.0865Z" fill="#FF8800"/>
<path d="M42.8682 42C43.7795 42 44.4153 41.4378 44.4153 40.3568V35.9243H44.4789C45.0828 37.2324 46.3544 38.0541 48.0074 38.0541C50.8472 38.0541 52.6062 35.8054 52.6062 32.0757C52.6062 28.3351 50.8366 26.0973 47.9544 26.0973C46.312 26.0973 45.0511 26.9405 44.4365 28.3027H44.3729V27.6757C44.3729 26.6054 43.7371 26.0432 42.847 26.0432C41.9569 26.0432 41.3212 26.6054 41.3212 27.6649V40.3568C41.3212 41.4378 41.9675 42 42.8682 42ZM46.916 35.5135C45.4007 35.5135 44.4047 34.173 44.4047 32.0757C44.4047 30 45.4007 28.627 46.916 28.627C48.4631 28.627 49.4379 29.9784 49.4379 32.0757C49.4379 34.1838 48.4631 35.5135 46.916 35.5135Z" fill="#FF8800"/>
<path d="M59.4302 38.1189C61.6236 38.1189 63.3826 37.2757 64.135 35.8486C64.2727 35.5892 64.3469 35.3297 64.3469 35.0811C64.3469 34.3568 63.8065 33.9243 63.1389 33.9243C62.7362 33.9243 62.4607 34.0432 62.1323 34.3892C61.2952 35.3946 60.5534 35.7838 59.4196 35.7838C57.8514 35.7838 56.8341 34.6595 56.8341 32.9405V32.8H63.319C64.1773 32.8 64.6648 32.3027 64.6648 31.427C64.6648 28.2811 62.5031 26.0324 59.2819 26.0324C55.9228 26.0324 53.793 28.4 53.793 32.1297C53.793 35.8811 55.8805 38.1189 59.4302 38.1189ZM56.8659 30.8649C56.9719 29.3838 57.9573 28.3676 59.3136 28.3676C60.67 28.3676 61.6236 29.3514 61.6872 30.8649H56.8659Z" fill="#FF8800"/>
<path d="M67.8119 38.0973C68.7549 38.0973 69.3589 37.5027 69.3589 36.4541V31.3081C69.3589 29.9351 69.8569 29.1243 71.2663 29.1027C71.8702 29.0919 72.3153 28.9514 72.612 28.6919C72.9087 28.4324 73.057 28.0541 73.057 27.5568C73.057 27.0162 72.9087 26.627 72.612 26.3892C72.3895 26.1946 72.061 26.0973 71.6477 26.0973C70.5139 26.0973 69.5815 26.9514 69.2848 28.3892H69.2212V27.6324C69.2212 26.627 68.6278 26.0432 67.7589 26.0432C66.8688 26.0432 66.2648 26.627 66.2648 27.6324V36.4541C66.2648 37.5027 66.8794 38.0973 67.8119 38.0973Z" fill="#FF8800"/>
<path d="M80.3367 37.8703H85.5077C88.7713 37.8703 90.7952 36.1514 90.7952 33.4054C90.7952 31.3405 89.2693 29.7946 87.1925 29.6324V29.5459C88.8137 29.2973 90.0641 27.8703 90.0641 26.1622C90.0641 23.773 88.2627 22.2703 85.3911 22.2703H80.3367C79.33 22.2703 78.7366 22.8973 78.7366 23.9676V36.1622C78.7366 37.2432 79.33 37.8703 80.3367 37.8703ZM81.9367 28.7568V24.7027H84.5646C86.0587 24.7027 86.917 25.4162 86.917 26.6703C86.917 27.9892 85.9421 28.7568 84.2361 28.7568H81.9367ZM81.9367 35.4378V30.9081H84.6176C86.5037 30.9081 87.5316 31.6865 87.5316 33.1459C87.5316 34.6378 86.5355 35.4378 84.6917 35.4378H81.9367Z" fill="#FF8800"/>
<path d="M97.5662 38.1189C100.999 38.1189 103.193 35.8811 103.193 32.0649C103.193 28.3027 100.968 26.0324 97.5662 26.0324C94.1648 26.0324 91.9396 28.3135 91.9396 32.0649C91.9396 35.8703 94.133 38.1189 97.5662 38.1189ZM97.5662 35.7081C96.0404 35.7081 95.0761 34.4 95.0761 32.0757C95.0761 29.773 96.0616 28.4432 97.5662 28.4432C99.0709 28.4432 100.046 29.773 100.046 32.0757C100.046 34.4 99.0815 35.7081 97.5662 35.7081Z" fill="#FF8800"/>
<path d="M108.502 38.0973C109.604 38.0973 110.218 37.5892 110.483 36.4432L112.2 29.6757H112.263L113.99 36.4216C114.255 37.6 114.859 38.0973 115.993 38.0973C117.063 38.0973 117.657 37.5784 117.975 36.4324L120.263 28.3459C120.38 27.9351 120.433 27.6757 120.433 27.3838C120.433 26.5946 119.829 26.0432 118.971 26.0432C118.208 26.0432 117.71 26.5189 117.54 27.3622L115.845 34.8757H115.781L114.012 27.4919C113.81 26.5514 113.206 26.0432 112.284 26.0432C111.341 26.0432 110.737 26.5514 110.536 27.4919L108.777 34.8757H108.714L107.029 27.3838C106.849 26.5189 106.351 26.0432 105.577 26.0432C104.708 26.0432 104.083 26.6054 104.083 27.3946C104.083 27.6973 104.136 27.9568 104.252 28.3676L106.541 36.4432C106.87 37.5892 107.431 38.0973 108.502 38.0973Z" fill="#FF8800"/>
<path d="M123.453 38.0973C124.364 38.0973 125 37.5351 125 36.4541V23.6865C125 22.6054 124.364 22.0324 123.453 22.0324C122.552 22.0324 121.906 22.6054 121.906 23.6865V36.4541C121.906 37.5351 122.552 38.0973 123.453 38.0973Z" fill="#FF8800"/>
<g opacity="0.6">
<path d="M35.3495 10.1672C35.3649 10.1217 35.3934 10.0817 35.4313 10.0522C35.4692 10.0226 35.515 10.0049 35.5629 10.001L36.9646 9.88966L37.5712 8.54714C37.5905 8.5039 37.6219 8.46717 37.6616 8.44139C37.7014 8.41561 37.7477 8.40188 37.7951 8.40186C37.8425 8.40183 37.8888 8.41551 37.9286 8.44125C37.9683 8.46698 37.9998 8.50367 38.0192 8.54689L38.6257 9.88966L40.0275 10.001C40.0745 10.0048 40.1196 10.022 40.1571 10.0506C40.1947 10.0793 40.2232 10.1181 40.2393 10.1626C40.2553 10.207 40.2582 10.2551 40.2477 10.3011C40.2371 10.3472 40.2135 10.3892 40.1796 10.4222L39.1438 11.4318L39.5101 13.018C39.5213 13.066 39.5177 13.1162 39.4999 13.1622C39.4821 13.2081 39.4509 13.2477 39.4104 13.2757C39.3698 13.3037 39.3218 13.3189 39.2725 13.3193C39.2232 13.3197 39.1749 13.3052 39.1339 13.2778L37.7952 12.3854L36.4564 13.2778C36.4145 13.3056 36.3651 13.3199 36.3149 13.3188C36.2646 13.3177 36.2159 13.3013 36.1753 13.2717C36.1346 13.242 36.1041 13.2007 36.0876 13.1532C36.0712 13.1057 36.0697 13.0543 36.0834 13.0059L36.5331 11.4325L35.4178 10.429C35.3448 10.3632 35.318 10.2604 35.3495 10.1672Z" fill="#F6AA24"/>
<path opacity="0.7" d="M29.9763 10.4447C29.9856 10.4174 30.0026 10.3934 30.0254 10.3757C30.0481 10.358 30.0756 10.3473 30.1043 10.345L30.9454 10.2782L31.3093 9.47267C31.3209 9.44672 31.3398 9.42469 31.3636 9.40922C31.3874 9.39375 31.4152 9.38551 31.4437 9.3855C31.4721 9.38548 31.4999 9.39369 31.5237 9.40913C31.5476 9.42457 31.5665 9.44659 31.5781 9.47252L31.942 10.2782L32.7831 10.345C32.8113 10.3472 32.8383 10.3576 32.8609 10.3748C32.8834 10.3919 32.9005 10.4153 32.9102 10.4419C32.9198 10.4686 32.9215 10.4974 32.9152 10.5251C32.9089 10.5527 32.8947 10.5779 32.8744 10.5977L32.2529 11.2035L32.4727 12.1552C32.4794 12.184 32.4772 12.2141 32.4665 12.2417C32.4559 12.2693 32.4371 12.293 32.4128 12.3098C32.3885 12.3266 32.3597 12.3357 32.3301 12.336C32.3005 12.3362 32.2716 12.3275 32.247 12.3111L31.4437 11.7756L30.6404 12.3111C30.6153 12.3278 30.5857 12.3363 30.5555 12.3357C30.5254 12.335 30.4961 12.3251 30.4718 12.3074C30.4474 12.2896 30.429 12.2648 30.4192 12.2363C30.4093 12.2078 30.4084 12.177 30.4166 12.1479L30.6865 11.2039L30.0173 10.6018C29.9735 10.5623 29.9574 10.5006 29.9763 10.4447Z" fill="#F6AA24"/>
</g>
<g opacity="0.6">
<path d="M105.619 10.1672C105.604 10.1217 105.575 10.0817 105.537 10.0522C105.5 10.0226 105.454 10.0049 105.406 10.001L104.004 9.88966L103.398 8.54714C103.378 8.5039 103.347 8.46717 103.307 8.44139C103.267 8.41561 103.221 8.40188 103.174 8.40186C103.126 8.40183 103.08 8.41551 103.04 8.44125C103 8.46698 102.969 8.50367 102.95 8.54689L102.343 9.88966L100.941 10.001C100.894 10.0048 100.849 10.022 100.812 10.0506C100.774 10.0793 100.746 10.1181 100.729 10.1626C100.713 10.207 100.711 10.2551 100.721 10.3011C100.732 10.3472 100.755 10.3892 100.789 10.4222L101.825 11.4318L101.459 13.018C101.447 13.066 101.451 13.1162 101.469 13.1622C101.487 13.2081 101.518 13.2477 101.558 13.2757C101.599 13.3037 101.647 13.3189 101.696 13.3193C101.746 13.3197 101.794 13.3052 101.835 13.2778L103.174 12.3854L104.512 13.2778C104.554 13.3056 104.604 13.3199 104.654 13.3188C104.704 13.3177 104.753 13.3013 104.793 13.2717C104.834 13.242 104.865 13.2007 104.881 13.1532C104.898 13.1057 104.899 13.0543 104.885 13.0059L104.436 11.4325L105.551 10.429C105.624 10.3632 105.651 10.2604 105.619 10.1672Z" fill="#F6AA24"/>
<path opacity="0.7" d="M110.992 10.4447C110.983 10.4174 110.966 10.3934 110.943 10.3757C110.921 10.358 110.893 10.3473 110.864 10.345L110.023 10.2782L109.659 9.47267C109.648 9.44672 109.629 9.42469 109.605 9.40922C109.581 9.39375 109.554 9.38551 109.525 9.3855C109.497 9.38548 109.469 9.39369 109.445 9.40913C109.421 9.42457 109.402 9.44659 109.391 9.47252L109.027 10.2782L108.186 10.345C108.157 10.3472 108.13 10.3576 108.108 10.3748C108.085 10.3919 108.068 10.4153 108.059 10.4419C108.049 10.4686 108.047 10.4974 108.054 10.5251C108.06 10.5527 108.074 10.5779 108.094 10.5977L108.716 11.2035L108.496 12.1552C108.489 12.184 108.492 12.2141 108.502 12.2417C108.513 12.2693 108.532 12.293 108.556 12.3098C108.58 12.3266 108.609 12.3357 108.639 12.336C108.668 12.3362 108.697 12.3275 108.722 12.3111L109.525 11.7756L110.328 12.3111C110.353 12.3278 110.383 12.3363 110.413 12.3357C110.443 12.335 110.473 12.3251 110.497 12.3074C110.521 12.2896 110.54 12.2648 110.55 12.2363C110.559 12.2078 110.56 12.177 110.552 12.1479L110.282 11.2039L110.951 10.6018C110.995 10.5623 111.011 10.5006 110.992 10.4447Z" fill="#F6AA24"/>
</g>
<path d="M49.7051 16.2322V5.27773H48.0046V16.2322H49.7051ZM51.8379 16.2322H53.4777V11.5786C53.4777 10.3412 54.2217 9.52135 55.3756 9.52135C56.5143 9.52135 57.076 10.1818 57.076 11.3812V16.2322H58.7234V11.0624C58.7234 9.23287 57.7137 8.10934 55.9525 8.10934C54.7227 8.10934 53.8724 8.67111 53.4397 9.58208H53.4018V8.24599H51.8379V16.2322ZM60.4767 10.5082C60.4767 11.6697 61.2282 12.3985 62.7465 12.7477L64.0447 13.0514C64.9177 13.2487 65.2138 13.5524 65.2138 14.0686C65.2138 14.7215 64.6064 15.1314 63.6195 15.1314C62.6175 15.1314 62.0481 14.7215 61.8963 13.8864H60.2717C60.4236 15.4047 61.623 16.384 63.6195 16.384C65.5022 16.384 66.8611 15.3819 66.8611 13.9244C66.8611 12.7705 66.2386 12.1328 64.6064 11.7532L63.3083 11.4572C62.4429 11.2598 62.0785 10.9182 62.0785 10.4171C62.0785 9.77946 62.6706 9.34674 63.5588 9.34674C64.4774 9.34674 65.0467 9.8326 65.1378 10.6069H66.6789C66.6258 9.13418 65.4187 8.10175 63.5588 8.10175C61.7217 8.10175 60.4767 9.08104 60.4767 10.5082ZM70.7856 16.3688C71.8332 16.3688 72.8428 15.8071 73.3059 14.9189H73.3439V16.2322H74.9153V10.7284C74.9153 9.12659 73.6779 8.10175 71.7421 8.10175C69.7683 8.10175 68.5385 9.16455 68.4474 10.6069H69.9961C70.1403 9.89333 70.7324 9.43784 71.6814 9.43784C72.6834 9.43784 73.2831 9.96924 73.2831 10.8574V11.4723L71.0968 11.6014C69.199 11.7077 68.1286 12.5655 68.1286 13.9623C68.1286 15.3971 69.2217 16.3688 70.7856 16.3688ZM71.241 15.0707C70.3604 15.0707 69.7835 14.6152 69.7835 13.9168C69.7835 13.2336 70.3377 12.8008 71.317 12.7325L73.2831 12.6111V13.2412C73.2831 14.2812 72.3874 15.0707 71.241 15.0707ZM76.8205 16.2322H78.4602V11.5786C78.4602 10.3412 79.2042 9.52135 80.3581 9.52135C81.4968 9.52135 82.0585 10.1818 82.0585 11.3812V16.2322H83.7059V11.0624C83.7059 9.23287 82.6962 8.10934 80.935 8.10934C79.7052 8.10934 78.855 8.67111 78.4222 9.58208H78.3843V8.24599H76.8205V16.2322ZM90.8947 13.8864C90.6745 14.5848 89.9837 15.0555 89.0499 15.0555C87.7366 15.0555 86.9016 14.1369 86.9016 12.7477V12.649H92.542V12.0873C92.542 9.66558 91.1604 8.10175 88.9437 8.10175C86.689 8.10175 85.2466 9.77186 85.2466 12.277C85.2466 14.7974 86.6662 16.384 89.012 16.384C90.8415 16.384 92.2232 15.344 92.4509 13.8864H90.8947ZM88.9437 9.42266C90.09 9.42266 90.8643 10.2805 90.9023 11.5027H86.9092C86.9927 10.2957 87.7974 9.42266 88.9437 9.42266Z" fill="white"/>
<path d="M56.613 48.2761C56.613 49.4375 57.3645 50.1663 58.8828 50.5155L60.1809 50.8192C61.0539 51.0166 61.35 51.3202 61.35 51.8364C61.35 52.4893 60.7427 52.8992 59.7558 52.8992C58.7537 52.8992 58.1844 52.4893 58.0326 51.6542H56.408C56.5598 53.1725 57.7593 54.1518 59.7558 54.1518C61.6385 54.1518 62.9974 53.1498 62.9974 51.6922C62.9974 50.5383 62.3749 49.9006 60.7427 49.5211L59.4446 49.225C58.5791 49.0276 58.2147 48.686 58.2147 48.185C58.2147 47.5473 58.8069 47.1146 59.6951 47.1146C60.6136 47.1146 61.183 47.6004 61.2741 48.3747H62.8152C62.762 46.902 61.555 45.8696 59.6951 45.8696C57.858 45.8696 56.613 46.8489 56.613 48.2761ZM66.9218 54.1366C67.9694 54.1366 68.9791 53.5749 69.4422 52.6867H69.4801V54H71.0516V48.4962C71.0516 46.8944 69.8142 45.8696 67.8783 45.8696C65.9046 45.8696 64.6748 46.9324 64.5837 48.3747H66.1323C66.2766 47.6612 66.8687 47.2057 67.8176 47.2057C68.8197 47.2057 69.4194 47.7371 69.4194 48.6253V49.2402L67.2331 49.3692C65.3352 49.4755 64.2648 50.3333 64.2648 51.7302C64.2648 53.1649 65.358 54.1366 66.9218 54.1366ZM67.3773 52.8385C66.4967 52.8385 65.9198 52.383 65.9198 51.6846C65.9198 51.0014 66.4739 50.5687 67.4532 50.5003L69.4194 50.3789V51.009C69.4194 52.049 68.5236 52.8385 67.3773 52.8385ZM73.0174 54H74.6572V43.0456H73.0174V54ZM81.9447 51.6542C81.7245 52.3527 81.0337 52.8233 80.1 52.8233C78.7866 52.8233 77.9516 51.9048 77.9516 50.5155V50.4168H83.592V49.8551C83.592 47.4334 82.2104 45.8696 79.9937 45.8696C77.739 45.8696 76.2966 47.5397 76.2966 50.0449C76.2966 52.5652 77.7162 54.1518 80.062 54.1518C81.8915 54.1518 83.2732 53.1118 83.5009 51.6542H81.9447ZM79.9937 47.1905C81.14 47.1905 81.9143 48.0483 81.9523 49.2705H77.9592C78.0427 48.0635 78.8474 47.1905 79.9937 47.1905Z" fill="white"/>
</svg>
