<svg width="123" height="60" viewBox="0 0 123 60" fill="none" xmlns="http://www.w3.org/2000/svg">
<g clip-path="url(#clip0_3169_30618)">
<path opacity="0.7" d="M46.9062 42.9811L99.6285 39.5854C104.388 39.165 107.235 35.4055 105.334 32.0584L96.2787 9.08103C94.7869 6.45343 90.8797 5.11942 87.3168 6.02089L42.8569 19.0497C39.8623 19.8097 37.895 21.9603 38.0043 24.3534L38.7967 37.6976C38.9442 40.9073 42.6984 43.353 46.9062 42.9811Z" stroke="#E5E5E5" stroke-width="0.5" stroke-miterlimit="10"/>
<path opacity="0.2" d="M81.5623 40.9886L29.8867 37.38C26.4288 37.1398 24.1396 33.2145 25.3084 29.5294L31.5867 5.9014C32.5043 3.00249 35.2378 1.39744 37.865 2.21089L84.175 16.5635C86.3821 17.2459 87.9324 19.4788 88 22.0611L87.0872 34.9451C87.1742 38.4009 84.6194 41.2015 81.5623 40.9886Z" fill="url(#paint0_linear_3169_30618)"/>
<path d="M86.6419 37.9926L28.3979 42.9774C24.5013 43.3097 21.3585 39.9321 22.1124 36.2167L25.5978 12.5951C26.1902 9.67511 29.005 7.68667 32.0547 8.04078L85.9076 14.2022C88.4728 14.4964 90.5386 16.3759 90.9987 18.8328L91.9044 31.3028C92.5212 34.5987 90.0833 37.6985 86.6419 37.9926Z" fill="url(#paint1_linear_3169_30618)"/>
<path opacity="0.1" d="M86.6419 37.9926L28.3979 42.9774C24.5013 43.3097 21.3585 39.9321 22.1124 36.2167L25.5978 12.5951C26.1902 9.67511 29.005 7.68667 32.0547 8.04078L85.9076 14.2022C88.4728 14.4964 90.5386 16.3759 90.9987 18.8328L91.9044 31.3028C92.5212 34.5987 90.0833 37.6985 86.6419 37.9926Z" fill="black"/>
<path d="M50.4312 36.3169L88.0816 36.2786C91.0047 36.2786 92.3842 39.2017 92.3021 41.884L91.2401 54.9616C90.6051 57.1677 88.3772 58.5088 86.1328 58.0435L49.9385 51.2741C48.05 50.8799 46.6431 49.3034 46.4625 47.382L46.0683 41.1122C45.8275 38.5394 47.8474 36.3224 50.4312 36.3169Z" fill="white"/>
<path opacity="0.1" d="M50.4312 36.3169L88.0816 36.2786C91.0047 36.2786 92.3842 39.2017 92.3021 41.884L91.2401 54.9616C90.6051 57.1677 88.3772 58.5088 86.1328 58.0435L49.9385 51.2741C48.05 50.8799 46.6431 49.3034 46.4625 47.382L46.0683 41.1122C45.8275 38.5394 47.8474 36.3224 50.4312 36.3169Z" fill="black"/>
<path d="M23.9863 29.2788C25.367 29.2788 26.4863 28.1595 26.4863 26.7788C26.4863 25.3981 25.367 24.2788 23.9863 24.2788C22.6056 24.2788 21.4863 25.3981 21.4863 26.7788C21.4863 28.1595 22.6056 29.2788 23.9863 29.2788Z" fill="url(#paint2_linear_3169_30618)"/>
<path d="M88.476 15.9521C90.3958 15.9521 91.9521 14.3958 91.9521 12.476C91.9521 10.5563 90.3958 9 88.476 9C86.5563 9 85 10.5563 85 12.476C85 14.3958 86.5563 15.9521 88.476 15.9521Z" fill="#E5E5E5"/>
<path d="M34.8692 55.8424C36.0029 55.8424 36.922 54.9233 36.922 53.7896C36.922 52.6559 36.0029 51.7368 34.8692 51.7368C33.7355 51.7368 32.8164 52.6559 32.8164 53.7896C32.8164 54.9233 33.7355 55.8424 34.8692 55.8424Z" stroke="url(#paint3_linear_3169_30618)" stroke-width="0.273704" stroke-miterlimit="10"/>
<path d="M17.6149 7.22971C18.5067 7.22971 19.2297 6.50672 19.2297 5.61486C19.2297 4.723 18.5067 4 17.6149 4C16.723 4 16 4.723 16 5.61486C16 6.50672 16.723 7.22971 17.6149 7.22971Z" stroke="#0970A8" stroke-width="0.273704" stroke-miterlimit="10"/>
<path d="M54.1934 48.3759C53.542 48.2171 53.0055 48.0091 52.584 47.7464L53.6952 45.6279C54.6149 46.1534 55.5728 46.4216 56.5691 46.4216C56.9359 46.4216 57.2151 46.3779 57.4121 46.2903C57.6092 46.2027 57.7023 46.0768 57.7023 45.9235C57.7023 45.7757 57.6037 45.6607 57.4012 45.5677C57.2041 45.4801 56.8866 45.3816 56.4542 45.2776C55.8849 45.1298 55.4141 44.982 55.0419 44.8342C54.6696 44.6864 54.3412 44.451 54.062 44.1389C53.7828 43.8269 53.6405 43.4164 53.6405 42.9018C53.6405 42.2613 53.8157 41.6975 54.1605 41.2158C54.5054 40.7341 55.0035 40.3564 55.655 40.0936C56.3064 39.8308 57.0727 39.6995 57.9595 39.6995C58.5945 39.6995 59.1857 39.7652 59.7331 39.8911C60.2806 40.017 60.7568 40.1976 61.1509 40.433L60.1163 42.5296C59.7824 42.3161 59.4156 42.1573 59.016 42.0533C58.6164 41.9493 58.2004 41.8946 57.7789 41.8946C57.3793 41.8946 57.0727 41.9493 56.8538 42.0643C56.6348 42.1792 56.5253 42.3106 56.5253 42.4639C56.5253 42.6172 56.6239 42.7376 56.8264 42.8306C57.0235 42.9182 57.3519 43.0168 57.8063 43.1208C58.3591 43.2521 58.8244 43.389 59.2022 43.5368C59.5799 43.6846 59.9083 43.909 60.182 44.2211C60.4557 44.5276 60.5981 44.9382 60.5981 45.4418C60.5981 46.0768 60.4229 46.6297 60.0725 47.1114C59.7222 47.5931 59.2241 47.9599 58.5726 48.2281C57.9212 48.4908 57.1603 48.6222 56.2845 48.6222C55.54 48.6168 54.8448 48.5346 54.1934 48.3759Z" fill="black"/>
<path d="M67.107 46.9362H63.8554L63.0014 48.4251H59.9688L65.4045 39.8965H68.2292L70.2546 48.4251H67.3916L67.107 46.9362ZM66.7074 44.8615L66.2913 42.6828L65.0378 44.8615H66.7074Z" fill="black"/>
<path d="M72.4228 39.8911H75.2967L74.0431 46.1918H77.8914L77.4425 48.4197H70.7148L72.4228 39.8911Z" fill="black"/>
<path d="M82.3306 42.0589L82.1335 43.0606H85.7409L85.3249 45.1298H81.7065L81.4876 46.252H85.7628L85.3249 48.4197H78.2305L79.9384 39.8911H86.8741L86.4361 42.0589H82.3306Z" fill="black"/>
<path d="M44.0973 32C47.3626 32 49.6906 30.0223 49.6906 27.2617C49.6906 25.7372 48.5678 24.5938 46.9815 24.2539L46.9918 24.1817C49.0004 23.78 50.4322 22.2967 50.4322 20.3293C50.4322 18.5061 48.9077 17.1361 46.0956 17.1361H39.5856L36.4233 32H44.0973ZM42.7582 19.5876H44.7565C46.0029 19.5876 46.6519 20.1439 46.6519 21.0194C46.6519 22.1834 45.663 23.0281 44.1694 23.0281H42.0372L42.7582 19.5876ZM40.6981 29.3218L41.5118 25.4693H43.7883C45.1892 25.4693 45.9102 26.0771 45.9102 27.0866C45.9102 28.4256 44.8596 29.3218 43.232 29.3218H40.6981ZM54.9073 32L58.0696 17.1361H54.2893L51.1269 32H54.9073ZM73.2883 23.9963H66.8916L66.3353 26.5921H69.1474L69.1165 26.726C68.7766 28.1784 67.5096 29.2188 65.9233 29.2188C63.9353 29.2188 62.8434 27.8385 62.8434 25.6857C62.8434 22.5851 64.4503 19.9172 67.1388 19.9172C68.7148 19.9172 69.7655 20.8443 69.8582 22.1525H73.5046C73.5046 22.0804 73.5149 21.9568 73.5149 21.8641C73.4943 19.1859 70.9707 16.8785 67.2315 16.8785C62.2047 16.8785 59.0012 20.8958 59.0012 25.8402C59.0012 29.6926 61.5867 32.2575 65.5319 32.2575C69.5286 32.2575 72.2273 29.9502 72.969 25.7475L73.2883 23.9963Z" fill="white"/>
</g>
<defs>
<linearGradient id="paint0_linear_3169_30618" x1="59.3177" y1="59.4185" x2="55.6911" y2="26.6535" gradientUnits="userSpaceOnUse">
<stop stop-color="#FEB808"/>
<stop offset="0.4718" stop-color="#FCA105"/>
<stop offset="1" stop-color="#FA8C03"/>
</linearGradient>
<linearGradient id="paint1_linear_3169_30618" x1="92" y1="15.5" x2="19.8815" y2="35.2732" gradientUnits="userSpaceOnUse">
<stop stop-color="#FFB701"/>
<stop offset="0.4718" stop-color="#FCA105"/>
<stop offset="1" stop-color="#FA6E03"/>
</linearGradient>
<linearGradient id="paint2_linear_3169_30618" x1="25.9268" y1="23.2453" x2="22.7834" y2="28.9707" gradientUnits="userSpaceOnUse">
<stop offset="0.427" stop-color="#0894D8"/>
<stop offset="1" stop-color="#2848F3"/>
</linearGradient>
<linearGradient id="paint3_linear_3169_30618" x1="33.3209" y1="55.3391" x2="36.4175" y2="52.2425" gradientUnits="userSpaceOnUse">
<stop stop-color="#07A4DC"/>
<stop offset="1" stop-color="#173BF7"/>
</linearGradient>
<clipPath id="clip0_3169_30618">
<rect width="123" height="60" fill="white"/>
</clipPath>
</defs>
</svg>
