<svg width="122" height="39" viewBox="0 0 122 39" fill="none" xmlns="http://www.w3.org/2000/svg">
<rect width="122" height="38.662" rx="3.43662" fill="#FF8800"/>
<path d="M35.0759 20.7719V19.1308H28.9545V21.3458H32.1159L32.1058 21.5774C32.0454 23.3796 30.6661 24.5979 28.6826 24.5979C26.2662 24.5979 24.7359 22.6748 24.7359 19.5235C24.7359 16.4325 26.1756 14.6102 28.5719 14.6102C30.213 14.6102 31.4514 15.5163 31.8944 17.0366H34.9451C34.5121 14.0967 31.9548 12.0931 28.5618 12.0931C24.2929 12.0931 21.6349 14.9122 21.6349 19.5638C21.6349 24.2858 24.2929 27.1149 28.6323 27.1149C32.6797 27.1149 35.0759 24.7288 35.0759 20.7719ZM44.3987 23.5709C44.1269 24.3965 43.3013 24.9301 42.224 24.9301C40.7238 24.9301 39.7472 23.873 39.7472 22.3325V22.1513H47.1876V21.2552C47.1876 17.973 45.2042 15.8486 42.0629 15.8486C38.8713 15.8486 36.8576 18.0837 36.8576 21.5271C36.8576 24.9805 38.8511 27.1049 42.1736 27.1049C44.8417 27.1049 46.7748 25.6852 47.097 23.5709H44.3987ZM42.0931 18.0233C43.402 18.0233 44.298 18.9697 44.3584 20.3491H39.7774C39.8781 18.9999 40.8044 18.0233 42.0931 18.0233ZM49.9056 13.5933V16.0802H48.3853V18.2952H49.9056V23.9636C49.9056 26.0678 50.8923 26.9136 53.4295 26.9136C54.0235 26.9136 54.5269 26.8632 54.829 26.7927V24.6281C54.6478 24.6583 54.3759 24.6784 54.1141 24.6784C53.2483 24.6784 52.8455 24.2858 52.8455 23.4602V18.2952H54.8391V16.0802H52.8455V13.5933H49.9056ZM61.3625 26.8733H64.3024V20.6813C64.3024 19.2819 65.138 18.3153 66.457 18.3153C67.7759 18.3153 68.4404 19.1208 68.4404 20.5303V26.8733H71.3803V19.9161C71.3803 17.389 70.0312 15.8788 67.635 15.8788C65.9737 15.8788 64.836 16.6641 64.2621 18.0032H64.2017V16.0802H61.3625V26.8733ZM78.6089 27.1049C81.871 27.1049 83.9551 25.0207 83.9551 21.4667C83.9551 17.9629 81.8408 15.8486 78.6089 15.8486C75.377 15.8486 73.2627 17.973 73.2627 21.4667C73.2627 25.0107 75.3468 27.1049 78.6089 27.1049ZM78.6089 24.8596C77.1591 24.8596 76.2429 23.6414 76.2429 21.4767C76.2429 19.3322 77.1792 18.0938 78.6089 18.0938C80.0386 18.0938 80.9649 19.3322 80.9649 21.4767C80.9649 23.6414 80.0487 24.8596 78.6089 24.8596ZM100.93 16.0802H98.0301L96.389 24.0844H96.3286L94.4056 16.0802H91.5865L89.6735 24.0844H89.6131L87.982 16.0802H85.022L87.8914 26.8733H90.9824L92.9255 19.2416H92.9859L94.9392 26.8733H98.0704L100.93 16.0802Z" fill="white"/>
</svg>
