<svg width="104" height="60" viewBox="0 0 104 60" fill="none" xmlns="http://www.w3.org/2000/svg">
<path d="M11.0078 23.224L103.086 14.6719V41.8326C103.086 47.28 98.9375 51.8313 93.5135 52.335L11.0078 59.9981V23.224Z" fill="#FC9303"/>
<path fill-rule="evenodd" clip-rule="evenodd" d="M30.6463 53.5635L2.53419 56.3211L2.48047 55.7734L30.5925 53.0159L30.6463 53.5635Z" fill="#F63120" stroke="#F63120"/>
<path fill-rule="evenodd" clip-rule="evenodd" d="M85.4752 10.4548C85.9817 10.4548 86.3923 10.0442 86.3923 9.53769C86.3923 9.03118 85.9817 8.62058 85.4752 8.62058C84.9687 8.62058 84.5581 9.03118 84.5581 9.53769C84.5581 10.0442 84.9687 10.4548 85.4752 10.4548ZM85.4752 11.0051C86.2856 11.0051 86.9426 10.3481 86.9426 9.53769C86.9426 8.72728 86.2856 8.07031 85.4752 8.07031C84.6648 8.07031 84.0078 8.72728 84.0078 9.53769C84.0078 10.3481 84.6648 11.0051 85.4752 11.0051Z" fill="#F63120"/>
<path fill-rule="evenodd" clip-rule="evenodd" d="M67.4674 8.38449C67.9739 8.38449 68.3845 7.97388 68.3845 7.46738C68.3845 6.96087 67.9739 6.55027 67.4674 6.55027C66.9609 6.55027 66.5503 6.96087 66.5503 7.46738C66.5503 7.97388 66.9609 8.38449 67.4674 8.38449ZM67.4674 8.93475C68.2778 8.93475 68.9348 8.27779 68.9348 7.46738C68.9348 6.65697 68.2778 6 67.4674 6C66.657 6 66 6.65697 66 7.46738C66 8.27779 66.657 8.93475 67.4674 8.93475Z" fill="#FC9303"/>
<path fill-rule="evenodd" clip-rule="evenodd" d="M3.11619 39.9164C3.74837 39.7404 4.40353 40.1102 4.57952 40.7424C4.75552 41.3745 4.38571 42.0297 3.75353 42.2057C3.12136 42.3817 2.4662 42.0119 2.29021 41.3797C2.11421 40.7475 2.48402 40.0924 3.11619 39.9164ZM2.92499 39.2296C3.93648 38.948 4.98472 39.5397 5.26632 40.5512C5.54791 41.5626 4.95622 42.6109 3.94473 42.8925C2.93325 43.1741 1.885 42.5824 1.60341 41.5709C1.32182 40.5594 1.91351 39.5112 2.92499 39.2296Z" fill="#F63120"/>
<path d="M76 12C76 12.5523 75.5523 13 75 13C74.4477 13 74 12.5523 74 12C74 11.4477 74.4477 11 75 11C75.5523 11 76 11.4477 76 12Z" fill="#FC9303"/>
<path d="M8.06866 32.8493C7.94112 32.3912 7.46636 32.1232 7.00826 32.2507C6.55015 32.3783 6.28217 32.853 6.4097 33.3111C6.53724 33.7693 7.01199 34.0372 7.4701 33.9097C7.92821 33.7822 8.19619 33.3074 8.06866 32.8493Z" fill="#FC9303"/>
<path opacity="0.2" d="M2 7.50266L61.2453 2V19.4759C61.2453 22.9809 58.5763 25.9093 55.0863 26.2335L2 31.1641V7.50266Z" fill="#800C02"/>
<path d="M0 5.50266L59.2453 0V17.4759C59.2453 20.9809 56.5763 23.9093 53.0863 24.2335L0 29.1641V5.50266Z" fill="#F63120"/>
<path fill-rule="evenodd" clip-rule="evenodd" d="M68.6026 1.91707L42.1898 4.6684L42.1328 4.12109L68.5456 1.36976L68.6026 1.91707Z" fill="#FC9303" stroke="#FC9303"/>
<path d="M25.0278 48.4952L26.2421 36.2975L30.5502 35.8208L30.8653 32.686L18.4288 34.0622L18.1137 37.1969L22.4218 36.7202L21.218 48.9168L25.0278 48.4952Z" fill="black"/>
<path d="M38.6192 47.254C43.1869 46.7485 46.409 42.63 45.8151 37.263C45.4062 33.5674 42.6345 31.1209 38.3886 31.5908C33.8106 32.0974 30.6208 36.2228 31.2135 41.5794C31.6236 45.2854 34.4564 47.7146 38.6192 47.254ZM38.6479 34.6935C40.4335 34.4959 41.7374 35.7387 41.9775 37.9084C42.3313 41.1057 40.7372 43.8882 38.3807 44.1489C36.5951 44.3465 35.2993 43.0818 35.0615 40.9329C34.7089 37.7459 36.2914 34.9543 38.6479 34.6935Z" fill="black"/>
<path d="M62.0163 34.9659L62.089 34.9578L63.733 44.2123L67.3041 43.8171L72.716 28.0549L68.7919 28.4892L65.8069 38.9283L65.7342 38.9364L64.1205 29.0061L61.0996 29.3404L57.5851 39.8381L57.5124 39.8462L56.4592 29.8538L52.5871 30.2823L54.9818 45.1806L58.5944 44.7809L62.0163 34.9659Z" fill="black"/>
<path d="M76.652 42.7827L78.1814 27.4501L74.3715 27.8717L72.8422 43.2043L76.652 42.7827Z" fill="black"/>
<path d="M82.9272 42.0883L83.8449 32.7185L83.9176 32.7105L89.3531 41.3772L92.3428 41.0464L93.8722 25.7139L90.2077 26.1194L89.29 35.4891L89.2173 35.4972L83.7818 26.8304L80.792 27.1613L79.2627 42.4938L82.9272 42.0883Z" fill="black"/>
<path d="M10.1864 21.8404L11.0086 13.6168L13.9371 13.2914L14.102 11.5025L6.18432 12.3825L6.01943 14.1714L8.94788 13.8459L8.12565 22.0694L10.1864 21.8404ZM20.9808 13.9977L21.0215 13.9931L22.2457 20.5001L24.1912 20.2838L27.7407 9.98662L25.619 10.2224L23.3701 17.4654L23.3295 17.4699L22.1211 10.6112L20.4332 10.7988L17.8868 18.0817L17.8461 18.0862L16.9624 11.1846L14.9152 11.4121L16.5176 21.1367L18.4767 20.919L20.9808 13.9977ZM34.7342 17.3415L30.3077 17.8335L30.5719 15.3953L34.7409 14.932L34.893 13.2749L30.724 13.7383L30.9718 11.3981L35.3916 10.9068L35.5632 9.11719L29.0759 9.83823L28.082 19.8514L34.5693 19.1304L34.7342 17.3415ZM42.9567 16.4276L38.5301 16.9196L38.7944 14.4815L42.9634 14.0181L43.1155 12.361L38.9465 12.8244L39.1942 10.4842L43.614 9.99294L43.7857 8.20331L37.2983 8.92434L36.3044 18.9375L42.7918 18.2165L42.9567 16.4276ZM48.9874 17.5279L49.8096 9.30433L52.7381 8.97885L52.903 7.18998L44.9853 8.06998L44.8204 9.85886L47.7488 9.53337L46.9266 17.7569L48.9874 17.5279Z" fill="white"/>
</svg>
